<?xml version="1.0" encoding="utf-8"?>
<!-- Generator: Adobe Illustrator 21.0.0, SVG Export Plug-In . SVG Version: 6.00 Build 0)  -->
<svg version="1.1" id="Layer_1" xmlns="http://www.w3.org/2000/svg" xmlns:xlink="http://www.w3.org/1999/xlink" x="0px" y="0px"
	 viewBox="0 0 69.5 69.5" style="enable-background:new 0 0 69.5 69.5;" xml:space="preserve" width="20px" height="20px">
<title>makes</title>
<path d="M34.7,2.1C22.7,2.2,0.1,4.5,0.1,34.7s23.1,32.3,34.5,32.7c11.5-0.3,34.6-2.3,34.6-32.7S46.7,2.2,34.7,2.1 M33.1,4.5
	c0.9,0,2.3,0,3.2,0V28h-3.2V4.5z M4,34.7C4,10.8,19.7,4.5,32.2,4.5L21.9,33.8l-4.5,27.5C16.2,61.1,3.9,55.2,4,34.7 M34.8,65.3
	C29.2,65.2,21,63.4,19,62.1l13.7-30h4l13.6,30.2C48.3,63.6,40.3,65.3,34.8,65.3 M51.9,61.5l-4.1-27.7L37.2,4.5
	c12.5,0,28.2,6.4,28.2,30.2C65.5,55.2,53.1,61.3,51.9,61.5"/>
</svg>
