<?xml version="1.0" encoding="utf-8"?>
<!-- Generator: Adobe Illustrator 21.0.0, SVG Export Plug-In . SVG Version: 6.00 Build 0)  -->
<svg version="1.1" id="Layer_1" xmlns="http://www.w3.org/2000/svg" xmlns:xlink="http://www.w3.org/1999/xlink" x="0px" y="0px"
	 viewBox="0 0 2500 2499" style="enable-background:new 0 0 2500 2499;" xml:space="preserve"  width="20px" height="20px">
<g>
	<path d="M2332.6,625.5c-108.5-190.1-269.2-349.5-458-458C1685.9,57.7,1469,0.2,1250.7,0.2c-216.9,0-435.2,57.6-625.3,167.4
		c-187.5,108.5-348.2,267.8-458,458C58.9,814.3,0,1031.2,0,1249.5s58.9,435.2,167.4,625.3c109.8,187.5,270.5,348.2,458,456.6
		c190.1,108.5,408.4,167.4,625.3,167.4c218.3,0,435.2-58.9,624-167.4c188.8-107.1,349.5-269.2,458-456.6
		c109.8-190.1,166-407.1,167.4-625.3C2500,1031.2,2442.4,814.3,2332.6,625.5z M2185.3,1798.5c-95.1,158-230.3,295.9-392.3,388.3
		c-166,95.1-353.5,146-542.3,146s-379-50.9-542.3-144.6c-163.4-93.8-301.3-233-397.7-396.4C216.9,1628.4,166,1438.3,166,1249.5
		c0-187.5,50.9-377.6,144.6-542.3c96.4-162,234.3-301.3,397.7-396.4c163.4-95.1,353.5-144.6,542.3-144.6
		c190.3,0.2,377.2,50,542.3,144.6c162,95.1,297.3,231.7,392.3,392.3c96.4,164.7,147.3,357.5,147.3,546.3
		C2332.6,1441,2281.7,1632.5,2185.3,1798.5z"/>
	<g>
		<path d="M913.2,1368.7v882.4l45.5,14.7c80.3,16,163.4,34.8,245,38.8h25.4v-936h0H913.2z"/>
		<path d="M336.1,721.9c-45.5,80.3-84.4,164.7-105.8,255.8l-18.7,75h387V419.3c-10.7,6.7-21.4,16.1-33.5,25.4
			C472.7,519.7,392.3,616.1,336.1,721.9z"/>
		<polygon points="598.6,2081.1 598.6,2081.1 598.6,2081.1 		"/>
		<path d="M200.9,1368.7c1.3,14.7,4,28.1,5.4,42.9c20.1,128.5,61.6,257.1,129.9,365.5c62.9,103.1,135.2,200.9,229,278.5l33.5,25.5
			v-712.4H200.9z"/>
		<path d="M958.8,234.5l-45.5,13.4v804.8h316h0V194.3c-8,0-17.4,0-25.4,1.3C1122.1,199.7,1039.1,215.8,958.8,234.5z"/>
		<path d="M2159.9,716.6c-89.7-156.7-223.6-287.9-381.6-380.3C1631,251.9,1464.9,201,1297.5,195.7c-10.7-1.3-24.1-1.3-36.2-1.3
			v2110.3h36.2c171.4-4,333.4-63,480.7-142c158-83,291.9-220.9,381.6-380.3c95.1-160.7,144.6-346.8,144.6-532.9
			S2255,877.2,2159.9,716.6z M1546.6,509c4-1.3,10.7-4,14.7-4H1714h0l154-1.3c12.1,0,25.5-2.7,38.8,0c5.4,1.3,12.1,4,16.1,9.4
			c4,5.4,4,12.1,1.3,18.7c-1.3,5.4-8,12.1-16.1,13.4c-6.7,4-18.7,0-28.1,0l-316,1.3c-5.3,0-13.4,0-18.7-2.7c-4-1.3-8-8-8-13.4
			C1535.9,522.4,1539.9,513,1546.6,509z M1924.2,601.4c-1.3,8-8,10.7-16.1,14.7c-6.7,2.7-18.7,0-28.1,0h-316c-5.3,0-13.4,0-18.7-4
			c-4-1.3-8-6.7-8-10.7c-1.3-8,4-16.1,9.4-20.1c4-4,10.7-4,14.7-4H1714h0l154-2.7c12.1,0,25.5-2.7,38.8,0c5.4,0,12.1,4,16.1,10.7
			C1926.9,590.7,1926.9,596,1924.2,601.4z M1331,1071.4c-2.7-9.4,1.3-18.7,6.7-28.1c4-9.4,12.1-18.7,18.7-26.8
			c10.7-9.2,22.4-17.3,34.8-24.1c10.7-8,20.1-14.7,28.1-25.4c5.3-8,10.7-17.4,9.4-25.4c-2.7-8-6.7-12.1-10.7-17.4
			c-6.7-1.3-16.1-1.3-24.1,2.7c-6.7,4-10.7,10.7-16.1,14.7c-10.7,12.1-28.1,14.7-45.5,13.4c-15.3-1.6-29.3-9.3-38.8-21.4
			c-9.4-10.7-13.4-26.8-14.7-41.5c-2.7-20.1-2.7-38.8,4-56.2c4-16.1,12-33.5,25.4-42.8s29.5-12.1,44.2-9.4c12,0,21.4,6.7,33.5,10.7
			c6.7,4,12.1,8,18.7,6.7c6.7-2.7,13.4-9.4,13.4-14.7c1.3-8-4-13.4-10.7-20.1c-9.4-4-18.7-8-28.1-10.7c-10.7-4-20.1-6.7-29.5-14.7
			c-9.4-9.4-14.7-20.1-14.7-34.8c0-13.4,6.7-25.4,17.4-30.8c10.7-8,24.1-6.7,38.8-4c16,4,33.5,6.7,45.5,16.1
			c17.4,5.4,28.1,17.4,41.5,26.8c6.7,6.7,13.4,13.4,20.1,21.4c-2.7,6.7-4,14.7-5.4,22.8c-1.3,14.7,1.3,32.1,9.4,46.9
			c5.4,14.7,9.4,33.5,24.1,40.2l41.5,25.4h0c-6.7,2.7-10.7,6.7-17.4,10.7c-13.4,6.7-22.7,21.4-30.8,34.8
			c-8.1,13.4-16.1,25.4-16.1,38.8c2.7,12.1,2.7,24.1,9.4,32.1l13.4,10.7l-112.5,71c-13.4,10.7-25.4,21.4-40.2,25.4
			c-9.4,4-20.1,4-28.1,0C1339,1088.8,1332.4,1080.8,1331,1071.4z M2159.9,1123.6c-24.1,35.9-56.2,65.7-93.8,87
			c-30.8,17.4-64.3,28.1-97.8,33.5c-26.8,4-52.2,4-79,4l-221,2.7c-12,0-22.7,0-37.5,1.3c-9.4,0-16,4-20.1,9.4c-4,4-4,9.4-1.3,14.7
			c1.3,6.7,9.4,8,14.7,10.7c9.4,1.3,17.4,2.7,26.8,1.3l192.8-5.3c22.7,0,45.5,0,69.6,4c28.1,1.3,56.2,8,81.7,24.1
			c25.5,13.4,46.9,33.5,65.6,56.2c18.7,25.4,30.8,53.6,38.8,84.3c8,27.4,9.4,56.3,4,84.4c-5.3,29.5-20.1,57.6-41.5,81.7
			c-22.7,24.1-48.2,42.8-80.3,56.2c-21.4,6.7-44.2,14.7-65.6,16c-17.4,1.3-36.1,0-52.2,0l-203.6,1.3c-9.4,0-21.4,0-30.8,2.7
			c-8,2.7-14.7,4-18.7,9.4c-1.3,4-1.3,13.4,0,16c4,8,13.4,9.4,20.1,12.1c10.7,1.3,20.1,1.3,29.5,1.3h137.9c13.4,0,28.1,2.7,40.2,4
			c18.7,2.7,40.2,5.4,56.2,13.4c17.4,6.7,32.2,20.1,42.9,34.8c12.1,16.1,17.4,33.5,18.7,54.9c2.7,16,0,34.8-6.7,52.2
			c-9.4,14.7-22.8,28.1-37.5,36.1c-13.4,9.4-30.8,16.1-46.9,18.7c-13.4,2.7-28.1,2.7-42.8,4l-76.3,1.3c-6.7,0-13.4,0-18.8,2.7
			c-2.7,1.3-8,4-9.4,9.4c-2.9,4.2-2.3,9.9,1.3,13.4c2.7,5.3,8,8,13.4,9.4c13.4,4,24.1,2.7,36.1,2.7s28.1-2.7,40.2,1.3
			c14.7,2.7,28.1,8,34.8,17.4c9.4,10.7,13.4,24.1,14.7,37.5c0,9.4,0,17.4-1.3,29.5c-1.3,8-5.3,17.4-13.4,20.1
			c-5.4,4-13.4,5.3-17.4,2.7c-6.7-4-10.7-9.4-13.4-17.4c-4-5.4-5.4-10.7-10.7-14.7c-8-9.4-21.4-10.7-33.5-13.4
			c-17.4-2.7-33.5,0-49.5,0c-18.7,0-34.8-4-53.5-8c-18.7-6.7-36.2-16.1-49.5-30.8c-10.7-13.4-20.1-28.1-22.8-45.5
			c-1.3-16-1.3-30.8,6.7-44.2c6.7-14.7,18.7-25.4,33.5-32.1c18.7-10.7,40.2-10.7,60.3-10.7l107.1-1.3c6.7,0,17.4,1.3,25.4-1.3
			c2.7-4,6.7-12.1,6.7-17.4c-2.7-5.4-5.4-10.7-10.7-14.7c-9.4-4-17.4-2.7-25.5-2.7c-6.7,0-16,0-22.7,2.7l-186.1,1.3
			c-14.7,0-30.8,0-44.2-1.3c-22.8-5.3-41.5-16-60.3-28.1c-20.1-17.4-40.2-40.2-49.5-64.3c-9.3-24.8-13.4-51.2-12.1-77.7
			c2.7-30.8,12.1-61.6,32.2-87.1c12.1-17.4,30.8-30.8,52.2-40.1c16.6-5.5,33.6-9.5,50.9-12.1h49.5l229-2.7c8.1,0,17.4,0,25.5-4
			c4-1.3,9.4-6.7,9.4-10.7c0-4-4-10.7-9.4-13.4c-5.4-4-10.7-4-18.7-6.7h-24.1l-246.4,2.7c-21.4,0-41.5-2.7-62.9-5.3
			c-17.4-4-37.5-8-53.6-14.7c-18.7-10.7-34.8-24.1-49.5-38.8c-20.1-22.7-37.5-52.2-46.9-84.3c-13.4-41.5-17.4-85.7-10.7-128.5
			c4-30.8,10.7-64.3,28.1-89.7c14.7-24.1,37.5-42.8,60.3-60.3c26.8-17.4,54.9-32.1,83-40.2c21.4-5.4,44.2-6.7,68.3-9.4
			c18.7,0,36.1-1.3,54.9-1.3l195.5-2.7c9.4,0,18.7-1.3,28.1-2.7c8-2.7,17.4-6.7,21.4-13.4c2.7-8,1.3-18.7-2.7-24.1
			c-4-5.4-13.4-9.4-20.1-12.1c-9.4-1.3-18.7-1.3-28.1-1.3c-9.4-1.3-17.4,0-28.1,0l-258.4,1.3c-4-5.4-5.3-13.4-5.3-18.7
			c-1.3-10.7,1.3-24.1,9.4-33.5c6.7-13.4,21.4-20.1,34.8-28.1c17.4-8,36.2-9.4,56.3-12.1c24.1-1.3,45.5,0,68.3,0
			c14.7,0,28.1-1.3,41.5-5.4c8-2.7,14.7-4,17.4-9.4c1.3-4,0-9.4-2.7-14.7c-4-6.7-8-9.4-16.1-10.7c-12.1-2.7-25.5,0-36.2,1.3
			c-21.4,2.7-42.8,1.3-62.9,1.3s-36.2,1.3-53.6-2.7c-14.7-4-28.1-13.4-41.5-25.4c-10.7-10.7-18.7-24.1-24.1-38.8
			c-1.3-8-4-14.7-1.3-22.8l2.7-24.1l0,0h147.3c6.7-9.4,14.7-18.7,22.7-30.8l32.2-29.5h183.5c9.4,0,21.4,0,32.1-2.7
			c13.4,0,26.8,0,37.5-5.4c8-4,13.4-9.4,21.4-12.1c5.4-6.7,10.7-10.7,18.7-13.4c9.4,4,18.8,10.7,28.2,16.1
			c25.4,14.7,50.8,36.2,70.9,60.3c18.7,21.4,34.8,44.2,49.5,67c16.1,33.5,25.5,71,29.5,107.1c5.4,34.6,5.4,69.8,0,104.4
			C2202.7,1039.3,2186.7,1084.8,2159.9,1123.6z"/>
	</g>
</g>
</svg>
