<?xml version="1.0" encoding="utf-8"?>
<!-- Generator: Adobe Illustrator 21.0.0, SVG Export Plug-In . SVG Version: 6.00 Build 0)  -->
<svg version="1.1" id="Layer_1" xmlns="http://www.w3.org/2000/svg" xmlns:xlink="http://www.w3.org/1999/xlink" x="0px" y="0px"
	 viewBox="0 0 2500 2500" style="enable-background:new 0 0 2500 2500;" xml:space="preserve" width="20px" height="20px">
<path d="M1250,0C559.7,0,0,559.7,0,1250s559.7,1250,1250,1250s1250-559.6,1250-1250C2500,559.7,1940.4,0,1250,0z M1250,2475
	C573.5,2475,25,1926.5,25,1250C25,573.5,573.5,25,1250,25S2475,573.5,2475,1250C2475,1926.5,1926.5,2475,1250,2475z"/>
<polygon points="340.7,868.8 371.7,794.1 422,815.1 365,952 136.7,857.1 162.7,794.8 340.7,868.8 "/>
<polygon points="417.2,495.1 447.7,522.9 497.6,468.3 537.8,505 487.9,559.7 559.5,625.1 514,674.9 331.5,508.2 432,398.2 
	472.2,434.8 417.2,495.1 "/>
<polygon points="1975.5,310.6 2023.9,356.1 1971.6,488.4 2102.8,430.5 2151.7,476.5 2020.4,696.6 1972.1,649.5 2045.4,520.5 
	2044.9,520.1 1902,580.9 1882.4,562.5 1936.6,418.1 1936.1,417.6 1813.9,499.6 1764.5,454.1 1975.5,310.6 "/>
<polygon points="2291.4,816.6 2253.2,832.4 2282.4,902.7 2232.1,923.5 2202.9,853.3 2163.6,869.6 2194.3,943.7 2144.1,964.5 
	2087.5,828.1 2315.8,733.4 2372.4,869.8 2322.1,890.6 "/>
<path d="M318.9,1175.9l0.9-72l-248.3,94.8l-0.9,73.7l246,102.8l0.9-71.6l-42.8-18.4l1.1-92.9L318.9,1175.9z M225.6,1266l-78.3-28.8
	v-0.7l79-26.6L225.6,1266z"/>
<path d="M737.8,187.7l-65.3,34.2l26.3,265.3l63.4-33.2l-4.1-46.3l82.3-43.2l34.9,30.3l63.7-33.4L737.8,187.7z M751.8,355.4
	L740,272.8l0.6-0.3h0h0h0l60.9,56.9L751.8,355.4z"/>
<path d="M1208.9,216.6c36.2-9.1,53.8-40.1,51.1-74.1c-4.1-52.6-44.8-72.8-95.9-68.7l-100.5,8l19.6,246.3l67.3-5.3l-7.5-94.7l0.7,0
	l71,89.7l83.7-6.7l0,0L1208.9,216.6z M1146.1,186.4l-6.5,0.5l-4.9-61.5l6.5-0.4c21.9-1.8,47,0.2,49.1,27
	C1192.4,178.8,1168,184.7,1146.1,186.4z"/>
<path d="M1617.2,119.6c-71.1-22.9-152.8,5.9-175.7,77.1c-24.5,76.2,15.5,148.3,94.8,173.8c79.3,25.5,154-9.7,178.5-85.9v0
	C1737.7,213.5,1688.3,142.5,1617.2,119.6z M1647.9,263.5c-0.2,0.7-0.4,1.4-0.7,2c-12.7,38-53.9,58.4-91.8,45.7
	c-0.7-0.2-1.4-0.4-2-0.7c-37.9-12.9-58.1-54.1-45.2-92h0c10.5-32.5,51.5-52,89.9-39.6C1636.4,191.2,1658.3,231,1647.9,263.5z"/>
<path d="M2440.9,1210.8c-2.6-74.7-57.4-141.6-132-139.1c-80,2.8-134.2,65-131.4,148.2c2.9,83.3,61.4,141.6,141.3,138.8
	C2393.5,1356,2443.5,1285.4,2440.9,1210.8z M2316,1288.4c-0.7,0-1.5,0.1-2.2,0.1c-40,0.9-73.1-30.8-74-70.8c0-0.7-0.1-1.4-0.1-2.1
	c-0.7-40,31.2-73,71.3-73.7c34.1-1.2,66.4,30.7,67.7,71C2380.1,1253.2,2350.1,1287.2,2316,1288.4z"/>
<path d="M1250,349.5c-497.3,0-900.5,403.2-900.5,900.5s403.2,900.5,900.5,900.5h0c497.3,0,900.5-403.1,900.5-900.5
	S1747.3,349.5,1250,349.5z M975.5,416.6c85.2-28.1,174.3-42.8,264-43.8v722H975.3L975.5,416.6z M709.1,559.4L709.1,559.4l0.4,535.5
	l-323.2-0.1C424.7,878.1,542.7,689.9,709.1,559.4z M379.7,1360.8L379.7,1360.8L379.7,1360.8C379.7,1360.8,379.7,1360.8,379.7,1360.8
	h329.7l0.1,580.2C527.4,1798.7,408.8,1590.2,379.7,1360.8z M1239.5,2127.2L1239.5,2127.2c-89.8-1-179-15.8-264.3-44l0.1-722.4h264.2
	V2127.2z M1260.5,2127.2L1260.5,2127.2l-1.7,0C1259.4,2127.2,1260,2127.2,1260.5,2127.2l0-1754.3c478.8,4.8,866.7,395.7,866.7,877.2
	C2127.2,1731,1740.4,2121.5,1260.5,2127.2z"/>
<path d="M1507,742.7h319v-33.2h-319V742.7z M1507,681.8h319v-25.4h-319V681.8z M1532.5,642L1532.5,642z M1598.9,642L1598.9,642z
	 M1665.3,642L1665.3,642z M1731.8,642c14.7,0,26.7-11.9,26.7-26.7c0-14.7-11.9-26.7-26.7-26.7c-14.7,0-26.7,11.9-26.7,26.7v0
	C1705.2,630,1717.1,642,1731.8,642z M1798.3,642L1798.3,642z M1615.5,1940.5c-36.4,0-65.9-27.2-65.9-63.6c0-36.3,29.4-68,65.9-68
	l128.4,0c13.9,0,25.1-11.2,25.1-25.1c0.1-13.9-11.1-25.3-25.1-25.5h-206c-66.6,0-120.6-54-120.6-120.7c0-66.6,54-117.9,120.6-117.9
	l252.5-0.2c15.6,0,28.2-8.2,28.2-23.7c0.1-15.7-12.5-28.6-28.2-28.8h-254.7c-100.4,2.2-183.5-77.3-185.7-177.7
	c-2.2-100.4,77.3-183.5,177.7-185.7c2.7-0.1,5.4-0.1,8.1,0l244.8,0.2c19,0,34.4-16.5,34.4-35.6c0-19.1-15.4-33.4-34.4-33.4
	l-275.8,0.1c13.3-57.6,51-66.5,84.2-66.4h128.5c14.7,0,26.6-11.9,26.7-26.6c0,0,0-0.1,0-0.1c0-14.7-11.9-24.4-26.7-24.4h-128.5
	c-55.3,0-81.9-48.7-84.2-75.3h132.9c11.1-35.5,33.2-53.2,57.6-53.2H1837c48.7,0,68.6-31,73.1-44.3
	c33.2,15.5,152.8,110.8,152.8,270.3s-141.7,241.4-230.4,242.1h-296.8c-15.6,0-28.2,12.6-28.2,28.2s12.6,28.2,28.2,28.2l279.1-0.2
	c88.2,0,159.8,74.4,159.8,162.6c0,88.2-71.5,157.6-159.8,157.6l-265.9-0.3c-14.7,0-26.6,11.9-26.6,26.6c0,14.7,11.9,26.6,26.6,26.6
	l201.6,0.2c47.6,0,86.1,38.6,86.1,86.2c0,47.7-38.6,85.6-86.1,85.6l-121.9,0.4c-11.2,0-20.3,9.2-20.3,20.4
	c0,11.2,9.1,20.3,20.3,20.3h93.6c32.7,0.1,69.2,48.3-1.1,74.9c0.6-13.8-1.7-33.8-31-33.8C1660.9,1940.6,1615.5,1940.5,1615.5,1940.5
	L1615.5,1940.5z"/>
<path d="M1527.5,943.2c-52.1,24.4-64.8,97.4-62.1,122.9l-73,50.4c-9.7,10.5-26,11.2-36.5,1.5s-11.2-26-1.5-36.5c0.5-0.5,1-1,1.5-1.5
	l47.1-32.7c23.2-15.5,18.8-41,15.5-62c-3.3-21-25.4-11.1-32.1-3.3c-9.9,9.9-23.6,16.1-38.7,16.1c-30.3,0-54.8-23.5-54.8-53.8
	c0-30.3,24.6-54.8,54.9-54.8c14.5,0,28.5,5.8,38.7,16c6.7,7.8,28.9,17.8,32.1-3.3c3.3-21,7.7-46.5-15.5-62l-47.1-32.7
	c-10.1-10.1-10.1-26.5,0-36.5c10.1-10.1,26.5-10.1,36.5,0l0,0l73,50.4C1461,842.4,1475.4,918.9,1527.5,943.2L1527.5,943.2z"/>
</svg>
