<?xml version="1.0" encoding="utf-8"?>
<!-- Generator: Adobe Illustrator 21.0.0, SVG Export Plug-In . SVG Version: 6.00 Build 0)  -->
<svg version="1.1" id="Layer_1" xmlns="http://www.w3.org/2000/svg" xmlns:xlink="http://www.w3.org/1999/xlink" x="0px" y="0px"
	 viewBox="0 0 619.9 619.9" style="enable-background:new 0 0 619.9 619.9;" xml:space="preserve"  width="20px" height="20px">
<g>
	<path d="M613.5,343.8c0,3.4,0,5.9,0,9c-1.9,0.2-3.4,0.4-5,0.4c-158.3,0-316.6,0.1-474.9-0.3c-31-0.1-61.9-3.1-91.9-11.9
		c-9-2.7-18-6.3-26-11.2c-16.7-10.1-16.6-24.4-0.5-35.6c9.7-6.7,20.8-10.4,32.1-13.5c23.1-6.3,46.7-9.2,70.4-11.2
		c38.4-3.3,76.9-1.7,115.4-1.9c1.3,0,2.6,0.1,3.9,0.9c-9.5,0.4-19.1,0.9-28.6,1.3c-22.6,1-45.3,1.6-67.9,3.3
		c-21.1,1.6-42.1,4.8-62.1,11.9c-5.5,1.9-10.8,4.5-15.8,7.4c-3.1,1.8-6,4.4-8.2,7.2c-5.7,7.1-5.5,15.7,1.7,21.3
		c5.6,4.4,12.3,8,19.1,10.5c15.4,5.7,31.7,7.6,48,9.2c30.2,3,60.5,3,90.9,3c130.5-0.1,261,0,391.5,0
		C607.8,343.8,610.2,343.8,613.5,343.8z"/>
	<path d="M181.4,300.2c0,10.9,0,21.8,0,33.2c-5.1,0-9.7,0-14.7,0c0-15.3,0-30.3,0-45.9c9,0,17.7,0,27,0c3.9,8.3,8,16.8,12.6,26.4
		c4.7-9.4,8.9-17.9,13.1-26.5c9.1,0,17.8,0,27,0c0,15.3,0,30.2,0,45.7c-5.7,0-11.4,0-17.6,0c0-11.4,0-22.4,0-33.4
		c-0.3-0.1-0.6-0.1-0.9-0.2c-5.6,11.3-11.2,22.5-16.8,33.9c-4.1,0-7.9,0-12.3,0c-5.4-11-10.8-22.2-16.3-33.4
		C182.2,300.1,181.8,300.2,181.4,300.2z"/>
	<path d="M325.8,329.1c-10.1,6-20.8,6.4-31.6,3.8c-12.2-3-18.9-11.7-18.4-23.3c0.3-7.6,3.7-13.6,10.2-17.4
		c13.4-7.8,27.3-7.6,41.2-1.4c4.7,2.1,8.4,5.8,9.3,12c-5.6,0.5-10.6,1-15.4,1.4c-6.7-8-13.2-10.2-20.1-7c-5.2,2.4-7.8,8.6-6.9,16.4
		c0.8,6.1,4.8,10.1,11.1,11c6.8,1,11.8-1,14.2-6.3c-4.4-0.3-8.5-0.6-13.1-1c0-3,0-5.5,0-8.4c10.1,0,19.8,0,30,0c0,8.1,0,16,0,24.3
		c-2.6,0.2-4.8,0.3-7.1,0.5C328.2,332.2,327.2,331,325.8,329.1z"/>
	<path d="M139.9,324.4c-7.7,0-14.9,0-22.6,0c-1.6,2.8-3.1,5.7-4.9,8.9c-4.8,0-9.6,0-15.6,0c8.1-15.8,15.7-30.8,23.5-46
		c6.9,0,13.5,0,20.4,0c7.5,15.1,15,30,22.9,45.9c-6.8,0-12.6,0-18.9,0C143.3,330.5,141.7,327.7,139.9,324.4z M135.5,314.6
		c-2.3-4.8-4.3-8.9-6.3-13.1c-0.4,0.1-0.8,0.1-1.2,0.2c-2,4.1-3.9,8.1-6.2,12.9C126.8,314.6,130.7,314.6,135.5,314.6z"/>
	<path d="M572.3,310c-1.2-1.2-2.2-3.3-3.5-3.6c-5-1.1-10.1-1.4-13.1,3.3c-5,0-9.6,0-14.2,0c-0.3-0.4-0.6-0.8-0.9-1.2
		c1.4-1.8,2.4-4.1,4.2-5.3c2.3-1.6,5-2.7,7.7-3.3c9-2.1,18.2-2.2,27.2,0c7.2,1.8,9.2,4.7,9.3,12.1c0,7,0,13.9,0,21.3
		c-4.8,0-9.5,0-14.5,0c-0.7-1-1.4-2.1-2.1-3.3c-0.4,0.1-1,0-1.3,0.3c-6.7,4.5-14.2,4.5-21.7,3.3c-6.6-1.1-10.4-4.7-10.5-9
		c-0.1-4.1,3.2-8.3,9.3-9.8c6.1-1.5,12.4-2,18.7-3c1.5-0.2,2.9-0.3,4.4-0.5C571.6,311,572,310.5,572.3,310z M556.5,323.4
		c2.6,4,6.6,5,11.2,2.9c3.5-1.6,4.5-3.9,3.3-7.8C564.1,317.4,559.4,319,556.5,323.4z"/>
	<path d="M379.3,321.3c3.9,0.2,7.7,0.4,11.6,0.7c0.4,0,0.9,0.4,1.6,0.7c-1.4,4.4-4.6,7-8.4,8.6c-11.1,4.6-22.4,4.6-33.4-0.7
		c-5.6-2.7-9.3-7.1-9.4-13.6c-0.1-6.7,3.3-11.5,9.1-14.4c11.5-5.7,23.1-5.7,34.6,0c6,3,8.4,7.9,8.1,15.6c-11.1,0-22.3,0-33.3,0
		c-1.3,4.1,0.5,5.8,3,7.1C368.4,328,373.5,326.8,379.3,321.3z M376.7,311.5c-2.1-5.1-4.5-6.3-10.6-5.5c-3.2,0.4-6,1.3-6.3,5.5
		C365.4,311.5,370.8,311.5,376.7,311.5z"/>
	<path d="M489.1,321.2c4.4,0.3,8.6,0.6,13.7,0.9c-0.8,1.6-1.2,2.9-2,3.7c-1.6,1.7-3.3,3.3-5.3,4.5c-9.9,6.2-28.8,5.2-38.1-1.8
		c-8.1-6.2-8.5-17.1-0.7-23.7c9.8-8.3,30.8-8.6,40.8-0.5c4.1,3.4,6.1,7.7,5.4,14c-5.7,0-11.3,0-16.9,0c-5.5,0-10.9,0-16.3,0
		c-1.6,3.8,0.2,5.5,2.7,6.9C478.1,328,483.7,326.8,489.1,321.2z M486.7,311.5c-2.1-5.1-4.6-6.2-10.7-5.5c-3.2,0.4-6.1,1.2-6.3,5.5
		C475.4,311.5,480.7,311.5,486.7,311.5z"/>
	<path d="M399,299.3c5,0,9.4,0,14.2,0c0.4,1,0.9,2.2,1.5,3.5c0.4-0.1,1-0.1,1.3-0.4c7.2-5.2,15.1-4.6,23-2.4c4,1.1,6.8,4,7,8.3
		c0.3,8.1,0.1,16.3,0.1,25c-5.3,0-10.3,0-16.3,0c0-3.4,0-6.6,0-9.9c0-3,0.1-6,0-9c-0.1-5.3-1.6-7.1-6.1-7.3c-5.1-0.2-8,2.1-8.3,7.1
		c-0.2,4.1-0.1,8.3-0.1,12.5c0,2,0,3.9,0,6.5c-5.6,0-10.7,0-16.2,0C399,321.9,399,311,399,299.3z"/>
	<path d="M613.3,333.3c-5.5,0-10.5,0-16,0c0-15.4,0-30.3,0-45.7c5.3,0,10.3,0,16,0C613.3,302.7,613.3,317.7,613.3,333.3z"/>
	<path d="M523.1,299.4c0.5,1.2,1,2.2,1.5,3.3c3.9-3.2,7.9-5.2,13.3-3.7c0,3.1,0,6.2,0,9c-0.5,0.4-0.8,0.7-1.1,0.7
		c-10.8,2-11.9,3.4-12,14.5c0,3.1,0,6.3,0,10c-5.6,0-10.6,0-15.8,0c0-11.4,0-22.4,0-33.8C513.8,299.4,518.2,299.4,523.1,299.4z"/>
</g>
</svg>
