<?xml version="1.0" encoding="utf-8"?>
<!-- Generator: Adobe Illustrator 21.0.0, SVG Export Plug-In . SVG Version: 6.00 Build 0)  -->
<svg version="1.1" id="svg3557" xmlns:svg="http://www.w3.org/2000/svg"
	 xmlns="http://www.w3.org/2000/svg" xmlns:xlink="http://www.w3.org/1999/xlink" x="0px" y="0px" viewBox="0 0 1024 1024"
	 style="enable-background:new 0 0 1024 1024;" xml:space="preserve"  width="20px" height="20px">
<g id="layer1" transform="translate(-214.95981,-319.12584)">
	<path id="path2578" d="M1223.9,733.5c-3.5-5.8-9.8-6.2-12.6-6.4H808.2c-11.4,0-20.6,3.5-27.5,10.3c-4.9,4.9-8.2,11.2-10,18.9
		c-0.1,0.3-0.6,1.8-4,1.8h-79.7c-3.4,0-3.9-1.6-4-1.8c-1.7-7.7-5.1-14-10-18.9c-6.8-6.8-16.1-10.3-27.4-10.3H242.6
		c-2.6,0.1-9,0.5-12.5,6.4c-1.7,2.8-2.9,7.6,0.7,14.3c0,0,7.4,12.3,7.4,12.3c3,4.9,6.5,6.7,13.7,7.2c0.1,0,3.5,0.3,5.8,4.4l7.5,13.2
		c1.6,3,5.3,10.1,18.1,11.9c0.2,0,3.9,0.4,6,4.3c0,0,9.3,16.3,9.3,16.3c2.7,5.2,6.5,7.2,13.4,9.3c0,0,168.6,49.5,168.6,49.5
		c5.7,1.7,8.1,8.2,8.1,8.2c4,10.4,9.2,19,35.6,26.9c0,0,137.9,37.6,137.9,37.6c1.7,0.6,17.5,5.4,29.4-6.1c0,0,32.4-30.9,32.4-30.9
		c0,0,1.3-1.3,3.1-1.3c1.8,0,3.2,1.4,3.2,1.4c0.1,0.1,32.3,30.8,32.3,30.8c11.9,11.5,27.7,6.7,29.5,6.1
		c-0.1,0,137.8-37.6,137.9-37.6c26.3-7.9,31.7-16.7,35.5-26.9c0.2-0.4,2.4-6.5,8.1-8.2c0,0,25.5-7.5,168.6-49.5
		c6.9-2.1,10.7-4.1,13.4-9.3l9.2-16.2c2.1-4,5.7-4.4,5.9-4.5c12.9-1.7,16.6-8.8,18.2-11.9c0,0,7.5-13.2,7.5-13.2
		c2.3-4.1,5.7-4.4,5.9-4.4c7.2-0.5,10.7-2.3,13.7-7.2c0,0,7.4-12.3,7.4-12.3c1.6-2.9,2.3-5.6,2.3-8.2
		C1225.5,737.4,1225,735.3,1223.9,733.5 M778.1,758c1.4-6.2,4.1-11.3,8-15.2c5.4-5.4,12.8-8.1,22.1-8.1h185.2
		c-6.4,4.8-9.7,10.8-9.9,11.2c-2.2,4-4.8,8.7-8,14H777.4C777.8,759.1,778.1,758,778.1,758 M527.3,821.8c0,0-0.1-0.1-0.1-0.1v-56
		h399.4l0,56.1c0,0,0,0,0,0L527.3,821.8z M521.4,773.3l-32.8,2.2c-2.3-3.4-4.5-6.7-6.5-9.8h39.3V773.3z M521.4,779.4v8l-21.9,2.9
		c-2.4-3.1-4.6-6.1-6.8-9L521.4,779.4z M521.4,793.2v9.2l-10.2,2.1c-2.6-3-5.1-6-7.5-8.9L521.4,793.2z M521.4,808.4v7.3
		c-2-2.1-3.9-4.1-5.7-6.2C518,809.1,519.9,808.7,521.4,808.4 M595.2,827.6h36.1l-50.4,36.1c-8.7-5.3-17.3-11.1-25.5-17.4
		C574.3,837.4,591.8,829.2,595.2,827.6 M550.2,842.2c-0.5-0.4-12-10-16.8-14.6h48L550.2,842.2z M641.3,827.6h19.4L611,879.4
		c-8.4-3.7-16.6-7.9-24.6-12.5C610.2,849.9,635.1,832.1,641.3,827.6 M668.8,827.6h16.5L647,892.4c-10.3-2.9-20.4-6.4-30.2-10.5
		C637.6,860.1,662.7,833.9,668.8,827.6 M692,827.6h13.9l-20.2,72.8c-11.2-1.5-22.2-3.6-32.9-6.4C667.5,869.2,687.1,836,692,827.6
		 M761.9,827.6l39.2,66.3c-10.7,2.8-21.7,4.9-32.9,6.4L748,827.6H761.9z M768.7,827.6h16.5l52,54.3c-9.8,4.1-19.9,7.6-30.3,10.5
		L768.7,827.6z M793.2,827.6h19.4l54.9,39.3c-8,4.6-16.2,8.8-24.6,12.5C824.8,860.6,803,837.8,793.2,827.6 M822.6,827.6h36.1
		l39.8,18.6c-8.3,6.4-16.8,12.2-25.5,17.4C853.8,849.9,833.5,835.4,822.6,827.6 M872.5,827.6h48c-4.9,4.9-16.5,14.3-16.8,14.6
		C892,836.8,880.6,831.4,872.5,827.6 M932.5,808.4l5.8,1.2c-1.9,2.1-3.8,4.1-5.8,6.2V808.4z M932.5,802.5v-9.2l17.8,2.4
		c-2.4,3-4.9,5.9-7.5,8.9C938.2,803.6,934.6,802.9,932.5,802.5 M932.5,787.4v-8l28.7,1.9c-2.1,2.9-4.4,6-6.8,9L932.5,787.4z
		 M932.5,773.3v-7.7h39.4c-2,3.1-4.2,6.4-6.5,9.8L932.5,773.3z M645.7,734.7c9.3,0,16.8,2.7,22.1,8.1c3.9,3.9,6.6,9,8,15.2
		c0,0,0.3,1.1,0.6,1.8h-198c-3-5-8-14-8-14c-0.2-0.4-3.6-6.4-9.9-11.2H645.7z M252.4,759.8c-5.1-0.4-6.2-1-7.8-3.6
		c0,0-6.7-11.1-7.2-12c-1.1-2.1-1.5-3.6-1.4-4.6c0.1-2.7,2-4.8,6.9-4.9l200.9,0c13.6,0,21.6,14,21.6,14c1.8,3.3,3.9,7.1,6.3,11.2
		H252.4z M279.6,788.3c-5.1-1.8-6.8-4.8-7.8-6.8c-3.1-5.3-7.2-13.3-9.3-15.8h212.7c2,3.3,4.3,6.7,6.7,10.3l-186.6,12.4
		C292.4,788.7,283.9,789.4,279.6,788.3 M314.1,815.2c-6.8,0.9-8.9-1.3-9.3-1.9l-8.9-15.7c-0.6-1.2-1.3-2.1-2.1-3
		c1.2-0.1,192.1-12.8,192.1-12.8c2.2,3.1,4.5,6.2,6.9,9.5L314.1,815.2z M357.4,832.4c-18.5-5.5-33.6-9.9-40-11.8L497,796.5
		c2.5,3.1,5,6.2,7.7,9.4l-122.8,25.2C377.2,832.1,364.2,834.1,357.4,832.4 M418.3,850.2c-13.7-4-28.2-8.3-41.8-12.3
		c3.6-0.5,6.2-1,6.5-1.1c0,0,89-18.3,126.1-25.9c3.6,4.1,7.5,8.2,11.6,12.4l-82.3,25.4C438.1,848.8,426.9,852.5,418.3,850.2
		 M482.5,869.1c-1.8-0.5-21.3-6.2-46.5-13.7c2.4-0.6,4-1.1,4.2-1.1c-0.1,0,69.1-21.3,85.2-26.3c5.9,5.7,12.2,11.4,19,17l-44.5,20.8
		C496.9,867.3,488.3,870.7,482.5,869.1 M518.1,901.4c-17.4-6.6-20-13.1-22.5-19.5c-0.2-0.6-1.5-3.9-4.3-7.2
		c5.9-1.1,10.8-3.6,11.1-3.7c0,0,23.5-11,47-22c8.5,6.7,17.3,12.8,26.3,18.4l-41.6,29.8C534,897.3,525.4,903.7,518.1,901.4
		 M568.1,915.6l-36.9-10.1c3.7-1.6,6.2-3.5,6.4-3.6c0,0,20.6-14.7,43.6-31.2c8.3,4.9,16.8,9.3,25.5,13.2l-24.2,25.2
		C580.4,911.4,573.6,916.9,568.1,915.6 M619.2,929.5l-39.7-10.8c4.1-2.3,7-5.3,7.2-5.5c0,0,11.3-11.8,25.7-26.8
		c10.2,4.4,20.7,8.1,31.5,11.2l-13.1,22.2C629.2,922.7,623.8,930.3,619.2,929.5 M677.5,930.3c0,0.1-1.6,7.2-6.6,10.2
		c-2.2,1.4-4.9,1.7-7.9,1l-34.7-9.5c4.2-3.4,7.1-8.4,7.6-9.3c0,0,5.9-9.9,13.9-23.5c11.2,3,22.7,5.3,34.4,6.9L677.5,930.3z
		 M686.3,937.5c-2.7,2.6-5.6,4-8.5,4.8c3.8-4.3,5.2-9.8,5.4-10.6l6.9-24.7c8.6,1,17.4,1.7,26.3,2
		C709.2,915.6,686.3,937.5,686.3,937.5 M691.6,901.1l20.4-73.5h12v75.5C713,903,702.2,902.4,691.6,901.1 M729.9,903.1v-75.5h12.1
		l20.4,73.5C751.7,902.4,740.9,903,729.9,903.1 M762.6,932.7c0,0-18.7-17.8-25-23.9c8.9-0.3,17.7-1,26.3-2l6.9,24.8
		c0.2,0.9,1.6,6.3,5.4,10.6C770.9,940.7,769.3,939.2,762.6,932.7 M791,941.5c-3.1,0.7-5.7,0.4-8-1c-4.8-2.9-6.4-9.7-6.5-10.1
		l-6.7-24.2c11.7-1.6,23.2-3.9,34.4-6.9l13.9,23.6c0.5,0.9,3.3,5.8,7.5,9.2L791,941.5z M834.7,929.5c-4.6,0.7-10-6.8-11.5-9.6
		L810,897.6c10.8-3.1,21.3-6.8,31.5-11.2l25.7,26.8c0.2,0.2,3.1,3.2,7.2,5.5L834.7,929.5z M892.4,913.8l-6.6,1.8
		c-5.5,1.3-12.3-4.2-14.4-6.4c0,0-10.6-11-24.2-25.2c8.7-3.9,17.2-8.4,25.5-13.2l43.7,31.2c0.2,0.1,2.7,2,6.3,3.6
		C913,908.2,892.4,913.8,892.4,913.8 M958.3,881.9c-2.5,6.4-5.1,12.9-22.6,19.5c-7.2,2.2-15.8-4.2-15.9-4.2c0,0-19.5-14-41.7-29.8
		c9-5.6,17.8-11.7,26.3-18.3l47.1,22c0.3,0.1,5.1,2.6,11,3.7C959.8,878,958.5,881.3,958.3,881.9 M971.5,869.1
		c-5.8,1.6-14.4-1.8-17.3-3.2c0,0-22-10.3-44.6-20.9c6.8-5.5,13.1-11.2,19-17l85.3,26.3c0.2,0.1,1.7,0.6,4.1,1.1L971.5,869.1z
		 M1035.7,850.2c-8.6,2.3-19.9-1.4-20-1.5l-0.1,0c0,0,0,0,0,0l-82.2-25.4c4.1-4.1,7.9-8.3,11.6-12.4l126,25.9
		c0.3,0.1,2.9,0.6,6.5,1.1L1035.7,850.2z M1096.6,832.4c-6.7,1.8-19.9-0.2-24.5-1.2c0,0-84.1-17.3-122.8-25.2
		c2.7-3.2,5.3-6.3,7.7-9.4l179.5,24.1L1096.6,832.4z M1158.1,797.7c0-0.1-7.3,12.9-8.9,15.6c-0.4,0.5-2.5,2.8-9.3,1.9l-178.7-24
		c2.4-3.2,4.8-6.4,6.9-9.5l189.9,12.6c0.3,0,1.1,0.1,2.2,0.2C1159.4,795.4,1158.7,796.5,1158.1,797.7 M1189.8,768l-7.6,13.4
		c-1.1,2-2.7,5.1-7.8,6.8c-4.3,1.1-12.8,0.4-15.7,0l-186.5-12.4c2.4-3.6,4.7-7,6.7-10.3h212.7C1190.8,766.4,1190.3,767.2,1189.8,768
		 M1216.6,744.2c-0.1,0.2-7.2,12-7.2,12c-1.4,2.2-2.2,3.2-7.8,3.6c0,0-219.3,0-219.3,0c2.5-4.1,4.6-7.9,6.3-11.2
		c0.1-0.1,7.8-14,21.6-14l200.9,0c2.1,0.1,4.8,0.3,6.3,2.7c0.2,0.3,0.6,1,0.6,2.2C1218,740.6,1217.7,742.1,1216.6,744.2"/>
	<path id="path2580" d="M551.9,774.8l-17,38h4.8v-0.4c1.4-4.6,3.1-9,4.8-13.3c0,0,0.3-0.5,0.4-0.7h13.3c1.8,4.1,3.6,8.5,5.5,14v0.4
		h6.3l-16.3-38H551.9z M585.2,774.8c-7.5,0-12.2,3.9-12.2,10.3c0,6.6,4.9,8.6,9.2,10.3c3.9,1.5,7.8,2.9,7.8,7.4
		c0,4.2-3.4,7.8-7.4,7.8c-3.6,0-6.1-1.7-8.5-5.5H573l-1.1,5.2h0.4c2,2.2,6.4,3.3,8.9,3.3c8,0,13.7-5.2,13.7-12.6
		c0-6.1-4.7-8.2-9.2-10c-4-1.6-7.8-2.9-7.8-7.4c0-3.4,2.9-5.9,6.6-5.9c3,0,5.2,1.6,6.3,4.4h1.1l1.5-4.8
		C591.1,775.4,587.6,774.8,585.2,774.8z M644.3,774.8c-11.9,0-20.3,7.7-20.3,19.2c0,11.6,8.3,19.6,20.3,19.6
		c12.5,0,20.7-8.3,20.7-20.3C665,780.3,654.6,774.8,644.3,774.8z M786.8,774.8l-17,38h4.4v-0.4c1.4-4.7,3.4-9,5.2-13.3
		c0,0,0.3-0.5,0.4-0.7h12.9c1.8,4.1,3.7,8.7,5.5,14l0.4,0.4h6.3l-16.6-38H786.8z M597,775.5v3.7h0.4c3.2-0.4,6.4-0.4,11.4-0.4v34
		h5.2v-34c3.8,0,7.7,0,11.1,0.4h0.4v-3.7h-0.4H597z M670.9,775.5v37.3h3.7V784c0.2,0.2,23.3,25.5,23.3,25.5l3,3.3h1.8v-37.3h-0.4
		h-3.3c0,0,0,27.1,0,27.7c-0.2-0.2-25.5-27.7-25.5-27.7H670.9z M729.2,775.5v0.4c-0.5,5.5-3.8,27.9-5.2,36.6v0.4h4.4v-0.4
		c0-5.3,0.9-13.1,1.8-21.4c0,0,0.6-3.7,0.7-5.2c0.6,1.2,7.7,14.4,10.3,19.9l3,6.3h1.1c3.1-7.2,7.6-15.4,13.7-26.2
		c0.8,6.4,2,19.2,2.6,26.6v0.4h5.9v-0.4c-1.3-9.1-2.8-20.9-4.4-36.6v-0.4h-0.4h-1.5l-8.9,16.3c0,0-5.8,10.5-6.3,11.4
		c-5.6-9.3-10.5-19.2-14.8-27.7h-0.4H729.2z M808.3,775.5v37.3h5.2c0,0,0-17.5,0-18.1h1.5c0.2,0.2,4.4,5.2,4.4,5.2
		c0,0,6.3,8.1,6.3,8.1l3.3,4.8h0.4h6.6c0,0-14.1-17.7-14.8-18.5c6.8-1.4,11.1-5.1,11.1-10.3c0-5.7-4.3-8.5-12.6-8.5H808.3z
		 M835.2,775.5v3.7h0.4c3.2-0.4,6.4-0.4,11.4-0.4v34h5.2c0,0,0-33.3,0-34c3.8,0,7.7,0,11.1,0.4h0.4v-3.7h-0.4H835.2z M868.1,775.5
		v37.3h5.2v-37.3H868.1z M881,775.5v37.3h3.7V784c0.2,0.2,23.3,25.5,23.3,25.5l3,3.3h1.8v-37.3h-3.7v27.7
		c-0.2-0.2-25.5-27.7-25.5-27.7H881z M644.6,777c4.3,0,8.6,2,11.1,5.2c2.8,3.5,3.3,7,3.3,11.4c0,0.3,0,0.5,0,0.7
		c0,3.6-1.4,9-4.8,12.6c-2.6,2.8-6,4.1-10,4.1c-8.7,0-14.4-6.4-14.4-16.3C629.9,783.8,635.5,777,644.6,777z M813.4,778.1
		c2.2-0.1,5.9-0.3,7.8,0c3.7,0.6,5.5,2.6,5.5,6.3c0,3.8-2.5,6.5-6.6,7.4c-2.3,0.5-5.3,0.4-6.6,0.4V778.1z M551.6,782.9
		c0.5,1.2,5.2,11.7,5.5,12.6h-10.7C546.8,794.6,551,784.2,551.6,782.9z M786.5,782.9c0.5,1.2,4.8,11.7,5.2,12.6h-10.7
		C781.3,794.6,785.9,784.2,786.5,782.9z"/>
</g>
</svg>
