<?xml version="1.0" encoding="utf-8"?>
<!-- Generator: Adobe Illustrator 21.0.0, SVG Export Plug-In . SVG Version: 6.00 Build 0)  -->
<svg version="1.1" id="svg3557" xmlns:svg="http://www.w3.org/2000/svg"
	 xmlns="http://www.w3.org/2000/svg" xmlns:xlink="http://www.w3.org/1999/xlink" x="0px" y="0px" viewBox="0 0 1024 1024"
	 style="enable-background:new 0 0 1024 1024;" xml:space="preserve" width="20px" height="20px">
<g>
	<path d="M442.9,508.6h-20.1c-6.4,4.7-32.3,23.1-56.9,40.8c8.3,4.8,16.8,9.1,25.5,13L442.9,508.6z"/>
	<path d="M412.4,508.6H375c-3.5,1.7-21.7,10.2-41.3,19.4c8.5,6.5,17.4,12.6,26.5,18L412.4,508.6z"/>
	<path d="M328.3,523.8l32.4-15.1h-49.8C315.9,513.4,327.8,523.4,328.3,523.8z"/>
	<path d="M615.1,463.8c0-3.8-1.9-5.9-5.7-6.5c-2-0.3-5.8-0.1-8.1,0h0.1v14.6c1.3,0,4.5,0.1,6.8-0.4
		C612.5,470.6,615.1,467.8,615.1,463.8z"/>
	<path d="M718.7,444.4H304.5v58.1l0.1,0.1h414.2V444.4z M342.3,493.3v-0.4c-2-5.7-3.8-10.3-5.7-14.5h-13.8c-0.1,0.2-0.4,0.7-0.4,0.7
		c-1.8,4.5-3.5,9-5,13.8v0.4h-5l17.6-39.4h1.9l16.9,39.4H342.3z M360.5,494.1c-2.6,0-7.2-1.1-9.2-3.4h-0.4l1.1-5.4h1.1
		c2.5,3.9,5.1,5.7,8.8,5.7c4.1,0,7.7-3.7,7.7-8.1c0-4.7-4-6.1-8.1-7.7c-4.5-1.8-9.5-3.8-9.5-10.7c0-6.6,4.9-10.7,12.7-10.7
		c2.5,0,6.1,0.6,8.5,2.6l-1.6,5h-1.1c-1.1-2.9-3.4-4.6-6.5-4.6c-3.8,0-6.8,2.6-6.8,6.1c0,4.7,3.9,6,8.1,7.7c4.7,1.9,9.5,4,9.5,10.4
		C374.7,488.7,368.8,494.1,360.5,494.1z M394.5,493.3h-5.4V458c-5.2,0-8.5,0-11.8,0.4h-0.4v-3.8H406h0.4v3.8H406
		c-3.5-0.4-7.6-0.4-11.5-0.4V493.3z M425.9,494.1c-12.4,0-21.1-8.3-21.1-20.3c0-11.9,8.7-19.9,21.1-19.9c10.7,0,21.5,5.7,21.5,19.2
		C447.4,485.5,438.9,494.1,425.9,494.1z M486.5,493.3h-1.9l-3.1-3.4c0,0-24-26.2-24.2-26.5v29.9h-3.8v-38.7h2.7
		c0,0,26.2,28.5,26.5,28.7c0-0.6,0-28.7,0-28.7h3.4h0.4V493.3z M553.7,493.4h-6.1V493c-0.6-7.7-1.9-21-2.7-27.6
		c-6.3,11.2-11,19.7-14.2,27.2h-1.1l-3.1-6.5c-2.7-5.7-10.1-19.4-10.7-20.6c-0.1,1.6-0.7,5.4-0.7,5.4c-0.9,8.6-1.9,16.7-1.9,22.2
		v0.4h-4.6V493c1.5-9,4.9-32.3,5.4-38v-0.4v0h1.7h0.4c4.5,8.8,9.5,19.1,15.4,28.7c0.5-0.9,6.5-11.8,6.5-11.8l9.2-16.9h1.6h0.4v0.4
		c1.7,16.3,3.2,28.5,4.6,38V493.4z M586,493.3l-0.4-0.4c-1.9-5.5-3.8-10.3-5.7-14.5h-13.4c-0.1,0.2-0.4,0.7-0.4,0.7
		c-1.9,4.5-3.9,8.9-5.4,13.8v0.4h-4.6l17.6-39.4h1.6l17.2,39.4H586z M617.9,493.3h-0.4l-3.4-5l-6.5-8.4c0,0-4.4-5.2-4.6-5.4h-1.6
		c0,0.6,0,18.8,0,18.8H596v-38.7h11.8c8.6,0,13.1,2.9,13.1,8.8c0,5.4-4.5,9.2-11.5,10.7c0.7,0.8,15.4,19.2,15.4,19.2H617.9z
		 M653.5,458.4h-0.4c-3.5-0.4-7.6-0.4-11.5-0.4c0,0.7,0,35.3,0,35.3h-5.4V458c-5.2,0-8.5,0-11.8,0.4h-0.4v-3.8h29.1h0.4V458.4z
		 M663.5,493.3h-5.4v-38.7h5.4V493.3z M704.4,493.3h-1.9l-3.1-3.4c0,0-24-26.2-24.2-26.5v29.9h-3.8v-38.7h2.7
		c0,0,26.2,28.5,26.5,28.7v-28.7h3.8V493.3z"/>
	<path d="M567.7,475.3h11.1c-0.4-0.9-4.9-11.8-5.4-13.1C572.8,463.6,568,474.4,567.7,475.3z"/>
	<path d="M298.4,473l-18.4,2.5c2.5,3,5.1,6.1,7.8,9.2l10.6-2.2V473z"/>
	<path d="M426.2,456.1c-9.4,0-15.2,7.1-15.4,18.4c0,10.3,5.9,16.9,14.9,16.9c4.1,0,7.7-1.3,10.4-4.3c3.5-3.7,5-9.3,5-13.1
		c0-0.2,0-0.4,0-0.7c0-4.6-0.5-8.2-3.4-11.8C435.2,458.2,430.7,456.1,426.2,456.1z"/>
	<path d="M245.5,423.8c0,0,5.2,9.3,8.3,14.5h205.4c-0.3-0.7-0.6-1.9-0.6-1.9c-1.5-6.4-4.3-11.7-8.3-15.8c-5.5-5.6-13.3-8.4-22.9-8.4
		v-0.1H235.3C241.8,417.1,245.3,423.4,245.5,423.8z"/>
	<path d="M298.4,488.7c-1.6,0.3-3.5,0.7-5.9,1.1c1.9,2.2,3.8,4.3,5.9,6.4V488.7z"/>
	<path d="M298.4,458.6l-29.8,2c2.3,3,4.6,6.1,7.1,9.3l22.7-3V458.6z"/>
	<path d="M489.8,508.6h-14.4c-5.1,8.7-25.4,43.2-40.7,68.9c11.1,2.9,22.5,5.1,34.1,6.6L489.8,508.6z"/>
	<path d="M468.5,508.6h-17.1c-6.3,6.5-32.4,33.7-53.9,56.3c10.2,4.3,20.6,7.9,31.3,10.9L468.5,508.6z"/>
	<path d="M724.9,496.4c2.1-2.2,4-4.3,6-6.4l-6-1.2V496.4z"/>
	<path d="M324.4,475.3h11.1c-0.3-0.9-5.2-11.8-5.7-13.1C329.1,463.6,324.8,474.4,324.4,475.3z"/>
	<path d="M754.6,460.6l-29.8-2v8.3l22.7,3C750.1,466.8,752.5,463.6,754.6,460.6z"/>
	<path d="M743.3,475.5l-18.5-2.5v9.5c2.2,0.4,5.9,1.1,10.7,2.2C738.2,481.7,740.8,478.7,743.3,475.5z"/>
	<path d="M777.8,423.9c0.2-0.4,3.6-6.6,10.3-11.6H595.9c-9.6,0-17.3,2.8-22.9,8.4c-4,4-6.8,9.3-8.3,15.8c0,0-0.3,1.1-0.7,2h205.5
		C772.8,432.9,775.5,428,777.8,423.9z"/>
	<path d="M765.7,444.3h-40.9v8l34.1,2.2C761.4,451,763.7,447.5,765.7,444.3z"/>
	<path d="M626,565l-53.9-56.3H555l39.6,67.2C605.4,572.8,615.8,569.2,626,565z"/>
	<path d="M712.4,508.6h-49.8c8.4,3.9,20.2,9.5,32.4,15.1C695.3,523.5,707.3,513.7,712.4,508.6z"/>
	<path d="M689.6,527.9l-41.3-19.3h-37.4c11.3,8.1,32.4,23.1,52.3,37.3C672.2,540.6,681,534.6,689.6,527.9z"/>
	<path d="M533.5,508.6l21,75.4c11.6-1.6,23-3.7,34.1-6.6l-40.7-68.8H533.5z"/>
	<path d="M657.4,549.4l-56.9-40.8h-20.1c10.2,10.6,32.8,34.2,51.6,53.7C640.6,558.5,649.1,554.2,657.4,549.4z"/>
	<path d="M720.8,509c-6.1,6-12.7,11.9-19.7,17.6c23.4,11,46.3,21.7,46.3,21.7c3,1.5,11.9,5,17.9,3.3l48.2-14.2c-2.5-0.5-4-1-4.3-1.1
		L720.8,509z"/>
	<path d="M606.2,607.5L591.8,583c-11.6,3.1-23.5,5.5-35.7,7.2l6.9,25.1c0.1,0.4,1.8,7.5,6.7,10.5c2.4,1.5,5.1,1.8,8.3,1L614,617
		C609.6,613.5,606.7,608.4,606.2,607.5z"/>
	<path d="M657.1,597.4l-26.7-27.8c-10.6,4.6-21.5,8.4-32.7,11.6l13.7,23.1c1.6,2.9,7.2,10.7,11.9,10l41.2-11.2
		C660.3,600.7,657.3,597.6,657.1,597.4z"/>
	<path d="M550,590.8c-8.9,1-18,1.8-27.3,2.1c6.5,6.3,25.9,24.8,25.9,24.8c6.9,6.7,8.6,8.3,14.1,9.9c-3.9-4.5-5.4-10.1-5.6-11
		L550,590.8z"/>
	<path d="M475,584.9c11,1.3,22.2,2,33.6,2.1v-78.3h-12.4L475,584.9z"/>
	<path d="M466.3,616.6c-0.2,0.8-1.7,6.5-5.6,11c3-0.8,6-2.3,8.8-5c0,0,23.8-22.7,31.2-29.6c-9.2-0.3-18.4-1-27.3-2.1L466.3,616.6z"
		/>
	<path d="M662.8,553.4c-8.6,5-17.4,9.6-26.5,13.7c14.1,14.7,25.1,26.1,25.1,26.1c2.2,2.3,9.2,8,14.9,6.6l6.8-1.9
		c0,0,21.4-5.8,31.4-8.5c-3.7-1.7-6.3-3.6-6.5-3.7L662.8,553.4z"/>
	<path d="M527.3,508.6h-12.6v78.3c11.4-0.1,22.6-0.7,33.7-2.1L527.3,508.6z"/>
	<path d="M431.6,582.9c-8.3,14.1-14.4,24.4-14.4,24.4c-0.5,0.9-3.5,6.1-7.9,9.6l36,9.9c3.1,0.7,5.9,0.4,8.2-1
		c5.2-3.1,6.8-10.5,6.8-10.6l6.9-25.1C455.2,588.4,443.2,586,431.6,582.9z"/>
	<path d="M298.4,444.4h-40.8c2.1,3.2,4.4,6.6,6.7,10.2l34-2.3V444.4z"/>
	<path d="M1020.4,415c-1.6-2.5-4.4-2.7-6.5-2.8H805.5c-14.3,0-22.3,14.4-22.4,14.5c-1.8,3.4-3.9,7.4-6.5,11.6H1004
		c5.8-0.4,6.6-1.5,8.1-3.7c0,0,7.4-12.2,7.5-12.4c1.1-2.2,1.5-3.7,1.5-4.9C1021,416,1020.6,415.3,1020.4,415z"/>
	<path d="M761.8,461c-2.2,3.2-4.7,6.5-7.2,9.9L940,495.8c7.1,0.9,9.2-1.5,9.6-2c1.7-2.8,9.2-16.3,9.2-16.2c0.6-1.2,1.3-2.4,2.2-3.3
		c-1.1-0.1-2-0.2-2.3-0.2L761.8,461z"/>
	<path d="M695.7,530.9c-8.8,6.8-17.9,13.2-27.3,19c23,16.4,43.3,30.9,43.3,30.9c0.1,0,9,6.6,16.5,4.4c18.2-6.8,20.8-13.6,23.4-20.2
		c0.2-0.6,1.6-4,4.4-7.4c-6.1-1.1-11.1-3.7-11.4-3.8L695.7,530.9z"/>
	<path d="M742.3,486.2c40.1,8.2,127.4,26.1,127.4,26.1c4.8,1,18.5,3.1,25.4,1.2l41.4-12.1l-186.2-25
		C747.8,479.7,745.1,482.9,742.3,486.2z"/>
	<path d="M737.8,491.3c-3.8,4.3-7.8,8.6-12,12.9l85.3,26.3h0.1c0.1,0.1,11.8,3.9,20.7,1.6l43.4-12.8c-3.7-0.5-6.4-1-6.7-1.1
		L737.8,491.3z"/>
	<path d="M766,454.9l193.4,12.9c3,0.4,11.8,1.1,16.3,0c5.3-1.8,6.9-5,8.1-7.1l7.9-13.9c0.5-0.8,1-1.7,1.9-2.6H773
		C770.9,447.6,768.5,451.2,766,454.9z"/>
	<path d="M354.8,549.9c-9.3-5.8-18.5-12.1-27.3-19.1c-24.4,11.4-48.8,22.8-48.8,22.8c-0.3,0.1-5.4,2.7-11.5,3.8
		c2.9,3.4,4.3,6.8,4.5,7.5c2.6,6.6,5.3,13.4,23.3,20.2c7.6,2.4,16.5-4.3,16.6-4.4L354.8,549.9z"/>
	<path d="M361.8,593.2l25.1-26.1c-9-4-17.8-8.6-26.5-13.7c-23.9,17.1-45.2,32.4-45.2,32.4c-0.2,0.1-2.8,2.1-6.6,3.7l38.3,10.5
		C352.6,601.3,359.6,595.6,361.8,593.2z"/>
	<path d="M297.7,504.2c-4.3-4.4-8.3-8.6-12-12.9c-38.5,7.9-130.8,26.9-130.8,26.9c-0.3,0.1-3,0.6-6.7,1.1
		c14.1,4.1,29.1,8.6,43.4,12.8c8.9,2.4,20.5-1.5,20.8-1.6L297.7,504.2z"/>
	<path d="M425.5,581.2c-11.2-3.2-22.1-7.1-32.7-11.6c-14.9,15.6-26.7,27.8-26.7,27.8c-0.2,0.2-3.2,3.3-7.5,5.7l41.2,11.2
		c4.8,0.8,10.4-7.1,12-10.1L425.5,581.2z"/>
	<path d="M322.3,526.7c-7.1-5.8-13.6-11.7-19.7-17.6c-16.7,5.2-88.5,27.3-88.4,27.3c-0.2,0-1.9,0.5-4.4,1.1
		c26.1,7.8,46.4,13.7,48.2,14.2c6,1.7,14.9-1.9,18-3.4L322.3,526.7z"/>
	<path d="M281.1,486.1c-2.8-3.3-5.4-6.5-8-9.8l-186.3,25c6.6,2,22.3,6.5,41.5,12.2c7.1,1.8,20.5-0.3,25.4-1.3L281.1,486.1z"/>
	<path d="M257.5,455.1c-2.5-3.7-4.9-7.3-6.9-10.7H29.9c2.2,2.6,6.4,10.9,9.6,16.4c1,2.1,2.8,5.2,8.1,7.1c4.5,1.1,13.3,0.4,16.3,0.1
		L257.5,455.1z"/>
	<path d="M246.9,438.4c-2.5-4.3-4.7-8.2-6.5-11.6c0,0-8.3-14.5-22.4-14.5H9.6c-5.1,0.1-7.1,2.3-7.2,5.1c-0.1,1,0.3,2.6,1.5,4.8
		c0.5,0.9,7.5,12.4,7.5,12.4c1.7,2.7,2.8,3.3,8.1,3.7v0.1H246.9z"/>
	<path d="M261.6,461.1c0,0-198,13.2-199.3,13.3c0.8,0.9,1.6,1.9,2.2,3.1l9.2,16.3c0.4,0.6,2.6,2.9,9.6,2L268.8,471
		C266.3,467.6,263.9,464.3,261.6,461.1z"/>
</g>
</svg>
