<?xml version="1.0" encoding="utf-8"?>
<!-- Generator: Adobe Illustrator 21.0.0, SVG Export Plug-In . SVG Version: 6.00 Build 0)  -->
<svg version="1.1" id="Ebene_1" xmlns="http://www.w3.org/2000/svg" xmlns:xlink="http://www.w3.org/1999/xlink" x="0px" y="0px"
	 viewBox="0 0 1170 1170" style="enable-background:new 0 0 1170 1170;" xml:space="preserve"  width="20px" height="20px">
<path d="M1156.8,544.5c-2.6-12.9-6.6-25.6-11.7-37.8c-5-11.9-11.3-23.4-18.5-34.2c-7.2-10.7-15.5-20.7-24.6-29.8
	c-9.1-9.1-19.1-17.4-29.8-24.6c-10.8-7.3-22.2-13.5-34.2-18.5c-12.1-5.1-24.8-9.1-37.8-11.7c-13.3-2.7-26.9-4.1-40.5-4.1
	c0,0,0,0,0,0c-13.6,0-27.3,1.4-40.5,4.1c-12.9,2.6-25.6,6.6-37.8,11.7c-11.9,5-23.4,11.3-34.2,18.5c-4.1,2.7-8,5.7-11.9,8.7
	c-3.9-3-7.8-5.9-11.9-8.7c-10.8-7.3-22.2-13.5-34.2-18.5c-12.1-5.1-24.8-9.1-37.8-11.7c-13.2-2.7-26.9-4.1-40.5-4.1c0,0,0,0,0,0
	c-13.6,0-27.3,1.4-40.5,4.1c-12.9,2.6-25.6,6.6-37.8,11.7c-11.9,5-23.4,11.3-34.2,18.5c-4.3,2.9-8.5,6-12.6,9.2
	c-4.1-3.2-8.3-6.3-12.5-9.2c-10.8-7.3-22.2-13.5-34.2-18.5c-12.1-5.1-24.8-9.1-37.8-11.7c-13.2-2.7-26.9-4.1-40.5-4.1c0,0,0,0,0,0
	c-13.6,0-27.3,1.4-40.5,4.1c-12.9,2.6-25.6,6.6-37.8,11.7c-11.9,5-23.4,11.3-34.2,18.5c-4.3,2.9-8.4,5.9-12.4,9.1
	c-4-3.2-8.2-6.2-12.4-9.1c-10.8-7.3-22.2-13.5-34.2-18.5c-12.1-5.1-24.8-9.1-37.8-11.7c-13.2-2.7-26.9-4.1-40.5-4.1c0,0,0,0,0,0
	c-13.6,0-27.3,1.4-40.5,4.1c-12.9,2.6-25.6,6.6-37.8,11.7c-11.9,5-23.4,11.3-34.2,18.5c-10.7,7.2-20.7,15.5-29.8,24.6
	c-9.1,9.1-17.4,19.1-24.6,29.8C37.2,483.3,31,494.8,26,506.7c-5.1,12.1-9.1,24.8-11.7,37.8c-2.7,13.2-4.1,26.9-4.1,40.5v0
	c0,13.6,1.4,27.3,4.1,40.5c2.6,12.9,6.6,25.6,11.7,37.7c5,11.9,11.3,23.4,18.5,34.2c7.2,10.6,15.5,20.7,24.6,29.8
	c9.1,9.1,19.1,17.4,29.8,24.6c10.8,7.3,22.2,13.5,34.2,18.5c12.1,5.1,24.8,9.1,37.8,11.7c13.2,2.7,26.9,4.1,40.5,4.1h0c0,0,0,0,0,0
	c13.6,0,27.3-1.4,40.5-4.1c12.9-2.6,25.6-6.6,37.8-11.7c11.9-5,23.4-11.3,34.2-18.5c4.2-2.9,8.4-5.9,12.4-9.1
	c4,3.2,8.2,6.2,12.4,9.1c10.8,7.3,22.2,13.5,34.2,18.5c12.1,5.1,24.8,9.1,37.7,11.7c13.2,2.7,26.9,4.1,40.5,4.1c0,0,0,0,0,0
	c13.6,0,27.3-1.4,40.5-4.1c12.9-2.6,25.6-6.6,37.8-11.7c11.9-5,23.4-11.3,34.2-18.5c4.3-2.9,8.5-6,12.6-9.2
	c4.1,3.2,8.3,6.3,12.6,9.2c10.8,7.3,22.2,13.5,34.2,18.5c12.1,5.1,24.8,9.1,37.8,11.7c13.2,2.7,26.9,4.1,40.5,4.1c0,0,0,0,0,0
	c13.6,0,27.3-1.4,40.5-4.1c12.9-2.6,25.6-6.6,37.8-11.7c11.9-5,23.4-11.3,34.2-18.5c4.1-2.7,8-5.7,11.9-8.7c3.9,3,7.8,5.9,11.9,8.7
	c10.8,7.3,22.2,13.5,34.2,18.5c12.1,5.1,24.8,9.1,37.7,11.7c13.2,2.7,26.9,4.1,40.5,4.1c0,0,0,0,0,0c13.6,0,27.3-1.4,40.5-4.1
	c12.9-2.6,25.6-6.6,37.8-11.7c11.9-5,23.4-11.3,34.2-18.5c10.7-7.2,20.7-15.5,29.8-24.6c9.1-9.1,17.4-19.1,24.6-29.8
	c7.3-10.8,13.5-22.2,18.5-34.2c5.1-12.1,9.1-24.8,11.7-37.8c2.7-13.3,4.1-26.9,4.1-40.5C1160.9,571.4,1159.5,557.7,1156.8,544.5z
	 M123.6,455c8.4-5.7,17.3-10.5,26.6-14.5c9.5-4,19.4-7.1,29.4-9.1c10.3-2.1,21-3.2,31.6-3.2h0c10.6,0,21.3,1.1,31.6,3.2
	c10.1,2.1,20,5.1,29.4,9.1c9.3,3.9,18.3,8.8,26.6,14.5c1.8,1.2,3.6,2.5,5.4,3.8c-3.6,4.4-7,9-10.1,13.7
	c-7.3,10.8-13.5,22.2-18.5,34.2c-5.1,12.1-9.1,24.8-11.7,37.8c-2.7,13.2-4.1,26.9-4.1,40.5v0c0,13.6,1.4,27.3,4.1,40.5
	c2.6,12.9,6.6,25.6,11.7,37.7c5,11.9,11.3,23.4,18.5,34.2c3.2,4.7,6.6,9.3,10.2,13.7c-1.8,1.3-3.6,2.6-5.5,3.9
	c-8.4,5.7-17.3,10.5-26.6,14.5c-9.5,4-19.4,7.1-29.4,9.1c-10.3,2.1-21,3.2-31.6,3.2h0c-10.6,0-21.3-1.1-31.6-3.2
	c-10.1-2.1-20-5.1-29.4-9.1c-9.3-3.9-18.2-8.8-26.6-14.5c-8.3-5.6-16.1-12.1-23.2-19.1c-7.1-7.1-13.5-14.9-19.1-23.2
	c-5.7-8.4-10.5-17.3-14.5-26.6c-4-9.5-7.1-19.4-9.1-29.4c-2.1-10.3-3.2-21-3.2-31.6v0c0-10.6,1.1-21.3,3.2-31.6
	c2.1-10.1,5.1-20,9.1-29.4c3.9-9.3,8.8-18.3,14.5-26.6c5.6-8.3,12.1-16.1,19.1-23.2C107.5,467.1,115.3,460.6,123.6,455z M331,672.7
	c-5.7-8.4-10.5-17.3-14.5-26.6c-4-9.5-7.1-19.4-9.1-29.4c-2.1-10.3-3.2-21-3.2-31.6v0c0-10.6,1.1-21.3,3.2-31.6
	c2.1-10.1,5.1-20,9.1-29.4c3.9-9.3,8.8-18.3,14.5-26.6c1.6-2.4,3.4-4.8,5.2-7.2c1.8,2.4,3.5,4.8,5.2,7.2
	c5.7,8.4,10.5,17.3,14.5,26.6c4,9.5,7.1,19.4,9.1,29.4c2.1,10.3,3.2,21,3.2,31.6c0,10.6-1.1,21.3-3.2,31.6
	c-2.1,10.1-5.1,20-9.1,29.4c-3.9,9.3-8.8,18.3-14.5,26.6c-1.6,2.4-3.4,4.8-5.2,7.2C334.4,677.6,332.6,675.2,331,672.7z M378.1,697.5
	c7.3-10.8,13.5-22.2,18.5-34.2c5.1-12.1,9.1-24.8,11.7-37.8c2.7-13.2,4.1-26.9,4.1-40.5c0-13.6-1.4-27.3-4.1-40.5
	c-2.6-12.9-6.6-25.6-11.7-37.8c-5-11.9-11.3-23.4-18.5-34.2c-3.2-4.7-6.6-9.3-10.2-13.7c1.8-1.3,3.6-2.6,5.4-3.8
	c8.4-5.7,17.3-10.5,26.6-14.5c9.5-4,19.4-7.1,29.4-9.1c10.3-2.1,21-3.2,31.6-3.2h0c10.6,0,21.3,1.1,31.6,3.2
	c10.1,2.1,20,5.1,29.4,9.1c9.3,3.9,18.3,8.8,26.6,14.5c1.9,1.3,3.8,2.6,5.6,4c-3.5,4.4-6.9,8.9-10,13.5
	c-7.3,10.8-13.5,22.2-18.5,34.2c-5.1,12.1-9.1,24.8-11.7,37.8c-2.7,13.2-4.1,26.9-4.1,40.5v0c0,13.6,1.4,27.3,4.1,40.5
	c2.6,12.9,6.6,25.6,11.7,37.7c5,11.9,11.3,23.4,18.5,34.2c3.2,4.7,6.5,9.2,10.1,13.6c-1.9,1.4-3.7,2.7-5.7,4
	c-8.4,5.7-17.3,10.5-26.6,14.5c-9.5,4-19.4,7.1-29.4,9.1c-10.3,2.1-21,3.2-31.6,3.2h0c-10.6,0-21.3-1.1-31.6-3.2
	c-10.1-2.1-20-5.1-29.4-9.1c-9.3-3.9-18.2-8.8-26.6-14.5c-1.8-1.2-3.7-2.5-5.4-3.9C371.5,706.8,374.9,702.2,378.1,697.5z M581,672.7
	c-5.7-8.4-10.5-17.3-14.5-26.6c-4-9.5-7.1-19.4-9.1-29.4c-2.1-10.3-3.2-21-3.2-31.6v0c0-10.6,1.1-21.3,3.2-31.6
	c2.1-10.1,5.1-20,9.1-29.4c3.9-9.3,8.8-18.3,14.5-26.6c1.6-2.4,3.3-4.7,5-7c1.7,2.3,3.4,4.6,5,7c5.7,8.4,10.5,17.3,14.5,26.6
	c4,9.5,7.1,19.4,9.1,29.4c2.1,10.3,3.2,21,3.2,31.6c0,10.6-1.1,21.3-3.2,31.6c-2.1,10.1-5.1,20-9.1,29.4
	c-3.9,9.3-8.8,18.3-14.5,26.6c-1.6,2.4-3.3,4.7-5,7C584.3,677.4,582.6,675.1,581,672.7z M627.8,697.5c7.3-10.8,13.5-22.2,18.5-34.2
	c5.1-12.1,9.1-24.8,11.7-37.8c2.7-13.2,4.1-26.9,4.1-40.5c0-13.6-1.4-27.3-4.1-40.5c-2.6-12.9-6.6-25.6-11.7-37.8
	c-5-11.9-11.3-23.4-18.5-34.2c-3.1-4.7-6.5-9.2-10-13.6c1.8-1.4,3.7-2.7,5.6-4c8.4-5.7,17.3-10.5,26.6-14.5c9.5-4,19.4-7.1,29.4-9.1
	c10.3-2.1,21-3.2,31.6-3.2h0c10.6,0,21.3,1.1,31.6,3.2c10.1,2.1,20,5.1,29.4,9.1c9.3,3.9,18.3,8.8,26.6,14.5
	c1.6,1.1,3.2,2.2,4.7,3.3c-3.7,4.6-7.2,9.3-10.5,14.2c-7.3,10.8-13.5,22.2-18.5,34.2c-5.1,12.1-9.1,24.8-11.7,37.8
	c-2.7,13.2-4.1,26.9-4.1,40.5v0c0,13.6,1.4,27.3,4.1,40.5c2.6,12.9,6.6,25.6,11.7,37.7c5,11.9,11.3,23.4,18.5,34.2
	c3.3,4.9,6.8,9.6,10.6,14.2c-1.6,1.2-3.2,2.3-4.8,3.4c-8.4,5.7-17.3,10.5-26.6,14.5c-9.5,4-19.4,7.1-29.4,9.1
	c-10.3,2.1-21,3.2-31.6,3.2h0c-10.6,0-21.3-1.1-31.6-3.2c-10.1-2.1-20-5.1-29.4-9.1c-9.3-3.9-18.2-8.8-26.6-14.5
	c-1.9-1.3-3.8-2.6-5.6-4C621.3,706.7,624.6,702.1,627.8,697.5z M829.7,672.7c-5.7-8.4-10.5-17.3-14.5-26.6c-4-9.5-7.1-19.4-9.1-29.4
	c-2.1-10.3-3.2-21-3.2-31.6v0c0-10.6,1.1-21.3,3.2-31.6c2.1-10.1,5.1-20,9.1-29.4c3.9-9.3,8.8-18.3,14.5-26.6
	c1.8-2.7,3.7-5.3,5.7-7.9c2,2.6,3.9,5.2,5.7,7.9c5.7,8.4,10.5,17.3,14.5,26.6c4,9.5,7.1,19.4,9.1,29.4c2.1,10.3,3.2,21,3.2,31.6
	c0,10.6-1.1,21.3-3.2,31.6c-2.1,10.1-5.1,20-9.1,29.4c-3.9,9.3-8.8,18.3-14.5,26.6c-1.8,2.7-3.7,5.3-5.7,7.9
	C833.4,678,831.5,675.4,829.7,672.7z M877.8,697.5c7.3-10.8,13.5-22.2,18.5-34.2c5.1-12.1,9.1-24.8,11.7-37.8
	c2.7-13.2,4.1-26.9,4.1-40.5c0-13.6-1.4-27.3-4.1-40.5c-2.6-12.9-6.6-25.6-11.7-37.8c-5-11.9-11.3-23.4-18.5-34.2
	c-3.3-4.9-6.8-9.6-10.5-14.2c1.6-1.1,3.2-2.3,4.8-3.4c8.4-5.7,17.3-10.5,26.6-14.5c9.5-4,19.4-7.1,29.4-9.1
	c10.3-2.1,21-3.2,31.6-3.2h0c10.6,0,21.3,1.1,31.6,3.2c10.1,2.1,20,5.1,29.4,9.1c9.3,3.9,18.3,8.8,26.6,14.5
	c8.3,5.6,16.1,12.1,23.2,19.2c7.1,7.1,13.5,14.9,19.1,23.2c5.7,8.4,10.5,17.3,14.5,26.6c4,9.5,7.1,19.4,9.1,29.4
	c2.1,10.3,3.2,21,3.2,31.6c0,10.6-1.1,21.3-3.2,31.6c-2.1,10.1-5.1,20-9.1,29.4c-3.9,9.3-8.8,18.3-14.5,26.6
	c-5.6,8.3-12.1,16.1-19.1,23.2s-14.9,13.5-23.2,19.1c-8.4,5.7-17.3,10.5-26.6,14.5c-9.5,4-19.4,7.1-29.4,9.1
	c-10.3,2.1-21,3.2-31.6,3.2h0c-10.6,0-21.3-1.1-31.6-3.2c-10.1-2.1-20-5.1-29.4-9.1c-9.3-3.9-18.2-8.8-26.6-14.5
	c-1.6-1.1-3.2-2.2-4.8-3.4C871,707.1,874.5,702.4,877.8,697.5z"/>
</svg>
