<?xml version="1.0" encoding="utf-8"?>
<!-- Generator: Adobe Illustrator 21.0.0, SVG Export Plug-In . SVG Version: 6.00 Build 0)  -->
<svg version="1.1" id="Layer_1" xmlns="http://www.w3.org/2000/svg" xmlns:xlink="http://www.w3.org/1999/xlink" x="0px" y="0px"
	 viewBox="0 0 357.7 357.7" style="enable-background:new 0 0 357.7 357.7;" xml:space="preserve"  width="20px" height="20px">
<style type="text/css">
	.st0{fill:#4D4D4D;}
</style>
<g>
	<g>
		<g id="Layer_1_1_">
			<g>
				<g>
					<g>
						<path class="st0" d="M135.2,155.4c0.4-4.7,6.3-10,5.5-14.8c-0.7-3.8-5.4-7-10.1-7.7c-2.7-0.4-11.6-1.1-13.6-1.2
							c-2.4-0.1-8.8-0.2-10.9-0.2c-2,0-7.3-0.1-8.9-0.1c-1.6,0-3.5-0.1-6.1-0.5c-2.6-0.4-4.4-1-6.9-1.7c-2.5-0.8-4.5-1.4-6.5-1.8
							c-2-0.4-4.5-0.8-6.2-1c-1.7-0.2-5.2-0.4-7.7-0.5c-2.6,0-8.9,0-11,0c-2,0-8.4,0.3-10,0.3c-1.7,0-3.4,0-4.2,0
							c-0.8,0-0.6,0.4-1,0.5c-0.4,0.1-2.3,0-3.4,0c-1.1,0-1.9,0-2.3-0.1c-0.4,0-0.9,0-0.9,0s-0.1,0.4,0.3,0.5
							c0.4,0.1,1.3,0.2,1.7,0.2c0.3,0,2.9,0.2,3.8,0.3c0.9,0,2.5,0,3.5,0.1c1,0.1,2.8,0.1,4,0.1c1.2,0,5.9,0,7.6,0
							c1.7,0.1,5,0.1,6.6,0.1c1.6,0.1,5.4,0.2,8.4,0.6c3,0.4,5.4,0.7,8.4,1.4c2.9,0.7,6.3,1.8,7.9,2.3c1.7,0.5,4,1.1,5.1,1.4
							c1.2,0.3,2.3,0.3,2.6,0.6c0.3,0.2,0.3,0.5,0.1,0.9c-0.2,0.4-0.3,0.5-0.5,0.9c-0.1,0.4-0.3,0.6-0.3,0.6h-1.1
							c0,0,0.2-0.2,0.2-0.4c0-0.2-0.6-0.6-1.3-0.7c-0.7-0.1-3.7-0.4-4.5-0.5c-0.8-0.1-3.8-0.4-5.4-0.4c-1.6,0-8,0-9.6,0
							c-1.6,0.1-7.6-0.1-9.1,0c-1.5,0.1-6.8,0-8.2,0c-1.4,0-4.7,0-6.1,0c-1.3,0-5.8,0-7.4,0c-1.6,0-7-0.2-8-0.1c-1,0-4-0.1-5.5-0.1
							c-1.5,0-6.6-0.2-7.9-0.2c-1.4,0-3.1-0.1-3.6-0.3c-0.5-0.2-3.4-1.7-4.6-2.2c-1.2-0.6-3.4-1.7-4-2c-0.6-0.3-1.2-0.7-1.4-0.8
							c-0.2-0.1-1,0.7-1.2,1c-0.2,0.3-0.6,0-0.6,0s2.8-3.1,3.4-3.8c0.6-0.7,1.3-1.6,1.6-1.7c0.3-0.1,1.5-0.1,2.3,0
							c0.7,0.1,5.5,0.5,6.4,0.6c0.9,0.1,4.9,0.2,6,0.3c1.1,0,6.1,0.1,7.8,0.1c1.7,0,7,0.2,8.5,0.1c1.6-0.1,6-0.5,7.3-0.6
							c1.4-0.1,5.6-0.4,7.6-0.4c2-0.1,6.1,0,7.4-0.1c1.3-0.1,6.5-0.1,8.2-0.1c1.8,0,6.8,0.2,8.5,0.3c1.7,0,9,0.4,10.9,0.5
							c1.9,0.1,11.4,0.4,13.5,0.5c2.1,0.1,5.2,0.2,6.9,0.1c1.7-0.1,9.6-0.5,12-0.5c2.4-0.1,8.8-0.2,11.3-0.1
							c2.6,0.1,8.8,0.7,10.9,0.9c2.1,0.3,4.2,0.8,4.7,0.8c0.6,0,1.5,0.1,1.9,0.4c0.3,0.3,0.6,1,1.3,1.4c0.6,0.4,1.5,0.5,1.8,0.9
							c0.3,0.4,0.3,1.3,0.5,1.6c0.2,0.4,0.9,1.5,1,2.3c0.1,0.8,0,2.2-0.5,3c-0.5,0.9-1.4,1.9-2.3,2.9c-0.9,1-2.4,2-3.6,3.1
							c-1.3,1.1-3.4,2.7-4.5,4.2c-1.1,1.5-1.8,2.5-2,4c-0.2,1.5-0.1,2.4-0.2,2.7c-0.1,0.3-0.3,0.9-0.7,1.3c-0.4,0.4-1.9,2.2-2.5,2.9
							c-0.6,0.7-1.5,2.1-1.7,2.5c-0.2,0.4-0.4,0.7-0.4,0.7l-0.4-0.6c0,0,0.8-0.9,0.9-1.2C135.1,158.3,135,157.2,135.2,155.4"/>
						<path class="st0" d="M11.4,137.7l0.2-0.9c0,0,2.6,0,3.4,0c0.8,0,5.5,0.2,7.2,0.2c1.7,0,6.8,0.2,8.1,0.1
							c1.2-0.1,8.2,0.1,9.7,0.1c1.5,0,8.8,0,10.3,0.1c1.5,0,9.8,0.1,11.1,0.1c1.3,0,8.2,0,9.8,0c1.6,0,8.5,0,10,0
							c1.6,0,5.5,0.1,6.4,0c0.9,0,1.6-0.1,1.7-0.2c0.2,0,0.7-0.3,1.1-0.1c0.3,0.2,0.5,0.5,0.6,0.7c0.2,0.2,0.5,0.4,0.6,0.6
							c0.2,0.1,0.5,0.3,0.8,0.6c0.2,0.3,0.2,0.3,0.6,0.6c0.4,0.3,0.4,0.4,0.3,0.6c-0.1,0.2-0.7,0.8-0.9,1.2
							c-0.2,0.4-0.3,0.7-0.4,0.8c-0.1,0.1-0.9,0.2-0.9,0.2s0.5-0.3,0.4-0.6c-0.1-0.3-0.6-1-1.7-1.1c-1.1-0.1-3.8,0.2-5.1,0.3
							c-1.2,0.1-9.3,0.8-10.8,1c-1.4,0.1-12.7,0.9-14.6,1.1c-1.9,0.2-10.8,0.7-12.5,0.8c-1.7,0.1-8.4,0.5-10.4,0.6
							c-2.1,0.1-6.8,0.3-8.6,0.4c-1.8,0.1-5.4,0.2-6.1,0.1c-0.7,0-1.6-0.4-2-0.6c-0.5-0.2-3.3-1.5-4.2-1.9c-0.8-0.4-2.2-0.9-2.5-1.3
							c-0.3-0.3-0.1-0.9-0.1-1.3c0-0.4,0-0.9-0.5-1.3C12,138.2,11.4,137.7,11.4,137.7"/>
						<path class="st0" d="M20.4,148.8V148c0,0,1.2,0,1.8-0.1c0.6-0.1,3.2-0.1,4.8-0.2c1.7-0.1,8.3-0.4,10.3-0.5
							c2.1-0.1,11.5-0.6,13.3-0.8c1.8-0.1,14.1-1,15.9-1.1c1.7-0.2,12-1,13.6-1.1c1.6-0.1,7-0.7,8.9-0.8c1.9-0.2,2.2-0.4,2.5-0.4
							c0.3,0,0.5-0.2,0.8,0.2c0.3,0.4,0.9,1.1,1.3,1.3c0.4,0.3,1.6,1,1.6,1.4c0,0.4-0.3,0.9-0.5,1.2c-0.2,0.4-0.2,1.1-0.2,1.1
							l-1.2,0.2c0,0,0.1-0.3,0.1-0.5c0-0.2-0.2-0.7-0.7-0.9c-0.5-0.2-1.4-0.4-2.2-0.2c-0.8,0.2-4.7,0.8-6.2,1.1
							c-1.6,0.3-10.6,1.8-12.8,2.1c-2.2,0.4-10.9,1.7-12.9,2c-2.1,0.3-10.1,1.3-12.9,1.6c-2.8,0.3-6.2,0.6-8.1,0.7
							c-1.9,0.1-3.8,0.3-5.2,0.1c-1.4-0.2-4.4-1.1-5.7-1.4c-1.3-0.3-3.3-0.9-3.6-1.2c-0.3-0.3-0.5-0.7-0.6-1.1
							c-0.1-0.4-0.7-1.3-1.1-1.4C21.1,149.2,20.4,148.8,20.4,148.8"/>
						<path class="st0" d="M31.7,157.8c0,0,0.5,0.1,1.1,0c0.6-0.1,1-0.3,1.7-0.4c0.7,0,2.6-0.1,3.7-0.2c1.1,0,4.3-0.4,5.4-0.5
							c1.1-0.1,6.5-0.6,8.2-0.9c1.7-0.2,11.2-1.6,12.8-1.8c1.6-0.2,9.5-1.4,11.7-1.8c2.2-0.4,9.4-1.7,11.3-2
							c1.9-0.4,4.1-0.7,4.9-0.9c0.8-0.2,1.4-0.6,1.9-0.4c0.5,0.1,0.9,0.5,1.5,0.8c0.6,0.3,1.5,0.6,2,0.7c0.5,0.2,0.9,0.4,1,0.6
							c0.1,0.2,0,0.9-0.2,1.2c-0.2,0.4-0.3,0.6-0.4,1c-0.1,0.4-0.1,0.7-0.1,0.7l-1.1,0.4c0,0,0.2-0.5,0-0.8
							c-0.2-0.3-0.8-0.7-1.1-0.7c-0.3,0-0.8,0.1-1.4,0.3c-0.5,0.2-7.4,2.2-8.5,2.6l-8.2,2.3c-1,0.3-7.5,1.9-9.3,2.3
							c-1.8,0.4-8.6,1.8-10.3,2.1c-1.7,0.3-8.1,1.1-9.7,1.2c-1.6,0.1-1.9,0.2-3.2,0.1c-1.3-0.1-3.8-0.4-5.3-0.6
							c-1.6-0.2-3.2-0.6-3.8-0.7c-0.6-0.1-1.1-0.2-1.4-0.9c-0.3-0.7-0.2-1.2-0.7-1.7c-0.4-0.5-1-1-1.3-1.1c-0.4-0.2-0.9-0.2-1-0.3
							C31.6,158.2,31.7,157.8,31.7,157.8"/>
						<path class="st0" d="M45.4,167.1c0,0,4.6-0.5,5.7-0.6c1-0.2,8.2-1.2,9.9-1.5c1.7-0.4,9.1-2,10.4-2.3c1.3-0.3,9.4-2.4,11-2.8
							c1.6-0.4,7-2,8.5-2.4c1.5-0.5,5.8-1.8,6.2-2c0.5-0.2,1-0.6,1.5-0.5c0.5,0.1,1.9,0.5,2.4,0.6c0.5,0.2,1.8,0.4,2.1,0.6
							c0.2,0.2,0.3,0.4,0.3,0.8c0,0.4,0,2.2,0,2.4c0,0.2,0.5,0.6,0.5,0.6l-1.2,0.5c-0.3,0.1-0.8,0.3-0.8,0.3s0.1-0.5,0.1-0.7
							c-0.1-0.2-0.8-0.6-1-0.6c-0.2-0.1-0.4,0-1,0.2c-0.5,0.2-1.9,0.8-2.6,1.1c-0.7,0.3-4.8,1.9-6,2.4c-1.2,0.5-6.2,2.4-7.8,2.9
							c-1.6,0.6-8.8,3-10.1,3.4c-1.3,0.4-6,1.7-7.2,2c-1.1,0.3-1.7,0.5-2.6,0.6c-0.9,0-4.5-0.3-6-0.5c-1.5-0.2-5.6-0.8-6.2-1
							c-0.6-0.2-0.9-0.4-1.3-0.8c-0.3-0.4-0.6-0.7-1.2-1c-0.6-0.3-1.2-0.6-1.7-0.8c-0.5-0.2-0.7-0.3-1-0.4c-0.3-0.1-0.6-0.2-0.8-0.3
							C45.4,167.3,45.4,167.1,45.4,167.1"/>
						<path class="st0" d="M64.6,175.1c0,0,1.5-0.4,1.9-0.6c0.4-0.2,2.9-0.9,3.6-1.1c0.8-0.2,3.5-0.9,4.6-1.3
							c1.1-0.4,6.5-2.2,7.6-2.6c1-0.4,7.4-2.8,8.7-3.2c1.3-0.5,8.3-3.4,9.4-3.8c1-0.4,2-0.8,2.4-1.1c0.4-0.2,1.5-0.8,2-0.9
							c0.5-0.1,1.6-0.3,2.1-0.3c0.5,0,0.8,0,1,0.2c0.2,0.2,0.3,0.5,0.3,0.9c0,0.4,0.1,1.3,0.5,1.7c0.4,0.3,1.1,0.6,1.8,0.8
							c0.7,0.2,1.4,0.3,1.7,0.3c0.3,0,0.4,0,0.4,0s-1.4,0.9-1.8,1l-1.9,0.9c0,0-0.1-0.4-0.3-0.5c-0.2-0.1-0.9-0.1-1.4,0
							c-0.6,0-1.1,0.3-1.6,0.6c-0.5,0.3-5.4,2.9-6.4,3.4c-1,0.5-8.5,4.4-9.5,4.9c-1,0.5-5.8,2.8-6.6,3.2c-0.8,0.4-1.3,0.7-2,0.7
							c-0.7,0.1-2.4,0.1-3.9,0.1c-1.5,0-4.5-0.1-5.4-0.1c-0.9,0-2.2-0.1-3-0.4c-0.7-0.3-0.8-0.7-1.2-1.2c-0.4-0.5-1.3-1-1.7-1.1
							c-0.4-0.1-1-0.2-1.2-0.1C64.6,175.7,64.6,175.1,64.6,175.1"/>
						<path class="st0" d="M82,181.3c0,0,5.8-2.9,6.7-3.3c0.9-0.4,9.6-4.8,10.7-5.5c1.1-0.6,7.5-4.1,8.9-4.9c1.4-0.8,3.3-1.8,3.6-2
							c0.3-0.2,0.5-0.5,0.9-0.6c0.4-0.1,0.6-0.2,0.6-0.2s0.5,0.7,0.8,1.1c0.3,0.4,1,1.1,1.8,1.2c0.8,0.1,1.1,0.1,1.6,0.1
							c0.5,0,1.3-0.2,1.3-0.2s-2.1,2-2.5,2.3c-0.4,0.3-5,4.1-5.9,4.9c-0.9,0.8-4.3,3.4-5.1,4.1c-0.8,0.6-3.2,2.4-3.7,2.7
							c-0.5,0.3-1.9,0.8-2.7,1c-0.8,0.2-4.7,1-6.1,1.3c-1.4,0.3-4.4,0.8-5,0.8c-0.6,0-1.4,0-1.9-0.5c-0.5-0.5-0.8-1.3-1.5-1.7
							c-0.7-0.3-1.1-0.5-1.6-0.5C82.1,181.6,82,181.3,82,181.3"/>
						<path class="st0" d="M99,184.7c0,0,3.2-2.3,3.9-2.9c0.7-0.6,3.5-2.8,4.3-3.4c0.8-0.6,4.1-3.3,5.2-4.2c1-0.8,4.1-3.4,4.9-4.2
							c0.8-0.7,2.4-2.2,2.4-2.2s0.1,0.6,0.4,0.8c0.3,0.2,0.7,0.7,1.3,1c0.7,0.3,1.6,0.3,2.2,0.3c0.7,0,1.3-0.1,1.6-0.1
							c0.3,0,0.7,0.1,0.7,0.6c0,0.4,0.1,0.7,0.1,0.9c0,0.2,0.1,0.4,0.1,0.4l-4.7,5.2c-0.9,1-3.6,3.9-4.4,4.7c-0.8,0.9-3,3.2-3.2,3.4
							c-0.3,0.2-1,0-1.5-0.2c-0.6-0.4-1.1-0.1-1.8,0.1c-0.7,0.2-2,0.6-2.8,0.8c-0.7,0.2-2.8,0.6-3.3,0.6c-0.5,0-1.1,0-1.5-0.4
							c-0.3-0.4-1.1-1.1-1.5-1.3c-0.4-0.2-0.8-0.3-1-0.2C99.9,184.6,99.1,185,99,184.7"/>
						<path class="st0" d="M114.4,185.7c0,0,3.1-3.2,3.7-3.9c0.7-0.7,4.4-4.7,5.2-5.6c0.8-0.9,2.1-2.5,2.5-2.9
							c0.3-0.4,0.6-0.7,0.7-0.7c0.2,0,1,0,1.7-0.2c0.7-0.1,1.7-0.4,2-0.3c0.3,0.1,0.3,0.3,0.3,0.5c0,0.2,0.1,2.4,0.1,3.1
							c0,0.7,0,2.3-0.1,2.8c-0.2,0.6-1.8,3.8-2.2,4.7c-0.4,0.9-1.5,2.9-1.6,3.3c-0.2,0.4-0.2,0.5-0.4,0.6c-0.1,0.1-0.4-0.3-0.8-0.8
							c-0.6-0.7-1.1-0.6-1.7-0.4c-0.6,0.2-3.9,1-4.5,1.1c-0.6,0.1-1.6,0.4-2.1,0.3c-0.5-0.1-0.8-0.5-1-0.9c-0.3-0.4-0.6-0.7-0.9-0.7
							C114.7,185.8,114.4,185.7,114.4,185.7"/>
						<path class="st0" d="M129.3,183.4c0,0,0.8-1.8,0.9-2.1c0.2-0.3,0.4-0.9,0.4-0.9s0.2,0.9,0.4,1.4c0.2,0.4,0.6,0.9,0.8,1.4
							c0.1,0.4,0.9,2.3,1,2.6c0.1,0.3,0.4,0.8,0.3,1.1c-0.1,0.3,0,0.5,0.1,0.8c0.1,0.3,0.2,0.5,0,0.6c-0.3,0.1-0.8,0.5-1,0.6
							c-0.2,0.1-0.6,0.1-0.9-0.3c-0.2-0.2-0.8-0.3-1.3-0.7c-0.5-0.4-0.5-0.7-0.4-1.1c0-0.4,0.3-1.9,0.1-2.3
							C129.6,184.1,129.3,183.4,129.3,183.4"/>
						<path class="st0" d="M113.8,189.6c0,0,0.9,1.2,1.6,1.2c0.6,0,0.8-0.2,1.1-0.3c0.3-0.1,0.8-0.1,1,0c0.2,0.1,0.6,0.5,0.5,0.9
							c0,0.4,0.2,1.2,0.5,1.8c0.3,0.7,1.6,3.4,2.4,4.6c0.8,1.3,3,4.4,3.9,5.6c1,1.1,4.1,4.6,4.9,5.3c0.8,0.7,4.9,4.2,6.4,5.2
							c1.5,1,5,3.3,7.1,4.3c2.1,1.1,4.8,2.3,5.5,2.6c0.7,0.3,1.1,0.3,1.3,0.5c0.1,0.2,0.4,0.4,0.4,0.4l-0.8,1.3l-0.7,1.1l-0.6-0.3
							c0,0,0.4-0.4,0.3-0.7c-0.2-0.3-0.3-0.6-0.8-0.9c-0.5-0.3-2.6-1.1-3.5-1.6c-0.9-0.4-4.9-2.6-6.4-3.5c-1.4-0.9-4.9-3.3-6.6-4.7
							c-1.7-1.3-5.3-4.9-6.4-6.2c-1.2-1.3-3.7-4.6-4.5-5.8c-0.8-1.2-2.9-5.1-3.4-6.1c-0.5-1-0.7-1.7-1.1-2.1
							c-0.4-0.4-0.6-0.5-0.7-0.5c-0.2,0-0.6-0.1-0.6-0.1s-0.1-0.3-0.4-1C114,190.2,113.8,189.6,113.8,189.6"/>
						<path class="st0" d="M118.2,190.4c0,0,0.9,0,1.6-0.3c0.7-0.3,2.6-0.8,3.3-1c0.8-0.2,1.7-0.6,2-0.7c0.4-0.1,0.7-0.2,0.9-0.2
							c0.2,0,0.4,0.2,0.6,0.5c0.3,0.4,0.6,1.1,0.9,1.4c0.4,0.3,0.9,0.8,1.6,0.7c0.7-0.1,1.4-0.2,2-0.4c0.6-0.3,1.7-1,1.9-1.1
							c0.2-0.1,0.6-0.4,0.7-0.3c0.1,0.1,0.3,0.4,0.5,0.4c0.2,0,0.4,0.3,0.5,0.5c0.1,0.2,1.7,2.5,2.6,3.6c0.9,1,2.1,2.4,3,3.3
							c0.9,0.8,3.4,3,4.4,3.7c1,0.7,3.9,2.7,5.2,3.3c1.3,0.7,2.9,1.5,4.2,2.1c1.3,0.5,2.6,1.1,3,1.2c0.4,0.2,0.5,0.4,0.7,0.6
							c0.3,0.2,0.4,0.5,0.3,0.7c-0.1,0.3-1.5,2.4-2,3.4c-0.6,1.1-1.7,2.8-2.1,3.5c-0.4,0.8-1.6,2.6-1.9,3.2c-0.3,0.6-1.2,2-1.3,2.2
							c0,0.1-0.3,0.1-0.4,0c-0.1-0.1,0.3-0.5,0.3-1c0-0.5-0.3-1.2-0.6-1.5c-0.3-0.3-1.1-0.7-1.6-0.9c-0.5-0.2-2.7-1.3-3.8-1.9
							c-1.1-0.6-3.4-1.9-4.9-2.9c-1.5-1-3.5-2.3-4.7-3.3c-1.3-1-3.1-2.6-4.2-3.7c-1.1-1.1-3-3.2-4.2-4.7c-1.2-1.5-2.7-3.6-3.5-5
							c-0.8-1.5-1.7-3.3-1.9-3.6c-0.3-0.3-0.7-0.8-1.3-1c-0.6-0.2-0.9-0.3-1.2-0.3c-0.3,0-0.7,0-0.8-0.2
							C118.2,190.5,118.2,190.4,118.2,190.4"/>
						<path class="st0" d="M92.3,134.4c0,0,4.8,0,6.2,0c1.4,0,5.5,0,5.9,0s1,0.2,1.2,0.2l0.4,0.1c0,0,0.2,0.5,0,0.6
							c-0.2,0.2-0.3,0.7-0.5,1c-0.1,0.3,0,0.6-0.2,0.7c-0.2,0.1-1,0.2-1,0.2s0.1-0.4-0.1-0.5c-0.2-0.1-0.8-0.4-1.3-0.3
							c-0.5,0-2.9,0.3-3.7,0.3c-0.8,0.1-2.9,0.4-3.4,0.4c-0.4,0.1-0.9,0-1.2-0.1c-0.3-0.1-1.5-0.6-1.8-0.9c-0.3-0.3-0.5-0.4-0.6-0.4
							l-0.5-0.1l0.2-0.6C92.1,134.7,92.3,134.4,92.3,134.4"/>
						<path class="st0" d="M93.7,141.2c0,0,0.5-0.7,0.6-0.8c0.2-0.1,1.3-0.5,1.8-0.6c0.5-0.1,2.6-0.6,3.6-0.9c1-0.2,2.8-0.6,3.7-0.8
							c0.9-0.2,1.7-0.5,1.9-0.5c0.3,0,0.7,0.1,1,0.3c0.3,0.2,0.8,0.6,1.1,0.8c0.3,0.2,0.6,0.6,0.5,0.8c-0.1,0.2-0.2,0.4-0.4,0.6
							c-0.2,0.2-0.1,0.3-0.2,0.5c-0.1,0.2-0.1,0.6-0.1,0.6s-0.8,0.2-0.9,0.3c-0.1,0-0.3,0.1-0.3,0.1s0.2-0.5,0.1-0.6
							c-0.2-0.1-0.7-0.5-1.3-0.6c-0.6,0-2.2,0.4-2.7,0.6c-0.5,0.2-2.5,0.7-3.3,0.9c-0.8,0.2-1.5,0.6-2.1,0.5
							c-0.6-0.1-1.1-0.3-1.7-0.6c-0.5-0.3-0.7-0.4-0.8-0.5C94.1,141.4,93.7,141.2,93.7,141.2"/>
						<path class="st0" d="M95.8,146.6c0,0,0-0.4,0.3-0.6c0.2-0.2,0.8-0.3,1.1-0.5c0.3-0.2,1.2-0.5,2.2-0.8c1-0.4,2.9-0.9,3.6-1.1
							c0.8-0.2,2.5-0.8,2.9-0.9c0.4-0.2,1-0.5,1.4-0.5c0.4,0,1.2,0.2,1.7,0.4c0.5,0.2,0.9,0.4,1,0.7c0.1,0.3-0.1,0.8-0.3,1
							c-0.2,0.3-0.2,0.5-0.3,0.7c-0.1,0.2-0.1,0.6-0.1,0.6s-0.3,0.2-0.6,0.3l-0.5,0.1c0,0,0-0.4-0.2-0.6c-0.2-0.3-0.9-0.5-1.3-0.4
							c-0.4,0.1-2.1,0.8-2.7,1.1c-0.6,0.3-2.4,1.1-3.1,1.4c-0.6,0.3-1,0.5-1.7,0.4c-0.6-0.1-1.2-0.2-1.7-0.4
							c-0.5-0.2-1.1-0.6-1.4-0.6C96.2,146.6,95.8,146.6,95.8,146.6"/>
						<path class="st0" d="M99.8,151l2.2-1c0.7-0.4,3.5-1.6,4.4-2c0.9-0.4,2.3-1.1,2.6-1.2c0.3-0.1,0.6-0.4,1-0.4
							c0.4,0,1.2,0.2,1.6,0.3c0.5,0.1,1.1,0.2,1.2,0.5c0.2,0.3,0.2,0.9,0.2,1c-0.1,0.2-0.3,0.8-0.2,1c0,0.2,0.1,0.8,0.1,0.8
							l-0.7,0.4c-0.3,0.2-0.8,0.4-0.8,0.4s-0.1-0.4-0.4-0.6c-0.3-0.3-0.8-0.4-1.2-0.3c-0.3,0.1-1.9,1-2.6,1.4
							c-0.6,0.4-2.2,1.4-2.4,1.5c-0.3,0.2-0.5,0.5-1.2,0.4c-0.8-0.1-1.1-0.2-1.5-0.4c-0.4-0.2-1.2-0.7-1.4-0.9c-0.2-0.2-1-0.4-1-0.6
							C99.7,151,99.8,151,99.8,151"/>
						<path class="st0" d="M103.8,156.3c0,0,2.2-1.4,3.1-2c0.9-0.6,3.2-1.9,4.1-2.4c0.9-0.5,1.8-1.1,2.2-1.2c0.5-0.1,1.6,0,2.2,0
							c0.6,0,1,0,1,0.3c0.1,0.3,0,0.6-0.1,0.8c0,0.3,0,1,0,1l-4.4,3.5c-0.7,0.6-2.4,2.1-2.5,2.1c-0.1,0-0.7-0.4-1.4-0.7
							c-0.7-0.3-1.1-0.3-1.4-0.4c-0.3-0.1-0.7-0.3-1.1-0.5c-0.4-0.2-0.6-0.3-0.9-0.3c-0.3,0-0.9,0.2-0.9,0.2L103.8,156.3z"/>
						<path class="st0" d="M109.1,160.1c0,0,1.1-1,1.9-1.7c0.8-0.7,3.1-2.5,3.7-3.1c0.6-0.5,2.2-1.7,2.4-1.9
							c0.2-0.2,0.5-0.2,0.8-0.2c0.3,0,1-0.2,1.3-0.2c0.3,0,0.8,0,0.9,0.4c0.1,0.4,0.3,1.2,0.2,1.5c0,0.3,0,0.7,0.1,0.8
							c0.1,0.2,0.2,0.3,0.2,0.3s-0.3,0.3-0.7,0.7c-0.4,0.4-1.8,1.7-2.3,2.2c-0.6,0.6-1.8,1.7-2.2,2.2c-0.4,0.5-1.1,1.1-1.1,1.1
							s-0.2-0.7-0.6-1c-0.4-0.3-1.3-0.5-1.9-0.5c-0.6,0-1.3-0.6-1.6-0.6c-0.3-0.1-0.6,0.1-0.6,0.1S109.2,160.4,109.1,160.1"/>
						<path class="st0" d="M114.7,163.4l3-3c0.6-0.6,2.5-2.4,3-2.9c0.5-0.5,0.8-0.9,1.3-1.1c0.5-0.2,1.1-0.5,1.4-0.4
							c0.3,0.1,0.5,0.5,0.6,0.9c0.1,0.4,0.5,1,1.2,1.2c0.7,0.2,1.1,0.3,1.5,0.3c0.3,0,0.5-0.1,0.5-0.1s-0.7,0.7-1.1,1.1
							c-0.4,0.4-1.5,1.5-2.2,2.1c-0.7,0.6-2.4,2.3-2.9,2.8c-0.5,0.5-1.2,1-1.2,1s0-0.5-0.4-0.8c-0.5-0.5-1.1-0.4-1.7-0.4
							c-0.6,0-0.9-0.1-1.3-0.4c-0.3-0.3-0.6-0.6-0.8-0.6c-0.2,0-0.6,0.2-0.7,0.2C115.2,163.4,114.7,163.4,114.7,163.4"/>
						<path class="st0" d="M120.7,166.1c0,0,1.7-1.6,2.5-2.4c0.8-0.8,2.4-2.3,3.1-3c0.7-0.7,1.9-1.9,1.9-1.9s0.3,0.4,0.8,0.4
							c0.6,0.1,1.2,0.2,1.6,0.2c0.4,0,1.2,0,1.4-0.2c0.2-0.2,0.5-0.3,0.5-0.3s-0.4,0.5-0.8,1.1c-0.4,0.6-1.7,2.3-2.3,3.3
							c-0.7,1-2.2,3.3-2.5,3.7c-0.3,0.4-0.8,1.4-1,1.6c-0.2,0.3-0.4,0.6-0.4,0.6s0.1-0.5-0.4-1.2c-0.4-0.7-0.6-0.7-1-0.8
							c-0.4-0.1-0.5,0.1-1-0.2c-0.5-0.3-0.8-0.8-1.1-0.9c-0.3-0.1-0.3-0.1-0.6,0C120.9,166.2,120.7,166.1,120.7,166.1"/>
						<path class="st0" d="M133,160.1c0,0,0.2,0.3,0.4,0.6c0.2,0.3,0.5,0.5,0.4,0.7c0,0.2-1,2-1.2,2.5c-0.2,0.5-0.9,2.7-1,3.3
							c-0.2,0.6-0.4,1.6-0.6,2.1c-0.2,0.5-0.4,0.7-0.4,0.9l-0.1,0.6c0,0-0.4,0.3-0.6,0.3l-0.6,0.2v-0.5c0-0.2-0.3-0.6-0.5-0.9
							c-0.2-0.4-0.4-0.8-0.2-1.5c0.2-0.7,0.5-1.5,0.8-2.1c0.3-0.6,0.4-1.2,0.8-2.1c0.4-0.9,0.7-1.7,1.2-2.4c0.5-0.7,0.7-1.1,0.9-1.4
							C132.7,160.2,133,160.1,133,160.1"/>
						<path class="st0" d="M107.2,134.7c0,0,2-0.1,3.4-0.1c1.5,0,3.3,0,4.3,0.2c1,0.1,2.6,0.2,3.2,0.2c0.6,0,1.5-0.1,3-0.1
							c1.5,0.1,4.1,0.1,5.9,0.4c1.8,0.3,3.4,0.6,4.8,1.1c1.4,0.5,4.1,1.6,4.9,2.6c0.8,1,1.4,1.8,1.3,3.1c-0.1,1.3-0.6,2.6-1,3.4
							c-0.4,0.8-1.4,2.5-1.6,2.8c-0.2,0.3-1.7,1.7-2.3,2.4c-0.6,0.7-2.6,2.8-3.4,3.8c-0.8,0.9-1.4,1.7-1.7,2
							c-0.4,0.4-0.6,0.7-0.6,0.7h-0.3c0,0,0.3-0.4,0.2-0.8c-0.1-0.4-0.4-1.1-0.8-1.3c-0.4-0.2-0.5-0.3-0.7-0.2
							c-0.3,0.1-0.5,0.2-0.6,0.2c-0.2,0-0.3,0.1-0.3,0.1s0.9-1,1.3-1.4c0.4-0.4,1.5-1.5,1.9-1.8c0.4-0.4,0.7-0.6,0.9-0.6
							c0.2,0,0.8,0.2,1.2,0c0.4-0.2,1.2-1,1.3-1.6c0-0.6-0.2-1.1-0.6-1.4c-0.4-0.3-0.9-0.5-1.3-0.5c-0.4,0-0.8,0.1-1.2,0.3
							c-0.2,0.1-0.5,0.2-0.5,0.2s0-0.3,0.1-0.7c0.1-0.4-0.2-0.9-0.4-1.2c-0.2-0.4-0.7-0.6-1.2-0.7c-0.6-0.1-0.8,0.1-1-0.1
							c-0.2-0.2-0.1-0.5-0.2-0.9c-0.2-0.4-0.5-1-1-1.2c-0.5-0.2-1-0.3-1.2-0.3c-0.3,0-0.3-0.2-0.3-0.5c0-0.4-0.1-1.3-0.4-1.6
							c-0.3-0.2-0.8-0.7-1.2-0.7c-0.4-0.1-0.6-0.1-0.6-0.3s0.2-0.6,0.2-1c0-0.4-0.1-1-0.6-1.4c-0.5-0.3-1-0.5-1.2-0.8
							c-0.2-0.3-0.6-0.7-0.7-0.7c-0.1,0-0.5,0-0.8,0c-0.3,0-1,0.2-1.6,0.3c-0.5,0.1-0.8,0.2-1.1,0.1c-0.3-0.1-0.9-0.3-1.3-0.3
							c-0.4,0-1.4,0.1-2.1,0.1c-0.7,0.1-1.3,0.2-1.9,0.1c-0.5,0-0.9-0.2-1.4-0.4c-0.4-0.2-0.6-0.3-0.8-0.4c-0.3-0.2-0.4-0.3-0.4-0.3
							s0-0.2,0.1-0.4C107,134.9,107.2,134.7,107.2,134.7"/>
						<path class="st0" d="M108.5,139.4c0,0,1.4-0.6,2.4-0.9c1-0.3,2.9-0.8,3.7-1c0.8-0.2,1.5-0.4,1.8-0.3c0.3,0.1,0.7,0.1,1,0.1
							l0.5,0c0,0,0.2,0.2,0.1,0.3c-0.1,0.1-0.1,0.2-0.4,0.5c-0.3,0.3-0.5,0.6-0.8,0.8c-0.3,0.1-1.1,0.3-2,0.5
							c-0.9,0.2-2.2,0.7-2.7,0.8c-0.5,0.1-0.6,0.3-1.4,0.1c-0.8-0.1-1-0.2-1.3-0.3c-0.3-0.1-0.4,0-0.5,0.1c-0.2,0.1-0.3,0-0.3,0
							v-0.4C108.4,139.6,108.5,139.4,108.5,139.4"/>
						<path class="st0" d="M110.9,143c0,0,1.4-0.7,2.5-1.2c1.2-0.5,3.5-1.3,4-1.5c0.5-0.1,1-0.3,1.3-0.1c0.3,0.2,0.5,0.3,0.4,0.6
							c-0.1,0.2-0.5,0.8-0.7,0.9c-0.3,0.2-1.9,1-2.5,1.3c-0.6,0.3-2,1-2.4,1c-0.4,0-0.8-0.1-1.3-0.2c-0.4-0.1-0.6-0.2-0.8-0.2
							c-0.2,0-0.6,0-0.6,0s0.1-0.1,0.1-0.3C110.9,143.2,110.9,143,110.9,143"/>
						<path class="st0" d="M113.5,146.9c0,0,1.5-0.9,2-1.2c0.5-0.3,2.2-1.1,2.9-1.5c0.7-0.4,1.5-0.7,1.9-0.7c0.4,0,0.8,0.2,0.8,0.4
							c0,0.2,0,0.6-0.2,1c-0.2,0.3-0.3,0.6-0.9,1.1c-0.6,0.6-1.1,0.9-1.5,1.2c-0.4,0.3-1,0.8-1.3,0.9c-0.3,0-0.8-0.2-1-0.3
							c-0.3,0-1-0.4-1.2-0.5c-0.2-0.1-0.5-0.2-0.7-0.2c-0.2,0-0.9,0.2-0.9,0.2L113.5,146.9z"/>
						<path class="st0" d="M117.6,150.2c0,0,0.9-0.8,1.6-1.4c0.6-0.5,1.8-1.3,2.4-1.7c0.6-0.4,1-0.7,1.2-0.7c0.2,0,0.4,0,0.5,0.2
							c0.1,0.1,0.5,0.1,0.6,0.4c0.1,0.3,0,0.6,0.1,0.7c0.1,0.2,0.4,0.1,0.4,0.3c0.1,0.1,0,0.5,0,0.5s-1.3,1-1.7,1.4
							c-0.5,0.4-1.2,1.1-1.4,1.2c-0.2,0.1-0.8-0.3-1.3-0.5c-0.4-0.2-1.3-0.5-1.7-0.5C117.8,150.2,117.6,150.2,117.6,150.2"/>
						<path class="st0" d="M121.2,152.6c0,0,1.1-1,1.6-1.5c0.5-0.5,1.1-1,1.5-1.4c0.4-0.4,1.3-1,1.3-1s0.4,0,0.3,0.3
							c-0.1,0.2,0.2,0.3,0.4,0.3c0.2,0,0.6-0.1,0.7,0c0.1,0,0.3,0.1,0.3,0.4s0,0.5,0.1,0.6c0.1,0,0.4,0,0.4,0.1
							c0,0.1,0.1,0.3,0.1,0.3s-1.4,1.4-2,2c-0.6,0.6-1.6,1.6-1.7,1.7c-0.1,0.1-0.2,0.3-0.2,0.3s-0.2-0.6-0.7-1
							c-0.5-0.5-0.7-0.6-1.2-0.7C121.6,152.6,121.2,152.6,121.2,152.6"/>
						<path class="st0" d="M129.5,156.2c0,0,0.8-1,1.6-1.8l1.8-1.9c0.3-0.3,0.5-0.6,0.5-0.6s-0.5,1.1-0.6,1.7
							c-0.1,0.5-0.2,1.5-0.2,1.9c0,0.4-0.2,0.9-0.3,1.4c-0.1,0.5-0.1,1-0.1,1s-0.4,0.2-0.6,0.3c-0.3,0.1-0.6,0.3-0.6,0.3
							s0-0.8-0.4-1.2c-0.3-0.4-0.4-0.5-0.7-0.7c-0.3-0.2-0.7-0.2-0.7-0.2L129.5,156.2z"/>
						<path class="st0" d="M148.2,126.4c0,0,1.4-0.5,2.4-0.9c0.9-0.4,5.6-2,7-2.4c1.8-0.5,5.9-1.4,8.3-1.8c2.5-0.4,7.4-0.9,12.2-0.9
							c4.1,0,7.9,0.3,9.9,0.6c2,0.2,6,0.9,7.6,1.4c1.6,0.4,4.4,1.1,5.9,1.6c1.5,0.5,3.9,1.3,4.8,1.7c0.9,0.4,1.5,0.5,1.7,0.7
							c0.1,0.1,0.2,0.4,0.7,0.6c0.5,0.2,1.2,0.5,1.2,0.5s-0.3,0.2-0.6,0.4c-0.4,0.2-0.9,0.4-1.3,0.6c-0.4,0.2-0.8,0.4-0.8,0.4
							s0-0.5-0.2-0.7c-0.2-0.2-1.4-0.8-2.6-1.2c-1.1-0.4-2.9-1-4.6-1.5c-1.7-0.5-4.7-1.3-6.7-1.7c-2-0.4-4.2-0.7-6.1-0.9
							c-2-0.2-6.5-0.6-8.8-0.5c-2.3,0-6.8,0.3-9.1,0.6c-2.2,0.3-5.9,0.8-8,1.4c-2.1,0.5-5,1.2-6.1,1.6c-1.1,0.4-2.5,0.9-2.9,1
							c-0.4,0-1.4-0.1-1.7-0.1c-0.3,0-0.6,0-0.8,0c-0.2,0-0.7,0.3-0.9,0.2C148.6,126.6,148.2,126.4,148.2,126.4"/>
						<path class="st0" d="M218.1,155.6c0,0-0.5-0.6-0.8-0.9c-0.3-0.3-0.4-1.7-0.7-2.5c-0.3-0.8-1.5-2.4-2.2-3.1
							c-0.7-0.7-2-2.1-4.7-3.8c-2.5-1.6-5.1-3-7.9-4.1c-2.8-1.1-4.7-1.8-8.1-2.6c-3.3-0.7-7.7-1.5-12.4-1.7
							c-4.7-0.2-8.8,0.2-11.5,0.6c-2.7,0.4-6.6,1.1-10.2,2.3c-3.6,1.2-4.5,1.6-5.6,2.2c-1.1,0.5-3.8,1.9-4.8,2.6
							c-1,0.7-2.6,1.8-3.5,2.4c-1,0.6-1.2,1.1-1.7,1c-0.8-0.2-1.1-1-1.1-1s0.7-0.9,1.4-1.6c0.7-0.7,2.3-2.1,3.3-2.9
							c1-0.8,3-2.5,3.3-2.9c0.3-0.3,1.2-1.4,1.2-1.4s0.3,0.6,0.8,0.5c0.5-0.2,1.3-0.8,1.8-1.5c0.5-0.8,1.3-2.6,1.1-4
							c-0.2-1.5-0.4-2.6-0.8-2.8c-0.4-0.3-1.1-0.8-1.6-0.8c-0.5-0.1-0.7,0-0.9-0.1c-0.3-0.1-0.6-0.4-0.6-0.4s1.2-0.5,1.8-0.7
							c0.5-0.2,2.9-1.1,4.5-1.5c1.6-0.4,3.3-0.9,5.4-1.3c2-0.4,5-0.9,7.4-1.1c2.4-0.2,5.5-0.5,7.3-0.4c1.8,0,6.1,0.3,7.8,0.5
							c1.7,0.2,5.1,0.6,7.1,1.1c2,0.5,5.8,1.4,7.4,2c1.7,0.6,3.6,1.2,3.9,1.4c0.2,0.2,0.4,0.4,0.7,0.6c0.3,0.1,0.6,0.3,0.6,0.3
							s-0.8,0.9-1.4,1.9c-1.6,2.8,0.3,6.3,2.9,8.2c3.4,2.5,9.5,6.3,10.6,12C218.2,153.2,218.1,155.6,218.1,155.6"/>
						<path class="st0" d="M220.4,152.6c-0.2-2-1.4-4-2.3-5.3c-0.9-1.3-1.5-2.7-2.5-4.4c-1-1.7-3.9-3.4-5.7-4.7
							c-1.4-1-3.2-3.2-3.2-4.9c0-0.8-0.4-2.1-1.4-1.5c0.2-0.4,0.6-0.8,1.1-1.2c0.9-0.8,2.6-1.9,4.3-2.4c1.6-0.6,5.5-1.6,7-2
							c1.6-0.4,6-1.1,7.9-1.3c1.8-0.1,5-0.3,6.6-0.3c1.7,0,4.8,0.2,7.2,0.4c2.5,0.3,5.9,0.8,8.2,0.9c2.2,0.1,6.1,0.2,7.8,0.2
							c1.7-0.1,4.8-0.2,6.5-0.2c1.7,0,7.8-0.2,9.9-0.4c2-0.1,7.6-0.5,9.6-0.6c2.1-0.1,8.4-0.2,10.2-0.2c1.8,0,9.6,0.4,11.6,0.5
							c2,0.1,6.9,0.4,8.7,0.5c1.8,0.1,4.4,0.2,5.9,0.3c1.5,0.1,6,0,6.9,0c1,0,4.4,0,6.2-0.1c1.9-0.1,6.8-0.5,8.6-0.6
							c1.8-0.2,6.5-0.6,7.9-0.7c1.5-0.1,3-0.3,3.6-0.2c0.6,0.1,1.4,0.6,1.6,0.8c0.2,0.2,1.1,1.2,1.7,1.9c0.6,0.7,1.3,1.5,1.4,1.7
							c0.1,0.3,0.5,0.8,0.4,1c-0.1,0.2-0.2,0.6-0.4,0.7c-0.2,0.1-1.3,0.6-1.3,0.6s-0.1-0.5-0.4-0.6c-0.4-0.2-1-0.4-1.4-0.2
							c-0.5,0.2-1.9,0.8-2.8,1.2c-0.9,0.4-2.3,1-3,1.1c-0.7,0.1-3.3,0.2-5,0.2c-1.7,0-6.8,0.1-9,0.1c-2.2,0.1-9.6,0.1-11.2,0.2
							c-1.6,0-8.4,0.1-10.5,0.1c-2.2,0-8.2,0.1-10.2,0.1c-2,0-10.7,0.1-12.6,0.1c-1.9,0-7.3,0-8.8,0.1c-1.5,0-3.4,0.1-5.3,0.2
							c-1.9,0.1-4.5,0.4-5.3,0.5c-0.8,0-1.8-0.1-2.1-0.2c-0.4-0.1-0.4-0.2-0.6-0.2c-0.2,0-0.9-0.1-0.9-0.1l-0.1-0.3
							c0,0,0.8-0.2,1.5-0.3c0.7-0.2,1.3-0.5,2.5-0.7c1.2-0.3,4.3-0.8,5.8-1.1c1.5-0.3,8.4-1.5,10.4-1.7c2-0.3,7.2-0.8,9-1
							c1.8-0.1,7-0.5,8.8-0.6c1.8-0.1,5.9-0.3,6.9-0.3c1,0,4.5,0.1,5.9,0.2c1.4,0.1,2.1,0.1,2.1,0.1l0.3-0.9c0,0-1.5-0.1-2.7-0.2
							c-1.2-0.1-4.4-0.1-5.5-0.1c-1.1,0-4.9,0-6.4,0.1c-1.4,0.1-3.5-0.2-5.2-0.2c-2-0.1-6.6,0-8.5,0.1c-1.9,0.1-7.2,0.7-8.9,0.9
							c-1.7,0.2-7.5,1-10.1,1.5c-2.7,0.5-6.8,1.3-8.7,1.7c-1.9,0.4-4.4,0.9-6.6,1.1c-2.2,0.2-6.7,0.3-8.3,0.3
							c-1.6,0-6.5-0.1-8.9-0.1c-2.4,0-6.5,0-8.9,0.3c-2.4,0.3-4.4,0.7-5.6,1.2c-1.2,0.4-2.5,0.9-3.3,1.5c-0.8,0.6-1.2,1.3-1.2,1.5
							c0,0.2,0.1,0.4,0.1,0.4l0.6,0.2c0,0-0.6,0.5-1,0.8c-0.4,0.3-0.7,1-0.9,1.6c-0.1,0.6-0.3,2.1-0.4,2.7c0,0.6-0.1,0.9,0.1,1.4
							c0.2,0.5,1.2,2.2,1.6,3c0.4,0.7,1.4,2.4,1.7,2.9c0.3,0.5,0.8,1.2,1.2,1.8c0.4,0.6,1,2,1.1,2.4c0.1,0.5,0.1,1.1,0.1,1.8v3.3
							c0,0.5-0.1,1-0.2,1.1c-0.1,0.1-0.4,0.4-0.4,0.7c0,0.3-0.2,0.9-0.3,1.2c-0.1,0.3-0.3,1-0.3,1s-0.4-0.8-0.4-0.9
							c0-0.1,0.2-0.8,0.1-1.7C222.2,158.8,220.7,155.7,220.4,152.6"/>
						<path class="st0" d="M219.5,138.9c0,0,0.4-0.6,1.5-1.4c0.9-0.6,2.4-1.3,3.3-1.6c0.9-0.3,4.3-1,5.8-1.2c1.5-0.1,5.6-0.2,7-0.2
							c1.4,0,3.9,0.1,4.8,0c0.9,0,2.1,0,3,0c0.9,0,2.7,0,3.2,0s1.6-0.1,1.9,0c0.3,0.1,0.9,0.2,0.9,0.4c0.1,0.2,0.1,0.4,0,0.7
							c-0.2,0.3-0.1,0.6-0.1,0.7v0.2c0,0-0.2,0.1-0.4,0.2c-0.2,0.1-1,0.6-1,0.6s0-0.2-0.2-0.5c-0.2-0.3-0.6-0.6-1-0.7
							c-0.4-0.1-1.7-0.2-2.2-0.2c-0.6,0-1.9-0.1-2.4-0.1c-0.5,0-0.8-0.1-1-0.1c-0.3,0-0.5,0-0.7,0.2c-0.2,0.2-0.3,0.3-0.4,0.3
							c-0.1,0-0.4,0-0.5,0c-0.1,0-0.3,0.1,0.1,0.5c0.5,0.5,1.2,0.5,1.8,0.6c0.6,0.1,1.5,0.3,2.2,0.4c0.7,0.1,1.6,0.3,2.1,0.4
							c0.6,0.1,1.1,0.1,1.3,0.2c0.2,0,0.6,0.2,0.5,0.4c0,0.2-0.1,0.4-0.2,0.6c-0.1,0.2-0.1,0.5,0,0.7c0,0.2,0,0.3-0.2,0.4
							c-0.2,0.1-0.8,0.3-0.9,0.4c-0.1,0.1-0.4,0-0.4,0s0.1-0.4,0-0.5c-0.1-0.1-0.3-0.3-0.8-0.5c-0.5-0.2-1.8-0.5-2.4-0.6
							c-0.6-0.1-1.7-0.4-2.3-0.5c-0.7-0.1-1.1-0.3-1.3-0.2c-0.2,0.2-0.3,0.3-0.4,0.4c-0.1,0-0.3-0.1-0.5,0c-0.1,0.1-0.3,0.3-0.2,0.4
							c0.1,0.2,0.6,0.4,1,0.6c0.5,0.2,2,0.6,2.6,0.8c0.7,0.2,1.8,0.7,2.4,0.8c0.6,0.1,1.3,0.3,1.4,0.7c0.1,0.3,0.1,0.7-0.1,0.9
							c-0.2,0.2-0.3,0.5-0.3,0.6c-0.1,0.1-0.1,0.5-0.1,0.5s-0.6,0.4-0.7,0.4l-0.6,0.2c0,0,0.2-0.3,0-0.7c-0.2-0.4-0.7-0.7-1.3-1
							c-0.7-0.3-2-0.8-2.5-1c-0.5-0.2-2.2-0.8-2.5-1c-0.4-0.1-0.8-0.3-1.2-0.2c-0.4,0.1-0.5,0.3-0.4,0.5c0.1,0.2,0.4,0.3,0.4,0.5
							c0,0.2,0,0.4-0.1,0.4c-0.1,0-0.1,0.1-0.1,0.1s0.9,0.6,1.5,0.9c0.6,0.3,2,1.1,2.4,1.3c0.4,0.2,1.6,0.8,1.9,1
							c0.3,0.2,0.9,0.5,0.8,0.8c-0.1,0.3-0.2,0.7-0.3,0.9c-0.1,0.2,0.1,0.3-0.2,0.4c-0.3,0.1-1.2,0.4-1.2,0.4s0-0.2-0.1-0.4
							c-0.1-0.1-0.2-0.4-0.7-0.7c-0.5-0.3-2.3-1.4-2.8-1.6c-0.5-0.2-1.6-0.8-1.9-1.1c-0.3-0.2-0.9-0.8-1.1-0.9c-0.2-0.1-0.7-0.4-1,0
							c-0.2,0.2-0.4,0.7-0.2,0.9c0.2,0.2,0.5,0.5,0.5,0.5s-0.3,0.2-0.3,0.4c0.1,0.1,0.9,0.7,1.5,1.1c0.6,0.4,2.2,1.5,2.6,1.8
							c0.4,0.3,1.3,0.8,1.6,1.1c0.3,0.3,0.4,0.5,0.1,0.7c-0.2,0.2-0.3,0.5-0.3,0.5s0,0.3,0,0.4c0,0.1,0,0.3,0,0.3s-0.1,0.1-0.5,0.2
							c-0.3,0.1-0.8,0.1-0.8,0.1s-0.1-0.2-0.1-0.4c0-0.2-0.2-0.4-0.5-0.7c-0.4-0.4-1.7-1.2-2.3-1.7c-0.6-0.4-1.8-1.2-2.1-1.5
							c-0.3-0.3-0.8-1-1.1-1.3c-0.3-0.2-0.7-0.5-1-0.4c-0.3,0.1-0.7,0.4-0.7,0.7c0,0.3-0.1,0.5,0.1,0.7c0.2,0.2,0.5,0.3,0.5,0.4
							c0,0.1-0.3,0.2-0.3,0.4c0.1,0.2,1.1,1,1.6,1.4c0.5,0.4,2.1,1.7,2.5,2.1c0.4,0.4,1.2,1.1,1.3,1.4c0.1,0.3,0.1,0.9-0.1,1.1
							c-0.1,0.2-0.5,0.3-0.8,0.3c-0.3,0.1-0.8,0.1-0.8,0.1s0.2-0.4,0.1-0.5c-0.1-0.2-0.8-0.6-1.3-1c-0.5-0.4-2.1-1.8-2.7-2.3
							c-0.6-0.5-1.2-1.1-1.4-1.6c-0.2-0.4-0.6-1-1.1-1c-0.5,0-1,0.1-1.3,0.5c-0.3,0.4-0.3,0.8-0.1,1c0.2,0.2,0.6,0.4,0.5,0.5
							l-0.5,0.3c0,0,0.5,0.3,1.1,0.8c0.7,0.6,1.9,1.6,2.4,2c0.5,0.4,1.4,1.3,1.6,1.5c0.2,0.2,0.4,0.6,0.4,0.9c0,0.3-0.1,0.8-0.2,0.9
							c-0.1,0.2,0,0.3-0.2,0.4c-0.3,0.1-0.7,0.1-0.9,0.1c-0.2,0-0.3-0.1-0.3-0.1s0.4-0.3,0.4-0.5c0-0.1-0.6-0.7-0.9-1
							c-0.4-0.3-2.1-1.8-2.7-2.4c-0.6-0.6-1.5-1.5-1.8-2.1c-0.2-0.6-0.2-1.3-0.5-1.7c-0.3-0.5-1.1-1-1.4-1.5
							c-0.3-0.5-1.4-2.2-1.9-3.2c-0.5-1-1-1.8-1.2-2.7c-0.1-0.9,0-1.4-0.2-1.7c-0.2-0.3-0.5-0.7-0.7-0.7
							C220.1,139,219.5,138.9,219.5,138.9"/>
						<path class="st0" d="M223.6,151.6c0,0,1.4,1.6,1.8,1.9c0.4,0.3,1.1,0.8,1.3,0.9c0.2,0.1,1.1,1,1.3,1.3
							c0.2,0.3,0.8,0.8,0.8,1.1c0,0.3-0.3,1.2-0.5,1.4c-0.2,0.2-0.5,0.5-0.8,0.5c-0.2,0-0.7-0.1-0.7-0.1s0.6-0.1,0.6-0.4
							c0-0.2-0.1-0.4-0.5-0.8c-0.4-0.4-0.6-0.6-1-1.1c-0.4-0.6-0.8-1.2-0.8-1.2l-0.3,0.1l-0.3,0c0,0-0.1-1-0.2-1.5
							c-0.1-0.5-0.3-1-0.4-1.2C223.7,152.2,223.6,151.6,223.6,151.6"/>
						<path class="st0" d="M223.4,163.2c0,0,0.4-0.8,0.4-1.2c0-0.3,0.2-0.9,0.3-1.1l0.1-0.4c0,0,0.7,0.9,0.9,1.1
							c0.2,0.3,0.9,0.8,1.1,1.2c0.3,0.4,1.4,1.8,1.9,2.5c0.5,0.7,1.9,2.5,2.1,2.9c0.3,0.4,1,1.5,1,1.8c0,0.3-0.1,0.7-0.2,1
							c-0.2,0.3-0.3,0.6-0.5,0.7c-0.2,0-0.9,0.1-0.9,0.1s0.2-0.3,0.2-0.5c0-0.2-0.3-0.7-0.8-1c-0.5-0.3-1.4-0.7-1.6-1
							c-0.2-0.2-0.8-1.9-1.1-2.5c-0.4-0.7-1-1.9-1.4-2.4c-0.4-0.5-0.6-1.1-0.8-1.1c-0.2,0-0.1,0.1-0.3,0.1
							C223.6,163.3,223.4,163.2,223.4,163.2"/>
						<path class="st0" d="M224.6,159.4c0,0,0.9,0.3,1.5,0.3c0.5,0,0.9,0,1.1,0c0.1-0.1,0.4-0.5,0.9-0.6c0.5-0.1,1,0,1.6,0.3
							c0.5,0.4,3.1,2.9,3.4,3.3c0.4,0.4,2,2,2.6,2.4c0.5,0.5,1.3,1.3,1.5,1.6c0.2,0.3,0.2,0.6,0.1,0.8c-0.1,0.2-0.3,0.3-0.4,0.5
							c-0.1,0.2-0.1,0.7-0.3,0.9c-0.1,0.2-0.3,0.3-0.7,0.3c-0.4,0-0.7,0-0.7,0s0.4-0.2,0.4-0.5c0-0.3-0.1-0.6-0.5-0.8
							c-0.4-0.2-0.7-0.4-1.3-0.7c-0.5-0.3-1-0.7-1.3-1.1c-0.4-0.4-1.3-1.6-1.7-2.1c-0.4-0.5-1.5-1.8-2-2.3c-0.5-0.5-1-0.9-1.6-1
							c-0.6-0.1-0.8-0.2-0.9-0.2c-0.1,0-0.4,0.4-0.3,0.5c0.1,0.1-0.2-0.2-0.5-0.5C225.2,160.3,224.6,159.4,224.6,159.4"/>
						<path class="st0" d="M229.5,158.2c0,0,0.1-0.2,0.1-0.4c0-0.3,0.1-0.6,0.2-0.6c0.1,0,0.8,0.3,1.2,0.3c0.4,0,0.5-0.1,0.5-0.1
							s0.2-0.4,0.8-0.5c0.5-0.1,0.7-0.1,0.9-0.1c0.2,0,0.4-0.1,1,0.2c0.6,0.2,2.1,1.5,2.7,2c0.6,0.5,3,2.3,3.6,2.9
							c0.7,0.5,1.4,1,1.6,1.2c0.2,0.2,0.9,0.8,0.7,1.1c-0.2,0.3-0.5,0.6-0.6,0.9c-0.1,0.3-0.1,0.7-0.1,0.9c-0.1,0.2-0.4,0.3-0.6,0.2
							c-0.2,0-0.7,0-0.7,0s0.3-0.2,0.4-0.4c0.1-0.2-0.1-0.4-0.4-0.6c-0.3-0.2-0.7-0.5-1.3-0.8c-0.5-0.3-1.3-0.9-2-1.5
							c-0.7-0.5-2.4-2.1-2.8-2.5c-0.4-0.4-1.6-1.4-1.9-1.5c-0.3-0.1-1.2-0.3-1.5-0.4c-0.3-0.1-0.8-0.2-0.8-0.2s-0.2,0.3-0.3,0.3
							c-0.2,0-0.2,0-0.2,0s0,0-0.2-0.2C229.6,158.4,229.5,158.2,229.5,158.2"/>
						<path class="st0" d="M233.7,155.6l0-0.5c0,0,0.3-0.1,0.8-0.1c0.4,0,0.8,0,1.3-0.2c0.5-0.2,0.5-0.1,0.8-0.3
							c0.3-0.2,0.5-0.3,0.8-0.5c0.3-0.2,0.3-0.5,0.5-0.5c0.2,0,0.8-0.1,1,0c0.2,0.1,1.5,1.2,2.2,1.6c0.8,0.5,3.1,1.9,3.9,2.4
							c0.9,0.5,2.2,1.2,2.6,1.6c0.4,0.4,0.7,0.6,0.7,0.9c0,0.4-0.3,0.6-0.5,0.9c-0.2,0.3-0.1,0.5-0.2,0.8c-0.1,0.2-0.2,0.5-0.2,0.5
							l-1.1,0.2c0,0,0.3-0.3,0.2-0.5c0-0.3-0.2-0.6-0.7-0.8c-0.5-0.3-1.1-0.3-1.6-0.5c-0.5-0.2-1.4-0.8-1.9-1.2
							c-0.5-0.4-1.9-1.4-2.5-1.9c-0.6-0.4-1.6-1.2-2-1.4c-0.5-0.2-1.3-0.4-1.8-0.4c-0.5,0-1.1,0-1.2,0c-0.1,0-0.3,0.5-0.5,0.4
							c-0.2-0.2-0.3-0.2-0.5-0.4C233.7,155.7,233.7,155.6,233.7,155.6"/>
						<path class="st0" d="M240.1,152.1c0,0,0.7-0.1,0.8-0.4c0.1-0.3,0.1-1,0.1-1.3c0.1-0.3,0-0.5,0.2-0.5c0.1,0,0.5,0.2,0.8,0.2
							c0.3,0,0.7,0,1.3,0.3c0.5,0.3,2.8,1.5,4,2c1.2,0.5,3.6,1.8,4.3,2c0.7,0.3,2,0.7,2.1,1.1c0.2,0.3,0.3,0.7,0.1,1
							c-0.2,0.3-0.4,0.5-0.3,0.7c0.1,0.2,0.3,0.5,0.1,0.6c-0.2,0.1-0.6,0.2-0.9,0.3c-0.3,0.1-0.6,0.1-0.6,0.1s0.3-0.2,0.2-0.5
							c-0.1-0.3-0.3-0.7-0.8-0.8c-0.5-0.1-1.1-0.2-1.6-0.3c-0.5-0.1-0.9-0.3-1.7-0.8c-0.7-0.4-2.2-1.3-3-1.7
							c-0.8-0.4-2.2-1.2-2.8-1.5c-0.5-0.3-0.7-0.5-0.9-0.6c-0.3-0.1-0.6-0.1-0.8,0C240.7,152.2,240.1,152.1,240.1,152.1"/>
						<path class="st0" d="M244.4,148c0,0,0.1-0.4,0.2-0.9c0.1-0.5,0-0.7,0.1-0.7c0.2-0.1,0.4,0.1,0.7,0c0.3,0,0.7,0,0.9,0.1
							c0.2,0.1,1.4,0.6,1.9,0.8c0.6,0.2,3.5,1.3,4.4,1.6c1,0.4,2.7,1,3.5,1.3c0.8,0.3,1.3,0.4,1.6,0.6c0.3,0.3,0.5,0.6,0.5,1.1
							c0,0.5,0.1,0.7-0.1,0.9c-0.2,0.3-0.3,0.3-0.3,0.5c0,0.1,0.2,0.4,0,0.6c-0.1,0.2-0.3,0.2-0.8,0.3c-0.5,0.1-0.7,0.1-0.7,0.1
							s0.4-0.4,0-0.7c-0.4-0.3-0.5-0.5-1.3-0.8c-0.8-0.3-2.1-0.8-2.7-1.1c-0.6-0.2-3.1-1.4-3.8-1.6c-0.7-0.3-2.2-0.8-2.7-1.1
							c-0.5-0.3-0.7-0.4-0.9-0.6C244.9,148,244.4,148,244.4,148"/>
						<path class="st0" d="M247.6,143.7c0,0,0-1.2,0.1-1.3c0.2-0.1,0.7,0.1,0.9,0.1c0.2,0,0.9,0,1.5,0.1c0.6,0.2,3.8,1,5.1,1.2
							c1.3,0.3,3,0.7,4.1,0.9c1.1,0.2,1.8,0.2,2,0.6c0.2,0.4,0.2,1.2,0.2,1.6c0,0.4,0.1,1.4,0,1.5c-0.1,0.1-0.6,0.4-1,0.5
							c-0.4,0.1-0.5,0.2-0.5,0.2s0.2-0.5-0.1-0.8c-0.2-0.3-1.2-0.7-1.9-0.9c-0.7-0.2-2.6-0.8-3.6-1.1c-1-0.3-2.8-0.9-3.4-1
							c-0.6-0.2-1.3-0.3-1.7-0.6c-0.4-0.3-0.8-0.7-1-0.8C248,143.8,247.6,143.7,247.6,143.7"/>
						<path class="st0" d="M249.9,139.1l0-0.5c0,0,0.6-0.6,0.7-0.6c0.2,0,0.6-0.1,1.2,0c0.6,0.1,3.4,0.4,4.4,0.6
							c1.1,0.2,3.9,0.6,4.7,0.7c0.8,0.1,2.1,0,2.5,0.1c0.7,0.2,0.6,0.8,0.6,1.2c0,0.4,0.1,1.1,0.1,1.3c0,0.2-0.4,0.5-0.8,0.8
							c-0.4,0.3-0.8,0.5-1,0.7c-0.2,0.1,0.1-0.5-0.2-0.8c-0.2-0.2-0.6-0.4-1.2-0.5c-0.6-0.1-1.7-0.4-2.3-0.5c-0.6-0.1-3-0.6-3.9-0.8
							c-0.9-0.2-2-0.3-2.7-0.6c-0.6-0.3-1-0.8-1.4-1C250.3,139.2,249.9,139.1,249.9,139.1"/>
						<path class="st0" d="M251.8,135.8c0,0-0.2-0.5-0.2-0.6c0-0.1,0-0.3,0-0.3s1,0.1,1.8-0.1c0.7-0.1,2.8-0.5,4.2-0.7
							c1.3-0.2,3.9-0.7,4.7-0.8c0.8-0.1,1.9-0.3,2.2-0.2c0.4,0.2,0.6,0.5,0.7,0.9c0.1,0.4,0.3,1.1,0.4,1.5c0.1,0.3,0.4,0.8,0.3,1
							c0,0.2-0.5,0.7-0.8,1c-0.3,0.3-1.1,1-1.1,1s0.1-0.6-0.1-0.9c-0.2-0.4-0.7-0.8-1.3-1c-0.6-0.2-3-0.4-3.8-0.3
							c-0.8,0-2.9,0-3.9,0c-1,0-1.9-0.2-2.3-0.4c-0.4-0.2-0.3-0.1-0.5-0.2C252,135.6,251.8,135.8,251.8,135.8"/>
						<path class="st0" d="M265.5,138.5c0,0,1-1.1,1.2-1.4c0.3-0.3,0.5-0.7,0.7-0.7c0.2,0,0.8,0,1.2-0.1c0.5-0.2,4-0.2,4.9-0.2
							c0.9,0,7.3,0,8.6,0c1.4,0,10.4-0.1,11.8-0.1c1.5,0,8,0,9.6,0c1.7-0.1,9.7,0,11.6-0.1c1.9-0.1,11.9-0.1,13.5-0.2
							c1.7,0,9.4-0.2,10.8-0.2c1.4,0,4.2-0.1,5-0.1c0.9-0.1,1.7-0.2,2-0.1c0.3,0.1,0.4,0.4,0.5,0.6c0.1,0.2,0.6,1.8,0.8,2.4
							c0.2,0.7,0.4,1.6,0.4,2c0,0.4,0.2,1,0.1,1.1c-0.1,0.1-1,0.6-1.2,0.7c-0.2,0-0.4,0.1-0.4,0.1s0.2-0.3,0.1-0.6
							c-0.1-0.2-0.7-0.6-1-0.7c-0.3-0.1-0.8,0-1.5,0.3c-0.7,0.3-2.6,0.8-3.7,1c-1.1,0.2-1.6,0.4-3.4,0.4c-1.9,0-6.2,0-8,0
							c-1.8-0.1-7.3-0.2-9.9-0.4c-2.6-0.1-9-0.5-11.2-0.6c-2.2-0.1-9.1-0.5-10.7-0.6c-1.6-0.1-9.6-0.6-11.3-0.7
							c-1.7-0.1-10-0.6-11.3-0.8c-1.4-0.1-4.3-0.3-5.1-0.4c-0.9,0-2.1-0.2-2.6-0.3c-0.5-0.1-0.5-0.3-0.8-0.4
							C266,138.5,265.5,138.5,265.5,138.5"/>
						<path class="st0" d="M262.1,144.9c0,0,1.2-0.7,1.7-1.1c0.5-0.4,1.1-0.8,1.2-1.1c0.1-0.4,0.1-0.6,0.1-0.6s3.6,0.1,4.4,0.2
							c0.8,0.1,4.8,0.3,5.8,0.4c1,0.1,7.4,0.5,9.4,0.7c2,0.1,10.9,0.7,12.7,0.8c1.8,0.1,8.9,0.5,10.7,0.6c1.8,0.1,8.6,0.4,10.8,0.5
							c2.2,0.1,10,0.3,11.3,0.3c1.3,0,5.7,0.1,6.4,0c0.8,0,1.7-0.1,2.2-0.1c0.5,0,1.1,0,1.1,0.6c0,0.5-0.1,2.8-0.3,3.5
							c-0.2,0.7-0.7,2-1.1,2.3c-0.4,0.3-1,0.6-1,0.6s0.2-0.5,0.1-0.8c-0.2-0.3-0.7-0.7-1.1-0.7c-0.4,0-2.7,0.6-3.8,0.7
							c-1.1,0.1-3,0.3-4.4,0.3c-1.4,0-4.6-0.2-6.3-0.3c-1.6-0.1-6.1-0.5-8.3-0.7c-2.2-0.2-8.3-0.9-11.1-1.2c-2.8-0.3-8.5-1-10.4-1.3
							c-2-0.3-8.5-1.1-10.2-1.4c-1.7-0.3-6.4-0.9-7.6-1.1c-1.3-0.2-5.3-0.8-6.4-0.9c-1.2-0.1-1.9-0.3-2.4-0.3c-0.5,0-0.9,0-1.6,0
							c-0.7,0-0.6,0-0.9,0c-0.3,0-0.4,0-0.7,0C262.3,144.9,262.1,144.9,262.1,144.9"/>
						<path class="st0" d="M259.1,150.6c0,0,1-0.3,1.5-0.6c0.5-0.3,1.4-0.5,1.7-0.9c0.3-0.4,0.3-0.5,0.3-0.8c0-0.3-0.1-0.5-0.1-0.5
							s1.7,0.1,2.3,0.2c0.7,0.1,3.9,0.5,4.8,0.7c1,0.1,5.9,0.9,7.2,1.1c1.3,0.2,10.3,1.4,12.1,1.7c1.8,0.2,9.5,1.2,10.9,1.4
							c1.4,0.2,10.1,1.1,11.4,1.2c1.4,0.1,6.2,0.6,7.9,0.7c1.7,0.1,5.3,0.3,6.8,0.4c1.6,0,2.7,0,3.1,0.1c0.4,0.1,0.7,0.4,0.6,0.7
							c-0.1,0.3-0.4,2.7-0.6,3.2c-0.2,0.5-0.4,1.4-0.6,1.8c-0.2,0.3-0.4,0.7-0.8,0.9c-0.4,0.2-0.5,0.3-0.5,0.3s0.3-0.5,0.1-0.8
							c-0.2-0.3-0.7-0.8-1-0.9c-0.3,0-1.6,0.2-2.4,0.3c-0.8,0.1-2.4,0.3-3.4,0.4c-1,0.1-2.4,0.2-3,0.2c-0.7,0-1.9-0.2-3-0.3
							c-1.1-0.2-5.1-0.7-6.6-0.9c-1.4-0.2-6.1-1-8.1-1.4c-2-0.4-8.9-1.8-10.3-2.1c-1.4-0.3-6.5-1.4-7.8-1.7c-1.3-0.3-7-1.6-8.3-2
							c-1.3-0.3-4.9-1.2-5.9-1.4c-1-0.2-3-0.7-3.5-0.8c-0.5-0.1-1.1-0.3-1.6-0.1c-0.5,0.1-1.4,0.4-1.7,0.5c-0.3,0.1-0.4,0.2-0.8,0.1
							C259.3,150.9,259.1,150.6,259.1,150.6"/>
						<path class="st0" d="M254.7,155.5c0,0,0.9-0.1,1.4-0.2c0.4-0.1,1.5-0.3,2-0.5c0.5-0.2,0.7-0.2,0.7-0.5c0-0.3-0.1-0.9,0-1.2
							c0.1-0.3,0.2-0.6,0.2-0.6s1,0.2,1.5,0.3c0.4,0,1.9,0.3,2.5,0.5c0.6,0.2,7.6,1.9,8.7,2.2c1.1,0.3,9.1,2.2,10.5,2.5
							c1.4,0.3,7.9,1.7,9.3,2c1.5,0.3,11.1,2.1,12.7,2.3c1.6,0.3,7.1,1.1,8.4,1.3c1.3,0.1,3.2,0.3,3.6,0.4c0.4,0.1,0.7,0.3,0.7,0.7
							c-0.1,0.6-0.6,1.9-0.9,2.5c-0.3,0.6-0.8,1.7-1.3,2.3c-0.5,0.6-0.9,1.1-1.3,1.3c-0.4,0.2-0.5,0.3-0.5,0.3s0.3-0.5,0.2-0.8
							c-0.1-0.3-0.5-0.7-1-0.8c-0.5-0.1-1.5,0-2.4,0c-1,0-3.9-0.1-6.5-0.5c-2.5-0.4-6.5-1-9.1-1.6c-2.6-0.6-6.4-1.5-9.1-2.3
							c-2.7-0.8-7.1-2-9.9-3c-2.8-0.9-6.3-2.1-7.9-2.7c-1.6-0.6-6.1-2.2-6.8-2.4c-0.7-0.3-1.2-0.4-1.7-0.4c-0.5,0-1.2,0.1-1.8,0
							c-0.6-0.1-1.2-0.3-1.5-0.4c-0.3-0.1-0.5-0.2-0.7-0.4C254.6,155.7,254.7,155.5,254.7,155.5"/>
						<path class="st0" d="M249.4,160c0,0,1.7-0.4,2.6-0.7c0.7-0.3,1.7-0.7,2.5-0.6c0.8,0.1,2.6,0.7,3.6,1c1,0.4,4.5,1.6,5.5,2
							c0.9,0.4,9.1,3.1,10.4,3.5c1.3,0.4,8.3,2.5,9.8,2.9c1.5,0.4,8.3,2.1,9.9,2.5c1.6,0.3,4.3,0.8,5.1,1c0.8,0.1,1.6,0.4,1.6,0.7
							c0.1,0.4,0,1-0.1,1.3c-0.1,0.3-0.4,1.3-0.6,1.9c-0.2,0.6-0.5,1.4-0.9,1.8c-0.3,0.4-1.1,0.5-1.1,0.5s0.4-0.3,0.3-0.6
							c-0.1-0.4-0.2-0.6-0.5-0.8c-0.3-0.2-0.5-0.4-0.9-0.4c-0.4,0-1.6,0.1-2.4,0.1c-0.9,0.1-3.9,0.1-5,0.1c-1.2,0-2.3,0.1-3.2,0
							c-0.9-0.1-1.9-0.3-3.3-0.7c-1.4-0.4-4.7-1.6-6.2-2.2c-1.5-0.6-5.9-2.5-7.1-3.1c-1.2-0.5-5.6-2.7-7-3.4
							c-1.4-0.7-3.5-1.8-4.6-2.4c-1.1-0.6-3.5-1.9-4.2-2.2c-0.6-0.3-1.3-0.5-1.9-0.6c-0.5-0.1-1.3-0.4-1.5-0.5
							c-0.2-0.1-0.8-0.3-0.8-0.3L249.4,160z"/>
						<path class="st0" d="M243.8,163.9c0,0,1.8-0.4,2.3-0.6c0.5-0.2,1.5-0.4,1.8-0.3c0.4,0.1,1.7,0.7,2.5,1.1
							c0.8,0.4,4.3,2.3,5.4,2.9c1.1,0.6,5.7,3,6.8,3.5c1,0.5,4.4,2.2,5.7,2.7c1.2,0.5,5.5,2.4,6.7,2.9c1.1,0.5,2.9,1.1,3.9,1.5
							c1,0.4,2.3,0.7,2.9,0.9c0.6,0.2,1.7,0.5,1.8,0.7c0.1,0.3,0.1,0.7-0.1,1.1c-0.2,0.4-0.7,1.8-0.9,2.2c-0.2,0.4-0.6,1.3-0.9,1.6
							c-0.3,0.3-0.5,0.5-0.7,0.5s-0.2,0-0.2,0s0.4-0.5,0.4-0.6c0-0.2-0.2-0.8-0.5-1c-0.3-0.2-0.7-0.4-1-0.4c-0.3,0-1.4,0-2.4-0.1
							c-1-0.1-2.6-0.3-3.8-0.6c-1.2-0.3-2-0.4-3-0.8c-1-0.4-3.2-1.6-4.3-2.2c-1.2-0.7-4.8-2.9-5.9-3.7c-1.1-0.7-6.3-4.5-7.1-5
							c-0.8-0.6-2.7-1.9-3.4-2.5c-0.8-0.6-1.9-1.5-2.3-1.7c-0.4-0.2-1.7-0.7-2.2-0.8c-0.4-0.2-0.9-0.3-1-0.6
							C243.7,164.3,243.8,163.9,243.8,163.9"/>
						<path class="st0" d="M238.2,167.2c0,0,1,0.1,1.4,0c0.4-0.1,1.3-0.4,1.6-0.4c0.3,0,0.8-0.1,1.3,0.1c0.5,0.2,1.8,1,2.5,1.5
							c0.7,0.5,3.4,2.7,4.3,3.3c0.9,0.6,5,3.6,5.9,4.2c0.8,0.6,4.6,3.1,5.7,3.7c1,0.6,2.9,1.8,3.8,2.3c0.9,0.5,1.9,1,2.2,1.3
							c0.3,0.3,0.6,0.6,0.4,1.2c-0.3,0.6-1.1,1.9-1.3,2.2c-0.2,0.3-0.8,0.9-1,1.1c-0.3,0.2-0.4,0.3-0.4,0.3s0.4-0.5,0.4-0.8
							c-0.1-0.3-0.3-0.8-0.8-1.1c-0.5-0.3-1.5-0.4-2.3-0.6c-0.8-0.2-3.6-0.9-4.7-1.2c-1.1-0.3-2-0.6-2.7-1.1c-0.7-0.5-2.5-2.2-3.4-3
							c-0.9-0.8-2.7-2.5-3.8-3.5c-1-0.9-3.2-3-3.9-3.7c-0.8-0.7-2.9-2.6-3.2-3c-0.4-0.4-1.2-1.2-1.5-1.5c-0.3-0.3-0.5-0.2-0.6-0.5
							c-0.2-0.2-0.1-0.6,0-0.7C238.1,167.4,238.2,167.2,238.2,167.2"/>
						<path class="st0" d="M231.8,171.5l0.2-0.8c0.1-0.3,0.1-0.4,0.1-0.4s0.9,0,1.6,0c0.7-0.1,1.1-0.3,1.7-0.2
							c0.6,0.1,0.9,0.2,1.2,0.8c0.3,0.6,1.2,1.6,1.9,2.2c0.6,0.6,3.7,3.5,4.7,4.4c0.9,0.9,3.9,3.7,5,4.7c1,0.9,2.5,2.2,2.9,2.6
							c0.4,0.4,1.3,1.3,1.5,1.5c0.2,0.3,0.1,0.8-0.1,1.1c-0.2,0.4-0.7,1.2-1.1,1.5c-0.4,0.3-1.1,0.9-1.1,0.9s0.3-0.6,0.2-0.8
							c-0.1-0.3-0.6-0.8-1-0.9c-0.4-0.1-2.2-0.6-2.9-0.8c-0.8-0.2-2.4-0.9-2.9-1.3c-0.5-0.4-2.5-2.8-2.9-3.3
							c-0.5-0.6-2.2-2.9-2.8-3.6c-0.6-0.8-2-2.7-2.7-3.6c-0.7-0.9-1.9-2.5-2.2-2.8c-0.3-0.3-0.4-0.5-0.6-0.7
							C231.9,171.6,231.8,171.5,231.8,171.5"/>
						<path class="st0" d="M225.6,172.3c0,0,1.1,0.2,1.8,0.2c0.6,0,1.2-0.1,1.5,0c0.3,0.1,0.6,0,0.9,0.4c0.3,0.3,0.4,0.9,0.6,1.3
							c0.1,0.3,2.2,3.2,2.5,3.7c0.3,0.5,1.8,2.4,2.4,3.2c0.6,0.8,2.4,3.1,2.9,3.7c0.5,0.7,1.5,1.7,1.8,2.1c0.3,0.4,0.9,1.3,1,1.5
							c0.1,0.2-0.1,0.5-0.3,0.7c-0.2,0.2-0.5,0.6-0.8,0.9c-0.3,0.3-0.8,0.6-0.9,0.7c-0.1,0,0.1-0.4,0.1-0.6c0-0.2-0.1-0.5-0.5-0.8
							c-0.5-0.4-1.3-0.7-1.9-0.9c-0.6-0.2-1.8-0.6-2.6-0.9c-0.8-0.3-1.2-0.6-1.5-0.9c-0.4-0.5-1.3-2-1.7-2.9
							c-0.5-0.9-1.9-3.5-2.3-4.3c-0.4-0.7-0.5-1.2-0.6-1.6c-0.1-0.4-0.1-2-0.2-2.4c-0.2-0.4-0.6-1.1-0.9-1.4
							c-0.3-0.2-0.4-0.3-0.5-0.3c-0.1-0.1-0.6-0.2-0.6-0.2s0-0.6,0-0.7C225.6,172.5,225.6,172.3,225.6,172.3"/>
						<path class="st0" d="M225.2,180.7c0,0,0.7,1.2,1,1.6c0.3,0.4,0.9,1.3,1.3,1.9c0.3,0.7,1.4,2.3,1.6,2.9
							c0.3,0.6,0.6,1.1,0.6,1.7c-0.1,0.6-0.5,1.3-0.7,1.6c-0.2,0.3-0.2,0.6-0.5,0.9c-0.4,0.3-0.9,0.4-0.9,0.4s0.4-0.4,0.4-0.7
							c0-0.3-0.3-0.8-0.4-1c-0.2-0.2-0.6-0.6-1-0.9c-0.5-0.2-1.4-0.7-1.5-1c-0.1-0.3-0.1-0.6,0.1-1.1c0.3-0.7,0.3-1.5,0.1-2.1
							c-0.1-0.6-0.2-0.8-0.3-1c-0.1-0.2-0.3-0.3-0.3-0.3s0.4-1.3,0.4-1.6L225.2,180.7z"/>
						<path class="st0" d="M198,207.8c0,0,1.7-0.6,2.5-1c0.8-0.4,2.3-1,3.3-1.5c1-0.5,3.8-2,4.9-2.7c1.2-0.7,2.7-1.8,3.9-2.8
							c1.2-1,3.2-2.8,4-3.6c0.8-0.8,2.7-3,3.2-3.8c0.6-0.8,1.5-2.3,1.5-2.3l2.1,1.1c0.9,0.5,1.9,0.9,2.6,1c0.7,0.1,1.1,0.2,1.8,0.1
							c0.7-0.1,0.9-0.2,1.3-0.6c0.4-0.4,0.8-1.1,0.9-1.5c0.2-0.4,0.4-0.9,0.4-0.9s0.8,0.4,1.3,0.6l2.5,0.9c0.7,0.2,1.6,0.4,2,0.7
							c0.4,0.3,0.5,0.5,0.5,0.8c0,0.3-0.3,1-0.6,1.5c-0.3,0.5-1.2,2.6-1.6,3.2c-0.4,0.7-1.9,3.2-2.7,4.3c-0.8,1.1-3.3,4.3-4.3,5.2
							c-0.9,0.9-2.1,2.1-2.8,2.4c-0.7,0.4-1.8,0.6-2.5,1l-3.9,2.4c-1,0.6-2.5,1.5-3.5,2c-1,0.5-3.6,1.8-4.4,2.2
							c-0.8,0.4-1.9,0.8-2.4,1.1c-0.5,0.2-0.9,0.4-1.3,0.4c-0.4,0-0.7-0.3-0.9-0.6c-0.2-0.3-1.4-2.5-1.9-3.3
							c-0.5-0.8-2.2-3.8-2.5-4.4c-0.4-0.6-0.5-0.8-1.3-1.1c-0.5-0.2-0.7-0.3-0.9-0.3c-0.3,0-0.4,0-0.8-0.1
							C198.2,208.1,198,207.8,198,207.8"/>
						<path class="st0" d="M192.2,209.5c0,0,1.4-0.4,2.1-0.6c0.7-0.2,1.5-0.5,1.9-0.6c0.5-0.1,0.7-0.1,0.9,0.1
							c0.3,0.3,0.5,0.7,0.6,1.1c0.1,0.4,1.6,2.8,2,3.7c0.5,0.8,1.8,3.2,2.2,3.9c0.4,0.7,1.9,3.1,2.2,3.6c0.3,0.5,0.7,1.2,0.9,1.6
							c0.3,0.4,0.7,1.3,0.8,1.7c0.2,0.4,0.3,0.7,0.2,1c-0.1,0.3-1,1.8-1.1,2.2c-0.2,0.4-1,1.8-1,1.8s-0.1-1.2-0.3-1.7
							c-0.2-0.6-0.4-0.9-0.8-1.2c-0.4-0.3-1.2-0.5-1.5-0.7c-0.3-0.2-0.6-0.4-1-1.2c-0.4-0.8-1.4-3.5-1.8-4.4c-0.4-1-1.7-4.2-2.1-5.3
							c-0.4-1.1-1.1-2.9-1.5-3.3c-0.3-0.4-1.2-1.1-1.5-1.1c-0.3,0-0.7-0.1-0.8-0.1c-0.1,0-0.4,0.1-0.4,0.1L192.2,209.5z"/>
						<path class="st0" d="M237.9,192c0,0,0.6,0.1,0.9-0.1c0.3-0.2,1-0.7,1.5-1.2c0.5-0.5,1-1.1,1.2-1.4c0.2-0.3,0.3-0.4,0.3-0.4
							s0.3,0.1,0.3,0.3s-0.5,1.9-0.7,2.3c-0.2,0.4-0.7,1.9-1,2.6c-0.4,0.8-1.5,3-1.9,3.7c-0.4,0.7-2.3,3.7-3,4.7
							c-0.8,1-3.1,3.9-3.8,4.7c-0.7,0.8-3.5,3.5-4.2,4.2c-0.7,0.7-5.7,4-6.7,4.5c-1,0.6-4.2,2.4-4.9,2.9c-0.7,0.4-3,1.5-3.7,1.9
							c-0.8,0.4-2.8,1.3-3.2,1.4c-0.5,0.1-1,0-1.5,0c-0.4-0.1-0.6-0.1-0.8-0.1c-0.2,0-0.7,0.1-0.7,0.1l-0.2-0.4c0,0,1.9-0.7,2.8-1.2
							c0.9-0.5,5-2.4,6.1-3c1.1-0.7,3.5-2,4.8-2.8c1.2-0.8,4.2-3,5.2-3.9c1.1-0.9,4.1-3.9,4.7-4.6c0.5-0.7,3-2.9,3.5-3.5
							c0.6-0.6,1.6-1.5,2.3-2.5c0.7-1.1,2.4-3.7,2.7-4.5c0.3-0.8,0.7-1.4,0.6-1.7c-0.1-0.3-0.1-0.6-0.2-0.7c-0.1,0-0.7-0.2-0.7-0.2
							l0.2-0.7C237.8,192.1,237.9,192,237.9,192"/>
						<path class="st0" d="M186.7,210.5c0,0,0.6,0,1.1-0.2c0.5-0.2,1.8-0.7,2.3-0.7c0.5-0.1,1.3-0.1,1.4,0.2
							c0.1,0.2,0.3,0.7,0.5,1.3c0.2,0.6,1.7,4.5,2.1,5.5c0.4,1,2,5.1,2.3,5.9c0.3,0.8,1.1,2.7,1.2,3.1c0.1,0.4,0.5,1.4,0.4,1.7
							c-0.1,0.3-0.7,1.3-1,1.8c-0.4,0.5-1.6,2.2-1.6,2.2s-0.1-0.7,0.1-0.9c0.1-0.2,0.3-0.6,0.2-0.9c-0.1-0.2-0.4-0.9-0.7-1.3
							c-0.4-0.3-1.1-0.6-1.5-0.9c-0.4-0.4-0.6-0.5-0.8-1.6c-0.3-1.1-1-4.1-1.2-5c-0.2-0.9-1.2-5.1-1.4-6c-0.2-0.8-0.4-2-0.8-2.4
							c-0.3-0.4-1-1-1.3-1.1c-0.3-0.1-0.6,0-0.7,0c-0.1,0-0.3,0-0.3,0L186.7,210.5z"/>
						<path class="st0" d="M181.4,211c0,0,1-0.1,1.4-0.2c0.4-0.1,1.4-0.3,2-0.3c0.6,0,1.2,0.2,1.3,0.5c0.1,0.4,0.3,1.5,0.3,2
							c0.1,0.5,1.2,5.2,1.3,5.9c0.1,0.7,1.4,5.7,1.5,6.5c0.1,0.7,0.6,2.5,0.5,2.9c0,0.4,0,0.8,0,0.9c-0.1,0.1-0.8,1.1-1.2,1.5
							c-0.4,0.4-1.7,2.1-1.7,2.1s-0.1-0.5,0.1-0.7c0.2-0.2,0.6-0.6,0.5-0.9c-0.1-0.4-0.4-1.1-0.7-1.4c-0.3-0.3-1.1-0.7-1.4-1
							c-0.3-0.4-0.5-0.6-0.6-1.5c-0.1-0.8-0.4-5.3-0.5-6.7c-0.1-1.5-0.4-5.5-0.5-6.1c-0.1-0.6-0.2-1.2-0.6-1.6
							c-0.4-0.4-0.8-0.6-1.1-0.7c-0.3-0.1-0.5-0.1-0.5-0.1L181.4,211z"/>
						<path class="st0" d="M175.9,211.1c0,0,1,0,1.2-0.1c0.2-0.1,1.2-0.2,1.9-0.2c0.7,0,1.5,0.2,1.5,0.6c0,0.4,0.1,1.6,0.1,2.4
							c0,0.8,0.3,4.7,0.4,5.4c0,0.6,0.4,5,0.4,6.1c0.1,1.1,0.2,3.1,0.2,3.5c0,0.4,0,0.9,0,0.9s-1.2,1.2-1.6,1.6
							c-0.4,0.3-1.8,1.5-1.8,1.5s0.2-0.6,0.4-0.8c0.2-0.3,0.4-0.7,0.2-0.9c-0.2-0.3-1.2-1.4-1.5-1.6c-0.3-0.2-0.8-0.8-0.8-1.3
							c-0.1-0.5,0.2-4.1,0.4-5.6c0.1-1.5,0.4-4.8,0.5-6c0.1-1.2,0.2-2.5,0-3c-0.2-0.5-0.6-1.1-0.9-1.2c-0.3-0.1-0.8-0.2-0.8-0.2
							L175.9,211.1z"/>
						<path class="st0" d="M170.4,210.7c0,0,0.7,0,1.1,0c0.4,0,0.7-0.1,1.3-0.1c0.6,0,1,0,1.5,0.1c0.4,0.2,0.8,0.4,0.7,1.1
							c-0.1,0.7-0.2,3.2-0.3,4c-0.1,0.7-0.5,5.9-0.5,6.3s-0.2,2.7-0.2,3.5c0,0.6-0.3,2-0.3,2.5c-0.1,0.5-0.3,1.4-0.3,1.5
							c0,0.1-0.1,0.3-0.1,0.3s-0.9,0.8-1.3,0.9c-0.3,0.2-0.3-0.2-0.5-0.4c-0.2-0.2-0.5-0.2-1-0.5c-0.5-0.2-1.2-0.9-1.6-1.5
							c-0.3-0.5-0.4-1-0.2-1.9c0.2-0.8,0.9-3.8,1.2-4.8c0.2-1,0.9-3.9,1.1-5c0.2-1,0.6-2.6,0.6-3.2c0-0.6-0.2-1.1-0.5-1.4
							c-0.3-0.3-0.4-0.3-0.6-0.4c-0.2-0.1-0.4-0.1-0.4-0.1L170.4,210.7z"/>
						<path class="st0" d="M164.9,209.8c0,0,0.7,0.1,1.1,0.1c0.4,0,1-0.1,1.7,0.1c0.7,0.2,1.5,0.3,1.6,0.6c0.1,0.3,0.3,0.6,0.1,1.3
							c-0.2,0.7-1.4,5.6-1.6,6.5c-0.2,0.8-1.1,4.8-1.3,5.5c-0.2,0.7-0.7,2.9-0.8,3.4c-0.2,0.5-0.5,1.5-0.5,1.6c0,0.1-0.8,0.5-1,0.6
							c-0.2,0.1-0.4,0.2-0.4,0.2s0.3-0.4,0.2-0.7c-0.1-0.3-0.4-0.5-0.8-0.5c-0.4,0-0.8,0.3-1.1,0.2c-0.3-0.1-0.8-0.3-1.1-1.1
							c-0.4-0.8-0.4-1-0.3-1.6c0.1-0.6,1.7-4.4,2-5.3c0.3-0.9,1.8-4.6,2.1-5.5c0.4-0.9,0.8-2.1,0.8-2.4c0-0.4-0.3-0.9-0.5-1.1
							c-0.2-0.2-0.4-0.3-0.5-0.3c-0.1,0-0.2-0.1-0.2-0.1L164.9,209.8z"/>
						<path class="st0" d="M159.4,208.3c0,0,0.5,0.2,1.1,0.2c0.5,0,1.1,0,1.7,0.2c0.6,0.2,1.4,0.7,1.6,1c0.1,0.3-0.2,1-0.5,1.8
							c-0.4,0.8-2,5.2-2.4,6.1c-0.4,0.9-2.1,5.2-2.3,5.8c-0.2,0.6-1,2.4-1.2,2.8c-0.2,0.5-0.4,0.9-0.4,0.9l-0.9,0.3
							c0,0,0.3-0.4,0.1-0.6c-0.1-0.2-0.6-0.7-0.9-0.7c-0.3,0-0.7,0.1-1,0.2c-0.4,0.2-0.9,0.2-1.1-0.2c-0.2-0.3-0.7-1.3-0.7-1.5
							c-0.1-0.2-0.2-0.6,0-1c0.2-0.5,1.9-3.5,2.3-4.1c0.4-0.6,2.3-3.8,2.7-4.6c0.4-0.8,1.5-2.6,1.7-3c0.2-0.4,0.3-0.7,0.2-1
							c-0.2-0.3-0.2-0.5-0.3-0.5c-0.2-0.1-0.5-0.1-0.5-0.1L159.4,208.3z"/>
						<path class="st0" d="M178,140c-26.6,0-46.7,16.4-46.7,35c0,18.6,20.1,35,46.7,35c26.6,0,46.8-16.4,46.8-35
							C224.7,156.4,204.6,140,178,140z M178,208.6c-26.9,0-45.2-16.8-45.2-33.5c0-16.7,18.3-33.5,45.2-33.5s45.2,16.8,45.2,33.5
							C223.2,191.8,204.9,208.6,178,208.6z"/>
						<path class="st0" d="M177.9,152.5c6.4,0.1,10.8,2.7,10.8,9.8c0,7.4-4.5,9.8-10.8,9.9c-6,0-10.8-2.2-10.8-9.9
							C167.1,155.5,172,152.6,177.9,152.5 M196.1,173.2c6.4-3.6,7.7-7.3,7.2-11.6c-0.9-7.8-11.6-13.4-25.7-13.2
							c-17,0.2-27.3,8.7-27.3,11s3.4,2.8,3.4,4l0,23.4c0,1.5-3.2,3.1-3.2,4.7c0,1.7,11,9.8,29.1,9.7c15.9-0.1,25.1-6.8,25.2-14.8
							C204.9,182,202.4,176.2,196.1,173.2L196.1,173.2L196.1,173.2z M179.1,197.2h-0.4c-5.6,0-11.9-1.6-11.9-10.5
							c0-9,6.2-10.8,12.1-10.9c5.6,0.1,11.6,2.1,11.6,10.9C190.5,194.5,185,197.2,179.1,197.2"/>
					</g>
				</g>
			</g>
		</g>
		<g id="Слой_2">
		</g>
	</g>
</g>
</svg>
