<?xml version="1.0" encoding="utf-8"?>
<!-- Generator: Adobe Illustrator 21.0.0, SVG Export Plug-In . SVG Version: 6.00 Build 0)  -->
<svg version="1.1" id="Ebene_1" xmlns="http://www.w3.org/2000/svg" xmlns:xlink="http://www.w3.org/1999/xlink" x="0px" y="0px"
	 viewBox="0 0 445 445" style="enable-background:new 0 0 445 445;" xml:space="preserve"  width="20px" height="20px">
<path d="M221.9,423.5c-111,0-201-90-201-201c0-111,90-201,201-201c111,0,201,90,201,201C422.9,333.5,332.9,423.5,221.9,423.5
	 M221.9,10.9C105,10.9,10.3,105.6,10.3,222.5c0,116.9,94.7,211.6,211.6,211.6c116.9,0,211.6-94.7,211.6-211.6S338.7,10.9,221.9,10.9
	 M221.9,425.2c27.4,0,53.9-5.4,78.9-15.9c24.1-10.2,45.8-24.8,64.4-43.4c18.6-18.6,33.2-40.3,43.4-64.4c10.6-25,15.9-51.5,15.9-78.9
	c0-27.4-5.4-53.9-15.9-78.9c-10.2-24.1-24.8-45.8-43.4-64.4c-18.6-18.6-40.3-33.2-64.4-43.4c-25-10.6-51.5-15.9-78.9-15.9
	c-27.4,0-53.9,5.4-78.9,15.9c-24.1,10.2-45.8,24.8-64.4,43.4c-18.6,18.6-33.2,40.3-43.4,64.4c-10.6,25-15.9,51.5-15.9,78.9
	c0,27.4,5.4,53.9,15.9,78.9c10.2,24.1,24.8,45.8,43.4,64.4c18.6,18.6,40.3,33.2,64.4,43.4C168,419.8,194.5,425.2,221.9,425.2
	 M221.9,12.6c28.3,0,55.8,5.5,81.7,16.5c25,10.6,47.5,25.7,66.7,45c19.3,19.3,34.4,41.7,45,66.7c10.9,25.9,16.5,53.4,16.5,81.7
	c0,28.3-5.5,55.8-16.5,81.7c-10.6,25-25.7,47.4-45,66.7c-19.3,19.3-41.7,34.4-66.7,45c-25.9,10.9-53.4,16.5-81.7,16.5
	s-55.8-5.5-81.7-16.5c-25-10.6-47.5-25.7-66.7-45s-34.4-41.7-45-66.7c-10.9-25.9-16.5-53.4-16.5-81.7s5.6-55.8,16.5-81.7
	c10.6-25,25.7-47.4,45-66.7c19.3-19.3,41.7-34.4,66.7-45C166,18.1,193.5,12.6,221.9,12.6"/>
<path d="M97.2,93.2c-2.6-2.2-6.7-2.3-8.5-0.1l-15.6,18.6l9.6,8.1l15.4-18.4C100.1,99,100.1,95.6,97.2,93.2"/>
<path d="M116.1,114.7c2.2-2.6,1.8-6.6-1.3-9.2c-2.8-2.3-6.9-1.7-8.7,0.5l-16.4,19.5l10.2,8.5L116.1,114.7z"/>
<path d="M221.9,21.5c-111,0-201,90-201,201c0,111,90,201,201,201s201-90,201-201C422.9,111.5,332.9,21.5,221.9,21.5 M191.1,28.9h16
	l14.5,37.9L236,28.9h16V82h-10.6V44.9l-14,37.1h-11.6l-14-37.1V82h-10.6L191.1,28.9L191.1,28.9z M57.1,116.3L83,85.4
	c5.4-6.4,12.9-11.5,20-5.5c2.2,1.9,3.1,2.5,5.8,7.3c0.6,1.7,1.1,4.9-0.1,7.9c6.2-3.8,12.8-2.6,17.1,1.6c6.6,6.4,5.6,13.8-0.6,21.2
	l-27.3,32.6L57.1,116.3z M221.9,357.3c-74.4,0-134.8-60.3-134.8-134.8c0-74.4,60.3-134.8,134.8-134.8c74.4,0,134.8,60.3,134.8,134.8
	C356.6,296.9,296.3,357.3,221.9,357.3 M346.5,148.6l-9.1-11l17.4-26.2l-0.1-0.1l-29,12.4l-9.2-10.9l30.3-40.1l7.7,9.3l-19,25.5
	L365,94.4l8.3,10l-18.2,26.5l28.5-14l7.7,9.3L346.5,148.6z"/>
<path d="M95.1,222.5h126.7V95.8C151.9,95.8,95.1,152.5,95.1,222.5"/>
<path d="M221.9,222.5v126.7c70,0,126.7-56.7,126.7-126.7H221.9z"/>
</svg>
