<?xml version="1.0" encoding="utf-8"?>
<!-- Generator: Adobe Illustrator 21.0.0, SVG Export Plug-In . SVG Version: 6.00 Build 0)  -->
<svg version="1.1" id="Layer_1" xmlns="http://www.w3.org/2000/svg" xmlns:xlink="http://www.w3.org/1999/xlink" x="0px" y="0px"
	 viewBox="0 0 2500 2500" style="enable-background:new 0 0 2500 2500;" xml:space="preserve"  width="20px" height="20px">
<g>
	<path d="M1921.9,1875.1c150.3,0,240.2-107.5,240.2-240.2c0-132.7-89.9-240.2-240.2-240.2h-487.3v480.4H1921.9z M1921.9,1037.8
		c132.3,0,212.8-95.2,212.8-212.7c0-117.5-80.5-212.8-212.8-212.8h-487.3v425.5H1921.9z M748.3,1394.6v119H446.4V918.8h301.9v119
		h288.3V612.2H310.4v151H8.5l0-151v-302h1913.4c299.4,0,542.2,242.7,542.2,542.2c0.2,131.5-47.6,258.5-134.4,357.3
		c100.1,102.6,161.8,243,161.8,397.7c0,314.6-255,569.6-569.6,569.6H8.5l0-302v-151h302v151h726.2v-480.4L748.3,1394.6L748.3,1394.6
		z"/>
</g>
</svg>
