<?xml version="1.0" encoding="utf-8"?>
<!-- Generator: Adobe Illustrator 21.0.0, SVG Export Plug-In . SVG Version: 6.00 Build 0)  -->
<svg version="1.1" id="Layer_1" xmlns="http://www.w3.org/2000/svg" xmlns:xlink="http://www.w3.org/1999/xlink" x="0px" y="0px"
	 viewBox="0 0 71.9 71.9" style="enable-background:new 0 0 71.9 71.9;" xml:space="preserve"  width="20px" height="20px">
<title>makes</title>
<path d="M35.9,0.8C16.5,0.8,0.8,16.5,0.8,36s15.7,35.2,35.2,35.2S71.1,55.4,71.1,36C71.1,16.5,55.3,0.8,35.9,0.8z M35.9,67.4
	C18.6,67.4,4.5,53.3,4.5,36S18.5,4.5,35.9,4.5s31.4,14.1,31.4,31.4c0,0,0,0,0,0C67.4,53.3,53.3,67.4,35.9,67.4
	C35.9,67.4,35.9,67.4,35.9,67.4z"/>
<polygon points="22.5,63.2 22.5,63.2 22.5,63.2 "/>
<polygon points="36.2,58.3 36.2,58.3 36.2,58.3 "/>
<polygon points="49.9,53.5 49.8,53.5 49.8,53.5 "/>
<path d="M41.7,19.9H28v4.8H14.3v17.6c0,10.1,7.8,20.3,8.1,20.9c0.4-0.6,5.8-7.7,7.6-16c1.6,3.9,3.6,7.7,6.1,11.2
	c0.4-0.6,5.8-7.7,7.6-16c1.6,3.9,3.7,7.7,6.1,11.2c0.4-0.7,8.1-10.8,8.1-20.9V15H41.7V19.9L41.7,19.9z M28,42.5
	c0,7.7-5.2,14.7-5.5,15.3c-0.3-0.5-5.6-7.6-5.6-15.3V27.3H28V42.5z M41.7,37.7c0,7.7-5.2,14.7-5.5,15.3c-0.3-0.5-5.6-7.6-5.6-15.3
	V22.4h11.1C41.7,22.4,41.7,37.7,41.7,37.7z M44.3,17.6h11.1v15.3c0,7.7-5.2,14.7-5.6,15.3c-0.3-0.5-5.6-7.5-5.6-15.3L44.3,17.6
	L44.3,17.6z"/>
<path d="M54.8,30.4V18.1h-10l9.8,17.4C54.7,34.7,54.8,33.1,54.8,30.4z"/>
<path d="M53.3,40.3l-8.5-14.9v7.8c0,4.9,2.6,10.4,5,14C51.3,45,52.4,42.7,53.3,40.3z"/>
<path d="M41.1,35.2V23h-10l9.8,17.4C41,39.5,41.1,37.9,41.1,35.2z"/>
<path d="M39.7,45.1l-8.5-14.9V38c0,4.9,2.6,10.4,5,14C37.6,49.8,38.7,47.5,39.7,45.1z"/>
<path d="M27.5,40.1V27.8h-10l9.8,17.4C27.4,44.4,27.5,42.8,27.5,40.1z"/>
<path d="M26,50L17.5,35v7.8c0,4.9,2.6,10.4,5,14C23.9,54.7,25.1,52.4,26,50z"/>
</svg>
