<?xml version="1.0" encoding="utf-8"?>
<!-- Generator: Adobe Illustrator 21.0.0, SVG Export Plug-In . SVG Version: 6.00 Build 0)  -->
<svg version="1.1" id="Layer_1" xmlns="http://www.w3.org/2000/svg" xmlns:xlink="http://www.w3.org/1999/xlink" x="0px" y="0px"
	 viewBox="0 0 66.7 66.7" style="enable-background:new 0 0 66.7 66.7;" xml:space="preserve" width="20px" height="20px">
<title>makes</title>
<path d="M37.7,58.7C37,59,37,58.5,37.4,58.3c2.2-1,4-2.8,5.1-4.9c-1.8,1.1-3.1,0.9-4.5,1.8S36,57.9,34.4,59c1.8,1.8,3.2,2.3,4.2,2.3
	c0.8,0.1,1.6,0,2.4-0.2c2-0.4,3.7-1.4,5.3-1.7C42.8,58.2,39.6,58,37.7,58.7z"/>
<path d="M30,61.7c-2.2,0.6-5.3,1.8-8.4,1.8c0.2,0.3,0.5,0.6,0.8,0.9c0.2,0.1,0.3,0.1,0.5,0.1c3.4-0.7,6-2.1,8.9-2.9
	C31.2,61.6,30.5,61.6,30,61.7z"/>
<path d="M47.7,56.5c-1.8,0.1-3.5,0.6-5.1,1.2c2-0.2,4.6,2.1,7.6,0.1c0.4-0.3,1.8-0.9,2.5-1.3C51.5,56.5,49.8,56.2,47.7,56.5z"/>
<path d="M41.1,57.2c3.2-0.8,5.9-3.1,7.2-6.2c-1.6,1.1-2.5,0.8-4.4,2.6C43.2,54.3,42.4,56.3,41.1,57.2z"/>
<path d="M27.1,2.1c-3.6-0.4-5.4,0.9-6.8,2.5c0.8,0,1.6,0,2.3-0.1C24.3,4.1,25.9,3.2,27.1,2.1z"/>
<path d="M19.1,7.3c1.4-0.2,2.7-0.8,3.8-1.7c-2.1-0.5-4.2,0.2-5.7,1.7C17.8,7.4,18.4,7.4,19.1,7.3z"/>
<path d="M11.7,10c1.4-1.2,2.4-2.7,3-4.4c-2.5,1-4.2,3.2-4.6,5.9C10.2,11.3,11.1,10.5,11.7,10z"/>
<path d="M12.7,10.1c0.6,0,1.2,0,1.9-0.1c1.3-0.3,2.5-0.9,3.5-1.9C16.1,7.7,14,8.5,12.7,10.1z"/>
<path d="M14.8,11c-3.1,0.1-4.3,1.1-5.6,3.2c0.6-0.2,1.2-0.4,1.8-0.6C12.4,13.1,13.7,12.2,14.8,11z"/>
<path d="M20.2,2.7c-3.1,1-4.2,2.1-5,4.5C18,6.3,19.1,4.9,20.2,2.7z"/>
<path d="M8.4,19.9c-2.5,1.3-4,4-3.6,6.8c0.3-0.4,0.5-0.9,0.8-1.3C6.9,23.8,7.8,21.9,8.4,19.9z"/>
<path d="M0.9,35.1c0.2,0.7,0.3,1.3,0.4,2c0.4,2.9,3.4,4.1,4.6,5.1C4.9,39.4,3.2,36.9,0.9,35.1z"/>
<path d="M13.6,50.5c-0.4-0.8-0.7-2.4-1.4-3.8c-0.7-1.1-1.4-2.2-2.2-3.2C9.4,47,11.9,49.1,13.6,50.5z"/>
<path d="M19.2,54.3c-0.9-0.9-1.6-3.1-2.4-3.9c-1.5-1.6-1.9-1.5-3.2-3C14,50.5,16.2,53.2,19.2,54.3z"/>
<path d="M2.8,41.6c0.1,0.3,0.6,1.2,1,2c1,2.2,3.2,3.4,5.5,4.1C8,45.2,5.5,43.2,2.8,41.6z"/>
<path d="M9.5,52.5c0.3,0.2,1,0.8,1.7,1.4c2.2,1.9,5,1,7.5,1.5C15.2,53,11.7,52.9,9.5,52.5z"/>
<path d="M6.2,47.7c0.2,0.2,0.8,1.1,1.3,1.7c2,2.6,5,2.3,6.7,2.9C12,50,9.2,48.4,6.2,47.7z"/>
<path d="M8.9,43.4c0.2-3.1-1.5-4.3-1.7-5.9c-0.7,2.6-0.4,4.9,2,8C9,44.8,8.9,44.1,8.9,43.4z"/>
<path d="M5.8,39.3c0.1-0.8,0.2-1.5,0.3-2.2c0.5-2.2,0.2-3.5,0-5.6C4.2,34.4,4.4,36.6,5.8,39.3z"/>
<path d="M2.2,34.9c0.5,0.4,1,1.2,1.4,1.7c0.1-3.1-0.9-6.2-2.7-8.7C1.3,30.1,0.2,32.9,2.2,34.9z"/>
<path d="M4.3,32.3c0.2-0.4,0.5-0.9,0.8-1.3c1.8-2.1,1.5-3.9,2.1-5.7C5.4,27.1,4,28.6,4.3,32.3z"/>
<path d="M4,23.3c1.3-2.8,1.9-5.1,1.3-8c-0.5,1.3-1.9,2.8-1.9,4.8C3.5,21,4.1,23.2,4,23.3z"/>
<path d="M3.2,29.9c0.4-3.2,1-4.8-0.5-8.4c-0.4,1.6-1.9,4.2-0.5,6.7C2.5,28.7,2.9,29.3,3.2,29.9z"/>
<path d="M11.4,14.5c-2.6,0.7-4.5,2.8-5.2,5.3c0.1-0.1,1.2-0.9,1.8-1.2C9.4,17.5,10.6,16.1,11.4,14.5z"/>
<path d="M6.4,16.9c1.6-2,2.6-4.5,2.8-7.1c-0.5,0.6-1,1.2-1.5,1.8c-0.8,1-1.3,2.2-1.4,3.5C6.2,15.7,6.4,16.2,6.4,16.9z"/>
<path d="M46.4,4.6C45,3,43.1,1.7,39.6,2.1c1.3,1.2,2.8,2,4.4,2.4C44.8,4.6,45.6,4.6,46.4,4.6z"/>
<path d="M43.9,5.5c1,1,2.3,1.6,3.7,1.8c0.6,0.1,1.3,0.1,1.9,0C48.1,5.8,46,5.1,43.9,5.5z"/>
<path d="M55,10c0.5,0.5,1.5,1.3,1.6,1.4c-0.4-2.6-2.1-4.9-4.6-5.9C52.7,7.3,53.7,8.8,55,10z"/>
<path d="M54,10.1c-1.3-1.6-3.3-2.3-5.3-2c0.9,1,2.2,1.6,3.5,1.9C52.8,10.1,53.4,10.1,54,10.1z"/>
<path d="M51.9,11c1.1,1.2,2.4,2.1,3.8,2.7c0.6,0.2,1.2,0.4,1.8,0.6C56.3,12.1,55,11.1,51.9,11z"/>
<path d="M51.6,7.2c-0.9-2.4-2-3.5-5-4.5C47.7,4.9,48.8,6.3,51.6,7.2z"/>
<path d="M61.2,25.5c0.3,0.4,0.6,0.8,0.8,1.3c0.3-2.8-1.1-5.6-3.6-6.8C58.9,21.9,59.9,23.8,61.2,25.5z"/>
<path d="M60.8,42.1c1.2-1,4.2-2.2,4.6-5.1c0.1-0.7,0.2-1.3,0.4-2C63.5,36.9,61.8,39.4,60.8,42.1z"/>
<path d="M56.7,43.5c-0.8,1-1.5,2.1-2.2,3.2c-0.7,1.3-1,2.9-1.4,3.8C54.8,49.1,57.3,47,56.7,43.5z"/>
<path d="M53.1,47.4c-1.3,1.5-1.6,1.3-3.2,3c-0.8,0.9-1.6,3.1-2.4,3.9C50.6,53.3,52.7,50.6,53.1,47.4z"/>
<path d="M57.5,47.6c2.2-0.8,4.5-2,5.5-4.1c0.4-0.8,0.8-1.7,1-2C61.3,43.2,58.8,45.2,57.5,47.6z"/>
<path d="M55.6,53.9c0.7-0.6,1.4-1.2,1.7-1.4c-2.2,0.5-5.7,0.5-9.2,3C50.6,54.9,53.4,55.8,55.6,53.9z"/>
<path d="M52.5,52.3c1.7-0.7,4.8-0.4,6.7-2.9c0.5-0.7,1.1-1.5,1.3-1.7C58.5,48.3,55.1,49.3,52.5,52.3z"/>
<path d="M59.6,37.5c-0.2,1.6-1.9,2.8-1.7,5.9c0,0.7-0.1,1.4-0.2,2.1C59.9,42.4,60.3,40.1,59.6,37.5z"/>
<path d="M60.6,37.1c0.2,0.7,0.3,1.5,0.3,2.3c1.4-2.7,1.6-4.9-0.4-7.8C60.4,33.6,60.1,34.8,60.6,37.1z"/>
<path d="M63.1,36.6c0.4-0.5,1-1.2,1.4-1.7c2-2,0.9-4.8,1.3-7C64,30.4,63,33.5,63.1,36.6z"/>
<path d="M59.5,25.3c0.6,1.8,0.3,3.6,2.1,5.7c0.3,0.4,0.6,0.9,0.8,1.3C62.7,28.6,61.4,27.1,59.5,25.3z"/>
<path d="M63.2,20.1c0-2-1.3-3.4-1.9-4.8c-0.6,2.9,0,5.2,1.3,8C62.6,23.2,63.2,21,63.2,20.1z"/>
<path d="M63.5,29.9c0.3-0.6,0.6-1.2,1-1.7c1.3-2.5-0.2-5.1-0.5-6.7C62.6,25.1,63.1,26.7,63.5,29.9z"/>
<path d="M58.7,18.6c0.6,0.4,1.6,1.1,1.7,1.2c-0.6-2.6-2.6-4.6-5.1-5.3C56.1,16.1,57.3,17.5,58.7,18.6z"/>
<path d="M60.5,15.1c0-1.3-0.5-2.5-1.3-3.5c-0.5-0.6-1.2-1.2-1.6-1.8c0.1,2.6,1.1,5.1,2.8,7.1C60.3,16.2,60.5,15.7,60.5,15.1z"/>
<path d="M28.8,55.5c-1.8-1.2-3.8-1.2-4.7-1.8c1.2,2,2.9,3.7,5,4.8c0.4,0.2,0.6,0.8-0.1,0.5c-2-0.8-6.1-0.5-8.6,0.8
	c1.7,0.4,3.8,1.6,6.1,1.8c2,0.2,3.6-0.7,6-0.6c3.1,0.2,3.6,1.9,10.9,3.7c0.3,0.1,0.6,0,0.8-0.2c0.2-0.2,0.5-0.5,0.7-0.8
	c-6.2-0.4-9.5-2.4-12.1-4.6C31.4,57.8,29.8,56.2,28.8,55.5z"/>
<path d="M24,57.7c-1.6-0.7-3.4-1.1-5.1-1.2c-2.1-0.2-3.7,0.1-4.9,0c0.7,0.4,2.1,1.1,2.5,1.3C19.4,59.8,22,57.4,24,57.7z"/>
<path d="M25.5,57.2c-1.2-1-2.1-2.9-2.8-3.6c-2-1.8-2.8-1.5-4.4-2.6C19.6,54.1,22.3,56.4,25.5,57.2z"/>
<path d="M23.1,25.2l-0.2,0.1c-0.1,0-0.2,0-0.4,0c-0.3-0.1-0.6-0.1-0.8,0l-0.4,0.1c-0.2,0.1-0.2,0-0.2-0.1c0-0.1,0-0.1,0.1-0.2
	c0.1-0.2,0.1-0.4-0.1-0.6c-0.2-0.1-0.4,0-0.5,0.1l-0.4,0.3c-0.1,0.1-0.1,0.2,0.1,0.2s0.2,0.2,0.2,0.4c0,0.2,0,0.3-0.1,0.5
	c-0.1,0.2,0,0.5,0.3,0.6c0,0,0.1,0,0.1,0c0.4,0,0.8,0,1.1,0c0.5,0,0.9-0.3,1.1-0.8c0-0.1,0.2-0.3,0.2-0.4S23.2,25.1,23.1,25.2z"/>
<path d="M30.7,25.2l-0.2,0.1c-0.1,0-0.2,0-0.3,0c-0.3-0.1-0.6-0.1-0.9,0l-0.4,0.1c-0.2,0.1-0.2,0-0.2-0.1l0.1-0.2
	c0.1-0.2,0.1-0.4,0-0.6c-0.2-0.1-0.4,0-0.5,0.1l-0.4,0.3c-0.1,0.1-0.1,0.2,0.1,0.2s0.2,0.2,0.2,0.4c0,0.2-0.1,0.3-0.1,0.5
	c-0.1,0.2,0,0.5,0.3,0.6c0.1,0,0.1,0,0.2,0c0.4,0,0.8,0,1.1,0c0.5,0,0.9-0.3,1.1-0.8c0-0.1,0.2-0.3,0.2-0.4S30.8,25.1,30.7,25.2z"/>
<path d="M33.4,14.9c0.6,0,1.2-0.5,1.2-1.2s-0.5-1.2-1.2-1.2s-1.2,0.5-1.2,1.2l0,0C32.2,14.4,32.7,14.9,33.4,14.9
	C33.4,14.9,33.4,14.9,33.4,14.9z"/>
<path d="M28.5,15.3c0.6-0.1,1.1-0.7,1-1.3c-0.1-0.6-0.7-1.1-1.3-1c-0.6,0.1-1.1,0.7-1,1.3C27.3,15,27.9,15.4,28.5,15.3
	C28.5,15.3,28.5,15.3,28.5,15.3z"/>
<path d="M23.1,14.3c-0.6,0.2-1,0.8-0.8,1.4c0.2,0.6,0.8,1,1.4,0.8c0,0,0.1,0,0.1,0c0.6-0.2,0.9-0.9,0.7-1.5
	C24.3,14.5,23.7,14.1,23.1,14.3z"/>
<path d="M18.3,16.3c-0.6,0.3-0.8,1-0.5,1.5c0,0,0,0,0,0c0.2,0.6,0.8,0.9,1.4,0.7c0.6-0.2,0.9-0.8,0.7-1.4c0-0.1-0.1-0.3-0.2-0.4
	C19.5,16.3,18.8,16,18.3,16.3z"/>
<path d="M38.2,15.3c0.6,0.1,1.2-0.4,1.3-1c0.1-0.6-0.4-1.2-1-1.3c-0.6-0.1-1.2,0.4-1.3,1C37.1,14.6,37.5,15.2,38.2,15.3
	C38.2,15.3,38.2,15.3,38.2,15.3z"/>
<path d="M42.9,16.5c0.6,0.2,1.3-0.1,1.5-0.7c0.2-0.6-0.1-1.3-0.7-1.5c-0.6-0.2-1.3,0.1-1.5,0.7C41.9,15.6,42.3,16.3,42.9,16.5
	C42.9,16.5,42.9,16.5,42.9,16.5z"/>
<path d="M47.4,18.3c0.6,0.3,1.3,0.1,1.6-0.5c0.3-0.6,0.1-1.3-0.5-1.5c0,0,0,0,0,0c-0.6-0.3-1.3-0.1-1.6,0.4
	c-0.3,0.6-0.1,1.3,0.4,1.6C47.3,18.3,47.3,18.3,47.4,18.3z"/>
<path d="M35.8,36.2c0.2,0,0.2,0.2,0.2,0.4c0,0.2-0.1,0.3-0.1,0.5c-0.1,0.3,0,0.5,0.3,0.6c0,0,0.1,0,0.1,0c0.4,0,0.8,0,1.1,0
	c0.5,0,0.9-0.3,1.1-0.8c0.1-0.1,0.1-0.3,0.2-0.4c0.1-0.2-0.1-0.3-0.2-0.2c-0.1,0-0.2,0-0.2,0c-0.1,0-0.2,0-0.3,0
	c-0.3-0.1-0.6-0.1-0.9,0c-0.1,0.1-0.2,0.1-0.4,0.1c-0.2,0.1-0.2,0-0.2-0.1l0.1-0.2c0.1-0.2,0.1-0.4,0-0.6c-0.2-0.1-0.4,0-0.5,0.1
	l-0.4,0.3C35.5,36,35.6,36.2,35.8,36.2z"/>
<path d="M42.9,36.2c0.2,0,0.2,0.2,0.2,0.4c0,0.2,0,0.3-0.1,0.5c-0.1,0.3,0,0.5,0.3,0.6c0,0,0.1,0,0.1,0c0.4,0,0.8,0,1.1,0
	c0.5,0,0.9-0.3,1.1-0.8c0.1-0.1,0.1-0.3,0.2-0.4c0.1-0.2-0.1-0.3-0.2-0.2c-0.1,0-0.1,0.1-0.2,0.1c-0.1,0-0.2,0-0.4,0
	c-0.3-0.1-0.6-0.1-0.8,0c-0.1,0.1-0.2,0.1-0.4,0.1c-0.2,0.1-0.2,0-0.2-0.1c0-0.1,0-0.1,0.1-0.2c0.1-0.2,0.1-0.4-0.1-0.6
	c-0.2-0.1-0.4,0-0.5,0.1l-0.4,0.3C42.7,36,42.8,36.2,42.9,36.2z"/>
<path d="M24.4,32.1c0.2,0,0.2,0.2,0.2,0.4c0,0.2-0.1,0.3-0.1,0.5c-0.1,0.3,0,0.5,0.3,0.6c0,0,0.1,0,0.1,0c0.4,0,0.8,0,1.1,0
	c0.5,0,0.9-0.3,1.1-0.8c0-0.1,0.2-0.3,0.2-0.4c0.1-0.2-0.1-0.3-0.2-0.2c-0.1,0-0.1,0.1-0.2,0.1c-0.1,0-0.2,0-0.4,0
	c-0.3-0.1-0.6-0.1-0.8,0l-0.4,0.1c-0.2,0-0.2,0-0.2-0.1c0-0.1,0-0.1,0.1-0.2c0.1-0.2,0.1-0.4-0.1-0.6c-0.2-0.1-0.4,0-0.5,0.1
	c-0.1,0.1-0.3,0.2-0.4,0.3C24.2,31.9,24.3,32.1,24.4,32.1z"/>
<path d="M39,43.1c0.2,0,0.2,0.2,0.2,0.4c0,0.2-0.1,0.3-0.1,0.5c-0.1,0.3,0,0.5,0.3,0.6c0,0,0.1,0,0.1,0c0.4,0,0.8,0,1.1,0
	c0.5,0,0.9-0.3,1.1-0.8c0-0.1,0.2-0.3,0.2-0.4s-0.1-0.3-0.2-0.2c-0.1,0-0.1,0.1-0.2,0.1c-0.1,0-0.2,0-0.3,0c-0.3-0.1-0.6-0.1-0.9,0
	c-0.1,0.1-0.2,0.1-0.4,0.1c-0.2,0.1-0.2,0-0.2-0.1l0.1-0.2c0.1-0.2,0.1-0.4,0-0.6c-0.2-0.1-0.4,0-0.5,0.1l-0.4,0.3
	C38.8,43,38.8,43.2,39,43.1z"/>
<path d="M25.6,13.4c-1.1-1.2-2.9-1.3-4.1-0.2c-0.5,0.5-0.8,1.1-0.9,1.8c-0.5-0.4-1.1-0.6-1.8-0.6c-1.6,0-2.9,1.3-2.8,2.9
	c0,1.2,0.8,2.3,2,2.7v2.6h-5.3l5.2,5.5v13.6c0,2.3,0.9,4,3.8,4.3s6.1,0.7,7.6,0.9c2,0.2,3,0.5,4.2,2.2c1.1-1.6,2.2-2,4.2-2.2
	c1.5-0.2,4.8-0.5,7.6-0.9s3.8-2,3.8-4.3V28.2l5.1-5.5h-5.3v-2.6c1.5-0.4,2.4-2,2-3.6c-0.4-1.5-2-2.4-3.6-2c-0.4,0.1-0.7,0.3-1,0.5
	c-0.2-1.6-1.6-2.7-3.2-2.5c-0.7,0.1-1.3,0.4-1.8,0.9c-0.4-1.5-2-2.4-3.6-2c-0.7,0.2-1.2,0.6-1.6,1.2c-0.7-1.4-2.4-2.1-3.8-1.4
	c-0.6,0.3-1.1,0.8-1.4,1.4c-0.9-1.3-2.7-1.6-4-0.7C26.2,12.2,25.8,12.8,25.6,13.4z M18.7,27.3l-3.3-3.5h17.7v3.5H18.7z M25.8,43.6
	h-6.4c-0.2-0.5-0.4-1-0.4-1.5h6.8L25.8,43.6L25.8,43.6z M25.8,39.8H19v-5h6.8L25.8,39.8L25.8,39.8z M33.1,47.1
	c-0.9-0.7-2-1.1-3.1-1.2l-3.6-0.4v-5.1h6.8L33.1,47.1L33.1,47.1z M33.1,38.1h-6.7v-1.4h6.8L33.1,38.1L33.1,38.1z M33.1,34.3H19v-3.5
	h14.1L33.1,34.3L33.1,34.3z M33.1,30.2H19v-2.3h14.1L33.1,30.2L33.1,30.2z M33.6,23.8h6.8v5h-6.8C33.6,28.8,33.6,23.8,33.6,23.8z
	 M40.4,31.1v1.5h-6.8v-1.4L40.4,31.1L40.4,31.1z M44.9,44.9l-8.2,0.9c-1.1,0.1-2.2,0.5-3.1,1.2v-5.2h14.1
	C47.7,43.6,47.1,44.7,44.9,44.9L44.9,44.9z M47.7,41.3H33.6v-2.4h14.1V41.3z M47.7,38.4H33.6v-3.6h14.1V38.4L47.7,38.4z M47.7,34.4
	H41v-5h6.8V34.4L47.7,34.4z M49.7,25.6l-1.4,1.4H41v-1.5L49.7,25.6L49.7,25.6z M28,12.1c1.2-0.2,2.3,0.6,2.5,1.8c0,0.2,0,0.4,0,0.7
	l0.8-0.1c-0.1-0.2-0.1-0.4-0.1-0.7c-0.1-1.2,0.8-2.2,2-2.3s2.2,0.8,2.3,2c0,0.1,0,0.2,0,0.3c0,0.2,0,0.4-0.1,0.7l0.8,0.1
	c0-0.2,0-0.4,0-0.7c0.1-1.2,1.2-2,2.4-1.9s2,1.2,1.9,2.4c0,0.3-0.1,0.6-0.3,0.8l0.9,0.2c0-0.2,0-0.4,0.1-0.6
	c0.4-1.1,1.6-1.7,2.7-1.3c1.1,0.4,1.7,1.6,1.3,2.7c-0.1,0.2-0.2,0.4-0.3,0.5l0.8,0.3c0-0.2,0.1-0.4,0.2-0.6c0.5-1.1,1.8-1.5,2.9-0.9
	c1.1,0.5,1.5,1.8,0.9,2.9c-0.2,0.4-0.5,0.7-0.9,0.9l-2.7,1.5l-0.4-2.7c-0.5-0.2-1-0.5-1.6-0.7L42.1,19l-0.8-2.6
	c-0.5-0.2-1.1-0.3-1.7-0.4l-1.9,2l-1.2-2.5c-0.6-0.1-1.1-0.1-1.7-0.1l-1.5,2.2l-1.6-2.2c-0.6,0-1.1,0.1-1.7,0.1l-1.2,2.5l-1.9-2
	c-0.6,0.1-1.1,0.2-1.7,0.4l-0.8,2.6l-2.2-1.6c-0.5,0.2-1,0.4-1.6,0.7l-0.3,2.7l-2.7-1.5c-1-0.6-1.4-1.9-0.9-2.9
	c0.6-1,1.9-1.4,2.9-0.9c0.4,0.2,0.7,0.5,0.9,0.9c0.1,0.2,0.2,0.4,0.2,0.6l0.8-0.3c-0.1-0.2-0.2-0.4-0.3-0.6
	c-0.2-1.2,0.6-2.3,1.8-2.5s2.3,0.6,2.5,1.8l0.8-0.2c-0.1-0.2-0.2-0.4-0.2-0.6C26.1,13.3,26.8,12.2,28,12.1z"/>
</svg>
