<?xml version="1.0" encoding="UTF-8"?>
<svg  width="20px" height="20px" viewBox="0 0 100 100" version="1.1" xmlns="http://www.w3.org/2000/svg" xmlns:xlink="http://www.w3.org/1999/xlink">
    <!-- Generator: Sketch 54.1 (76490) - https://sketchapp.com -->
    <title>citroen</title>
    <desc>Created with Sketch.</desc>
    <g id="citroen" stroke="none" stroke-width="1" fill="none" fill-rule="evenodd">
        <path d="M96.9796045,90.256219 C97.0275743,89.1008211 97.0714858,87.6374291 97.0714858,86.1562728 C97.0714858,82.9899112 94.4754163,79.9887093 94.4525055,79.9627831 C81.186011,65.2606867 58.7695521,43.5124156 50.4326783,42.757674 C50.2641891,42.7396697 50.0004774,42.7562337 50.0004774,42.7562337 C50.0052503,52.7942482 50.3391262,52.3246952 44.4186169,54.8258568 C43.8088579,55.0829586 23.9548182,63.4746571 5.0181615,80.6272629 C2.71658975,83.2294888 2.9297071,85.8307545 2.9297071,85.8307545 C2.9297071,87.4052933 2.97791501,88.480992 3.03018012,90.2492573 C11.7646497,82.7611362 37.6823907,61.4824179 50.0004774,61.4824179 C62.3123587,61.4824179 88.2491924,82.7745794 96.9796045,90.256219 Z M96.6228177,77.9825468 C96.7595665,78.1364238 100,81.8390744 100,86.1562728 C100,89.5168412 99.7768596,92.8987747 99.7754274,92.9249409 C99.7689837,93.08746 99.690228,94.5167638 98.8983768,94.904457 C98.768788,94.9668721 98.6320392,94.9992798 98.4881316,94.9992798 C98.1888608,94.9992798 97.8557009,94.8631671 97.4872198,94.592382 C97.1476161,94.2908695 63.3283054,64.4305671 49.9997614,64.4305671 C36.6736035,64.4305671 2.85429265,94.2908695 2.49679009,94.6067855 C2.13976489,94.8672481 1.81161673,95 1.51640262,95 C1.37249477,95 1.23359862,94.9685525 1.10520317,94.904457 C0.311442502,94.5167638 0.232925572,93.08746 0.226004624,92.9319026 C0.223379405,92.8987747 0,89.5168412 0,86.1562728 C0,81.8390744 3.24043361,78.1364238 3.37837514,77.9825468 L3.38004574,77.9808664 C4.78738388,76.4200109 37.9854803,39.7898401 49.9997614,39.7898401 C62.0161904,39.7898401 95.2133318,76.4200109 96.6228177,77.9825468 Z M96.9325419,55.4159667 C96.9802728,54.2622493 97.0244241,52.8012578 97.0244241,51.3208217 C97.0244241,48.1580609 94.43074,45.1592596 94.4078301,45.1330934 C81.1546994,30.4461207 58.7609123,8.7192146 50.4326306,7.96495317 C50.2639028,7.9471889 50.0006683,7.96375288 50.0006683,7.96375288 C50.0052026,17.991925 50.3386012,17.522132 44.4240582,20.0216132 C43.8152538,20.2782349 23.9810223,28.6615314 5.0629806,45.7975732 C2.76379535,48.3966784 2.97691269,50.9962636 2.97691269,50.9962636 C2.97691269,52.5681617 3.0251207,53.6433804 3.07738571,55.4092451 C11.8027865,47.9292859 37.6949916,26.6714527 50.0006683,26.6714527 C62.2999014,26.6714527 88.210721,47.9429692 96.9325419,55.4159667 Z M96.5764713,43.1545375 C96.71322,43.3084145 99.9498351,47.0072241 99.9498351,51.3208217 C99.9498351,54.6777892 99.7274107,58.0566019 99.7257396,58.0825282 C99.7195348,58.2450472 99.6410181,59.6724306 98.849644,60.0601238 C98.7200552,60.1225388 98.5833064,60.1539864 98.4393988,60.1539864 C98.1408432,60.1539864 97.8076833,60.0195541 97.4401581,59.7487689 C97.1005545,59.4462962 63.3151319,29.616241 49.9999523,29.616241 C36.6869204,29.616241 2.90125961,59.4462962 2.54471167,59.7624523 C2.1879251,60.023395 1.86025421,60.1549466 1.56504019,60.1549466 C1.42113233,60.1549466 1.28271345,60.123259 1.15384065,60.0601238 C0.361034592,59.6724306 0.283233646,58.2450472 0.276074066,58.0894898 C0.27368757,58.0566019 0.0498308112,54.6777892 0.0498308112,51.3208217 C0.0498308112,47.0072241 3.28716194,43.3084145 3.4253421,43.1545375 L3.4270127,43.1528571 C4.83268024,41.5944022 37.9976039,5 49.9999523,5 C62.0046872,5 95.1674633,41.5944022 96.5764713,43.1545375 Z" id="Citroen" fill="#000000"></path>
    </g>
</svg>