<?xml version="1.0" encoding="UTF-8" standalone="no"?>
<svg
   xmlns:dc="http://purl.org/dc/elements/1.1/"
   xmlns:cc="http://creativecommons.org/ns#"
   xmlns:rdf="http://www.w3.org/1999/02/22-rdf-syntax-ns#"
   xmlns:svg="http://www.w3.org/2000/svg"
   xmlns="http://www.w3.org/2000/svg"
   height="20px"
   width="20px"
   xml:space="preserve"
   style="enable-background:new 0 0 100 100;"
   viewBox="0 0 100 100"
   y="0px"
   x="0px"
   id="Layer_1"
   version="1.1"><metadata
   id="metadata10"><rdf:RDF><cc:Work
       rdf:about=""><dc:format>image/svg+xml</dc:format><dc:type
         rdf:resource="http://purl.org/dc/dcmitype/StillImage" /><dc:title></dc:title></cc:Work></rdf:RDF></metadata><defs
   id="defs8" />

<path
   style="stroke-width:2.90589643"
   d="M 47.051501,93.821159 C 37.828183,93.332966 31.464276,91.444133 27.468665,88.012275 20.596221,82.104584 16.676168,73.718169 9.9519211,50.532017 9.0510934,47.42852 8.060183,44.078021 7.7463459,43.084204 5.6831599,36.548843 2.6988028,24.001181 0.85646468,14.112415 0.62399282,12.871597 0.37989807,11.587191 0.30725125,11.253012 -0.02983367,9.6518641 0.65886451,8.3819862 2.1495883,7.8560196 5.7093121,6.6006721 49.719118,5.6446322 71.629586,6.3478594 c 2.031212,0.063927 5.51829,0.1743533 7.750026,0.2440953 8.796155,0.2731533 17.284277,0.8368973 18.504745,1.2291932 1.261162,0.4039198 2.112577,1.8830217 1.842336,3.1906751 -0.06969,0.334176 -0.345817,1.821997 -0.613138,3.306911 -4.106026,22.689241 -14.599224,57.022408 -20.268637,66.303837 -2.59205,4.245519 -6.320324,7.997034 -9.615607,9.679547 -4.756958,2.42933 -14.256336,3.937485 -22.1749,3.519041 z m 8.11327,-9.374428 C 64.536282,83.635985 69.763994,80.241902 74.273957,72.035651 76.511491,67.961583 81.500917,55.434268 85.316355,44.310493 90.026812,30.571413 96.280298,8.4749754 95.585794,8.0332784 95.106341,7.7310652 94.716942,7.9693501 94.580356,8.6522353 93.118691,15.905354 89.114367,28.133367 86.39444,33.654569 83.052666,40.442744 77.633168,47.942864 73.326629,51.737965 l -1.028694,0.906639 -1.583703,3.943302 c -7.122369,17.752122 -8.313783,18.836021 -20.695809,18.836021 -12.297751,0 -13.785571,-1.336713 -20.57956,-18.525092 C 28.753078,55.166924 28.102147,53.498939 27.98882,53.193819 27.840625,52.795711 27.613963,52.508027 27.198418,52.191285 24.478499,50.116475 18.620211,42.63379 15.574833,37.347964 12.047074,31.219429 8.4989735,21.394593 5.9999014,10.831657 5.2647097,7.7281598 5.3344521,7.9054196 4.8811312,7.9490077 4.1808112,8.0158456 4.4888353,9.7593816 6.4386929,16.788745 12.172027,37.429329 17.315464,52.624263 23.31614,66.651027 c 3.274946,7.654131 6.105287,11.597434 10.318843,14.372562 3.123834,2.05737 6.090756,2.926241 11.841524,3.469644 1.040311,0.09882 8.430001,0.06397 9.685354,-0.04339 z m 0.241186,-9.638851 c 5.108574,-0.656734 7.633796,-2.574625 10.231665,-7.770368 0.99382,-1.987635 5.329435,-12.475015 5.811807,-14.058729 l 0.09014,-0.293495 -2.284036,0.07846 c -1.255343,0.04358 -3.838705,0.145293 -5.736251,0.226661 -4.573881,0.194693 -22.221392,0.194693 -26.879538,0 -1.964384,-0.08137 -4.602945,-0.18307 -5.861197,-0.226661 l -2.286936,-0.07846 0.08128,0.325459 c 0.09014,0.363238 3.013424,7.69772 4.236792,10.629771 2.734455,6.561515 4.992345,9.333738 8.491041,10.429261 3.059906,0.958946 9.691164,1.304749 14.105213,0.738101 z m 9.990469,-22.494549 c 2.397376,-0.101711 4.974898,-0.217943 5.727532,-0.26153 l 1.368682,-0.07846 0.732287,-0.677074 C 75.270666,49.401628 78.996031,44.87424 81.463144,41.282553 86.522307,33.921916 90.294153,24.538777 93.749267,10.729955 94.536764,7.5828692 94.635566,7.8676465 92.720583,7.7630345 66.108377,6.2810271 36.07884,6.2112862 11.152057,7.5654333 9.9548266,7.6293617 8.2781245,7.7194464 7.4296033,7.7630345 5.4535935,7.864736 5.5407707,7.6584214 6.2643385,10.53526 11.111374,29.830413 16.554119,40.817608 26.059306,50.500056 l 1.441322,1.467478 1.150738,0.07555 c 1.078085,0.06974 9.502278,0.395203 12.591248,0.485287 3.495786,0.101712 20.129141,-0.04651 24.156721,-0.215039 z M 18.161081,31.841291 C 18.01869,31.736678 17.995444,30.853285 18.021597,26.328804 l 0.03198,-5.387532 4.297822,-0.03486 c 2.830342,-0.02326 4.547728,0.01161 5.024298,0.101712 5.686826,1.06937 6.021015,9.202975 0.438784,10.696605 -1.054839,0.281872 -9.298867,0.40392 -9.653387,0.139484 z m 8.36317,-2.88265 c 1.8714,-1.060652 1.670891,-4.620376 -0.299308,-5.28292 -0.60152,-0.200504 -4.24842,-0.185976 -4.379185,0.01746 -0.113331,0.177258 -0.136576,5.062072 -0.02614,5.349756 0.130765,0.342898 4.074065,0.273154 4.704645,-0.08426 z m 5.082409,2.90299 c -0.09298,-0.244095 2.185234,-5.335226 3.847413,-8.598547 0.999629,-1.964387 1.720288,-2.37993 4.152528,-2.400271 3.190661,-0.02614 3.190661,-0.02326 7.064229,8.560771 1.287307,2.856498 1.374481,2.594966 -0.860144,2.592061 -2.156179,-0.003 -2.013785,0.05521 -2.531041,-1.028688 l -0.403917,-0.848522 h -6.416217 l -0.967665,1.816186 -1.909174,0.03198 c -1.516875,0.02614 -1.923701,0 -1.973102,-0.130765 z m 9.943978,-4.213549 c 0.104611,-0.168541 -1.76388,-3.983985 -1.949856,-3.983985 -0.16854,0 -2.019594,3.856125 -1.926601,4.007232 0.09878,0.162729 3.774745,0.139483 3.873558,-0.02326 z m 10.283966,4.239703 c -4.321057,-0.627675 -6.093665,-6.195372 -2.966922,-9.327929 1.499448,-1.502348 2.327628,-1.694138 7.17176,-1.650548 l 3.667235,0.03198 v 2.54264 l -6.939272,0.122048 -0.456248,0.36905 c -1.455856,1.179794 -1.330909,4.021762 0.220861,4.960366 0.363224,0.217944 0.685785,0.244096 3.786383,0.299307 l 3.391175,0.06102 v 2.664708 l -3.571342,0.01746 c -1.964384,0.0086 -3.899713,-0.03198 -4.297831,-0.09008 z m 9.641773,-0.02905 C 61.374644,31.736682 61.3456,30.243051 61.368856,26.317184 l 0.03215,-5.373002 h 3.632372 v 11.01916 l -1.70867,0.03486 c -1.342517,0.02614 -1.737725,-0.003 -1.848145,-0.133671 z m 4.774384,0.0523 c -0.16562,-0.267342 4.100227,-9.388951 4.698838,-10.042777 1.316372,-1.441326 5.651976,-1.351243 6.78818,0.139482 0.685796,0.900828 4.759857,9.728942 4.573881,9.91492 -0.05809,0.05812 -0.944409,0.09008 -1.973102,0.06974 l -1.868492,-0.03487 -0.967664,-1.816185 h -6.416217 l -0.392289,0.772969 c -0.598622,1.176888 -0.427183,1.10424 -2.522323,1.10424 -1.019965,0 -1.885938,-0.0494 -1.923711,-0.110425 z m 9.981771,-4.31235 c 0,-0.273154 -1.781327,-3.934584 -1.914993,-3.934584 -0.185997,0 -0.305104,0.209222 -1.153641,2.022505 -1.075175,2.295658 -1.185605,2.095151 1.130395,2.095151 1.647642,0 1.938239,-0.02614 1.938239,-0.183072 z"
   id="path819" /></svg>