<!-- Generated by IcoMoon.io -->
<svg version="1.1" xmlns="http://www.w3.org/2000/svg" width="36" height="32" viewBox="0 0 36 32">
<title>dacia</title>
<path d="M17.13 31.203c-3.174-0.168-5.364-0.818-6.739-1.999-2.365-2.033-3.714-4.919-6.028-12.898-0.31-1.068-0.651-2.221-0.759-2.563-0.71-2.249-1.737-6.567-2.371-9.97-0.080-0.427-0.164-0.869-0.189-0.984-0.116-0.551 0.121-0.988 0.634-1.169 1.225-0.432 16.37-0.761 23.91-0.519 0.699 0.022 1.899 0.060 2.667 0.084 3.027 0.094 5.948 0.288 6.368 0.423 0.434 0.139 0.727 0.648 0.634 1.098-0.024 0.115-0.119 0.627-0.211 1.138-1.413 7.808-5.024 19.623-6.975 22.817-0.892 1.461-2.175 2.752-3.309 3.331-1.637 0.836-4.906 1.355-7.631 1.211zM19.922 27.977c3.225-0.279 5.024-1.447 6.576-4.271 0.77-1.402 2.487-5.713 3.8-9.541 1.621-4.728 3.773-12.332 3.534-12.484-0.165-0.104-0.299-0.022-0.346 0.213-0.503 2.496-1.881 6.704-2.817 8.604-1.15 2.336-3.015 4.917-4.497 6.223l-0.354 0.312-0.545 1.357c-2.451 6.109-2.861 6.482-7.122 6.482-4.232 0-4.744-0.46-7.082-6.375-0.236-0.596-0.46-1.17-0.499-1.275-0.051-0.137-0.129-0.236-0.272-0.345-0.936-0.714-2.952-3.289-4-5.108-1.214-2.109-2.435-5.49-3.295-9.125-0.253-1.068-0.229-1.007-0.385-0.992-0.241 0.023-0.135 0.623 0.536 3.042 1.973 7.103 3.743 12.332 5.808 17.159 1.127 2.634 2.101 3.991 3.551 4.946 1.075 0.708 2.096 1.007 4.075 1.194 0.358 0.034 2.901 0.022 3.333-0.015zM20.005 24.66c1.758-0.226 2.627-0.886 3.521-2.674 0.342-0.684 1.834-4.293 2-4.838l0.031-0.101-0.786 0.027c-0.432 0.015-1.321 0.050-1.974 0.078-1.574 0.067-7.647 0.067-9.25 0-0.676-0.028-1.584-0.063-2.017-0.078l-0.787-0.027 0.028 0.112c0.031 0.125 1.037 2.649 1.458 3.658 0.941 2.258 1.718 3.212 2.922 3.589 1.053 0.33 3.335 0.449 4.854 0.254zM23.443 16.919c0.825-0.035 1.712-0.075 1.971-0.090l0.471-0.027 0.252-0.233c0.704-0.652 1.986-2.21 2.835-3.446 1.741-2.533 3.039-5.762 4.228-10.514 0.271-1.083 0.305-0.985-0.354-1.021-9.158-0.51-19.492-0.534-28.070-0.068-0.412 0.022-0.989 0.053-1.281 0.068-0.68 0.035-0.65-0.036-0.401 0.954 1.668 6.64 3.541 10.421 6.812 13.753l0.496 0.505 0.396 0.026c0.371 0.024 3.27 0.136 4.333 0.167 1.203 0.035 6.927-0.016 8.313-0.074zM7.188 9.874c-0.049-0.036-0.057-0.34-0.048-1.897l0.011-1.854 1.479-0.012c0.974-0.008 1.565 0.004 1.729 0.035 1.957 0.368 2.072 3.167 0.151 3.681-0.363 0.097-3.2 0.139-3.322 0.048zM10.066 8.882c0.644-0.365 0.575-1.59-0.103-1.818-0.207-0.069-1.462-0.064-1.507 0.006-0.039 0.061-0.047 1.742-0.009 1.841 0.045 0.118 1.402 0.094 1.619-0.029zM11.815 9.881c-0.032-0.084 0.752-1.836 1.324-2.959 0.344-0.676 0.592-0.819 1.429-0.826 1.098-0.009 1.098-0.008 2.431 2.946 0.443 0.983 0.473 0.893-0.296 0.892-0.742-0.001-0.693 0.019-0.871-0.354l-0.139-0.292h-2.208l-0.333 0.625-0.657 0.011c-0.522 0.009-0.662-0-0.679-0.045zM15.237 8.431c0.036-0.058-0.607-1.371-0.671-1.371-0.058 0-0.695 1.327-0.663 1.379 0.034 0.056 1.299 0.048 1.333-0.008zM18.776 9.89c-1.487-0.216-2.097-2.132-1.021-3.21 0.516-0.517 0.801-0.583 2.468-0.568l1.262 0.011v0.875l-2.388 0.042-0.157 0.127c-0.501 0.406-0.458 1.384 0.076 1.707 0.125 0.075 0.236 0.084 1.303 0.103l1.167 0.021v0.917l-1.229 0.006c-0.676 0.003-1.342-0.011-1.479-0.031zM22.094 9.88c-0.035-0.042-0.045-0.556-0.037-1.907l0.011-1.849h1.25v3.792l-0.588 0.012c-0.462 0.009-0.598-0.001-0.636-0.046zM23.737 9.898c-0.057-0.092 1.411-3.231 1.617-3.456 0.453-0.496 1.945-0.465 2.336 0.048 0.236 0.31 1.638 3.348 1.574 3.412-0.020 0.020-0.325 0.031-0.679 0.024l-0.643-0.012-0.333-0.625h-2.208l-0.135 0.266c-0.206 0.405-0.147 0.38-0.868 0.38-0.351 0-0.649-0.017-0.662-0.038zM27.172 8.414c0-0.094-0.613-1.354-0.659-1.354-0.064 0-0.105 0.072-0.397 0.696-0.37 0.79-0.408 0.721 0.389 0.721 0.567 0 0.667-0.009 0.667-0.063z"></path>
</svg>
