<?xml version="1.0" encoding="utf-8"?>
<!-- Generator: Adobe Illustrator 21.0.0, SVG Export Plug-In . SVG Version: 6.00 Build 0)  -->
<svg version="1.1" id="Layer_1" xmlns="http://www.w3.org/2000/svg" xmlns:xlink="http://www.w3.org/1999/xlink" x="0px" y="0px"
	 viewBox="0 0 612 612" style="enable-background:new 0 0 612 612;" xml:space="preserve" width="20px" height="20px">
<g>
	<path d="M381.9,529.8c-14-161.8,92.6-292.9,209.2-308.3C662.4,365.8,529.9,503.7,381.9,529.8L381.9,529.8z"/>
	<path d="M507,125.6c17.6,11,45.4,37.5,55.1,50.4c-149,79.4-194.8,224.6-190.9,355.5c-6.4,1.2-13.6,1.7-19.5,2.8
		C340.5,345.6,423.6,209.8,507,125.6L507,125.6z"/>
	<path d="M390.4,74.9c21.3,3.8,53.1,15.1,70.6,24.3c-83.2,160.9-124.7,252-118.7,436.2l-19.1,1.2C324.8,277.7,348.6,226,390.4,74.9
		L390.4,74.9z"/>
	<path d="M340.4,67.2c-21.4-2-45.8-2.7-71.1-0.7C292,224,294.6,290.7,298.9,536.9c5.4,0.1,9.2,0.1,15.8-0.2
		C313.7,292.1,319,226.1,340.4,67.2L340.4,67.2z"/>
	<path d="M221.5,74.9c-21.3,3.8-53,15.1-70.5,24.3c83.1,160.9,124.7,252,118.6,436.2l19.2,1.2C287.2,277.7,263.4,226,221.5,74.9
		L221.5,74.9z"/>
	<path d="M105.1,125.6c-17.6,11-45.3,37.5-55.1,50.4c149,79.4,194.7,224.6,190.8,355.5c6.5,1.2,13.8,1.7,19.6,2.8
		C271.5,345.6,188.6,209.8,105.1,125.6L105.1,125.6z"/>
	<path d="M230.1,529.8C244,368,137.5,236.9,21,221.5C-50.5,365.8,82.1,503.7,230.1,529.8L230.1,529.8z"/>
</g>
</svg>
