<!-- Generated by IcoMoon.io -->
<svg version="1.1" xmlns="http://www.w3.org/2000/svg" width="32" height="32" viewBox="0 0 32 32">
<title>default</title>
<path d="M6.688 14.688h18.625l-2-6h-14.625zM23.313 21.313q0.813 0 1.406-0.594t0.594-1.406-0.594-1.406-1.406-0.594-1.406 0.594-0.594 1.406 0.594 1.406 1.406 0.594zM8.688 21.313q0.813 0 1.406-0.594t0.594-1.406-0.594-1.406-1.406-0.594-1.406 0.594-0.594 1.406 0.594 1.406 1.406 0.594zM25.25 8l2.75 8v10.688q0 0.563-0.375 0.938t-0.938 0.375h-1.375q-0.563 0-0.938-0.375t-0.375-0.938v-1.375h-16v1.375q0 0.563-0.375 0.938t-0.938 0.375h-1.375q-0.563 0-0.938-0.375t-0.375-0.938v-10.688l2.75-8q0.375-1.313 1.938-1.313h14.625q1.563 0 1.938 1.313z"></path>
</svg>
