<?xml version="1.0" encoding="UTF-8" standalone="no"?>
<svg
   xmlns:dc="http://purl.org/dc/elements/1.1/"
   xmlns:cc="http://creativecommons.org/ns#"
   xmlns:rdf="http://www.w3.org/1999/02/22-rdf-syntax-ns#"
   xmlns:svg="http://www.w3.org/2000/svg"
   xmlns="http://www.w3.org/2000/svg"
   xmlns:sodipodi="http://sodipodi.sourceforge.net/DTD/sodipodi-0.dtd"
   xmlns:inkscape="http://www.inkscape.org/namespaces/inkscape"
   height="20px"
   width="20px"
   xml:space="preserve"
   style="enable-background:new 0 0 100.4 100.4;"
   viewBox="0 0 100.4 100.4"
   y="0px"
   x="0px"
   id="Layer_1"
   version="1.1"
   sodipodi:docname="default.svg"
   inkscape:version="0.92.3 (2405546, 2018-03-11)"><sodipodi:namedview
   pagecolor="#ffffff"
   bordercolor="#666666"
   borderopacity="1"
   objecttolerance="10"
   gridtolerance="10"
   guidetolerance="10"
   inkscape:pageopacity="0"
   inkscape:pageshadow="2"
   inkscape:window-width="1920"
   inkscape:window-height="1017"
   id="namedview12"
   showgrid="false"
   inkscape:zoom="11.8"
   inkscape:cx="10"
   inkscape:cy="12.79661"
   inkscape:window-x="-8"
   inkscape:window-y="-8"
   inkscape:window-maximized="1"
   inkscape:current-layer="g847" /><metadata
   id="metadata9"><rdf:RDF><cc:Work
       rdf:about=""><dc:format>image/svg+xml</dc:format><dc:type
         rdf:resource="http://purl.org/dc/dcmitype/StillImage" /><dc:title></dc:title></cc:Work></rdf:RDF></metadata><defs
   id="defs7" />

<g
   transform="matrix(0.26167923,0,0,0.26167923,-16.789883,-16.789883)"
   id="g847"><path
     style="color:#000000;font-style:normal;font-variant:normal;font-weight:normal;font-stretch:normal;font-size:medium;line-height:normal;font-family:sans-serif;font-variant-ligatures:normal;font-variant-position:normal;font-variant-caps:normal;font-variant-numeric:normal;font-variant-alternates:normal;font-feature-settings:normal;text-indent:0;text-align:start;text-decoration:none;text-decoration-line:none;text-decoration-style:solid;text-decoration-color:#000000;letter-spacing:normal;word-spacing:normal;text-transform:none;writing-mode:lr-tb;direction:ltr;text-orientation:mixed;dominant-baseline:auto;baseline-shift:baseline;text-anchor:start;white-space:normal;shape-padding:0;clip-rule:nonzero;display:inline;overflow:visible;visibility:visible;opacity:1;isolation:auto;mix-blend-mode:normal;color-interpolation:sRGB;color-interpolation-filters:linearRGB;solid-color:#000000;solid-opacity:1;vector-effect:none;fill:#000000;fill-opacity:1;fill-rule:nonzero;stroke:none;stroke-width:32px;stroke-linecap:round;stroke-linejoin:round;stroke-miterlimit:4;stroke-dasharray:none;stroke-dashoffset:0;stroke-opacity:1;color-rendering:auto;image-rendering:auto;shape-rendering:auto;text-rendering:auto;enable-background:accumulate"
     d="m 157.10938,96 c -23.29717,0 -45.01599,12.50214 -54.03516,33.54688 l -37.781251,88.15039 a 16.0016,16.0016 0 0 0 -0.126953,0.33007 16.0016,16.0016 0 0 0 -0.146485,0.38086 A 16.0016,16.0016 0 0 0 64,225.79883 V 368 400 a 16.0016,16.0016 0 0 0 16,16 h 32 a 16.0016,16.0016 0 0 0 16,-16 v -16 h 256 v 16 a 16.0016,16.0016 0 0 0 16,16 h 32 a 16.0016,16.0016 0 0 0 16,-16 V 368 225.71094 a 16.0016,16.0016 0 0 0 -1.26172,-7.9375 16.0016,16.0016 0 0 0 -0.002,-0.004 16.0016,16.0016 0 0 0 -0.002,-0.002 16.0016,16.0016 0 0 0 -0.0274,-0.0703 L 408.92578,129.54688 C 399.90661,108.50214 378.18779,96 354.89062,96 Z m 0,32 h 197.78124 c 11.72284,0 21.34222,6.49708 24.62305,14.15234 L 407.73438,208 H 104.26562 l 28.22071,-65.84766 C 135.76716,134.49708 145.38654,128 157.10938,128 Z M 96,240 h 320 v 112 h -13.38867 a 16.0016,16.0016 0 0 0 -5.18555,0 H 114.61133 a 16.0016,16.0016 0 0 0 -5.18555,0 H 96 Z m 48,16 c -17.4836,0 -32,14.5164 -32,32 0,17.4836 14.5164,32 32,32 17.4836,0 32,-14.5164 32,-32 0,-17.4836 -14.5164,-32 -32,-32 z m 224,0 c -17.4836,0 -32,14.5164 -32,32 0,17.4836 14.5164,32 32,32 17.4836,0 32,-14.5164 32,-32 0,-17.4836 -14.5164,-32 -32,-32 z"
     id="circle831"
     inkscape:connector-curvature="0" /><text
     xml:space="preserve"
     style="font-style:normal;font-weight:normal;font-size:767.35168457px;line-height:1.25;font-family:sans-serif;letter-spacing:0px;word-spacing:0px;fill:#000000;fill-opacity:1;stroke:none;stroke-width:19.18379211"
     x="-399.17526"
     y="181.21573"
     id="text828"><tspan
       sodipodi:role="line"
       id="tspan826"
       x="-399.17526"
       y="860.14215"
       style="stroke-width:19.18379211" /></text>
</g></svg>