<?xml version="1.0" encoding="utf-8"?>
<!-- Generator: Adobe Illustrator 21.0.0, SVG Export Plug-In . SVG Version: 6.00 Build 0)  -->
<svg version="1.1" id="Layer_1" xmlns="http://www.w3.org/2000/svg" xmlns:xlink="http://www.w3.org/1999/xlink" x="0px" y="0px"
	 viewBox="0 0 2500 2500" style="enable-background:new 0 0 2500 2500;" xml:space="preserve">
<g>
	<path d="M1029.9,1038.6l-252.1,0.2c-54.7,0-100.3,38-110.3,91.8l-40.6,218.9c-11.2,60.3,35.1,107.6,89.4,107.6l226.9,0.2
		c60.3,0.1,110.6-41.8,121.6-101.1l41.8-225.3C1116.3,1079.2,1076.5,1038.6,1029.9,1038.6z M966.2,1165.3l-26.3,141.7
		c-8.1,36.8-19.2,51.6-65.3,51.6h-63c-21,0-52.2-1.9-45.5-37.7l24-129.3c9.5-51,27-60.6,65.1-60.6h84.8
		C953.5,1131,970.2,1143.8,966.2,1165.3z"/>
	<path d="M1267.8,1358.4c-22.5,0-33.3-15.5-29.2-37.6l24-129.3c9.5-51,27.7-60.3,65.8-60.3l82.3,0l17.1-92.3l-176.8,0
		c-54.7,0-100.3,37.8-110.2,91.6l-40.6,218.9c-11.5,62.2,30.8,107.7,89.5,107.7l315.2,0.1l112-604.1l-126.8,0.2l-93.7,505.3
		L1267.8,1358.4L1267.8,1358.4z M1715.3,1039.2c-54.7,0-99.9,37.7-109.9,91.5l-40.6,218.9c-11.9,64.3,30.2,107.5,88.9,107.5h152.7
		l18.3-98.7h-75.8c-21,0-53.8-1.6-47.1-37.4l24-129.3c9.5-51,28.8-60.4,66.9-60.4l101.7-0.1l-69.9,376.3
		c-4.1,22.3-22.6,44.1-53.1,44.1h-230.4l-17.6,95.4l274.4-0.2l-0.1-0.1h5.1c58.5,0,122.8-4.7,142.6-111.8l92.2-495.9L1715.3,1039.2
		L1715.3,1039.2z M2193.8,1286l261.3,0.1l27.6-155.1c9.2-51.7-29-92.3-73.7-92.3l-242,0.2c-52.5,0-96.2,38-105.8,91.8l-38.9,218.9
		c-10.7,60.3,33.7,107.6,85.8,107.6l311,0.2l18.3-98.8l-237.9,0c-20.2,0-50.1-1.7-43.7-37.5l23-129.3c9.1-51,25.9-60.6,62.5-60.6
		h81.3c13,0,29,12.8,25.2,34.3l-9.9,44.8h-130.1L2193.8,1286L2193.8,1286z M99.1,1006.6l341.9,0c38-0.1,56,22.3,51.8,46.5l-45,242.7
		c-11.6,45.3-45.3,55.1-63.8,55.1H178.3l54.6-294.5l-143-0.1l-74.2,400.6l346,0.2c165,0,204-29.7,229.2-132.6l53.1-286.5
		c14-96.8-37.6-131.2-115.7-131.2l-410.6,0L99.1,1006.6z"/>
</g>
</svg>
