<?xml version="1.0" encoding="utf-8"?>
<!-- Generator: Adobe Illustrator 21.0.0, SVG Export Plug-In . SVG Version: 6.00 Build 0)  -->
<svg version="1.1" id="Layer_1" xmlns="http://www.w3.org/2000/svg" xmlns:xlink="http://www.w3.org/1999/xlink" x="0px" y="0px"
	 viewBox="0 0 400 400" style="enable-background:new 0 0 400 400;" xml:space="preserve" width="20px" height="20px">
<style type="text/css">
	.st0{fill:#231F20;}
</style>
<path class="st0" d="M388.8,50.4c-15.6-3.9-31.3-7.3-47.3-9c-15.6-1.7-31.1-4.2-46.8-4.9c-23.1-1.5-46.1-3-69.2-2.8
	c-18-0.6-35.9-0.2-53.9,0.3c-24.5,0.1-49,2.2-73.5,3.6C69.3,40.6,40.4,42.8,12,49c-10.8,41.7-14.4,86.6-2,128.3
	c13.1,40.5,40.1,74.8,70.2,104.1c33.3,32.6,72.1,59.8,114.9,78.3c1.3,0.4,2.7,1.5,4,0.6c38.4-18,75.3-40,106.9-68.6
	c20.4-17.9,39.2-37.8,54.7-60.1c19.8-27.6,32.1-60.5,35.4-94.3C399.1,108.3,396.3,78.7,388.8,50.4z M369.4,199.1
	c-21.9,42.6-56.4,77.4-94.5,105.9c-13,9.5-26.5,18.5-40.6,26.2c-11.6,6.6-23.2,13.3-35.7,18.1c-32.4-12.2-61.2-32.2-87.8-53.9
	c-19.4-16.3-38-33.8-53.8-53.8c-19.4-23.9-34.8-51.7-40.9-82.1c-6.5-33.7-4.3-68.8,5-101.7C47.5,52,74.6,49.9,101.4,47
	c17.5-1.2,35-2.2,52.6-3.3c20.7-0.2,41.5-1.2,62.2-0.9c14.1,0.4,28.1,0.2,42.2,0.8c14.6,0.9,29.3,1.7,43.9,2.6
	c23.6,2.9,47.5,4.6,70.6,10.5c2.5,0.8,5.6,0.7,7.7,2.4C392.2,105.3,390.2,156,369.4,199.1z"/>
<path class="st0" d="M179.9,57.7c-0.4-4.3,4.1-7.8,8.1-8.1c14.2-0.1,28.4,0,42.6,0c0,1.7,0,3.5,0,5.2c-9.5,0.1-19,0.1-28.5,0
	c-1.9,0.1-3.9-0.1-5.6,0.7c-1.7,2.3-0.9,5.4-1.1,8c0,1.9-0.3,5.2,2.3,5.4c5.4,0.3,10.7,0,16.1,0.1c1.5-0.2,3.4,0.3,4.6-0.9
	c0.9-1.3,0.8-3,1.2-4.5c-6.3-0.2-12.5-0.1-18.7-0.1c0-1.7,0.1-3.3,0.1-5c9.9,0,19.9,0,29.8,0c0,3.7,0.6,7.4-0.4,11
	c-1.4,3.8-5.6,5.7-9.4,5.5c-11,0-22,0-33,0c-3.3,0.2-6.5-1.6-7.9-4.6C179.6,66.3,179.9,62,179.9,57.7z"/>
<path class="st0" d="M246.3,49.6c5.7,0,11.4,0,17.1,0c0,4.7-0.1,9.4,0,14.2c0,2.1,0.7,4.3,2.3,5.6c7.8,1.2,15.8,0.5,23.7,0.7
	c0,2.1,0.1,4.2,0.1,6.3c-11.2-0.1-22.4-0.8-33.7-1c-3.7-0.1-8.6-1.6-9.4-5.8C246.1,62.9,246.4,56.2,246.3,49.6z"/>
<path class="st0" d="M62.7,57.2c14.3-1.2,28.6-2.6,42.9-3.7c-0.2,1.8-0.4,3.6-0.7,5.4c-10.5,1-20.9,1.6-31.4,2.5
	c-2.3-0.1-3.1,2.2-3.3,4.1c9.4-0.8,18.8-1.9,28.3-2.7c0,1.8,0,3.5,0.1,5.3c-9.2,1.1-18.4,1.7-27.6,2.7c-2.7,0.1-2.6,3.1-2.7,5.1
	c11.7-1.1,23.4-2.5,35.2-3.6c-0.3,2.1-0.6,4.2-0.9,6.2C87,80.2,71.4,82,55.9,83.5C53,84,49.3,83.3,48.6,80
	c-0.7-4.6,0.6-9.3,1.6-13.7C51.7,60.8,57.2,57.4,62.7,57.2z"/>
<path class="st0" d="M299.5,57.6c0.9-4,5.9-4.2,9.2-3.9c14.1,1.8,28.1,3.9,42.1,5.7c0,1.7,0.1,3.5,0.1,5.2
	c-10.2-1.4-20.3-2.9-30.5-4.1c-3.1-1.2-3.6,3.8-0.6,3.6c8.6,1.3,17.3,2.5,25.9,3.7c0,1.2,0,3.6,0,4.8c-8.5-1-17-2.4-25.5-3.2
	c-2.1-0.4-2.9,3-1.4,4.1c1.6,1,3.5,1,5.3,1.3c9.9,1.3,19.8,2.9,29.7,4.2c0.1,1.8,0.1,3.6,0.2,5.4c-16.6-2.1-33.1-4.1-49.7-6.3
	c-2.7-0.1-4.8-2.4-4.8-5.1C299.3,67.9,299.1,62.7,299.5,57.6z"/>
<path class="st0" d="M165.3,56.6c0.2-3.8-4.3-5.8-7.6-5.6c-10.1,0.1-20.2,0.6-30.3,1.5c-4,0.6-8.9,3-9.3,7.5
	c-0.7,5.7-1.1,11.4-1.8,17.1c3.6,0.1,7.1,0.1,10.7,0.1c0-2.7,0-5.5,0-8.2c8-0.5,16-0.6,24-0.7c0,2.5,0,4.9,0,7.4c4.8,0,9.6,0,14.4,0
	C165.3,69.3,165.3,62.9,165.3,56.6z M150.6,63.3c-7.7,0.1-15.4,0.4-23.1,0.6c0.2-1.6,0.3-3.2,0.5-4.8c1.9-1.1,3.8-2.8,6.2-2.5
	c4.7,0,9.5-0.4,14.2-0.5C151.9,56.4,150.2,60.9,150.6,63.3z"/>
<path class="st0" d="M168.2,83.3c23-0.5,46-0.8,69-1.3c14.4,0.5,28.9,1.1,43.3,1.7c13.3,1.2,26.6,2.2,39.9,3.5
	c17.2,2.4,34.5,4,51.4,8.1c2.8,18.2,3.2,37-0.2,55.2c-3.1,17.9-9.8,35-19.1,50.6c-20.4,33.1-47.3,62.1-77.8,86.1
	c-23.4,18.9-48.9,35.4-75.9,48.7c-11.6-6.7-23.3-13.3-34.8-20c-3.1-1.7-4.2-5.4-4.1-8.7c0.1-6.5,1.1-13,2.7-19.3
	c3.9-18.5,9.4-37,19.9-52.9c7.6-11.5,18.7-21.4,32.4-24.6c27.3-6.7,55.4-9.1,83.4-11.7c2.1-0.2,4.2-0.6,6.2-1.1
	c-10.8-0.1-21.5-2.1-32.2-3.1c-9.4-1.2-18.9-1-28.3-2.2c-1.1-1.7,1.7-2.5,2.7-3.3c10.5-6.3,22-10.3,33.3-14.8
	c11.6-4,23.3-7.7,35.5-9.3c5.8-0.8,12.6,0.7,16,5.9c3.9,5.8,3,13.1,2.6,19.8c4.8-3.6,7.3-9.1,9.8-14.4c4-9.4,7.4-19.3,8.5-29.5
	c0.8-8.1-3.3-17.4-11.4-20.1c-10.3-3-21-3.8-31.6-5.2c-11.5-1.1-23-2-34.5-2.3c-9.2-0.8-16.6-7-24.9-10.4
	c-13.8-3.2-28.1-1.9-42.1-1.9c-15.6,0.4-31.1,0.7-46.7,1.1c-26.6,0.1-53.1,2.6-79.7,3.9c-14.1,1.3-28.2,3-42.3,4.5
	c-4.1,0.2-8.5,1.3-12.5-0.2c-2.3-3.8-0.5-8.4-0.6-12.5c0.4-3,0-7.6,3.7-8.7c5.7-1.8,11.8-2.1,17.8-3.1c26.7-4,53.7-5.3,80.7-7.2
	C141.6,83.3,154.9,83.9,168.2,83.3z"/>
<path class="st0" d="M58,128.6c42.8-5.7,85.8-9.4,128.9-10.1c7.7,0.5,15.9-0.8,23.2,2.7c6.6,3.4,12.7,7.6,19.1,11.3
	c4.1,2.4,9.5,2.4,13.5-0.2c4.5-2.7,6.9-7.7,8.2-12.6c5.2,4.1,11.2,7.6,18,8c18,1.5,36.1,2.4,54.1,4.3c6.2,0.7,12.6,1,18.5,3.2
	c4.1,1.6,4.7,6.6,4.7,10.4c-0.3,9.3-3,18.4-7.3,26.6c-1.4-3.8-3.2-7.9-6.8-10.1c-6.9-4.5-15.6-4.2-23.3-2.4
	c-18,3.9-35.5,9.7-52.8,16.1c-24.7,9.1-49.3,20.8-68,39.8c-6.5,6.5-12,13.8-17.4,21.2c-12.4,19.8-19.2,42.4-26.2,64.5
	c-4.4-1-8.8-3.1-11.3-7c-2.6-3.9-2.6-9-1.4-13.4c2.3-8.9,5.5-17.5,7.1-26.5c-4.2,7.2-7.2,15-11.7,22c-2,3.1-5.9,6.1-9.7,4.1
	c-2.8-1.5-6.9-2.5-7.6-6.1c-0.1-3.6,1.2-7.1,2.5-10.4c3.2-8,6.8-15.7,10.1-23.7c-6.1,6.9-10.7,14.9-16.3,22.2c-3,4.1-9.1,3-12.4-0.1
	c-3.7-2.9-5.1-8.5-2.7-12.7c5.5-9.6,13.1-17.8,18.8-27.3c-8.8,6.5-16.5,14.4-25.2,21.1c-2.1,1.7-5.2,2-7.4,0.2
	c-4.1-3.3-8.8-8.9-5.5-14.3c7-9.7,17-16.5,25.3-24.9c-9.1,4.6-17.2,10.8-25.8,16.3c-3.2,2-8.1,3.2-11.1,0.2
	c-3.1-3.1-6.4-6.5-7.5-10.9c-0.7-4.1,3-6.9,5.8-9.1c8.9-6.5,18.6-11.8,27.8-17.7c-10.8,3-21.2,7.4-31.5,11.9
	c-3.6,1.8-8.2,1.9-11.3-0.9c-4.1-3.9-6.9-9.8-5.9-15.6c0.4-2.6,3.1-3.9,5.2-5.1c12.2-6.2,25.4-10.2,38-15.6
	c-13.1,1.2-26.1,3.6-39,6.5c-3.8,1.1-8.5,0.1-10.7-3.4c-3.2-5.3-3.3-11.6-4.2-17.6c-0.6-3.7,0.7-8,4.3-9.6
	C39.5,129.8,49,129.9,58,128.6z"/>
</svg>
