<?xml version="1.0" encoding="utf-8"?>
<!-- Generator: Adobe Illustrator 21.0.0, SVG Export Plug-In . SVG Version: 6.00 Build 0)  -->
<svg version="1.1" id="Layer_1" xmlns="http://www.w3.org/2000/svg" xmlns:xlink="http://www.w3.org/1999/xlink" x="0px" y="0px"
	 viewBox="0 0 289.5 289.5" style="enable-background:new 0 0 289.5 289.5;" xml:space="preserve" width="20px" height="20px">
<g id="fiat">
	<g id="Fiat_-_single_colour">
		<path id="XMLID_1526_" d="M1,148.6c1.6-7.9,5.7-12.9,10.3-15.6c8-4.7,10.1-16.8,10.9-24.1l0.1-0.8c-0.5,4.8-0.8,9.6-0.8,14.8
			c0,10.1,0.8,20.9,2.5,32.9c5,35.2,22.1,73,32.1,84.5c-0.1-0.1,0.6,0.6,0.6,0.6c0,0,2.3,2.5,2.3,2.5l0.1,0.1
			c24.5,20,47,27.1,86,27.1h0.3c39,0,61.5-7.1,85.9-27.1l0.1-0.1l2.3-2.4c0,0,0.6-0.7,0.6-0.7c10.1-11.6,27.1-49.3,32.1-84.5
			c1.7-12,2.5-22.8,2.5-32.9c0-5.5-0.2-10.8-0.8-15.9l0.1,0.1c0.7,7.2,4.6,26,12.1,31.4c3.8,2.7,6.5,5.9,8.1,9.6
			C286.6,226,223,288.5,144.7,288.5C66.6,288.5,3.1,226.2,1,148.6L1,148.6z"/>
		<path id="XMLID_5_" d="M144.7,289.5C64.9,289.5,0,224.5,0,144.7C0,64.9,64.9,0,144.7,0c79.8,0,144.7,64.9,144.7,144.7
			C289.5,224.5,224.5,289.5,144.7,289.5z M144.7,1.9C66,1.9,1.9,66,1.9,144.7c0,78.8,64.1,142.8,142.8,142.8
			c78.7,0,142.8-64.1,142.8-142.8C287.5,66,223.5,1.9,144.7,1.9z"/>
		<path id="XMLID_1523_" d="M239.6,225.6c-5,5.9-9.9,7.4-11.5,6.5c-1.4-0.8-1.9-6-0.9-13c7.6-23.1,13.2-48.4,16.6-72.2
			c4.7-32.4,4.5-61.5-2.4-79.2c-0.9-2.3-1.9-4.1-2.7-5.2c-0.8-1.1-1.3-1.6-1.3-1.6c-14.4-14.4-53.2-21.6-92-21.6
			c-38.8,0-77.6,7.2-92,21.6c0,0-0.5,0.6-1.3,1.6c-0.8,1.1-1.8,2.8-2.7,5.2c-7,17.7-7.1,46.8-2.5,79.2c3.4,23.6,9,48.8,16.5,71.9
			c1.1,7.2,0.5,12.5-0.9,13.3c-1.6,1-7-0.8-12.2-7.4c-8.9-16.7-19-43.7-22.7-69.3c-1.7-11.9-2.5-22.4-2.5-32.4
			c0-18.4,2.9-34.1,8.8-48c4.5-10.4,12-19.2,21.7-25.3c24.2-15.2,51.7-24.1,79.5-25.8c3.3-0.2,6.6-0.3,9.9-0.3h0.3
			c3.3,0,6.7,0.1,9.9,0.3c27.8,1.7,55.3,10.6,79.5,25.8c9.7,6.1,17.2,14.9,21.7,25.3l0,0c6,13.9,8.8,29.7,8.8,48
			c0,9.9-0.8,20.5-2.5,32.4C259,181.5,248.6,208.9,239.6,225.6L239.6,225.6z"/>
		<path id="XMLID_1522_" d="M198.6,258.9c4.4-2.6,9.2-6.8,8.8-8.3c-0.4-1.3-8.4,0.6-15.1,2.2c-2.9,0.9-5.9,1.6-8.8,2.2
			c-11.4,2.2-24.3,3.5-37.9,3.5h-0.3c-13.6,0-26.5-1.2-37.9-3.5c-2.6-0.5-5.3-1.2-7.9-1.9c-6.9-1.7-15.8-3.9-16.2-2.5
			c-0.4,1.6,4.5,5.9,9,8.5c14.6,5.6,31.1,7.8,52.9,7.8h0.3C167.3,266.9,183.9,264.6,198.6,258.9L198.6,258.9z"/>
		<path d="M76.7,55.1c-0.6,0.2-1.1,0.4-1.7,0.6c0,0,0,0,0,0C75.5,55.5,76.1,55.3,76.7,55.1C76.7,55.1,76.7,55.1,76.7,55.1z
			 M85.6,52.3C85.6,52.3,85.6,52.3,85.6,52.3c0.1,0,0.2-0.1,0.4-0.1C85.8,52.2,85.7,52.3,85.6,52.3z M96.2,49.8
			C96.2,49.8,96.2,49.9,96.2,49.8c0.4-0.1,0.9-0.2,1.3-0.2C97.1,49.7,96.6,49.8,96.2,49.8z M112.6,249.6
			C112.6,249.6,112.6,249.6,112.6,249.6c-0.4-0.1-0.7-0.1-1.1-0.2C111.8,249.5,112.2,249.5,112.6,249.6z M129.7,45.9
			c-0.5,0-1.1,0.1-1.6,0.1v0C128.7,45.9,129.2,45.9,129.7,45.9L129.7,45.9z M117.5,46.8L117.5,46.8c0.4,0,0.8-0.1,1.3-0.1
			C118.3,46.7,117.9,46.7,117.5,46.8z M97.8,49.5c-0.1,0-0.2,0-0.3,0.1C97.6,49.6,97.7,49.6,97.8,49.5
			C97.8,49.5,97.8,49.5,97.8,49.5z M108.4,47.8c-0.5,0.1-1.1,0.2-1.6,0.2v0C107.3,48,107.9,47.9,108.4,47.8
			C108.4,47.8,108.4,47.8,108.4,47.8z M120.1,250.7c0.3,0,0.6,0.1,0.9,0.1C120.7,250.8,120.4,250.7,120.1,250.7
			C120.1,250.7,120.1,250.7,120.1,250.7z M141.1,252.2L141.1,252.2c-0.5,0-1.1,0-1.6,0C140,252.2,140.6,252.2,141.1,252.2z
			 M150.2,45.5L150.2,45.5c0,0,0.1,0,0.1,0C150.3,45.5,150.2,45.5,150.2,45.5z M151.3,252.2c-0.5,0-1.1,0-1.6,0v0
			C150.2,252.2,150.8,252.2,151.3,252.2z M131.2,251.8C131.2,251.8,131.2,251.8,131.2,251.8c-0.4,0-0.9-0.1-1.3-0.1
			C130.3,251.7,130.8,251.8,131.2,251.8z M160.9,251.7c-0.5,0-0.9,0.1-1.4,0.1c0,0,0,0,0,0C160,251.8,160.5,251.7,160.9,251.7z
			 M170.7,250.7C170.7,250.7,170.7,250.7,170.7,250.7c-0.5,0.1-1.1,0.1-1.6,0.2C169.6,250.8,170.1,250.8,170.7,250.7z M121.8,250.9
			C121.8,250.9,121.8,250.9,121.8,250.9c-0.2,0-0.5-0.1-0.7-0.1C121.3,250.8,121.5,250.9,121.8,250.9z M235.8,71.2
			c0.3,0.7,0.5,1.3,0.7,2C236.3,72.5,236.1,71.8,235.8,71.2z M169,250.9C169,250.9,169.1,250.9,169,250.9
			C169.1,250.9,169,250.9,169,250.9C169,250.9,169,250.9,169,250.9z M64.8,60.5c0.4-0.2,0.8-0.5,1.3-0.7c0,0,0,0,0,0
			C65.6,60,65.2,60.3,64.8,60.5z M224.7,59.8C224.7,59.8,224.7,59.8,224.7,59.8c0.3,0.2,0.7,0.4,1,0.6
			C225.4,60.2,225.1,60,224.7,59.8z M151.8,45.5c-0.5,0-1,0-1.5,0C150.8,45.5,151.3,45.5,151.8,45.5L151.8,45.5z M214.1,55.1
			C214.1,55.1,214.1,55.1,214.1,55.1c0.5,0.2,1,0.4,1.5,0.6C215.1,55.4,214.6,55.3,214.1,55.1z M226.6,106V88.5h-1.4
			c0-10.4-0.2-20.1-0.5-28.6c-2.6-1.5-5.6-2.9-8.9-4.1c0.2,9.8,0.3,20.9,0.4,32.8l-1.7,0c0-12.1-0.1-23.4-0.4-33.4
			c-2.8-1-5.7-1.9-8.9-2.8c0.2,10.9,0.3,23.2,0.2,36.2l-1.7,0c0-13.2-0.1-25.7-0.2-36.7c-2.9-0.7-5.8-1.4-8.9-2
			c0.1,11.8,0.2,24.9,0.1,38.7l-1.7,0c0-14,0-27.2-0.1-39c-2.9-0.5-5.9-1-9-1.5c0.1,12.4,0.1,26.2,0.1,40.6l-1.6,0
			c0-14.5,0-28.3-0.1-40.8c-2.9-0.4-5.9-0.8-9-1.1c0,13,0,27.2,0,42.1l-0.1-0.2h-1.5c0-14.8,0-29,0-42c-3-0.3-6-0.5-9-0.7
			c0,13.3,0,27.7-0.1,42.6H161c0-15,0.1-29.4,0.1-42.7c-3.1-0.2-6.1-0.3-9.3-0.3l-0.1,43.1h-1.6l0.1-43.1c-1.6,0-3.2-0.1-4.8-0.1
			c-5.3,0-10.5,0.2-15.6,0.4c0,13.3,0,27.7,0.1,42.6l-1.6,0c0-14.9-0.1-29.2-0.1-42.5c-3.1,0.2-6.1,0.4-9.1,0.7
			c0,12.9,0,27.1,0,41.9l-1.6,0c0-14.7,0-28.8,0-41.7c-3.1,0.3-6.1,0.7-9,1c-0.1,12.5-0.1,26.3,0,40.9l-1.6,0
			c0-14.4,0-28.2,0.1-40.6c-3.1,0.4-6.1,0.9-9,1.5c-0.1,11.8-0.2,25.1-0.1,39.1l-1.7,0c0-13.9,0-27,0.1-38.8c-3.1,0.6-6.1,1.3-8.9,2
			c-0.2,11-0.3,23.5-0.3,36.7l-1.7,0c0-13.1,0.1-25.3,0.2-36.2c-3.1,0.8-6.1,1.8-8.9,2.8c-0.2,10-0.4,21.3-0.4,33.4l-1.7,0
			c0-11.9,0.1-23,0.4-32.8c-3.3,1.3-6.3,2.6-8.9,4.1c-1.3,43-0.6,112.9,10.1,173.7c-0.9-1-1.7-2.2-2.3-3.6
			c-10-59.5-10.7-126.9-9.5-169.1c-2.4,1.5-4.4,3-6.1,4.7c0,0-0.4,0.4-0.9,1.2c-0.6,0.9-1.5,2.4-2.3,4.5c0.1-0.3,0.2-0.5,0.3-0.8
			c-1,29.5-0.5,70.8,5.1,116.1c-1.3-5.3-2.5-10.7-3.5-16c-3.6-36.3-4.1-69.3-3.5-94.6c0.5-1.6,1-3.2,1.5-4.6
			c-6.5,16.5-6.7,44.1-2.2,75.4c3.9,27.1,10.7,56.2,20.2,81.4c1.6,4.2,3,5.8,6.4,8.5c9.6,6.8,19.5,10.5,29.6,12.5
			c0.6,0.1,1.2,0.2,1.9,0.3c-2.7-35.1-3.8-91.6-4.1-143h1.6c0.3,51.6,1.4,108.2,4.1,143.3c2.5,0.4,5,0.8,7.6,1.1
			c-0.6-12.3-1.1-27.5-1.4-44.3h1.6c0.4,16.9,0.8,32.1,1.4,44.5c2.6,0.3,5.2,0.6,7.8,0.8c-0.3-12.6-0.5-28.1-0.7-45.3h1.6
			c0.2,17.2,0.4,32.8,0.7,45.4c2.7,0.2,5.4,0.3,8.2,0.4l-0.1-45.8h1.6l0.1,45.9c1.4,0,2.7,0.1,4.1,0.1h0.3c1.4,0,2.8,0,4.1-0.1
			l0.1-45.9h1.6l-0.1,45.8c2.8-0.1,5.5-0.2,8.2-0.4c0.5-24.3,0.9-59.5,1.1-96.8h1.6c-0.2,37.2-0.6,72.4-1.1,96.6
			c2.7-0.2,5.3-0.5,7.8-0.8c0.6-12.4,1.1-27.6,1.4-44.5h1.6c-0.4,16.8-0.8,32-1.4,44.3c2.6-0.3,5.1-0.7,7.6-1.1
			c0.9-12.2,1.7-27,2.3-43.2h1.7c-0.6,16.1-1.3,30.8-2.2,42.9c0.6-0.1,1.2-0.2,1.9-0.3c10.1-2,20-5.7,29.6-12.5
			c1.4-1.1,2.4-2,3.3-2.9c7.4-42.1,10-88.6,10.4-127.5L226.6,106L226.6,106z M83.7,239.2c-1.6-10.4-3-21.5-4.1-33l1.7,0
			c1.2,11.9,2.6,23.3,4.3,34.1C84.9,240,84.3,239.6,83.7,239.2z M92.8,244c-1.5-11.4-2.8-24.1-3.8-37.6l1.7,0
			c1,13.8,2.3,26.8,3.9,38.3C94,244.5,93.4,244.2,92.8,244z M101.8,247.2c-2.6-24.6-4.2-58-5-92.4h1.7c0.8,34.6,2.4,68.2,5,92.9
			C103,247.5,102.4,247.4,101.8,247.2z M107.2,104.3H91.2v34.9h12.3v13.5H91.2l0.2,51.6l-13.9-0.1L74.3,90.5l32.9,0.2L107.2,104.3
			L107.2,104.3z M98.1,137.1h-1.7c-0.2-10.4-0.3-20.7-0.4-30.8h1.7C97.8,116.4,98,126.7,98.1,137.1z M129.7,204.3h-14.3l-2.2-113.8
			l16.8,0L129.7,204.3z M182.3,106h1.7c0,5.3-0.1,10.7-0.1,16c-0.5-2.7-1-5.3-1.6-7.9C182.3,111.5,182.3,108.7,182.3,106z
			 M140.6,45.5l0.1,43.1h-1.6L139,45.5C139.5,45.5,140.1,45.5,140.6,45.5z M185.3,204.3h-13.1V204c0-3-0.2-41.7-1.7-51.1h-17.1
			l-0.1,51.3h-13.5l-1.3-113.6h33.4C188.1,121.7,185.8,175.5,185.3,204.3z M193.4,176.1c-0.9,26.6-2.3,51.6-4.4,71.1
			c-0.6,0.2-1.2,0.3-1.7,0.5c3.9-36.3,5.4-91.9,5.8-141.6h0.7C193.7,108.5,193.5,147.5,193.4,176.1z M198,244
			c-0.6,0.3-1.2,0.5-1.8,0.7c1.6-11.5,2.9-24.5,3.9-38.3h1.7C200.8,219.9,199.5,232.6,198,244z M207.1,239.2
			c-0.6,0.4-1.3,0.7-1.9,1.1c1.7-10.7,3.1-22.1,4.3-34h1.7C210.1,217.8,208.8,228.9,207.1,239.2z M211.2,206.3
			c0-1.4,0.7-20.9,1.4-42.4c0.9-16.5,1.4-33,1.6-48.7c0.2-5.2,0.3-8.6,0.3-9.2h1.5C215.8,137.9,214.5,173.6,211.2,206.3z M224.6,104
			h-11.9l-3.4,100.4h-14l0.5-100.4h-12.1V90.7l40.9-0.2V104z M235.5,70.4C235.5,70.4,235.5,70.4,235.5,70.4c0,0.1,0.1,0.1,0.1,0.2
			C235.5,70.5,235.5,70.5,235.5,70.4z M236.7,73.6c0.2,0.7,0.5,1.4,0.7,2.2c0.7,25.3,0.2,58.3-3.5,94.6c-1.1,5.4-2.2,10.7-3.5,16.1
			c5.6-45.3,6.1-86.6,5.1-116.1c-0.7-1.6-1.4-2.9-2-3.7c-0.5-0.8-0.9-1.2-0.9-1.2c-1.7-1.7-3.7-3.2-6.1-4.7
			c1.2,42.3,0.5,109.6-9.5,169.1c-0.5,1.1-1,2-1.7,2.8c1-1.2,1.7-2.7,2.5-4.8c9.5-25.2,16.3-54.3,20.2-81.4
			C242.3,116.7,242.3,90.3,236.7,73.6z M161.5,103.6h-0.2c-0.8,0-8.3-0.1-8.3-0.1l-0.3,36.2h17.1c0,0-0.7-6.3-2-13.7
			C166.6,119.2,164.6,110,161.5,103.6z M162.4,137.7h-1.6c0.1-10.1,0.1-20.2,0.1-30.1c0.6,1.4,1.1,3,1.6,4.8
			C162.5,120.8,162.4,129.3,162.4,137.7z M204.9,52.2c0.1,0,0.2,0.1,0.4,0.1v0C205.1,52.3,205,52.2,204.9,52.2z M171.7,46.6
			L171.7,46.6c0.4,0.1,0.9,0.1,1.3,0.1C172.6,46.7,172.1,46.7,171.7,46.6z M194.6,49.8c-0.1,0-0.1,0-0.2,0
			C194.5,49.8,194.6,49.8,194.6,49.8L194.6,49.8z M173.3,46.8c-0.1,0-0.2,0-0.3,0C173.1,46.7,173.2,46.8,173.3,46.8L173.3,46.8z
			 M162.7,45.9c-0.5,0-1.1-0.1-1.6-0.1v0C161.6,45.9,162.1,45.9,162.7,45.9L162.7,45.9z M182.3,47.8
			C182.3,47.8,182.3,47.8,182.3,47.8c0.5,0.1,1,0.1,1.5,0.2C183.3,48,182.8,47.9,182.3,47.8z M192.9,49.5
			C192.9,49.5,192.9,49.5,192.9,49.5c0.5,0.1,1,0.2,1.5,0.3C194,49.7,193.4,49.6,192.9,49.5z M184,48.1c0,0-0.1,0-0.1,0
			C183.9,48,183.9,48,184,48.1L184,48.1z"/>
	</g>
</g>
<g id="Layer_1_1_">
</g>
</svg>
