<?xml version="1.0" encoding="utf-8"?>
<!-- Generator: Adobe Illustrator 21.0.0, SVG Export Plug-In . SVG Version: 6.00 Build 0)  -->
<svg version="1.1" id="Layer_1" xmlns="http://www.w3.org/2000/svg" xmlns:xlink="http://www.w3.org/1999/xlink" x="0px" y="0px"
	 viewBox="0 0 130 130" style="enable-background:new 0 0 130 130;" xml:space="preserve" width="20px" height="20px">
<path d="M65.2,40.7C29.6,40.7,1,51.4,1,64.8c0,13.3,28.8,24.1,64.2,24.1c35.4,0,64.2-10.8,64.2-24.1
	C129.5,51.6,100.6,40.7,65.2,40.7z M65.2,86.8c-34,0-61.5-9.8-61.5-22c0-12.1,27.6-22,61.5-22c34,0,61.5,9.8,61.5,22
	C126.8,77,99.2,86.8,65.2,86.8z M90.5,69.7c0,0.1,0,0.2,0,0.2c0,0.1,0.2,0.2,0.3,0.3c0,0,0.1,0.1,0,0.2c-0.4,0.9-0.8,1.4-1.3,2.1
	c-0.5,0.7-1,1.2-1.6,1.7c-0.9,0.8-2.3,1.6-3.4,1.1c-0.5-0.3-0.7-0.9-0.7-1.5c0-1.5,0.7-3.1,2-4.7c1.5-1.9,3.3-2.9,4.4-2.3
	C91.4,67.3,91.1,68.7,90.5,69.7z M58.7,59.7c-0.1-0.6,0.1-1.3,0.7-1.8c0.3-0.3,0.7-0.3,1-0.1c0.3,0.2,0.1,0.8-0.1,1.3
	c-0.3,0.5-0.8,0.9-1.3,0.9C58.8,59.9,58.7,59.9,58.7,59.7z M65.2,44.7c-32.8,0-59.4,9.1-59.4,20.2C5.8,75.9,32.4,85,65.2,85
	c32.8,0,59.4-9.1,59.4-20.2C124.6,53.7,98,44.7,65.2,44.7z M34.7,78.1c-3.5,0-6.6-2.1-7-5.9c-0.2-2.1,0.4-3.9,1.6-5.5
	c1-1.4,2.8-2.5,4.3-2.8c0.5-0.1,1.1,0,1.4,0.3c0.4,0.5,0.3,1-0.1,1.3c-1.1,0.6-2.5,1.6-3.2,2.9c-0.6,1.1-0.7,2.5,0.2,3.7
	c1.4,2.1,5.3,2.2,9-1.2c0.9-0.8,1.7-1.6,2.5-2.6c1.6-1.8,2.1-2.5,4.3-5.5c0,0,0-0.1,0-0.1c0,0,0,0-0.1-0.1c-1.4,0-2.7,0.5-3.9,1.4
	c-0.3,0.3-0.8,0.2-1.1-0.1c-0.2-0.4-0.1-0.9,0.3-1.1c1.9-1.4,4.1-1.6,6.2-2c0,0,0.2,0,0.3-0.2c0.9-1.1,1.6-2.2,2.5-3.3
	c1-1.2,2.2-2.2,3.1-3.1c1.3-1.1,2.2-1.5,3-2c0.2-0.1,0-0.3-0.1-0.3c-4.8-0.9-9.8-2.1-14.5-0.3c-3.3,1.2-4.7,3.8-4,5.6
	c0.5,1.2,2.1,1.4,3.7,0.7c1.3-0.6,2.4-1.6,3.3-2.9c0.5-0.7,1.4-0.2,0.9,1c-1.4,3.3-4.1,5.9-7.3,6c-2.8,0.1-4.5-1.9-4.5-4.4
	c0-4.9,5.5-8.2,11.3-8.7c7-0.6,13.6,1.3,20.5,2.1c5.3,0.6,10.4,0.7,15.7-0.6c0.6-0.1,1.1,0.3,1,0.9c-0.1,0.9-0.8,1.8-2.5,2.8
	c-2,1.1-4.1,1.4-6.3,1.4c-5.3,0-10.2-2-15.3-3.1c0,0.2,0.1,0.5-0.1,0.6c-2.8,2.1-5.4,4.2-7.1,7.1c-0.1,0.1,0,0.1,0.1,0.1
	c1.5-0.1,2.8-0.1,4.2-0.2c0.2,0,0.2-0.1,0.2-0.3c-0.1-1,0.2-2.2,1.1-3c0.9-0.8,2.1-0.9,2.8-0.3c0.9,0.7,0.8,1.9,0.3,2.8
	c-0.5,0.9-1.3,1.4-2,1.7c0,0-0.2,0-0.1,0.2c0,0.2,1.1,0.8,1.2,1c0.1,0.1,0,0.4-0.1,0.5c-0.1,0.1-0.3,0.2-0.5,0.2
	c-0.2,0-0.3-0.1-0.5-0.2c-0.5-0.3-1.1-0.7-1.4-1.2c-0.1-0.2-0.2-0.2-0.5-0.2c-1.5,0.1-3.8,0.3-5.4,0.5c-0.4,0-0.4,0.1-0.5,0.3
	c-2.5,4.1-5.2,8.6-8.2,11.6C40.2,77.2,37.5,78.1,34.7,78.1z M103,57.9c-0.5,0.8-9.9,15.2-10.5,16.6c-0.2,0.5-0.2,0.8,0,1.1
	c0.5,0.7,1.6,0.3,2.3-0.2c2-1.4,3.4-3.1,5-4.6c0.1-0.1,0.2-0.1,0.3,0c0.2,0.2,0.6,0.5,0.8,0.7c0.1,0.1,0.1,0.2,0,0.3
	c-1.5,1.9-3.2,3.6-4.8,4.9c-2.5,1.9-5,2.4-6.3,1.2c-0.5-0.5-0.7-1.1-0.7-1.7c0-0.3-0.2-0.3-0.3-0.2c-1.5,1.5-4.1,3.1-6.4,1.9
	c-2-1-2.4-3.3-2-5.3c0,0,0-0.3-0.3-0.2c-0.4,0.3-0.9,0.6-1.6,0.9c-0.8,0.3-1.2,0.4-2,0.4c-1,0-1.8-0.4-2.4-1.4
	c-0.3-0.5-0.5-1.3-0.5-1.9c0-0.1-0.1-0.2-0.2,0c-1.6,2.4-3.1,4.8-4.7,7.3c-0.1,0.1-0.2,0.2-0.3,0.2c-1,0-2.1,0-3.1,0
	c-0.2,0-0.3-0.1-0.2-0.3c0.6-1.1,3.6-5.5,5.7-9.3c0.6-1,0.5-1.6,0.1-1.8c-0.4-0.3-1.3,0.1-2.1,0.7c-2,1.5-3.7,3.9-4.6,5
	c-0.5,0.6-1,1.6-2.3,3c-2.1,2.3-4.9,3.6-7.5,2.7c-1.5-0.5-2.5-1.7-2.9-3.1c-0.1-0.3-0.2-0.4-0.4-0.2c-0.4,0.5-1.3,1.3-2.1,1.8
	c-0.1,0.1-0.3,0.2-0.5,0.1c-0.2-0.1-0.7-0.8-0.8-1.1c-0.1-0.2,0-0.3,0.1-0.4c1.1-0.9,1.6-1.5,2.1-2c0.3-0.4,0.6-0.9,0.9-1.7
	c0.6-1.6,2.1-4.6,5-6.2c1.1-0.6,2.2-1,3.5-1.2c0.5-0.1,1,0,1.1,0.4c0.1,0.2,0.2,0.6,0.3,0.8c0.1,0.2,0,0.3-0.2,0.4
	c-1.7,0.7-3.4,1.7-4.6,3.3c-1.4,1.8-1.7,4-0.8,5.2c0.7,0.9,1.7,1.1,2.8,0.7c1.6-0.5,2.9-1.9,3.6-3.6c0.7-1.8,0.9-3.8,0.3-5.7
	c-0.1-0.3,0-0.6,0.2-0.7c0.4-0.3,1-0.6,1.1-0.7c0.4-0.2,0.8-0.1,1,0.2c0.6,0.8,0.9,2,0.9,3.3c0,0.3,0.1,0.3,0.3,0.1
	c1-1.1,2-2.2,3-3.1c1-0.8,2.3-1.4,3.4-1.4c1.5,0,2.3,1.1,2.2,2.9c0,0.2,0.2,0.2,0.3,0.1c0.5-0.7,0.8-1,1.3-1.4
	c1.1-0.9,2.1-1.3,3.3-1.2c1.4,0.1,2.5,1.4,2.3,2.8c-0.1,0.9-0.7,1.8-1.5,2.2c-0.7,0.4-1.6,0.3-2.2-0.2c-0.5-0.4-0.6-1.1-0.5-1.7
	c0-0.1-0.1-0.3-0.3-0.1c-1.4,1.4-1.5,3.2-0.6,4.1c1,0.9,2.4,0.3,3.5-0.4c2-1.3,3.5-3,5.2-4.4c1.2-0.9,2.5-1.7,4-1.9
	c0.8-0.1,1.6-0.1,2.4,0.3c1.1,0.4,1.7,1.3,1.8,2.1c0,0.2,0.2,0.3,0.3,0.1c0.8-1.3,5.4-8.1,5.8-8.8c0.1-0.2,0.2-0.3,0.5-0.3
	c1,0,2.3,0,3.2,0C103,57.7,103,57.8,103,57.9z"/>
</svg>
