<?xml version="1.0" encoding="utf-8"?>
<!-- Generator: Adobe Illustrator 21.0.0, SVG Export Plug-In . SVG Version: 6.00 Build 0)  -->
<svg version="1.1" id="Layer_1" xmlns="http://www.w3.org/2000/svg" xmlns:xlink="http://www.w3.org/1999/xlink" x="0px" y="0px"
	 viewBox="0 0 612 612" style="enable-background:new 0 0 612 612;" xml:space="preserve" width="20px" height="20px">
<g>
	<path d="M11,245.9c8.5,0.4,16.5,0.7,24.5,1.1c4.5,0.2,9.1,0.4,13.6,0.6c7,0.3,14,0.7,21,1c4.5,0.2,8.9,0.4,13.4,0.6
		c5.2,0.2,10.4,0.5,15.5,0.7c3.8,0.2,7.5,0.3,11.3,0.5c7.3,0.4,14.6,0.7,21.9,1.1c3.8,0.2,7.6,0.3,11.5,0.5c6.3,0.3,12.6,0.7,18.8,1
		c4.1,0.2,8.2,0.4,12.2,0.6c6.3,0.3,12.7,0.7,19,1c3.8,0.2,7.6,0.4,11.5,0.6c4.7,0.2,9.5,0.3,14.2,0.7c8.6,0.6,16.6-1.4,24.5-4.3
		c11.9-4.4,24-8,36.3-11.1c8-2,16-3.8,24.1-5.6c1-0.2,2.1-0.2,3.1,0c17.6,3.6,35,8.2,52.1,13.8c5.4,1.8,10.8,3.7,16.2,5.5
		c3.6,1.2,7.3,1.8,11.1,1.7c5.6-0.1,11.1-0.4,16.7-0.6c4.2-0.2,8.4-0.3,12.6-0.5c6.2-0.3,12.4-0.7,18.6-1c4.3-0.2,8.6-0.4,12.8-0.6
		c6.5-0.3,12.9-0.7,19.4-1c4.7-0.2,9.3-0.4,14-0.6c6.5-0.3,13.1-0.7,19.6-1c4.5-0.2,8.9-0.3,13.4-0.6c6.7-0.3,13.5-0.7,20.2-1
		c4.7-0.2,9.3-0.4,14-0.6c6.9-0.3,13.7-0.7,20.6-1c4.7-0.2,9.5-0.4,14.2-0.6c6.1-0.2,12.2-0.5,18.3-0.6c1.3,0,2.7,0.2,4,0.5
		c3.6,0.9,4.7,3.1,2.9,6.4c-1.8,3.5-3.7,6.9-5.7,10.2c-5.1,8.3-10.7,16.2-17.6,23.2c-4.3,4.3-9.2,7.8-14.8,10.3
		c-7.5,3.4-15.2,5.9-23,8.4c-23.9,7.4-47.6,15-71.6,22.2c-28.7,8.5-57.4,16.7-86.2,24.9c-13.5,3.9-27.1,7.8-40.7,11.4
		c-13.7,3.6-27.4,6.8-41.2,10.2c-1.1,0.3-2.3,0.2-3.4,0c-27.1-6.3-54-13.4-80.7-21.2c-29.1-8.5-58.4-16.7-87.5-25.3
		c-23.8-7.1-47.4-14.6-71-22c-6.6-2.1-13-4.4-19.5-6.8c-9.1-3.3-16.4-9-22.7-16.3c-7.5-8.8-13.8-18.4-19.1-28.6
		c-2-3.9-0.8-6.2,3.5-7C8.6,246.1,10.1,246,11,245.9z M219.8,303.1c-1.4,0.2-2.7,0.4-4,0.5c-3.6,0.2-7.1,0.3-10.7,0.4
		c-4,0.1-8,0.2-12,0.4c-2.4,0.1-4.8,0.2-7.1,0.4c-2.3,0.1-4.6,0.4-7,0.5c-3.4,0.1-6.9,0.1-10.3,0.3c-5.2,0.2-10.3,0.6-15.5,0.9
		c-3.8,0.2-7.6,0.4-11.4,0.6c-3.9,0.2-7.8,0.3-11.6,0.4c-1.1,0-2.2,0-3.3,0c-2.3,0.1-4.5,0.2-6.8,0.3c-2.3,0.1-4.5,0.1-6.8,0.2
		c-0.5,0-1,0.3-1.5,0.4c0,0.2,0,0.3,0,0.5c0.7,0.3,1.3,0.7,2.1,0.9c2.8,0.8,5.6,1.5,8.4,2.4c16.6,5.1,33.2,10.3,50,14.6
		c4.8,1.2,9.6,2.4,14.6,2.2c8.4-0.2,16.7-0.6,25.1-0.7c6.7-0.1,13.4-0.2,20.1-0.1c3.4,0,6.5,1.2,9.2,3.2c0.8,0.6,1.3,1.3,1.2,2.6
		c-1.3,0.5-2.7,1.1-4.2,1.6c-5.4,1.7-10.8,3.3-16.2,5c-0.8,0.2-1.9,0.4-1.8,1.4c0.1,1.1,1.2,1.2,2.1,1.4c2.9,0.8,5.9,1.4,8.8,2.3
		c10.5,3.2,20.9,6.5,31.4,9.6c2.6,0.8,5.3,1.3,7.9,1.9c0.8,0.2,1.5,0.2,2.2-0.7c-0.4-0.5-0.6-1.1-1.1-1.5c-0.9-0.9-1.8-1.7-2.7-2.5
		c-6.6-5.5-12.7-11.4-17.7-18.3c-5.9-8.1-11.4-16.6-17.1-24.8c-4.2-6.1-8.3-12.2-12.8-18.2c-2.2-2.9-4.8-5.6-7.5-8.2
		c-3.7-3.6-8.6-5-13.4-6.3c-10.6-2.8-21.4-4.4-32.3-5.9c-5.5-0.8-11.1-1.4-16.6-2c-6.2-0.8-12.5-1.5-18.7-2.2
		c-5.2-0.6-10.4-1.1-15.6-1.7c-8-0.9-16.1-1.8-24.1-2.7c-4.1-0.4-8.1-0.8-12.2-1.2c-5.7-0.6-11.3-1.2-17-1.8
		c-3.7-0.4-7.3-0.7-11-1.1c-2.1-0.2-4.1-0.6-6.2-0.8c-2-0.2-4.1-0.2-6.2-0.5c-4.9-0.8-9.8-0.8-14.7-0.7c-0.4,0-0.8,0.3-1.3,0.4
		c0.7,2.5,2,4.5,3.4,6.5c4.7,6.7,10.2,12.5,16.5,17.7c6.8,5.7,14.3,9.5,23.2,10.5c4.2,0.5,8.3,1.2,12.5,1.6c5.7,0.6,11.3,1,17,1.4
		c4.9,0.3,9.7,0.4,14.6,0.6c6,0.2,11.9,0.5,17.9,0.6c11,0.1,22.1,0,33.1,0.1c8.2,0,16.3,0.3,24.5,0.3c4.3,0,8.6,0,12.9,0
		c2.5,0,5.1,0,7.6,0c1.1,0,2.2,0.1,3.2,0.4c2.7,0.9,5.1,2.2,7.3,4C219.1,300.8,219.8,301.6,219.8,303.1z M369.4,332.5
		c0.5-0.4,0.9-0.9,1.5-1.4c2.6-1.9,5.6-2.9,8.7-3c5.3-0.1,10.6-0.1,15.9,0c9.1,0.2,18.3,0.6,27.4,0.8c2.3,0.1,4.6,0.2,6.8-0.3
		c5.3-1,10.7-2.1,15.9-3.6c12.7-3.6,25.4-7.4,38.1-11.2c4.5-1.3,8.9-2.6,13.4-3.9c1-0.3,2-0.6,2.6-1.8c-0.5-0.1-0.9-0.3-1.3-0.3
		c-2.2-0.1-4.4,0-6.5-0.1c-2.2-0.1-4.4-0.6-6.6-0.6c-3.6,0.1-7.2-0.4-10.8-0.3c-4,0.1-8-0.6-12-0.7c-4.8-0.1-9.6-0.4-14.3-0.7
		c-3.2-0.1-6.5-0.2-9.7-0.4c-1.4-0.1-2.8-0.1-4.3-0.2c-3.6-0.2-7.2-0.5-10.8-0.6c-4.1-0.2-8.3-0.3-12.4-0.4
		c-2.4-0.1-4.8-0.3-7.2-0.4c-3.8-0.1-7.6-0.3-11.4-0.4c-0.3,0-0.6-0.2-1.1-0.4c0.5-0.8,0.8-1.5,1.3-2c2-2.2,4.7-3.4,7.4-4.5
		c3-1.2,6.2-1.1,9.4-1.2c27.3-0.2,54.7,0.3,82-0.4c6.2-0.2,12.3-0.2,18.5-0.6c8.4-0.5,16.8-1.2,25.2-1.9c3.6-0.3,7.2-0.9,10.8-1.5
		c4.1-0.7,8.1-1.6,11.8-3.7c4.8-2.6,9.1-5.9,13.2-9.6c5.9-5.4,11-11.6,15.3-18.3c0.5-0.8,1.2-1.7,0.8-2.9c-0.5,0-0.9-0.1-1.3-0.1
		c-7.7-0.1-15.2,0.8-22.8,1.6c-7.7,0.9-15.3,1.6-23,2.3c-3.9,0.4-7.9,0.8-11.8,1.2c-6.9,0.7-13.8,1.5-20.7,2.3
		c-5.3,0.6-10.6,1.1-15.8,1.7c-7.8,0.9-15.6,1.8-23.3,2.7c-3.8,0.4-7.6,0.8-11.4,1.3c-5.3,0.7-10.5,1.3-15.8,2.1
		c-6.2,0.9-12.4,1.9-18.6,3c-3.7,0.7-7.3,1.6-10.9,2.5c-5.7,1.4-11.2,3.4-15.3,7.9c-2.8,3.1-5.6,6.1-8,9.5
		c-6.9,9.9-13.5,19.8-20.2,29.8c-5.9,8.9-12.5,17.2-20.4,24.4c-2.2,2-4.4,3.8-6.6,5.8c-0.8,0.7-1.6,1.3-1.8,2.7
		c0.7,0.1,1.3,0.3,1.8,0.2c2.5-0.5,5.1-0.9,7.6-1.7c8.7-2.6,17.3-5.3,26-7.9c5.1-1.5,10.2-3.5,15.5-4.3c0.6-0.1,1.5-0.3,1.5-1.2
		c0.1-0.9-0.7-1.1-1.4-1.4c-0.1,0-0.2-0.1-0.4-0.1c-4.9-1.6-9.8-3.2-14.7-4.9c-1.3-0.4-2.6-0.8-3.9-1.3
		C370.4,334,369.6,333.7,369.4,332.5z M306,259.7c0,0.1,0,0.1,0,0.2c-0.5,0-0.9,0-1.4,0.1c-1.2,0.2-2.3,0.4-3.4,0.6
		c-11.9,2.5-23.5,5.8-35,9.8c-4,1.4-8,3.1-11.8,4.9c-2.7,1.2-3,2.2-2.2,5c1.2,4,2.3,8,3.7,11.9c3.1,9.2,6.7,18.1,11.6,26.5
		c1.9,3.3,4.1,6.5,7,9c8.5,7.4,18,13.3,28.2,18.2c2.4,1.1,4.6,1.3,6.8-0.1c0.2-0.1,0.5-0.2,0.7-0.3c5.6-2.6,10.9-5.7,16-9.2
		c3.5-2.4,6.8-4.9,10.1-7.5c4.7-3.7,7.7-8.7,10.4-13.9c3.8-7.3,6.9-15,9.5-22.8c1.4-4.1,2.6-8.2,3.8-12.3c0.6-2.1,0.2-2.9-1.6-4.1
		c-0.5-0.3-1-0.6-1.5-0.8c-3.1-1.3-6.2-2.8-9.3-3.9c-10.6-3.8-21.5-6.8-32.5-9.4C312.1,260.8,309,260.3,306,259.7z"/>
</g>
</svg>
