<?xml version="1.0" encoding="utf-8"?>
<!-- Generator: Adobe Illustrator 21.0.0, SVG Export Plug-In . SVG Version: 6.00 Build 0)  -->
<svg version="1.1" id="Layer_1" xmlns="http://www.w3.org/2000/svg" xmlns:xlink="http://www.w3.org/1999/xlink" x="0px" y="0px"
	 viewBox="0 0 455.1 455.1" style="enable-background:new 0 0 455.1 455.1;" xml:space="preserve" width="20px" height="20px">
<path d="M405.4,183.7h-50.7l0,0c-27.5,0-49.7,22.3-49.7,49.7c0,27.5,22.3,49.7,49.7,49.7l0,0h50.7l0,0c27.5,0,49.7-22.3,49.7-49.7
	C455.1,206,432.8,183.7,405.4,183.7L405.4,183.7L405.4,183.7L405.4,183.7z M402.3,262.6h-44.7l0,0c-16.1,0-29.1-13-29.1-29.1
	c0-16.1,13-29.1,29.1-29.1l0,0h44.7l0,0c16.1,0,29.1,13,29.1,29.1C431.5,249.6,418.4,262.6,402.3,262.6L402.3,262.6L402.3,262.6
	L402.3,262.6z"/>
<path d="M270.5,242.3c16.1,0,29.1-13,29.1-29.1c0-16.1-13-29.4-29.1-29.4l0,0l-67.6,0l0,0c-27.5,0-49.7,22.3-49.7,49.7
	c0,27.5,22.3,49.7,49.7,49.7l0,0h91.9v-20.6h-88.9l0,0c-16.1,0-29.1-13-29.1-29.1c0-16.1,13-29.1,29.1-29.1l0,0l61.5,0l0,0
	c4.7,0,8.5,4.1,8.5,8.8c0,4.7-3.8,8.5-8.5,8.5l0,0h-76.9v20.6L270.5,242.3L270.5,242.3L270.5,242.3z"/>
<path d="M61.2,262.6c-20.8,0-37.7-15.9-37.7-36.7c0-20.8,16.9-37.4,37.7-37.4l0,0l82.6,0v-19.8H57.2l0,0C25.6,168.7,0,194.3,0,225.9
	c0,31.6,25.6,57.2,57.2,57.2l0,0h86.7v-62.2H72v20.6h47.7v21.1L61.2,262.6L61.2,262.6L61.2,262.6z"/>
<path d="M410.9,211.2l-4.1,0l0,0c2.3,1.6,5.5,4.3,8.3,8.1l0,0l-13.9,0l0,0c-2-3.2-4.6-5.9-7.6-8.1l0,0l-4.1,0l0,0
	c2.3,1.6,5.5,4.3,8.3,8.1l0,0h-15.5v-8.1h-3.9v8.1h-15.5l0,0c2.7-3.8,6-6.6,8.3-8.1l0,0l-4.1,0l0,0c-3,2.2-5.6,4.9-7.6,8.1l0,0
	l-13.9,0l0,0c2.7-3.8,6-6.6,8.3-8.1l0,0l-4.1,0l0,0c-7.1,5.2-12.1,13.5-12.1,23c0,8.7,4.3,16.5,10.2,21.5l0,0l4,0l0,0
	c-2.3-2.2-4.4-4.4-6.2-6.7l0,0l13.6,0l0,0c1.6,2.6,3.6,4.8,5.9,6.7l0,0l4,0l0,0c-2.3-2.2-4.4-4.4-6.1-6.7l0,0h15.3v6.7h3.9V249h15.3
	l0,0c-1.8,2.4-3.9,4.5-6.1,6.7l0,0l4,0l0,0c2.2-1.9,4.2-4.1,5.9-6.7l0,0l13.6,0l0,0c-1.8,2.3-3.9,4.5-6.2,6.7l0,0l4,0l0,0
	c5.9-5,10.2-12.8,10.2-21.5C423,224.8,418,216.4,410.9,211.2L410.9,211.2L410.9,211.2L410.9,211.2z M343.2,245.1
	c-1.4-2.7-2.3-5.6-2.6-8.9l0,0H355l0,0c0.2,3.2,1,6.1,2.2,8.9l0,0L343.2,245.1L343.2,245.1L343.2,245.1z M355,232.3h-14.4l0,0
	c0.3-3.4,1.2-6.4,2.6-9l0,0h14.2l0,0C356.1,226.1,355.3,229.1,355,232.3L355,232.3L355,232.3L355,232.3z M378.4,245.1l-17.8,0l0,0
	c-1.4-2.7-2.4-5.5-2.6-8.9l0,0h20.4V245.1L378.4,245.1L378.4,245.1z M378.4,232.3h-20.4l0,0c0.3-3.4,1.3-6.4,2.6-9l0,0h17.8V232.3
	L378.4,232.3L378.4,232.3z M382.2,223.3h17.8l0,0c1.3,2.6,2.3,5.6,2.6,9l0,0h-20.4V223.3L382.2,223.3L382.2,223.3z M400.1,245.1
	l-17.8,0v-8.9h20.4l0,0C402.4,239.5,401.5,242.4,400.1,245.1L400.1,245.1L400.1,245.1L400.1,245.1z M417.4,223.3
	c1.3,2.6,2.3,5.7,2.6,9l0,0h-14.4l0,0c-0.2-3.2-1-6.2-2.3-9l0,0H417.4L417.4,223.3L417.4,223.3z M403.3,245.1c1.2-2.8,2-5.8,2.2-8.9
	l0,0H420l0,0c-0.3,3.4-1.2,6.3-2.6,8.9l0,0L403.3,245.1L403.3,245.1L403.3,245.1z"/>
</svg>
