<?xml version="1.0" encoding="utf-8"?>
<!-- Generator: Adobe Illustrator 21.0.0, SVG Export Plug-In . SVG Version: 6.00 Build 0)  -->
<svg version="1.1" id="Layer_1" xmlns="http://www.w3.org/2000/svg" xmlns:xlink="http://www.w3.org/1999/xlink" x="0px" y="0px"
	 viewBox="0 0 725 725" style="enable-background:new 0 0 725 725;" xml:space="preserve" width="20px" height="20px">
<g>
	<polygon points="65.6,354 44.2,354 44.2,324.4 0,324.4 0,401.8 44.2,401.8 44.2,371.8 65.6,371.8 65.6,401.8 109.8,401.8 
		109.8,324.4 65.6,324.4 	"/>
	<path d="M182.5,376.1c0,5.3-3.2,11.4-11.1,11.4c-7.8,0-11-6.1-11-11.4v-51.7h-44.2v52.4c0,7.8,6.8,25,32.1,25h46.3
		c25.3,0,32.1-17.1,32.1-25v-52.4h-44.2L182.5,376.1L182.5,376.1z"/>
	<polygon points="300.5,355.8 283,324.4 232.4,324.4 232.4,401.8 273,401.8 273,368.6 291.2,401.8 309.7,401.8 327.9,368.6 
		327.9,401.8 368.5,401.8 368.5,324.4 317.9,324.4 	"/>
	<polygon points="442.3,355.8 424.9,324.4 374.2,324.4 374.2,401.8 414.9,401.8 414.9,368.6 433.1,401.8 451.6,401.8 469.8,368.6 
		469.8,401.8 510.4,401.8 510.4,324.4 459.8,324.4 	"/>
	<polygon points="515.4,401.8 601.7,401.8 601.7,380.4 561,380.4 561,371.8 601.7,371.8 601.7,354 561,354 561,345.8 601.7,345.8 
		601.7,324.4 515.4,324.4 	"/>
	<path d="M718.6,350.1c0-9.6-6.1-25.7-23.2-25.7h-88v77.3h44.2v-22.5l18.9,22.5H725l-23.2-27.4C711.1,374.7,718.6,359.7,718.6,350.1
		L718.6,350.1z M663.7,360.1h-12.1v-17.5h13.5C676.1,342.6,675.1,360.1,663.7,360.1L663.7,360.1z"/>
</g>
</svg>
