<?xml version="1.0" encoding="utf-8"?>
<!-- Generator: Adobe Illustrator 21.0.0, SVG Export Plug-In . SVG Version: 6.00 Build 0)  -->
<svg version="1.1" id="Layer_1" xmlns="http://www.w3.org/2000/svg" xmlns:xlink="http://www.w3.org/1999/xlink" x="0px" y="0px"
	 viewBox="0 0 845 845" style="enable-background:new 0 0 845 845;" xml:space="preserve" width="20px" height="20px">
<g>
	<defs>
		<path id="SVGID_1_" d="M421.7,640.5c233,0,421.7-96.9,421.7-216.3S654.7,207.8,421.7,207.8C188.8,207.8,0,304.7,0,424.1
			S188.8,640.5,421.7,640.5z M500.9,534.2c-6.9,16.2-19.1,51.1-46.8,64.9c-8.5,4-19,6.1-28.1,6.4c-2.1,0.3-3.5,0-4,0
			c-77.9,0-150.3-10.6-211-29.2c-0.5-0.3-1.9-0.8-1.9-0.8c-6.1-1.9-9-4.5-9-7.7c0-2.7,1.3-4.8,3.5-6.9c0.8-0.8,2.1-1.9,3.7-3.5
			c13.8-11.7,56.4-42.3,135.5-73c28-10.6,62.8-23.9,99.3-31.7C463.7,448.6,543,436.7,500.9,534.2L500.9,534.2z M714.4,316.3
			c1.3-2.7,3.5-5,7.2-5c2.1-0.3,4.5,0.3,8.5,2.9c49.5,30.5,79.1,68.6,79.1,109.9c0,74.7-95.8,138.7-232.6,166.8
			c-8.8,1.9-14.6,1.9-16.7-0.5c-1.3-1.6-1.9-3.7,0-6.6c0.8-1.6,1.9-2.9,3.7-4.8C638.2,491,695.1,361.1,711,323.4
			C712,320.3,713.2,317.9,714.4,316.3L714.4,316.3z M343.8,313.4c6.9-16.2,19.1-51.1,46.8-64.9c8.5-4.2,19-6.1,28.1-6.4
			c2.1,0,3.7,0,4.2,0c77.6,0,150.1,10.9,210.7,29.2c0.5,0,1.9,0.5,2.4,0.8c5.6,1.9,8.5,4.5,8.5,7.7c0,2.9-1.6,4.8-3.5,6.9
			c-0.8,0.8-2.1,2.1-3.7,3.5c-14.1,11.7-56.1,42.3-135.5,72.6c-28,10.9-62.8,23.9-99.3,32C380.9,399.1,301.7,411.1,343.8,313.4
			L343.8,313.4z M267.4,257.3c8.8-1.9,15.7-1.9,17.5,0.5c1.3,1.3,1.9,3.7,0,6.6c-0.8,1.6-1.9,2.9-3.5,5
			C206.7,357.4,149.9,487.3,134,524.7c-1.3,2.7-2.4,5.3-3.5,6.9c-1.6,2.7-3.7,4.8-7.2,5c-1.9,0-4.5-0.5-8.8-2.9
			c-49.5-30.5-80-68.6-80-109.9C34.9,349.4,130.7,285.3,267.4,257.3L267.4,257.3z"/>
	</defs>
	<use xlink:href="#SVGID_1_"  style="overflow:visible;"/>
	<clipPath id="SVGID_2_">
		<use xlink:href="#SVGID_1_"  style="overflow:visible;"/>
	</clipPath>
	<path class="st0" d="M421.7,207.8C188.8,207.8,0,304.4,0,423.8s188.8,216,421.7,216c233,0,421.7-96.9,421.7-216
		C843.4,304.4,654.7,207.8,421.7,207.8z M714.8,564.9c-77.9,39.9-181.9,62-293,62s-214.9-22.2-292.8-62
		C54,526.3,12.9,476.4,12.9,424S54.2,321.6,129.1,283c77.9-40.2,181.9-62,293-62s215,22,293,62c75.1,38.6,116.2,88.6,116.2,140.9
		S789.9,526.3,714.8,564.9z"/>
</g>
</svg>
