<?xml version="1.0" encoding="utf-8"?>
<!-- Generator: Adobe Illustrator 21.0.0, SVG Export Plug-In . SVG Version: 6.00 Build 0)  -->
<svg version="1.1" id="Layer_2" xmlns="http://www.w3.org/2000/svg" xmlns:xlink="http://www.w3.org/1999/xlink" x="0px" y="0px"
	 viewBox="0 0 360 360" style="enable-background:new 0 0 360 360;" xml:space="preserve" width="20px" height="20px">
<g>
	<g>
		<g>
			<path d="M226.7,272.5c6.4-0.8,50.9-6.2,82.3-21.9c34-17,50.4-44.5,50.4-68.9c0-52.7-73.8-93.4-179.5-93.4S0.6,128.7,0.6,181.7
				c0,24.7,16.2,52.5,50.4,68.9c31.6,15.2,76.4,20.8,83.1,21.9l45.8-134L226.7,272.5L226.7,272.5z M179.9,117.6
				c0,0-69.7,92.9-76.4,101.3c-25.7-2.3-70.2-19.3-70.2-48.4c0-37,64.8-71.5,146.6-71.5c85.9,0,146.6,34.5,146.6,71.5
				c0,29.3-44.5,46-70.2,48.1C249.3,209.7,179.9,117.6,179.9,117.6"/>
		</g>
	</g>
</g>
</svg>
