<?xml version="1.0" encoding="utf-8"?>
<!-- Generator: Adobe Illustrator 21.0.0, SVG Export Plug-In . SVG Version: 6.00 Build 0)  -->
<svg version="1.1" id="Layer_1" xmlns="http://www.w3.org/2000/svg" xmlns:xlink="http://www.w3.org/1999/xlink" x="0px" y="0px"
	 viewBox="0 0 612 612" style="enable-background:new 0 0 612 612;" xml:space="preserve" width="20px" height="20px">
<g>
	<path d="M575.9,106.4C466.4-18.3,249.7,50.2,133,149.2C-9.3,281.7-32.1,436.9,41.7,519.9c63.1,58.9,151.7,56.2,228.2,48.2
		c61.5-11.8,129.5-38.1,191-86.5c49.9-39.4,95.6-93.4,129.8-166.4C640.3,209.4,586.6,118.4,575.9,106.4L575.9,106.4z M452.4,465
		c-30.9,28.1-229.9,151.6-361,24.1c-108.7-105.7-12.1-271.6,47-321.1c10.7-5.4,72.5-76.3,186.6-91c84.7-10.9,156.6,12.2,199.8,60.4
		c22.5,25.2,37.2,57.2,41.8,94.8C579.9,341.9,483.3,436.9,452.4,465L452.4,465z"/>
	<path d="M180.3,172.7v271h113.4V312.5c0-18.1-3.4-32.8-24.2-52.2L180.3,172.7L180.3,172.7z"/>
	<path d="M436,172.7v271H322.6V312.5c0-18.1,3.4-32.8,24.2-52.2L436,172.7L436,172.7z"/>
</g>
</svg>
