<?xml version="1.0" encoding="utf-8"?>
<!-- Generator: Adobe Illustrator 21.0.0, SVG Export Plug-In . SVG Version: 6.00 Build 0)  -->
<svg version="1.1" id="Layer_1" xmlns="http://www.w3.org/2000/svg" xmlns:xlink="http://www.w3.org/1999/xlink" x="0px" y="0px"
	 viewBox="0 0 2500 2500" style="enable-background:new 0 0 2500 2500;" xml:space="preserve" width="20px" height="20px">
<g>
	<path d="M2106.7,1448.9c121.2,0,220.1,98.9,220.1,220.1c0,121.2-98.9,220.1-220.1,220.1c-121.2,0-220.1-98.9-220.1-220.1
		C1886.6,1547.8,1985.5,1448.9,2106.7,1448.9L2106.7,1448.9z M392.5,1448.9c121.2,0,220.1,98.9,220.1,220.1
		c0,121.2-98.9,220.1-220.1,220.1c-121.3,0-220.1-98.9-220.1-220.1C172.3,1547.8,271.2,1448.9,392.5,1448.9L392.5,1448.9z
		 M726.2,1496.9c27.3,0.1,49.5,22.2,49.5,49.5v564.8c-0.1,27.3-22.2,49.5-49.5,49.6c-27.3-0.1-49.5-22.2-49.6-49.6v-564.8
		C676.7,1519.1,698.8,1497,726.2,1496.9z M899.6,1496.9c27.3,0.1,49.5,22.2,49.5,49.5v564.8c-0.1,27.3-22.2,49.5-49.5,49.6
		c-27.3-0.1-49.5-22.2-49.6-49.6v-564.8C850.1,1519.1,872.2,1497,899.6,1496.9z M1073,1496.9c27.3,0.1,49.5,22.2,49.6,49.5v564.8
		c-0.1,27.3-22.2,49.5-49.6,49.6c-27.3-0.1-49.5-22.2-49.6-49.6v-564.8C1023.5,1519.1,1045.6,1497,1073,1496.9z M1246.4,1496.9
		c27.3,0.1,49.5,22.2,49.5,49.5v564.8c-0.1,27.3-22.2,49.5-49.5,49.6c-27.3-0.1-49.5-22.2-49.6-49.6v-564.8
		C1196.9,1519.1,1219.1,1497,1246.4,1496.9z M1419.8,1496.9c27.3,0.1,49.5,22.2,49.6,49.5v564.8c-0.1,27.3-22.2,49.5-49.6,49.6
		c-27.3-0.1-49.5-22.2-49.6-49.6v-564.8C1370.3,1519.1,1392.5,1497,1419.8,1496.9z M1593.2,1496.9c27.3,0.1,49.5,22.2,49.6,49.5
		v564.8c-0.1,27.3-22.2,49.5-49.6,49.6c-27.3-0.1-49.5-22.2-49.6-49.6v-564.8C1543.7,1519.1,1565.9,1497,1593.2,1496.9z
		 M1766.6,1496.9c27.3,0.1,49.5,22.2,49.6,49.5v564.8c-0.1,27.3-22.2,49.5-49.6,49.6c-27.3-0.1-49.5-22.2-49.6-49.6v-564.8
		C1717.1,1519.1,1739.3,1497,1766.6,1496.9z"/>
	<g>
		<path d="M1484.8,790c-23.4,0-42.7,7.8-57.9,23.4c-15.2,15.5-22.8,36.6-22.5,63.4h160c-0.8-28.4-8.7-50-23.9-64.7
			C1525.2,797.4,1506.7,790,1484.8,790z"/>
		<path d="M1922.7,795.4c-57.5,0-78.8,67.1-77.4,109.8c2,58,24.2,119.9,79.5,119.9c27.7,0,36.7-7.1,55.1-25.4
			c18.4-18.2,27.7-48.2,27.7-89.7c0-38.9-9.6-67.7-28.6-86.5C1960.1,804.8,1950.7,795.4,1922.7,795.4z"/>
		<path d="M1045.8,789.8c-23.4,0-42.7,7.8-57.9,23.4c-15.2,15.5-22.7,36.6-22.5,63.4h160v0c-0.8-28.4-8.7-49.9-23.9-64.7
			C1086.2,797.2,1067.6,789.8,1045.8,789.8z"/>
		<path d="M2424.6,436.4H75.4C33.8,436.5,0.1,470.2,0,511.8v1090.3c40.2-154.6,178.2-269.5,307.1-269.5h1874.2
			c129.7,0,276.9,116.4,318.7,272.4V511.8C2499.9,470.2,2466.2,436.5,2424.6,436.4z M793.8,912.1c0,141.5-63.5,200.7-192.5,203.3
			c-125.9,2.5-171.5-102.5-171.8-215.5h127.8c2.5,51.8-13.9,103,59.1,101.5c45.5-1,52-21.5,52-82.6V579.4h0h125.4V912.1z
			 M1242.5,939.7H969.8c0.8,29,9.5,51.6,26.3,67.7c16.8,16.2,37.8,24.3,62.8,24.3c20.3,0,61.7-12.6,69.3-36.6h108.5
			c-29.7,75.8-106.3,116-179,116c-111.4,0-207.3-67.1-207.3-196.8c0-61.4,17.9-109.4,53.5-144.1c35.6-34.7,88.4-52.1,142.9-52.1
			C1173.4,718,1245.2,801.8,1242.5,939.7z M1681.6,939.9h-272.7c0.8,29,9.5,51.6,26.3,67.7c16.8,16.2,37.8,24.3,62.8,24.3
			c20.3,0,61.7-12.6,69.3-36.6h108.5c-29.7,75.8-106.3,116-179,116c-111.4,0-207.2-67.1-207.2-196.8c0-61.4,17.9-109.4,53.5-144.2
			c35.6-34.7,88.4-52.1,142.9-52.1C1612.5,718.2,1684.2,801.9,1681.6,939.9z M1966.8,1110.8c-46.6,0-82.7-23.9-117.2-58v186.5
			l-116.2-2V726.4l0,0l105.1-2v54.4c29.2-42.7,75.7-66.8,123-66.8c99.3,0,163.2,87,163.2,197.4
			C2124.7,1034.9,2068,1110.8,1966.8,1110.8z"/>
	</g>
</g>
</svg>
