<?xml version="1.0" encoding="utf-8"?>
<!-- Generator: Adobe Illustrator 21.0.0, SVG Export Plug-In . SVG Version: 6.00 Build 0)  -->
<svg version="1.1" id="Layer_1" xmlns="http://www.w3.org/2000/svg" xmlns:xlink="http://www.w3.org/1999/xlink" x="0px" y="0px"
	 viewBox="0 0 2500 2500" style="enable-background:new 0 0 2500 2500;" xml:space="preserve" width="20px" height="20px">
<g>
	<path d="M911.4,925c-79.7,0-156.9,25.4-208.9,76.2c-52,50.7-78.2,120.9-78.2,210.6c0,189.6,140.2,287.7,303,287.7
		c106.3,0,218.2-58.8,261.7-169.6h-158.6c-11.1,35.1-71.6,53.5-101.3,53.5c-36.5,0-67.2-11.8-91.8-35.5
		c-24.6-23.5-37.3-56.6-38.4-99h398.6C1201.4,1047.3,1096.4,924.8,911.4,925z M792.4,1156.7c-0.3-39.2,10.7-70,32.9-92.7
		c22.2-22.8,50.4-34.2,84.6-34.2c31.9,0,59.1,10.8,81.4,32.3c22.2,21.6,33.8,53.1,34.9,94.6H792.4z"/>
	<path d="M1553.4,925.1c-79.7,0-156.9,25.4-208.9,76.2c-52,50.9-78.2,121-78.2,210.8c0,189.6,140,287.7,302.9,287.7
		c106.3,0,218.2-58.8,261.7-169.6h-158.6c-11.1,35.1-71.6,53.5-101.3,53.5c-36.5,0-67.2-11.8-91.8-35.5
		c-24.6-23.5-37.3-56.6-38.4-99h398.6C1843.1,1047.5,1738.3,925.1,1553.4,925.1z M1434.1,1156.9c-0.4-39.2,10.7-70,32.9-92.7
		c22.2-22.8,50.4-34.2,84.6-34.2c32,0,59.1,10.8,81.4,32.3c22.2,21.5,33.8,53.1,34.9,94.6H1434.1z"/>
	<path d="M358.2,1218.3c0,89.3-9.5,119.3-76,120.7c-106.7,2.2-82.7-72.7-86.4-148.4H9c0.4,165.2,67.1,318.7,251.1,315
		c188.6-3.8,281.4-90.3,281.4-297.2V722.2H358.2V1218.3z"/>
	<path d="M2248.5,916c-69.1,0-137.1,35.2-179.8,97.6v-79.5l-153.6,2.9v746.8l169.9,2.9v-272.6c50.4,49.8,103.2,84.8,171.3,84.8
		c147.9,0,230.8-111,230.8-294.4C2487.1,1043.2,2393.7,916,2248.5,916z M2275.4,1336.6c-26.9,26.8-40.1,37.1-80.5,37.1
		c-80.8,0-113.3-90.5-116.2-175.3c-2-62.4,29.1-160.5,113.1-160.5c40.9,0,54.7,13.7,82.3,41.1c27.8,27.5,41.8,69.6,41.8,126.4
		C2315.9,1266.1,2302.3,1310,2275.4,1336.6z"/>
</g>
</svg>
