<?xml version="1.0" encoding="utf-8"?>
<!-- Generator: Adobe Illustrator 21.0.0, SVG Export Plug-In . SVG Version: 6.00 Build 0)  -->
<svg version="1.1" id="Layer_1" xmlns="http://www.w3.org/2000/svg" xmlns:xlink="http://www.w3.org/1999/xlink" x="0px" y="0px"
	 viewBox="0 0 2500 2500" style="enable-background:new 0 0 2500 2500;" xml:space="preserve" width="20px" height="20px">
<path d="M2225.5,857.7c-298.8-150.8-635.7-216.5-969.3-216.5c-336.4,0-687.1,52.5-984.8,216.5C146.6,926.8,8,1047.7,8,1201.8h0
	c0,152.4,136.4,278.9,262.4,342.4c299.3,151.3,636.8,216.5,970.9,216.5c336.3,0,687.1-52.5,984.7-215.9
	c123.7-67.9,262.9-188.3,262.9-341.9C2488.9,1048.8,2353.6,921.8,2225.5,857.7z M808.8,1492.3l-203.3-244.7h-6.1v244.7h-158V946.7
	h-34.8v-36.5h192.8v204.9h6.1l166.8-204.9h177.8l-220.9,271.7l256.3,310.4H808.8z M1314.7,1492.3h-157.9V948.9h-34.2v-40.3h192.2
	V1492.3z M1925.6,1492.3l-129.8-380.5l-130.3,380.5h-172.3l189.4-545.7h0h-30.9v-35.9h243.6l198.3,581.6H1925.6z"/>
</svg>
