<?xml version="1.0" encoding="utf-8"?>
<!-- Generator: Adobe Illustrator 21.0.0, SVG Export Plug-In . SVG Version: 6.00 Build 0)  -->
<svg version="1.1" xmlns="http://www.w3.org/2000/svg" xmlns:xlink="http://www.w3.org/1999/xlink" x="0px" y="0px"
	 viewBox="0 0 261.9 263.7" style="enable-background:new 0 0 261.9 263.7;" xml:space="preserve" width="20px" height="20px">
<g id="Layer_2">
</g>
<g id="Layer_1">
	<g>
		<path d="M220.2,23.5l-0.4-2.6l-2.4-1.1C205.2,14,172.2,0.8,128.8,0.8c-41,0-72.4,11.8-87.6,18.9l-2.4,1.1l-0.4,2.6
			c-2.7,17.3-7.5,63.3,5.9,115.2c13.6,52.6,41.3,93.6,82.1,122.1l2.8,2l2.8-2c40.8-28.4,68.5-69.5,82.1-122.1
			C227.7,86.8,222.9,40.8,220.2,23.5z M204.6,136.2c-12.7,49-38,87.4-75.3,114.4C92,223.6,66.7,185.1,54,136.2
			c-12.4-47.7-8.8-90.1-6.1-108.5c15.1-6.8,43.9-16.8,80.9-16.8c38.8,0,68.8,11,82,16.8C213.4,46.1,217,88.5,204.6,136.2z"/>
		<polygon points="59.5,48.7 65.4,46.5 66.2,48.6 57.8,51.8 53.5,39.9 55.9,39 		"/>
		<polygon points="96.1,41.3 93.7,41.8 91.7,31.4 91.6,31.4 91.3,42.2 88.8,42.7 84.5,32.8 84.5,32.8 86.5,43.2 84.1,43.6 
			81.7,31.2 85.5,30.5 89.6,39.8 89.6,39.8 89.9,29.6 93.7,28.9 		"/>
		<path d="M152.6,33.1l5.3,0.5l-0.7,6.8l-1.8-0.2l-0.1-1.6c-0.7,0.7-1.8,1.7-4.1,1.5c-3-0.3-5.6-2.8-5.1-7.2c0.4-3.4,2.6-6.5,6.8-6
			c3.9,0.4,5.1,3.1,5.1,4.8l-2.6-0.3c0-0.5-0.7-2.2-2.5-2.4c-1.9-0.2-3.7,0.9-4.1,4.2c-0.4,3.4,1.4,4.5,3.2,4.7
			c0.6,0.1,2.5,0,3.3-2.5l-2.9-0.3L152.6,33.1L152.6,33.1z"/>
		<polygon points="165.1,36 164.1,41.6 161.5,41.1 163.8,28.6 166.4,29.1 165.5,33.8 170.4,34.7 171.2,30 173.8,30.4 171.6,42.9 
			169,42.5 170,36.9 		"/>
		<polygon points="178.6,44.6 176,44 179,31.6 181.5,32.2 		"/>
		<polygon points="194.1,35.8 196.5,36.5 192.8,48.6 190.3,47.9 188,37.7 188,37.7 185.3,46.4 183,45.6 186.7,33.5 189.3,34.3 
			191.6,44.2 191.6,44.2 		"/>
		<polygon points="199.5,51.1 197,50.2 201.5,38.3 204,39.3 		"/>
		<path d="M181.7,130c-2.3-0.7-4.9-2.1-8.1-5.5c0.2-1.5,0.3-2.5,0.2-3.4s-0.4-1.5-0.8-2.4c-0.4-0.9-0.9-1.7-1.2-3
			c-0.3-1.3-0.5-3.1-0.2-6c0.3-2.9,0.2-7.6-1-12.7c-1.2-5.1-3.6-10.6-7.7-15.2c1.1-3.4,1.7-5.8,1.8-7.7c0.1-1.9-0.2-3.3-1-5
			c-0.8-1.6-2.8-3-5.8-3.9c-3-0.9-6.9-1.4-11.4-1.4s-11,0.4-16.3,0.3c-5.3-0.1-9.6-0.5-9.6-1.9c0-1.4,0.7-2,1.7-2.4s2.3-0.4,3.3-0.5
			c1.5,0.6,3.7,1,5.9,1.1c2.2,0.2,4.6,0.2,6.4,0.2c1.9,0,3.6-0.6,5.5-1.1c1.8-0.5,3.8-1.1,6-1.1c-1.9-0.6-4.3-1.5-6.8-2.2
			c-2.5-0.7-5-1.1-7.1-0.6c-0.8-0.7-1.3-1.3-2.2-1.5c-0.9-0.2-2.1-0.2-4.1,0.4c-2,0.5-3.3,0.7-4.3,0.9c-1.1,0.1-1.9,0.2-3.2,0.5
			c-1.3,0.3-3,0.5-4.4,1.2c-1.4,0.7-2.5,1.8-2.5,4c0,2.1,0.8,4,2.9,5.3c2.2,1.3,5.8,2.1,11.5,2c5.8-0.1,12.1-0.2,17.3,0
			c5.2,0.3,9.3,1,10.7,2.6c1.4,1.6,1.8,2.7,1.6,3.6c-0.2,0.9-1,1.6-2,2.5c-0.9,0-2.4,0.1-4.3,0c-1.8-0.1-3.9-0.5-5.8-1.3
			c-1.9-0.9-4.1-1.4-6.4-1.4c-2.2,0-4.5,0.4-6.3,1.5c-1.9,1-6.5,3.3-11.2,6.7c-4.7,3.5-9.6,8.2-11.8,14.3c-2.3,6.1-3.4,9.9-4.1,12.6
			c-0.7,2.7-0.9,4.1-1.4,5.5c-0.5,1.4-1.3,2.8-2,4.4c-0.7,1.6-1.3,3.3-1.2,5.3c0,2-0.1,4.4-0.4,6.7s-0.6,4.5-0.9,6.1
			s-0.8,3.5-1.2,5.7s-0.7,4.5-0.6,7c0,2.5-0.1,5-0.5,7.4c-0.3,2.4-0.9,4.6-1.6,6.5c-0.7,1.9-1,3.5-1.2,5.1c-0.3,1.5-0.6,3-1.4,4.5
			c-0.9,1.5-2,3.4-3.2,5.2c-1.2,1.8-2.3,3.5-3.2,4.7c-0.9,1.1-1.3,2.5-1,3.6c0.3,1.1,1.2,2,3.1,2.2c1.9,0.2,3.5-0.2,4.7-1
			c1.2-0.8,2-1.9,2.2-3.2c0.2-1.3,0.2-3,0.3-4.8c0.1-1.8,0.2-3.6,0.8-5l0.6-1.5l0.6-1.5c0.6-1,1-1.4,1.5-1.7
			c0.4-0.3,0.9-0.6,1.5-1.3s1.6-2.9,2.4-5.2c0.8-2.3,1.5-4.9,1.4-6.7c0-1.8,0.1-3.2,0.4-4.3c0.3-1.2,0.7-2.1,1.2-3s0.8-1.9,1.2-2.7
			c0.5-0.8,1.1-1.3,2.2-1.2c1.1,0.1,1.5,0.7,1.6,1.4c0.1,0.7,0.1,1.6,0.5,2.4c0.4,0.8,0.8,1.6,1.3,2.3c0.5,0.7,1.2,1.3,2.3,1.7
			c1,0.4,1.8,1.1,2.3,2c0.4,0.9,0.4,1.9-0.2,2.8c-0.6,0.9-1.5,2.4-2.2,4c-0.7,1.6-1.2,3.1-1.2,4.1c0,1,0.2,2.5,0,4.1
			s-0.6,3.2-1.9,4.5c-1.2,1.3-2.2,2.6-2.9,3.7c-0.7,1.1-1,2.1-1,2.7c0,0.6,0.3,1.4,0.9,2.1c0.7,0.7,1.7,1.1,3.4,1.1
			c1.6,0,2.9-0.4,3.8-1c0.9-0.6,1.5-1.5,1.9-2.6c0.4-1.1,0.3-2,0.1-2.7c-0.2-0.7-0.4-1.3-0.4-2.1c0-0.8,0.2-1.6,0.5-2.6
			c0.3-0.9,0.6-1.9,0.7-2.8c0.1-0.9,0.3-2,0.7-3.2c0.4-1.2,1-2.5,2-3.9s1.5-2.6,2-3.7c0.5-1.1,0.8-2,1.4-2.9
			c0.6-0.9,0.9-1.3,1.1-1.5c0.2-0.1,0.5,0.1,1.1,0.4c0.6,0.4,0.8,0.7,0.6,1.2c-0.1,0.4-0.5,1-0.9,1.6s-1.1,1.7-1.9,2.9
			c-0.8,1.1-1.6,2.4-2.1,3.2c-0.5,0.9-0.8,2-0.6,3s0.8,1.7,2.2,1.8c1.4,0.1,2.5,0.1,3.2-0.1c0.8-0.2,1.2-0.7,1.3-1.4
			c0.1-0.8,0.3-2,0.7-3.2c0.3-1.2,0.7-2.4,1.2-3.2c0.5-0.8,0.8-1.5,1-2.1c0.2-0.6,0.2-1.1,0.2-1.5c0.8,0.7,1.4,1.6,2,2.5
			c0.5,0.9,1,1.8,1.4,2.7c0.4,0.9,1.3,1.9,2.9,2.7c1.6,0.8,3.9,1.3,7,1.2c3.1-0.2,4.7-0.3,5.6-0.6s1.1-0.7,1.4-1.5
			c0.4-0.8,1.2-2.3,1.6-3.8c0.4-1.5,0.4-3.1-1-4c0.2-1.3,0.6-3,1.1-4.6c0.5-1.6,1.3-3.2,2.3-4.3c1-1,2.4-2.1,3.6-3
			c1.2-0.9,2.3-1.8,2.6-2.4c1.6,0.9,3.2,1.9,4.3,3.5c1.2,1.6,1.9,3.6,2.1,6.4c0,1.5,0.2,2.9,0.5,4.2c0.2,1.2,0.5,2.3,0.6,3
			c0.1,0.8,0.1,1.6,0.2,2.4c0,0.9,0,1.7,0.2,2.6s0.7,1.7,1.4,2.2c0.7,0.6,1.6,0.9,2.4,0.7c0.8-0.1,1.4-0.8,1.9-1.7
			c0.5-0.9,0.8-2,0.8-2.8c0-0.9-0.3-1.5-0.6-2c-0.4-0.5-0.8-0.9-1.2-1.2s-0.6-0.7-0.7-1.2s0-1.1,0.4-2.1c0.4-1,0.3-1.9,0-2.6
			c-0.3-0.7-0.7-1.3-1.1-1.7s-0.8-1.4-1.2-2.8c-0.3-1.4-0.5-3.1-0.5-4.7s-0.1-3.5-0.6-5.2c-0.5-1.6-1.2-3-2.2-3.6
			c2.9-0.2,6.2-0.4,9.1-1.3s5.5-2.4,7-5C185.9,130.5,184,130.7,181.7,130z M172.4,133.1c-2.6-0.6-4.8-1.7-5.9-3
			c-0.6-0.7-1.4-1.4-2.2-1.9c-0.9-0.5-1.8-0.9-2.7-1.2c-0.9-0.2-2.3-0.8-3.8-1.4c-1.5-0.6-2.9-1.3-3.8-1.7c-0.2,0.4-0.6,0.9-1.2,1.5
			c-0.6,0.6-1.4,1.4-2.4,2.2c-0.9,0.8-1.1,1.5-1.1,2c0.1,0.5,0.5,1,0.7,1.4c0.3,0.4,1.4,1.3,2.6,2.4c1.2,1,2.5,2,2.9,2.5
			c-1.4,0-2.4-0.1-3.6-0.5c-1.2-0.4-2.5-1.1-4.7-2.5c-2.2-1.4-2.9-2.8-2.9-4.1c0-1.2,0.6-2.3,0.9-2.7s1.1-1.1,1.9-1.7
			c0.8-0.6,1.6-1.2,1.9-1.5s0.6-0.6,0.5-0.9c0-0.3-0.3-0.5-0.8-0.4c-3.7,0.6-6.3,1.6-8,2.7c-1.7,1.1-2.4,2.2-2.5,3
			c-0.1,0.8,0.1,1.5,0.4,2.2c0.3,0.7,0.9,1.4,1.7,2.1c0.8,0.7,1.1,1.7,1,2.6c0,0.9-0.4,1.7-0.8,2.2c-0.5,0.5-0.7,0.8-0.9,1.1
			s-0.3,0.9-0.6,1.9c-0.3,1-0.5,2.9-0.6,5s-0.1,4.2,0,5.7c0.5-0.8,1.2-1.5,1.9-2c0.7-0.5,1.5-0.8,2-1c0.4,3.9,0.2,6.6-0.2,8.6
			c-0.3,2-0.9,3.3-1.2,4.4c-0.1,0.3-0.2,0.5-0.4,0.4c-0.2,0-0.4-0.2-0.5-0.6c-0.3-0.9-0.8-2.3-1.4-3.6c-0.6-1.3-1.3-2.5-2-3.1
			c-1.9-1.9-2.8-2.9-3.2-3.7s-0.3-1.4-0.3-2.6c-3-1.5-4-3.3-4-5.1c0-1.7,0.9-3.3,1.7-4.5c0.8-1.1,1.4-2.5,1.9-3.8
			c0.5-1.3,0.7-2.4,0.8-3.1c0.1-0.7-0.3-2-0.8-3.3c-0.6-1.3-1.3-2.7-2.2-3.7c-0.2-0.1-0.7-0.2-1.3-0.1c-0.6,0.1-1.2,0.4-1.6,1.3
			c-0.4,0.9-1,1.4-1.5,1.6c-0.6,0.2-1.2,0.3-1.8,0.2c-0.6-0.1-1.4-0.1-2.1,0c-0.7,0.1-1.4,0.5-1.9,1.2c-0.5,0.7-1.1,0.7-1.8,0.5
			c-0.6-0.2-1.3-0.6-1.8-0.9c-0.5-0.2-0.8-0.5-1.2-0.7c-0.4-0.2-0.9-0.3-2-0.2c-1.1,0.1-1.5,0.8-1.8,1.7c-0.4,0.8-0.7,1.7-1.6,1.9
			c-0.9,0.3-1.6-0.2-2-1.2c-0.4-1-0.5-2.4-0.5-3.9c-0.3-1.9,0.4-4.9,1.3-7.7c0.9-2.8,2-5.4,2.6-6.7c0.5-1.3,1.4-3.7,2.2-6.5
			c0.9-2.7,1.7-5.7,2.3-8c0.6-2.3,1.9-4,3.6-5.6s3.5-3,5.2-4.7c1.7-1.7,3.7-3.2,5.7-4.3c2-1.1,4-1.8,5.5-1.8c1.5,0,3.1,0.9,4.4,1.8
			c1.3,1,2.4,2,2.9,2.6c0.5,0.6,1,1.9,1.5,3.3c0.5,1.4,1,2.9,1.6,3.8c0.6,0.9,1.1,2.2,1.5,3.8c0.4,1.6,0.8,3.4,1.1,5.1
			c0.3,1.8,1,3,1.7,4c0.7,1,1.5,1.8,2,2.7c0.5,0.9,1.1,3,1.8,5.3c0.7,2.3,1.6,4.9,2.7,6.6c1.1,1.7,2.8,2.9,4.5,3.6
			c1.7,0.8,3.3,1.1,4.1,1.4c0.8,0.2,1.4,0.3,2,0.6c0.6,0.3,1.3,0.9,2.3,2.1c1.4,1.6,3.5,3,5.5,4c2,1,3.8,1.6,4.6,1.9
			C177.9,133.6,175,133.6,172.4,133.1z"/>
		<path d="M72.8,33.5l-2.9,0.8L69,47.7l2.7-0.8l0.1-2.8l4.5-1.3l1.5,2.3l2.8-0.8L72.8,33.5z M71.9,41.9l0.2-5.3l0,0l2.9,4.4
			L71.9,41.9z"/>
		<path d="M110.6,35.8c-0.1-1.2-0.7-2.4-2.3-2.8c0.5-0.3,1.5-0.9,1.2-2.8c-0.1-1.3-1.1-3.1-4.2-2.8l-6.1,0.7l1.4,12.6l5.3-0.6
			c2.6-0.3,3.2-0.8,3.8-1.6C110.4,37.8,110.7,36.8,110.6,35.8z M102,30l3-0.3c1.2-0.1,2,0.1,2.1,1.1c0.1,1-0.7,1.5-1.7,1.6l-3.1,0.3
			L102,30z M106.1,37.8l-3.2,0.4l-0.4-3.4l3.3-0.4c0.9-0.1,1.9,0.2,2.1,1.3C108.1,37.1,107.4,37.7,106.1,37.8z"/>
		<path d="M120.4,26c-1.7,0.1-6,1-5.8,6.9c0.2,5.9,4.7,6.5,6.3,6.4c1.7-0.1,6-1,5.8-6.9C126.5,26.4,122,25.9,120.4,26z M120.8,37.1
			c-1.4,0.1-3.5-0.7-3.6-4.3c-0.1-3.5,1.8-4.5,3.3-4.6c1.4-0.1,3.5,0.7,3.6,4.3C124.2,36,122.2,37,120.8,37.1z"/>
		<path d="M141.3,36.2c0.1-2.4-0.5-2.8-1.5-3.3c1.3-0.4,2-1.6,2-3c0-1.1-0.5-3.6-3.9-3.7l-6.4-0.2l-0.4,12.7l2.6,0.1l0.2-5l2.7,0.1
			c2,0.1,2,0.7,2,2.5c0,1.3,0,2,0.2,2.6l2.9,0.1l0-0.3C141.2,38.5,141.2,38,141.3,36.2z M137.1,31.8l-3.1-0.1l0.1-3.4l3.3,0.1
			c1.5,0,1.8,1,1.8,1.7C139.1,31.4,138.4,31.9,137.1,31.8z"/>
	</g>
</g>
</svg>
