<?xml version="1.0" encoding="utf-8"?>
<!-- Generator: Adobe Illustrator 21.0.0, SVG Export Plug-In . SVG Version: 6.00 Build 0)  -->
<svg version="1.1" id="Layer_1" xmlns="http://www.w3.org/2000/svg" xmlns:xlink="http://www.w3.org/1999/xlink" x="0px" y="0px"
	 viewBox="0 0 261.9 263.7" style="enable-background:new 0 0 261.9 263.7;" xml:space="preserve" width="20px" height="20px">
<g id="Layer_2">
</g>
<g id="Layer_1_1_">
	<g>
		<path d="M217.4,147.9c-4.4-1.4-9.5-4.1-15.7-10.6c0.4-2.9,0.6-4.8,0.4-6.6c-0.2-1.7-0.8-2.9-1.5-4.6c-0.8-1.7-1.7-3.3-2.3-5.8
			s-1-6-0.4-11.6c0.6-5.6,0.4-14.7-1.9-24.5c-2.3-9.9-7-20.5-14.9-29.4c2.1-6.6,3.3-11.2,3.5-14.9c0.2-3.7-0.4-6.4-1.9-9.7
			c-1.5-3.1-5.4-5.8-11.2-7.5c-5.8-1.7-13.3-2.7-22-2.7c-8.7,0-21.3,0.8-31.5,0.6s-18.6-1-18.6-3.7s1.4-3.9,3.3-4.6s4.4-0.8,6.4-1
			c2.9,1.2,7.2,1.9,11.4,2.1c4.3,0.4,8.9,0.4,12.4,0.4c3.7,0,7-1.2,10.6-2.1c3.5-1,7.3-2.1,11.6-2.1c-3.7-1.2-8.3-2.9-13.1-4.3
			c-4.8-1.4-9.7-2.1-13.7-1.2c-1.5-1.4-2.5-2.5-4.3-2.9c-1.7-0.4-4.1-0.4-7.9,0.8c-3.9,1-6.4,1.4-8.3,1.7c-2.1,0.2-3.7,0.4-6.2,1
			c-2.5,0.6-5.8,1-8.5,2.3c-2.7,1.4-4.8,3.5-4.8,7.7c0,4.1,1.5,7.7,5.6,10.2c4.3,2.5,11.2,4.1,22.2,3.9c11.2-0.2,23.4-0.4,33.4,0
			c10.1,0.6,18,1.9,20.7,5c2.7,3.1,3.5,5.2,3.1,7s-1.9,3.1-3.9,4.8c-1.7,0-4.6,0.2-8.3,0c-3.5-0.2-7.5-1-11.2-2.5
			c-3.7-1.7-7.9-2.7-12.4-2.7c-4.3,0-8.7,0.8-12.2,2.9c-3.7,1.9-12.6,6.4-21.6,12.9C94.4,63.1,85,72.2,80.7,84
			c-4.4,11.8-6.6,19.1-7.9,24.4c-1.4,5.2-1.7,7.9-2.7,10.6s-2.5,5.4-3.9,8.5c-1.4,3.1-2.5,6.4-2.3,10.2c0,3.9-0.2,8.5-0.8,12.9
			c-0.6,4.4-1.2,8.7-1.7,11.8c-0.6,3.1-1.5,6.8-2.3,11c-0.8,4.3-1.4,8.7-1.2,13.5c0,4.8-0.2,9.7-1,14.3c-0.6,4.6-1.7,8.9-3.1,12.6
			c-1.4,3.7-1.9,6.8-2.3,9.9c-0.6,2.9-1.2,5.8-2.7,8.7c-1.7,2.9-3.9,6.6-6.2,10.1s-4.4,6.8-6.2,9.1c-1.7,2.1-2.5,4.8-1.9,7
			s2.3,3.9,6,4.3c3.7,0.4,6.8-0.4,9.1-1.9c2.3-1.5,3.9-3.7,4.3-6.2c0.4-2.5,0.4-5.8,0.6-9.3c0.2-3.5,0.4-7,1.5-9.7l1.2-2.9l1.2-2.9
			c1.2-1.9,1.9-2.7,2.9-3.3c0.8-0.6,1.7-1.2,2.9-2.5c1.2-1.4,3.1-5.6,4.6-10.1c1.5-4.4,2.9-9.5,2.7-12.9c0-3.5,0.2-6.2,0.8-8.3
			c0.6-2.3,1.4-4.1,2.3-5.8c1-1.7,1.5-3.7,2.3-5.2c1-1.5,2.1-2.5,4.3-2.3c2.1,0.2,2.9,1.4,3.1,2.7s0.2,3.1,1,4.6
			c0.8,1.5,1.5,3.1,2.5,4.4c1,1.4,2.3,2.5,4.4,3.3c1.9,0.8,3.5,2.1,4.4,3.9c0.8,1.7,0.8,3.7-0.4,5.4c-1.2,1.7-2.9,4.6-4.3,7.7
			c-1.4,3.1-2.3,6-2.3,7.9s0.4,4.8,0,7.9c-0.4,3.1-1.2,6.2-3.7,8.7c-2.3,2.5-4.3,5-5.6,7.2c-1.4,2.1-1.9,4.1-1.9,5.2
			c0,1.2,0.6,2.7,1.7,4.1c1.4,1.4,3.3,2.1,6.6,2.1c3.1,0,5.6-0.8,7.3-1.9c1.7-1.2,2.9-2.9,3.7-5c0.8-2.1,0.6-3.9,0.2-5.2
			c-0.4-1.4-0.8-2.5-0.8-4.1c0-1.5,0.4-3.1,1-5c0.6-1.7,1.2-3.7,1.4-5.4c0.2-1.7,0.6-3.9,1.4-6.2c0.8-2.3,1.9-4.8,3.9-7.5
			c1.9-2.7,2.9-5,3.9-7.2c1-2.1,1.5-3.9,2.7-5.6c1.2-1.7,1.7-2.5,2.1-2.9c0.4-0.2,1,0.2,2.1,0.8c1.2,0.8,1.5,1.4,1.2,2.3
			c-0.2,0.8-1,1.9-1.7,3.1c-0.8,1.2-2.1,3.3-3.7,5.6c-1.5,2.1-3.1,4.6-4.1,6.2c-1,1.7-1.5,3.9-1.2,5.8c0.4,1.9,1.5,3.3,4.3,3.5
			c2.7,0.2,4.8,0.2,6.2-0.2c1.5-0.4,2.3-1.4,2.5-2.7c0.2-1.5,0.6-3.9,1.4-6.2c0.6-2.3,1.4-4.6,2.3-6.2s1.5-2.9,1.9-4.1
			c0.4-1.2,0.4-2.1,0.4-2.9c1.5,1.4,2.7,3.1,3.9,4.8c1,1.7,1.9,3.5,2.7,5.2c0.8,1.7,2.5,3.7,5.6,5.2c3.1,1.5,7.5,2.5,13.5,2.3
			c6-0.4,9.1-0.6,10.8-1.2c1.7-0.6,2.1-1.4,2.7-2.9c0.8-1.5,2.3-4.4,3.1-7.3c0.8-2.9,0.8-6-1.9-7.7c0.4-2.5,1.2-5.8,2.1-8.9
			c1-3.1,2.5-6.2,4.4-8.3c1.9-1.9,4.6-4.1,7-5.8c2.3-1.7,4.4-3.5,5-4.6c3.1,1.7,6.2,3.7,8.3,6.8c2.3,3.1,3.7,7,4.1,12.4
			c0,2.9,0.4,5.6,1,8.1c0.4,2.3,1,4.4,1.2,5.8c0.2,1.5,0.2,3.1,0.4,4.6c0,1.7,0,3.3,0.4,5c0.4,1.7,1.4,3.3,2.7,4.3
			c1.4,1.2,3.1,1.7,4.6,1.4c1.5-0.2,2.7-1.5,3.7-3.3c1-1.7,1.5-3.9,1.5-5.4c0-1.7-0.6-2.9-1.2-3.9c-0.8-1-1.5-1.7-2.3-2.3
			c-0.8-0.6-1.2-1.4-1.4-2.3s0-2.1,0.8-4.1c0.8-1.9,0.6-3.7,0-5c-0.6-1.4-1.4-2.5-2.1-3.3c-0.8-0.8-1.5-2.7-2.3-5.4
			c-0.6-2.7-1-6-1-9.1c0-3.1-0.2-6.8-1.2-10.1c-1-3.1-2.3-5.8-4.3-7c5.6-0.4,12-0.8,17.6-2.5c5.6-1.7,10.6-4.6,13.5-9.7
			C225.5,148.9,221.8,149.3,217.4,147.9z M199.4,153.9c-5-1.2-9.3-3.3-11.4-5.8c-1.2-1.4-2.7-2.7-4.3-3.7c-1.7-1-3.5-1.7-5.2-2.3
			c-1.7-0.4-4.4-1.5-7.3-2.7s-5.6-2.5-7.3-3.3c-0.4,0.8-1.2,1.7-2.3,2.9c-1.2,1.2-2.7,2.7-4.6,4.3c-1.7,1.5-2.1,2.9-2.1,3.9
			c0.2,1,1,1.9,1.4,2.7c0.6,0.8,2.7,2.5,5,4.6c2.3,1.9,4.8,3.9,5.6,4.8c-2.7,0-4.6-0.2-7-1c-2.3-0.8-4.8-2.1-9.1-4.8
			c-4.3-2.7-5.6-5.4-5.6-7.9c0-2.3,1.2-4.4,1.7-5.2c0.6-0.8,2.1-2.1,3.7-3.3c1.5-1.2,3.1-2.3,3.7-2.9c0.6-0.6,1.2-1.2,1-1.7
			c0-0.6-0.6-1-1.5-0.8c-7.2,1.2-12.2,3.1-15.5,5.2c-3.3,2.1-4.6,4.3-4.8,5.8c-0.2,1.5,0.2,2.9,0.8,4.3c0.6,1.4,1.7,2.7,3.3,4.1
			c1.5,1.4,2.1,3.3,1.9,5c0,1.7-0.8,3.3-1.5,4.3c-1,1-1.4,1.5-1.7,2.1c-0.4,0.6-0.6,1.7-1.2,3.7s-1,5.6-1.2,9.7
			c-0.2,4.1-0.2,8.1,0,11c1-1.5,2.3-2.9,3.7-3.9s2.9-1.5,3.9-1.9c0.8,7.5,0.4,12.8-0.4,16.6c-0.6,3.9-1.7,6.4-2.3,8.5
			c-0.2,0.6-0.4,1-0.8,0.8c-0.4,0-0.8-0.4-1-1.2c-0.6-1.7-1.5-4.4-2.7-7c-1.2-2.5-2.5-4.8-3.9-6c-3.7-3.7-5.4-5.6-6.2-7.2
			s-0.6-2.7-0.6-5c-5.8-2.9-7.7-6.4-7.7-9.9c0-3.3,1.7-6.4,3.3-8.7c1.5-2.1,2.7-4.8,3.7-7.3s1.4-4.6,1.5-6c0.2-1.4-0.6-3.9-1.5-6.4
			c-1.2-2.5-2.5-5.2-4.3-7.2c-0.4-0.2-1.4-0.4-2.5-0.2c-1.2,0.2-2.3,0.8-3.1,2.5c-0.8,1.7-1.9,2.7-2.9,3.1c-1.2,0.4-2.3,0.6-3.5,0.4
			c-1.2-0.2-2.7-0.2-4.1,0c-1.4,0.2-2.7,1-3.7,2.3c-1,1.4-2.1,1.4-3.5,1c-1.2-0.4-2.5-1.2-3.5-1.7c-1-0.4-1.5-1-2.3-1.4
			c-0.8-0.4-1.7-0.6-3.9-0.4c-2.1,0.2-2.9,1.5-3.5,3.3c-0.8,1.5-1.4,3.3-3.1,3.7c-1.7,0.6-3.1-0.4-3.9-2.3s-1-4.6-1-7.5
			c-0.6-3.7,0.8-9.5,2.5-14.9c1.7-5.4,3.9-10.4,5-12.9c1-2.5,2.7-7.2,4.3-12.6c1.7-5.2,3.3-11,4.4-15.5c1.2-4.4,3.7-7.7,7-10.8
			c3.3-3.1,6.8-5.8,10.1-9.1c3.3-3.3,7.2-6.2,11-8.3c3.9-2.1,7.7-3.5,10.6-3.5c2.9,0,6,1.7,8.5,3.5c2.5,1.9,4.6,3.9,5.6,5
			c1,1.2,1.9,3.7,2.9,6.4s1.9,5.6,3.1,7.3c1.2,1.7,2.1,4.3,2.9,7.3c0.8,3.1,1.5,6.6,2.1,9.9c0.6,3.5,1.9,5.8,3.3,7.7
			s2.9,3.5,3.9,5.2c1,1.7,2.1,5.8,3.5,10.2c1.4,4.4,3.1,9.5,5.2,12.8c2.1,3.3,5.4,5.6,8.7,7c3.3,1.5,6.4,2.1,7.9,2.7
			c1.5,0.4,2.7,0.6,3.9,1.2c1.2,0.6,2.5,1.7,4.4,4.1c2.7,3.1,6.8,5.8,10.6,7.7s7.3,3.1,8.9,3.7C210,154.9,204.4,154.9,199.4,153.9z"
			/>
	</g>
</g>
</svg>
