<?xml version="1.0" encoding="utf-8"?>
<!-- Generator: Adobe Illustrator 21.0.0, SVG Export Plug-In . SVG Version: 6.00 Build 0)  -->
<svg version="1.1" id="Layer_1" xmlns="http://www.w3.org/2000/svg" xmlns:xlink="http://www.w3.org/1999/xlink" x="0px" y="0px"
	 viewBox="0 0 100 100" style="enable-background:new 0 0 100 100;" xml:space="preserve" width="20px" height="20px">
<title>makes</title>
<path d="M50,23.3c-27.5,0-49.8,11.1-49.8,24.8S22.5,72.9,50,72.9s49.8-11.1,49.8-24.8S77.5,23.3,50,23.3z M50,70.8
	c-26.3,0-47.5-10.1-47.5-22.7S23.7,25.4,50,25.4s47.5,10.2,47.5,22.7S76.3,70.8,50,70.8L50,70.8z"/>
<path d="M50,26.3c-25.8,0-46.7,9.8-46.7,21.8S24.2,69.9,50,69.9s46.7-9.8,46.7-21.8S75.8,26.3,50,26.3z M69.8,43.1l4.8-2.1h-4.2
	l1.1-3.1h8.1L78.6,41l-9.1,3.1L69.8,43.1z M63.2,33.1c1.1,0,2.3,0.3,3.3,0.8c0.9,0.6,1.6,1.6,1.7,2.7c0.1,1.5-0.1,3-0.7,4.4
	c-0.6,1.4-1.6,2.6-2.8,3.5c-1.1,0.8-2.4,1.2-3.8,1.2h-5.8L59,34.3c0.1-0.4,0.1-0.8,0-1.3L63.2,33.1L63.2,33.1z M46.6,34.4
	c0.2-0.4,0.2-0.9,0-1.3h3.8l1.1,5.7l2-5.7h3.6l-4.6,12.6H49l-1-5.5l-2.2,5.5h-3.2L46.6,34.4z M37.3,33.1h3.9l0.7,12.6h-3.6l-0.2-1.6
	h-3.6l-1.2,1.6h-3.6l7.4-11.4C37.3,34,37.4,33.5,37.3,33.1z M25.1,34.4c0.1-0.4,0.1-0.9,0-1.3h4.3l-3.3,9.8h3.7l-1.2,2.9h-7.5
	L25.1,34.4z M24.6,52.7l-1.2,3.1h-8.2l1.2-3.1l9.1-3.1l-0.4,1l-4.8,2L24.6,52.7L24.6,52.7z M38,53.3c-0.3,0.8-0.8,1.4-1.5,1.9
	c-0.6,0.5-1.4,0.8-2.2,0.9l2.5,4.7h-3.7l-2.4-4.5l-1.6,4.5h-3.7l4.1-11.4c0.2-0.4,0.2-0.9,0-1.3h5.1c0.8,0,1.6,0.2,2.4,0.6
	c0.5,0.2,0.9,0.6,1.2,1.1C38.6,51,38.6,52.3,38,53.3z M49.1,58.1c-0.8,1-1.8,1.8-3,2.4C45,61,43.8,61.1,42.6,61
	c-1.8-0.4-3.2-1.8-3.6-3.6c-0.3-1.3-0.3-2.6,0.1-3.8c0.8-2.5,2.7-4.5,5.1-5.4c1.5-0.5,3.1-0.2,4.4,0.6c1,0.7,1.7,1.7,1.9,2.9
	C51.1,53.9,50.6,56.3,49.1,58.1L49.1,58.1z M52.1,60.9l-0.2-11.4c0-0.4-0.1-0.9-0.3-1.3h3.9v6.8l4.6-6.8h4.2L54.9,61L52.1,60.9
	L52.1,60.9z M68.7,60.9h-8l3.9-11.1c0.2-0.5,0.2-1.1,0-1.6h8.5l-0.9,2.8H68l-0.7,2.2h3.2l-1,2.8h-3.1c-0.3,0.7-0.5,1.4-0.7,2.2h4.2
	L68.7,60.9z M83,53.3c-0.3,0.8-0.8,1.5-1.5,1.9c-0.6,0.5-1.4,0.8-2.2,0.9l2.5,4.7h-3.7l-2.4-4.5l-1.6,4.5h-3.7l4.1-11.4
	c0.2-0.4,0.2-0.9,0-1.3h5.1c0.8,0,1.6,0.2,2.3,0.6c0.5,0.2,0.9,0.6,1.2,1.1C83.5,51,83.5,52.2,83,53.3L83,53.3z"/>
<path d="M61.5,42.6c0.4-0.2,0.7-0.4,1-0.7c0.5-0.5,0.9-1.1,1.1-1.8c0.5-1.3,1.2-3.8-0.4-3.8h-0.9L60,42.8h0.9
	C61.1,42.8,61.3,42.7,61.5,42.6z"/>
<path d="M78.4,51.3h-0.8l-0.7,2.1h1C79.2,53.4,80.5,51.3,78.4,51.3z"/>
<path d="M33.4,51.3h-0.8l-0.7,2.1h1C34.4,53.4,35.5,51.3,33.4,51.3z"/>
<polygon points="38.1,41.3 37.9,38.6 36.3,41.3 "/>
<path d="M44.1,51.9c-0.8,0.9-1.3,2.1-1.4,3.3c-0.1,0.7,0,1.4,0.2,2c0.3,0.7,1.2,1,1.9,0.6c0.2-0.1,0.4-0.2,0.5-0.4
	c1.2-1.3,1.8-3.1,1.5-4.9c-0.1-0.8-0.9-1.4-1.7-1.2C44.6,51.4,44.3,51.6,44.1,51.9z"/>
</svg>
