<?xml version="1.0" encoding="utf-8"?>
<!-- Generator: Adobe Illustrator 21.0.0, SVG Export Plug-In . SVG Version: 6.00 Build 0)  -->
<svg version="1.1" id="Layer_1" xmlns="http://www.w3.org/2000/svg" xmlns:xlink="http://www.w3.org/1999/xlink" x="0px" y="0px"
	 viewBox="0 0 294.6 296.1" style="enable-background:new 0 0 294.6 296.1;" xml:space="preserve" width="20px" height="20px">
<g>
	<path d="M174.5,139.2c0-1,0-2,0-2.9C174.5,137.2,174.5,138.1,174.5,139.2L174.5,139.2z"/>
	<path d="M174.5,136c0-0.3,0-0.6,0-0.9C174.5,135.3,174.5,135.6,174.5,136L174.5,136z"/>
	<path d="M174.5,134.4c0-0.2,0-0.4,0-0.5C174.5,134,174.5,134.2,174.5,134.4L174.5,134.4z"/>
	<path d="M118.6,137.8c0,0.9,0,1.8,0,2.7C118.6,139.5,118.6,138.6,118.6,137.8L118.6,137.8z"/>
	<path d="M118.5,133.5c0,0.5,0,1.4,0,2.5C118.5,134.7,118.5,133.9,118.5,133.5L118.5,133.5z"/>
	<path d="M118.6,155.6c0,0.9,0,1.9,0,2.7C118.6,157.5,118.6,156.6,118.6,155.6L118.6,155.6z"/>
	<path d="M118.5,160.1c0,1.2,0,2.1,0,2.5C118.5,162.2,118.5,161.4,118.5,160.1L118.5,160.1z"/>
	<path d="M174.5,156.8c0,1.1,0,2.1,0,2.9C174.5,158.8,174.5,157.9,174.5,156.8L174.5,156.8z"/>
	<path d="M174.5,160.1c0,0.3,0,0.6,0,0.9C174.5,160.7,174.5,160.4,174.5,160.1L174.5,160.1z"/>
	<path d="M174.5,161.6c0,0.2,0,0.4,0,0.5C174.5,162,174.5,161.8,174.5,161.6L174.5,161.6z"/>
	<path d="M186.2,141.4c-0.4-54.2-5.3-115.2-13.5-134.3l-26.2-6.4l-26.2,6.4c-8.2,19.1-13.1,80-13.5,134.2l-11.4,0.9v11.5l11.4,0.9
		c0.4,54.2,5.3,115.2,13.5,134.2l26.2,6.4l26.2-6.4c8.2-19.1,13.1-80,13.5-134.3l11.1-0.9v-11.5L186.2,141.4L186.2,141.4z
		 M128.4,273.5c-7.4-31.8-8.9-84.3-9.5-118.3l18.6,1.4l3.3,116.9H128.4L128.4,273.5z M137.5,139.5l-18.6,1.4
		c0.6-34,2.1-86.5,9.5-118.3h12.3L137.5,139.5L137.5,139.5z M164.6,273.5H152l3.3-116.9l18.8-1.4
		C173.5,189.2,172.1,241.7,164.6,273.5L164.6,273.5z M155.3,139.5L152,22.6h12.6c7.4,31.8,8.9,84.3,9.5,118.3L155.3,139.5
		L155.3,139.5z"/>
</g>
</svg>
