<?xml version="1.0" encoding="utf-8"?>
<!-- Generator: Adobe Illustrator 21.0.0, SVG Export Plug-In . SVG Version: 6.00 Build 0)  -->
<svg version="1.1" id="Layer_1" xmlns="http://www.w3.org/2000/svg" xmlns:xlink="http://www.w3.org/1999/xlink" x="0px" y="0px"
	 viewBox="0 0 180.1 180.1" style="enable-background:new 0 0 180.1 180.1;" xml:space="preserve" width="20px" height="20px">
<g>
	<path d="M101.9,55.2c0-4-3.2-4.3-3.2-4.3h-8.1V53l4.6,0.1c0,0,1.3-1.4,2.7,0.3c1.4,1.6,1.6,2.4,1.6,2.4s0.2,3-2.5,0.4
		c-2.9-2.5-6.3-1.4-6.3-1.4v5.3h8.1C98.7,60.2,101.9,59.5,101.9,55.2z"/>
	<path d="M68.5,101.8c-0.6-0.7-1.6-1.4-2.8-1.8c-2-0.5-3.9,0-5.7,1.6s-3.3,4.1-4.3,7.5c-0.5,1.4-1,3-1.2,4.1
		c-0.2,1.4-0.2,2.7-0.1,3.7c0.1,1.1,0.5,2.1,1.2,2.9c0.5,0.7,1.4,1.3,2.5,1.6c1.2,0.4,2.2,0.4,3.3,0c0.8-0.2,1.7-0.7,2.4-1.6
		c0.8-1,1.6-1.9,2.4-3.2c0.6-1.2,1.3-2.5,1.9-4.1c0.4-1.3,0.7-2.7,1.2-3.9c0.2-1.4,0.2-2.7,0.1-3.8C69.3,103.6,69,102.6,68.5,101.8z
		"/>
	<path d="M82.4,57.7C81,59.3,81,60.2,81,60.2h4.1v-4.3C85.1,55.8,83.4,56.1,82.4,57.7z"/>
	<path d="M79.9,55.8c2.5-1.8,5.3-2.5,5.3-2.5s0.6-2.3-1.2-2.1c-1.8,0.1-3.4,0.2-3.4,0.2s-1,0-1.6,1.4c-0.8,1.4-4.3,7.6-4.3,7.6
		l1.8,0.1C76.5,60.5,77.5,57.7,79.9,55.8z"/>
	<path d="M90.8,64l0.2,9.9c0,0,3.7,0.7,6.5-1.6c2.8-2.3,2.1-2,2.1-2s0.4-0.4,1.3,0.2c1,0.7-0.4,2.5-0.4,2.5s-1,1.5-3.5,3
		c-2.7,1.3-5.5,1.5-5.5,1.5l-0.1,1.4c0,0,1.8,1,4.6,1c2.7-0.1,3.4-0.4,3.4-0.4s5.3-1.6,5.3-7.8c0-6.2-6.2-7.5-6.2-7.5H90.8z"/>
	<path d="M90,0.8C40.9,0.8,0.8,40.9,0.8,90.1c0,49.1,40.1,89.2,89.2,89.2c49.2,0,89.3-40.1,89.3-89.2C179.3,40.9,139.2,0.8,90,0.8z
		 M91.1,144.2c-54.5,1.2-77.4-28.3-77.4-28.3S2.9,98.5,14.1,85.4c11.2-12.9,49.5-55.3,49.5-55.3S74,17.8,88.9,17.4
		c15.2-0.4,24.1,8.9,24.1,8.9l52.4,57.4c0,0,9,10.7,5,22.3C166.5,117.5,145.6,143.2,91.1,144.2z"/>
	<path d="M111,31c0,0-7.7-9-21.7-8.6c-13.9,0.2-23,12.5-23,12.5S30.2,75.7,19.9,87.6s0,25.6,0,25.6s21.1,26.4,71.3,25.5
		c50.1-1.2,70.1-23.8,73.6-34.4c3.7-10.4-6.2-19.7-5.9-19.6L111,31z M53.4,80.6c0,0,4.3-0.1,5.7-2.4c1.4-2.1,3.5-5.4,3.5-5.4
		s-1.3-7.2-1-10.3c0.2-3,2.5-19.1,15-24.4c12.5-5.2,24.9-1,24.9-1s2.2,1.3,3.9,0c1.6-1.3,2.2-2.5,3.5-0.1c1.1,2.4,3.6,6.4,3.6,6.4
		s1.2,3.5-3.9,0.6c-5.2-3-13.5-4.7-13.5-4.7l-4-0.2c0,0-8.9-1.4-15.7,5.7c-6.6,6.9-6,16.2-6,16.2l5.9-8.5c0,0,0.7-0.5,0.4-1.6
		c-0.4-1-0.4-1.3-0.4-1.3v-1.6l25.7-0.2c0,0,6.9-0.3,6.9,6.8s-4.8,7.5-4.8,7.5s7.4,1.6,7.4,9.8c0,8.4-8.8,10.6-8.8,10.6l-19.3-0.2
		c0,0-1.6-1.3,0.1-2c1.8-0.6,2.7-1,2.7-1.9c0-1,0-1,0-1s-4.1-0.4-7.1-4.1c-2.9-3.5-2.2-9.3-2.2-9.3l-3.8-0.1l-2.4,3.7
		c0,0,1.2,9.1,5.6,13.2c4.3,4.1,7.4,7.8,17.9,7.3c10.5-0.4,18.2-5.8,18.2-5.8l2-1.8c0,0,0.7-1.6,2.3-0.6c1.5,0.7-1.6,3.9-1.6,3.9
		s-6.4,8.6-22.7,9.5c-15.7,0.9-26.8-14.8-26.9-16.6c-0.5,0.8-2,3.1-0.7,3.8c1.8,1,0.8,2.4,0.8,2.4L52.9,83c0,0-0.7,0.4-0.7-1.2
		C52.1,80.5,53.4,80.6,53.4,80.6z M30.8,106.3c0.1,0.4,0.4,0.7,1,1.3c0.5,0.4,1.2,0.8,2.1,1.6c0.8,0.6,1.8,1.3,2.8,1.8
		c0.8,0.4,1.6,0.7,2.2,0.6c1,0,1.9-0.4,3.3-0.8c1.3-0.5,2.2-1,3.2-1.6l1.3,0.8l-5.1,6.7l-22.4-16.1l0.8-1.1c0.4,0.2,1,0.4,1.4,0.8
		c0.7,0.2,1.1,0.5,1.3,0.5c0.4,0.1,0.8,0.1,1.3,0c0.3-0.1,0.6-0.4,1-0.7l10-15.4c0.3-0.4,0.4-0.6,0.5-1c0-0.4-0.1-0.7-0.5-1.3
		c-0.2-0.4-0.6-1-1-1.3c-0.4-0.4-0.8-0.7-1.2-1l0.7-1.3l13.4,9.7L46,89.8c-0.4-0.1-0.7-0.4-1.4-0.7c-0.5-0.2-1-0.4-1.4-0.6
		c-0.5-0.2-1-0.2-1.3-0.1c-0.4,0.2-0.6,0.4-0.8,0.8l-9.4,14.2c-0.4,0.6-0.7,1.3-0.8,1.6C30.7,105.5,30.7,105.9,30.8,106.3z
		 M74.9,114.2c-0.6,1.8-1.5,3.3-2.7,4.7c-1.2,1.3-2.4,2.4-3.9,3.2c-1.6,1-3.3,1.4-5.2,1.7c-1.8,0.1-3.8,0-5.9-0.7
		c-1.8-0.4-3.5-1.3-4.7-2.2c-1.4-1-2.5-2.1-3.3-3.5c-0.8-1.4-1.4-3-1.5-4.6c-0.1-1.6,0.1-3.4,0.7-5.3c0.7-1.9,1.6-3.5,2.9-4.8
		c1.3-1.4,2.7-2.5,4.1-3.3c1.7-0.7,3.3-1.2,5.2-1.4c1.8-0.1,3.5,0.1,5.4,0.6c1.8,0.5,3.4,1.3,4.9,2.3c1.5,1,2.4,2.1,3.3,3.3
		c0.7,1.4,1.3,3,1.4,4.7C75.9,110.5,75.6,112.3,74.9,114.2z M98.7,107.8c-0.2-1.2-0.8-2.3-1.6-3.4c-0.7-1.3-1.4-1.9-2-1.9
		c-0.4-0.1-0.7-0.1-1.3-0.1c-0.4,0-1,0-1.4,0h-0.7l0.4,19.6c0,0.4,0,0.7,0.1,1c0.2,0.4,0.4,0.6,0.8,0.7c0.3,0.1,0.7,0.2,1.2,0.4
		c0.5,0,1,0.1,1.4,0.1v1.4l-12.8,0.2v-1.4c0.3,0,0.7-0.1,1.3-0.1c0.6-0.1,1-0.1,1.2-0.2c0.4-0.3,0.7-0.5,0.8-0.7
		c0.1-0.4,0.1-0.7,0.1-1.2l-0.3-19.7h-0.7c-0.4,0-1,0-1.4,0c-0.5,0.1-1,0.1-1.3,0.1c-0.6,0.1-1.3,0.8-2,2c-0.6,1.3-1.2,2.4-1.6,3.5
		h-1.3l-0.1-7.2l22.3-0.4l0.2,7.3H98.7z M127,100.4l2.4,8.7c0.6,2.7,0.2,5-1.2,6.9c-1.6,2.1-3.7,3.7-6.7,4.6c-3.5,1-6.6,1-8.9,0
		c-2.4-0.8-3.9-2.8-4.6-5.4l-3.2-12c-0.1-0.5-0.4-0.7-0.4-1c-0.3-0.3-0.7-0.4-1.2-0.5c-0.4,0-0.7,0-1.3,0c-0.3,0-0.7,0.1-1.1,0.1
		l-0.3-1.3l13-3.6l0.3,1.3c-0.3,0.1-0.7,0.3-1.1,0.4c-0.3,0.2-0.7,0.4-1.1,0.6c-0.4,0.3-0.6,0.7-0.7,1c0,0.4,0,0.7,0.1,1.2l3,11.9
		c0.6,2.2,1.6,3.9,3,4.6c1.4,0.7,3.1,0.8,5.2,0.2c2-0.4,3.4-1.6,4.2-3c1-1.6,1-3.5,0.4-5.7l-2.1-8c-0.4-1.4-0.7-2.4-1.1-3.1
		c-0.4-0.6-0.7-1.2-1.3-1.3c-0.4-0.2-1-0.2-1.8-0.2s-1.4,0-1.8,0.1l-0.2-1.3l10.7-3.2l0.3,1.2c-0.4,0.1-0.8,0.4-1.4,0.7
		c-0.6,0.2-1.1,0.6-1.5,1c-0.4,0.4-0.5,1-0.5,1.8S126.6,99,127,100.4z M156.3,101.5c-0.6,1.2-1.5,2.2-2.4,3.3
		c-0.8,1.1-2.2,2-3.9,3.1c-1.6,0.8-3,1.6-4.6,1.9c-1.6,0.4-2.8,0.7-3.9,0.8l-0.6,1.6l-1.6,1l-4.2-7.5l1.5-0.8
		c0.7,0.6,1.7,1.1,2.5,1.5c1,0.5,1.9,1,3,1.2c1.1,0.2,2.1,0.4,3.2,0.2c1.2-0.1,2.3-0.4,3.5-1.2c1.6-1,2.7-2,3.2-3.2
		c0.4-1.1,0.4-2.1,0-3.2c-0.4-0.7-1.2-1.3-2.1-1.4c-1-0.1-2.4,0-4.1,0.4c-1.2,0.4-2.1,0.7-3.1,1c-1,0.2-1.8,0.4-2.8,0.6
		c-1.8,0.4-3.5,0.4-5-0.2c-1.4-0.5-2.4-1.6-3.2-2.8c-0.4-1-0.6-1.8-0.6-2.8c0.1-1,0.4-1.9,1-3.1c0.3-1,1.1-2,2.1-3
		c1.1-1.2,2.3-2,3.7-2.8c1.4-1,2.8-1.4,4.1-1.8c1.4-0.4,2.5-0.6,3.4-0.6l0.5-1.6l1.6-1l3.9,7l-1.6,0.8c-0.7-0.4-1.6-1-2.4-1.6
		c-1-0.5-1.8-1-2.5-1.2c-1-0.2-1.8-0.2-2.8-0.1c-1,0-1.9,0.4-3,1.1c-1.3,0.6-2.1,1.5-2.7,2.7c-0.4,1-0.4,2,0,3
		c0.4,0.7,1.1,1.3,2.1,1.4c1,0.1,2.2,0,4-0.4c1-0.2,2-0.5,3-1c1-0.2,1.9-0.4,2.8-0.6c2.1-0.4,3.7-0.4,5.1,0c1.4,0.5,2.5,1.6,3.3,3
		c0.4,0.8,0.6,1.8,0.6,3C157.1,99.3,156.8,100.5,156.3,101.5z"/>
</g>
</svg>
