<?xml version="1.0" encoding="utf-8"?>
<!-- Generator: Adobe Illustrator 21.0.0, SVG Export Plug-In . SVG Version: 6.00 Build 0)  -->
<svg version="1.1" id="Layer_1" xmlns="http://www.w3.org/2000/svg" xmlns:xlink="http://www.w3.org/1999/xlink" x="0px" y="0px"
	 viewBox="0 0 180.1 180.1" style="enable-background:new 0 0 180.1 180.1;" xml:space="preserve" width="20px" height="20px">
<g>
	<path d="M91.2,42.4c0,0-8.4-1.3-14.8,5.4c-6.2,6.5-5.7,15.3-5.7,15.3l5.6-8c0,0,0.7-0.5,0.4-1.5c-0.4-0.9-0.4-1.2-0.4-1.2v-1.5
		l24.2-0.2c0,0,6.5-0.3,6.5,6.4s-4.5,7.1-4.5,7.1s7,1.5,7,9.2c0,7.9-8.3,10-8.3,10L83,83.2c0,0-1.5-1.2,0.1-1.9
		c1.7-0.6,2.5-0.9,2.5-1.8c0-0.9,0-0.9,0-0.9s-3.9-0.4-6.7-3.9c-2.7-3.3-2.1-8.8-2.1-8.8l-3.6-0.1l-2.3,3.5c0,0,1.1,8.6,5.3,12.4
		c4.1,3.9,7,7.4,16.9,6.9c9.9-0.4,17.2-5.5,17.2-5.5l1.9-1.7c0,0,0.7-1.5,2.2-0.6c1.4,0.7-1.5,3.7-1.5,3.7s-6,8.1-21.4,9
		c-15.3,0.9-26-15-25.3-15.8c0.7-0.7-2.3,2.8-0.7,3.7c1.7,0.9,0.8,2.3,0.8,2.3l-11.2,0.1c0,0-0.7,0.4-0.7-1.1c0-1.3,1.2-1.2,1.2-1.2
		s4.1-0.1,5.4-2.3c1.3-2,3.3-5.1,3.3-5.1s-1.2-6.8-0.9-9.7c0.2-2.8,2.4-18,14.1-23c11.8-4.9,23.5-0.9,23.5-0.9s2.1,1.2,3.7,0
		c1.5-1.2,2.1-2.4,3.3-0.1c1,2.3,3.4,6,3.4,6s1.1,3.3-3.7,0.6c-4.9-2.8-12.7-4.4-12.7-4.4L91.2,42.4L91.2,42.4z M81.5,65.8h4.1V74
		c0,0-2.3-0.5-3.2-2.5C81.4,69.6,81.5,65.8,81.5,65.8L81.5,65.8z M75.7,62.5l1.7,0.1c0,0,0.9-2.7,3.2-4.4c2.4-1.7,5-2.4,5-2.4
		s0.6-2.2-1.1-2c-1.7,0.1-3.2,0.2-3.2,0.2s-0.9,0-1.5,1.3C79,56.6,75.7,62.5,75.7,62.5L75.7,62.5z M81.6,62.3h3.9v-4.1
		c0,0-1.6,0.2-2.6,1.7C81.6,61.5,81.6,62.3,81.6,62.3L81.6,62.3z M90.7,57.3v5h7.6c0,0,3-0.7,3-4.7c0-3.8-3-4.1-3-4.1h-7.6v2
		l4.3,0.1c0,0,1.2-1.3,2.5,0.3c1.3,1.5,1.5,2.3,1.5,2.3s0.2,2.8-2.4,0.4C93.9,56.2,90.7,57.3,90.7,57.3L90.7,57.3z M90.9,65.9
		l0.2,9.3c0,0,3.5,0.7,6.1-1.5s2-1.9,2-1.9s0.4-0.4,1.2,0.2c0.9,0.7-0.4,2.4-0.4,2.4s-0.9,1.4-3.3,2.8c-2.5,1.2-5.2,1.4-5.2,1.4
		l-0.1,1.3c0,0,1.7,0.9,4.3,0.9c2.5-0.1,3.2-0.4,3.2-0.4s5-1.5,5-7.4c0-5.8-5.8-7.1-5.8-7.1L90.9,65.9L90.9,65.9z"/>
	<path d="M161.2,84.4l-49.4-54.1c0,0-8.4-8.8-22.7-8.4C75,22.3,65.2,34,65.2,34S29.1,73.9,18.5,86.1c-10.5,12.3-0.4,28.7-0.4,28.7
		s21.6,27.8,73,26.7c51.4-0.9,71.1-25.2,74.8-36.1C169.7,94.5,161.2,84.4,161.2,84.4z M160.6,103.8c-3.3,10-22.2,31.3-69.4,32.4
		c-47.3,0.9-67.2-24-67.2-24s-9.7-12.9,0-24.1c9.7-11.2,43.7-49.6,43.7-49.6s8.6-11.6,21.7-11.8c13.2-0.4,20.5,8.1,20.5,8.1
		l45.1,50.5C154.8,85.2,164.1,94,160.6,103.8z"/>
	<path d="M49.2,109.3l-4.8,6.3l-21.1-15.2l0.8-1c0.4,0.2,0.9,0.4,1.3,0.8c0.7,0.2,1,0.5,1.2,0.5c0.4,0.1,0.8,0.1,1.2,0
		c0.3-0.1,0.6-0.4,0.9-0.7l9.4-14.5c0.3-0.4,0.4-0.6,0.5-0.9c0-0.4-0.1-0.7-0.5-1.2c-0.2-0.4-0.6-0.9-0.9-1.2
		c-0.4-0.4-0.8-0.7-1.1-0.9l0.7-1.2l12.6,9.1l-0.8,1c-0.4-0.1-0.7-0.4-1.3-0.7c-0.5-0.2-0.9-0.4-1.3-0.6c-0.5-0.2-0.9-0.2-1.2-0.1
		c-0.4,0.2-0.6,0.4-0.8,0.8l-8.9,13.4c-0.4,0.6-0.7,1.2-0.8,1.5c-0.1,0.5-0.1,0.9,0,1.3s0.4,0.7,0.9,1.2c0.5,0.4,1.1,0.8,2,1.5
		c0.8,0.6,1.7,1.2,2.6,1.7c0.8,0.4,1.5,0.7,2.1,0.6c0.9,0,1.8-0.4,3.1-0.8c1.2-0.5,2.1-0.9,3-1.5L49.2,109.3L49.2,109.3z"/>
	<path d="M75.3,103.8c0.7,1.3,1.2,2.8,1.3,4.4c0.2,1.5-0.1,3.2-0.7,5c-0.6,1.7-1.4,3.1-2.5,4.4c-1.1,1.2-2.3,2.3-3.7,3
		c-1.5,0.9-3.1,1.3-4.9,1.6c-1.7,0.1-3.6,0-5.6-0.7c-1.7-0.4-3.3-1.2-4.4-2.1c-1.3-0.9-2.4-2-3.1-3.3c-0.8-1.3-1.3-2.8-1.4-4.3
		c-0.1-1.5,0.1-3.2,0.7-5c0.7-1.8,1.5-3.3,2.7-4.5c1.2-1.3,2.5-2.4,3.9-3.1c1.6-0.7,3.1-1.1,4.9-1.3c1.7-0.1,3.3,0.1,5.1,0.6
		c1.7,0.5,3.2,1.2,4.6,2.2C73.6,101.6,74.5,102.7,75.3,103.8L75.3,103.8z M65.4,118.5c0.8-0.9,1.5-1.8,2.3-3
		c0.6-1.1,1.2-2.4,1.8-3.9c0.4-1.2,0.7-2.5,1.1-3.7c0.2-1.3,0.2-2.5,0.1-3.6c-0.1-1.1-0.4-2-0.9-2.8c-0.6-0.7-1.5-1.3-2.6-1.7
		c-1.9-0.5-3.7,0-5.4,1.5c-1.7,1.5-3.1,3.9-4.1,7.1c-0.5,1.3-0.9,2.8-1.1,3.9c-0.2,1.3-0.2,2.5-0.1,3.5c0.1,1,0.5,2,1.1,2.7
		c0.5,0.7,1.3,1.2,2.4,1.5c1.1,0.4,2.1,0.4,3.1,0C63.9,119.8,64.7,119.3,65.4,118.5L65.4,118.5z"/>
	<path d="M99.5,107.2h-1.2c-0.2-1.1-0.8-2.2-1.5-3.2c-0.7-1.2-1.3-1.8-1.9-1.8c-0.4-0.1-0.7-0.1-1.2-0.1c-0.4,0-0.9,0-1.3,0h-0.7
		l0.4,18.5c0,0.4,0,0.7,0.1,0.9c0.2,0.4,0.4,0.6,0.8,0.7c0.3,0.1,0.7,0.2,1.1,0.4c0.5,0,0.9,0.1,1.3,0.1v1.3l-12.1,0.2v-1.3
		c0.3,0,0.7-0.1,1.2-0.1c0.6-0.1,0.9-0.1,1.1-0.2c0.4-0.3,0.7-0.5,0.8-0.7c0.1-0.4,0.1-0.7,0.1-1.1l-0.3-18.6h-0.7
		c-0.4,0-0.9,0-1.3,0c-0.5,0.1-0.9,0.1-1.2,0.1c-0.6,0.1-1.2,0.8-1.9,1.9c-0.6,1.2-1.1,2.3-1.5,3.3h-1.2l-0.1-6.8l21-0.4L99.5,107.2
		L99.5,107.2z"/>
	<path d="M127.7,93.8c-0.4,0.1-0.8,0.4-1.3,0.7c-0.6,0.2-1,0.6-1.4,0.9c-0.4,0.4-0.5,0.9-0.5,1.7s0.1,1.8,0.5,3.1l2.3,8.2
		c0.6,2.5,0.2,4.7-1.1,6.5c-1.5,2-3.5,3.5-6.3,4.3c-3.3,0.9-6.2,0.9-8.4,0c-2.3-0.8-3.7-2.6-4.3-5.1l-3-11.3
		c-0.1-0.5-0.4-0.7-0.4-0.9c-0.3-0.3-0.7-0.4-1.1-0.5c-0.4,0-0.7,0-1.2,0c-0.3,0-0.7,0.1-1,0.1l-0.3-1.2l12.3-3.4l0.3,1.2
		c-0.3,0.1-0.7,0.3-1,0.4c-0.3,0.2-0.7,0.4-1,0.6c-0.4,0.3-0.6,0.7-0.7,0.9c0,0.4,0,0.7,0.1,1.1l2.8,11.2c0.6,2.1,1.5,3.7,2.8,4.3
		c1.3,0.7,2.9,0.8,4.9,0.2c1.9-0.4,3.2-1.5,4-2.8c0.9-1.5,0.9-3.3,0.4-5.4l-2-7.5c-0.4-1.3-0.7-2.3-1-2.9c-0.4-0.6-0.7-1.1-1.2-1.2
		c-0.4-0.2-0.9-0.2-1.7-0.2c-0.8,0-1.3,0-1.7,0.1l-0.2-1.2l10.1-3L127.7,93.8L127.7,93.8z"/>
	<path d="M146.6,107.2c-1.5,0.8-2.8,1.5-4.3,1.8c-1.5,0.4-2.6,0.7-3.7,0.8l-0.6,1.5l-1.5,0.9l-4-7.1l1.4-0.8c0.7,0.6,1.6,1,2.4,1.4
		c0.9,0.5,1.8,0.9,2.8,1.1c1,0.2,2,0.4,3,0.2c1.1-0.1,2.2-0.4,3.3-1.1c1.5-0.9,2.5-1.9,3-3c0.4-1,0.4-2,0-3c-0.4-0.7-1.1-1.2-2-1.3
		c-0.9-0.1-2.3,0-3.9,0.4c-1.1,0.4-2,0.7-2.9,0.9c-0.9,0.2-1.7,0.4-2.6,0.6c-1.7,0.4-3.3,0.4-4.7-0.2c-1.3-0.5-2.3-1.5-3-2.6
		c-0.4-0.9-0.6-1.7-0.6-2.6c0.1-0.9,0.4-1.8,0.9-2.9c0.3-0.9,1-1.9,2-2.8c1-1.1,2.2-1.9,3.5-2.6c1.3-0.9,2.6-1.3,3.9-1.7
		c1.3-0.4,2.4-0.6,3.2-0.6l0.5-1.5l1.5-0.9l3.7,6.6l-1.5,0.8c-0.7-0.4-1.5-0.9-2.3-1.5c-0.9-0.5-1.7-0.9-2.4-1.1
		c-0.9-0.2-1.7-0.2-2.6-0.1c-0.9,0-1.8,0.4-2.8,1c-1.2,0.6-2,1.4-2.5,2.5c-0.4,0.9-0.4,1.9,0,2.8c0.4,0.7,1,1.2,2,1.3
		c0.9,0.1,2.1,0,3.8-0.4c0.9-0.2,1.9-0.5,2.8-0.9c0.9-0.2,1.8-0.4,2.6-0.6c2-0.4,3.5-0.4,4.8,0c1.3,0.5,2.4,1.5,3.1,2.8
		c0.4,0.8,0.6,1.7,0.6,2.8c-0.1,1.1-0.4,2.2-0.9,3.1c-0.6,1.1-1.4,2.1-2.3,3.1C149.5,105.3,148.2,106.2,146.6,107.2L146.6,107.2z"/>
	<path d="M90.1,1.8C41.2,1.8,1.4,41.6,1.4,90.5c0,48.8,39.8,88.6,88.8,88.6c48.9,0,88.7-39.8,88.7-88.6C178.8,41.6,139,1.8,90.1,1.8
		z M90.1,174.6C43.8,174.6,6,136.8,6,90.5C6,44.1,43.8,6.3,90.1,6.3c46.4,0,84.2,37.8,84.2,84.2C174.3,136.8,136.5,174.6,90.1,174.6
		z"/>
</g>
</svg>
