<?xml version="1.0" encoding="utf-8"?>
<!-- Generator: Adobe Illustrator 21.0.0, SVG Export Plug-In . SVG Version: 6.00 Build 0)  -->
<svg version="1.1" id="Layer_1" xmlns="http://www.w3.org/2000/svg" xmlns:xlink="http://www.w3.org/1999/xlink" x="0px" y="0px"
	 viewBox="0 0 150.2 150.2" style="enable-background:new 0 0 150.2 150.2;" xml:space="preserve" width="20px" height="20px">
<g>
	<g>
		<rect x="62.2" y="125.1" width="25.9" height="6.4"/>
		<rect x="65.3" y="134.1" width="19.5" height="13.3"/>
		<rect x="36.7" y="95.5" width="76.7" height="3.1"/>
		<rect x="32.6" y="101.6" width="84.9" height="3.1"/>
		<rect x="32.6" y="89.7" width="84.9" height="3.1"/>
		<path d="M88.6,111.7c-4.3,3.9-4.3,10.9-4.3,10.9H75h-9.1c0,0,0-7-4.3-10.9c-3-2.7-6.7-3.3-6.7-3.3c-2.4-0.4-2.4-0.8-2.4-1h20.7H79
			h18.3c0,0,0,0.4-2.4,1C95.1,108.4,91.4,109,88.6,111.7z"/>
		<g>
			<path d="M37.1,107.7c1,0,8,0,9.1,0c0,5.5-3.6,8-9.1,6.7C37.1,110.7,37.1,109.3,37.1,107.7z"/>
		</g>
		<path d="M69.8,19.5c3.7-7.2,4.3-18.2,5.2-18.3c1,0.2,1.5,11.2,5.2,18.3c3.6,6.8,10.9,12.7,10.6,13.3c-0.6,0.8-4.6-1.3-6.7-2.4
			c-3.3-1.5-6.1-2.7-6.1-2.7s-1.3,17.3,3,33.4c3.6,13.1,11.6,25.2,12.5,26.1H83c-0.4-0.6-0.6-1.2-1-1.5c-3-5.1-4.9-9.5-6.8-17
			c-1.9,7.6-4,11.9-7,17c-0.4,0.6-0.6,1.2-1,1.5H56.7c0.8-1,8.9-13.1,12.5-26.1c4.3-16,3-33.4,3-33.4s-2.7,1.2-6.1,2.7
			c-2.1,1-6.3,3.1-6.8,2.4C58.9,32.2,66.4,26.4,69.8,19.5z"/>
		<path d="M36.7,87.3c0-1.3-0.8-18.9-4.9-32.8c-4.5-15.2-13.7-24.1-13.1-25.2c0.6-0.8,8,0.8,13.7,4.5c6.1,4,11.9,10.9,11.5,11.5
			c-0.2,0.4-2.4-1.3-6.1-2.7c-3.9-1.3-5.7-1.2-5.7-1.2s6.4,10.7,9.7,22.2c2.7,9.7,4,22.2,4,23.4h-9.4v0.2L36.7,87.3L36.7,87.3z"/>
		<path d="M113.5,87.3c0-1.3,0.8-18.9,4.9-32.8c4.5-15.2,13.7-24.1,13.1-25.2c-0.6-0.8-8,0.8-13.7,4.5c-6.1,4-11.9,10.9-11.5,11.5
			c0.2,0.4,2.4-1.3,6.1-2.7c3.9-1.3,5.7-1.2,5.7-1.2s-6.4,10.7-9.7,22.2c-2.7,9.7-4,22.2-4,23.4h9.4v0.2L113.5,87.3L113.5,87.3z"/>
		<g>
			<path d="M113,107.7c-1,0-8,0-9.1,0c0,5.5,3.6,8,9.1,6.7C113,110.7,113,109.3,113,107.7z"/>
		</g>
	</g>
</g>
</svg>
