<?xml version="1.0" encoding="utf-8"?>
<!-- Generator: Adobe Illustrator 21.0.0, SVG Export Plug-In . SVG Version: 6.00 Build 0)  -->
<svg version="1.1" id="Layer_1" xmlns="http://www.w3.org/2000/svg" xmlns:xlink="http://www.w3.org/1999/xlink" x="0px" y="0px"
	 viewBox="0 0 989.6 989.6" style="enable-background:new 0 0 989.6 989.6;" xml:space="preserve" width="20px" height="20px">
<g>
	<g transform="translate(0.000000,511.000000) scale(0.100000,-0.100000)">
		<path d="M4827.8,3814.1c-703.8-240-1490.3-804.7-2420-1736.4C1960.1,1630,1464,1051.2,1090.9,539
			C748,73.1,332.6-717.4,171.2-1207.5C24-1645.1,7.8-1951.6,118.8-2155.3c72.6-131.1,123-173.4,369.1-310.6
			c742.1-415.4,1942.1-792.6,2988.7-939.8c550.6-76.6,784.5-92.8,1472.2-92.8s921.6,16.1,1472.2,92.8
			c974.1,137.1,2014.7,449.7,2803.2,843c334.8,167.4,455.8,248.1,524.3,359c86.7,137.1,106.9,229.9,94.8,449.7
			c-18.2,320.6-151.3,726-417.5,1252.4c-191.6,385.2-609.1,1066.8-713.9,1173.7c-18.1,18.2-30.2,40.3-28.2,50.4
			c8.1,22.2-344.9,473.9-607,778.4c-244,284.4-828.8,869.2-1131.4,1133.4c-637.3,556.6-1228.2,953.9-1669.8,1121.3
			C5112.1,3816.1,4912.5,3842.3,4827.8,3814.1z M5263.4,3430.9c363-179.5,1437.9-964,1863.4-1359.2
			c780.5-724,1502.4-1724.3,2067.1-2867.7c457.8-927.7,496.1-1175.7,207.7-1365.3c-395.3-262.2-1226.1-570.7-2163.9-802.6
			c-818.8-203.7-1361.3-270.2-2228.4-270.2c-647.4-2-889.4,14.1-1439.9,98.8c-1083,167.4-2565.2,655.4-3029.1,998.3
			c-246,179.5-201.7,435.6,233.9,1320.9c407.4,826.8,919.6,1617.4,1454,2238.5c209.7,248.1,740.1,772.4,955.9,949.9
			c550.6,451.7,1331,980.1,1639.6,1111.2C4973,3545.9,5051.6,3535.8,5263.4,3430.9z"/>
		<path d="M3412.1,1404.1l-6-1056.7l-193.6,106.9c-104.9,60.5-405.4,240-665.5,399.3c-300.5,185.5-477.9,282.3-486,268.2
			c-8.1-12.1-16.1-871.2-16.1-1909.8v-1887.6l167.4-62.5c90.8-34.3,179.5-64.5,195.6-68.6c26.2-6,32.3,185.5,40.3,1591.2
			l10.1,1597.2l427.5-238c235.9-131.1,449.7-254.1,477.9-272.3l52.4-32.3v-1439.9v-1437.9l117-22.2c62.5-12.1,157.3-28.2,209.7-36.3
			l96.8-12.1l4,1341.1l6,1341.1l560.6-340.8l558.6-338.8l560.6,340.8L6088-427.1l6-1339.1c4-1087,10.1-1339.1,30.2-1339.1
			c14.1,0,80.7,10.1,147.2,20.2c64.5,12.1,149.2,26.2,185.5,32.3l64.5,10.1v1437.9c0,1127.3,6,1444,26.2,1460.1
			c12.1,10.1,227.9,135.1,478,274.3l453.8,252.1l10.1-1597.2c8.1-1405.6,14.1-1597.2,40.3-1591.2c16.1,4,104.9,34.3,197.6,68.6
			l165.4,62.5V-788c0,1038.6-8.1,1897.7-16.1,1909.8c-8.1,14.1-185.5-82.7-486-268.2c-260.1-159.3-560.6-338.8-665.5-399.3
			l-193.6-106.9l-6,1056.7c-4,891.4-8.1,1056.7-32.3,1056.7c-16.1,0-365-195.6-776.4-433.6l-748.2-435.6l-748.2,435.6
			c-411.4,238-760.3,433.6-776.4,433.6C3420.1,2460.9,3416.1,2299.5,3412.1,1404.1z M4410.3,1434.4
			c298.5-167.4,550.6-304.5,560.6-304.5c8.1,0,264.2,139.1,566.7,310.6l550.6,310.6l6-828.9c4-647.4-2-834.9-20.2-853.1
			c-14.1-12.1-268.2-169.4-564.7-348.9l-540.4-328.7l-558.6,342.8L3849.7,75.1l-6,840.9c-2,463.8,2,836.9,10.1,832.9
			C3863.8,1742.9,4113.9,1601.8,4410.3,1434.4z"/>
	</g>
</g>
</svg>
