<?xml version="1.0" encoding="utf-8"?>
<!-- Generator: Adobe Illustrator 21.0.0, SVG Export Plug-In . SVG Version: 6.00 Build 0)  -->
<svg version="1.1" id="Layer_1" xmlns="http://www.w3.org/2000/svg" xmlns:xlink="http://www.w3.org/1999/xlink" x="0px" y="0px"
	 viewBox="0 0 148 148" style="enable-background:new 0 0 148 148;" xml:space="preserve" width="20px" height="20px">
<path d="M135.7,36.5c-0.5-0.6-1.2-1.3-1.7-1.9C119,18.5,94.5,15,73.9,15c-20.8,0-46,3.5-60.8,20.6c-0.2,0.3-0.5,0.6-0.7,0.9
	c-7.2,8.7-11.7,21-11.7,37.6c0,51.2,41.6,59.4,73.2,59.4c31.7,0,73.4-8.2,73.4-59.4C147.3,57.5,142.9,45.1,135.7,36.5z M26.2,44.6
	c9.9-15.2,28.6-18.9,47.7-18.9s37.5,3.5,47.5,18.4c0.2,0.3,0.4,0.7,0.6,1.1c-17.1,10.1-36.5,10.5-48.1,35.5
	C61.2,56.4,42,56.2,25.2,46.5C25.5,45.9,25.9,45.3,26.2,44.6z M73.9,122.8C45.5,123,19,114.8,19,74.1c0-3,0-6.1,0.5-8.7
	c0.1-0.6,0.3-1.2,0.4-1.8c9.5,3.4,18.9,6.6,28.5,9.8C59.6,78,67.1,84.6,73.9,99.4C80.7,84.6,88,77.1,99.3,72.5
	c9.7-3.4,19.2-6.9,28.9-10.3c0.1,0.2,0.1,0.5,0.2,0.7c0.5,3.3,0.7,7.2,0.7,11.2C129.2,114.8,102.3,123.1,73.9,122.8z"/>
</svg>
