<?xml version="1.0" encoding="utf-8"?>
<!-- Generator: Adobe Illustrator 21.0.0, SVG Export Plug-In . SVG Version: 6.00 Build 0)  -->
<svg version="1.1" id="Layer_1" xmlns="http://www.w3.org/2000/svg" xmlns:xlink="http://www.w3.org/1999/xlink" x="0px" y="0px"
	 viewBox="0 0 182.6 182.6" style="enable-background:new 0 0 182.6 182.6;" xml:space="preserve" width="20px" height="20px">
<g>
	<path d="M37.3,135.3c-4.9-3-6.5-6.9-14-9.9c-7.4-9.7-10.3-21.9-10.3-34c0-8.9,1.5-17.7,4-25.7l7.5,14.9c-0.4,3.3-0.6,6.9-0.6,10.8
		c0,49.5,32.8,59.5,67.5,59.4c34.6,0.1,67.5-9.9,67.5-59.4c0-5.1-0.3-9.7-1-14l5.4-11c2.8,7,4.4,16,4.2,25.1
		c-0.3,14.6-5,29.4-16,36.4l-1.8,2.6l-1.9,2.4l-2,2.2l-2.1,2.1l-2.3,1.9l-2.4,1.8l-2.5,1.6l-2.6,1.5l-2.7,1.3l-2.7,1.2l-2.8,1
		l-2.9,0.9l-2.9,0.8l-3,0.7l-3.1,0.6l-3.1,0.5l-3.1,0.4l-3.2,0.3l-3.2,0.2l-3.2,0.2l-3.3,0.1H88l-3.3-0.1l-3.2-0.2l-3.2-0.2
		l-3.2-0.3L72,151l-3.1-0.5l-3.1-0.6l-3-0.7l-2.9-0.8l-2.9-0.9l-2.8-1l-2.7-1.2l-2.7-1.3l-2.6-1.5l-2.5-1.6l-2.4-1.8l-2.3-1.9
		L37.3,135.3L37.3,135.3z"/>
	<path d="M164.6,42.9c-18.2-19.8-48.3-24-73.3-24c-25.6,0-56.4,4.4-74.5,25.3l0.3,0.3l0,0l0.5,0.4l0.2,0.2l0,0
		c3.9,3.8,8.2,7.8,12.6,10.1c0.7,0.3,1.5,0.4,2.3,0.1C44.8,36.6,67.6,32,91.3,32c23.3-0.1,45.7,4.4,58,22.5l14.5-11l0,0L164.6,42.9z
		 M155.9,46.7c-19.4-17-40-21.2-64.6-21C66.4,25.5,44.7,30,25.5,48.1L18.8,44l1.9-2l2.8-2.6l2.9-2.4l3-2.2l3.2-2l3.3-1.8l3.4-1.6
		l3.5-1.5l3.6-1.3l3.6-1.2l3.7-1l3.7-0.9l3.8-0.8l3.8-0.7l3.8-0.5l3.8-0.4l3.8-0.3l3.8-0.3l3.8-0.2l3.7-0.1l3.6,0l3.6,0l3.7,0.1
		l3.8,0.2l3.8,0.3l3.8,0.3l3.8,0.4l3.8,0.5l3.8,0.7l3.8,0.8l3.7,0.9l3.7,1l3.6,1.2l3.6,1.3l3.5,1.5l3.4,1.6L150,33l3.2,2l3,2.2
		l2.9,2.4l2.8,2.6l0.6,0.6L155.9,46.7z"/>
	<path d="M91.1,122.1c-8.3-17.8-17.4-25.8-31.2-31.6L25.3,78.8l-4.8-13.2c8.5,6.5,21.1,11,33,15.6c18.5,7.1,28.5,16,37.6,34.4V122.1
		L91.1,122.1z"/>
	<path d="M91.1,122.1c8.3-17.8,17.4-27,31.2-32.7l34.3-12.2l4.8-12.8c-8.5,6.5-22,11.5-34,16.1c-18.5,7.1-27.2,16.8-36.2,35.1
		L91.1,122.1L91.1,122.1z"/>
	<path d="M166.6,45.2l-1,1c-0.2,5.5-1.1,11.1-1.9,16.4c3.9,8.3,5.7,18.3,6,28.8c0.6,31-15.2,63.6-78.4,65.7
		c-39.7-0.3-64.7-12.6-74.9-38.1c-6.8-4.3-10-12.2-13.2-19.9L3.1,97l-0.1-5.6l0.1-5.6l0.4-5.3l0.7-5l1-4.7l1.2-4.5l1.4-4.2l1.7-3.9
		l1.9-3.7l2.1-3.4l1.9-2.7c0.7,5.3,1.6,12.2,3.3,13.6c20.1,16.9,55.5,14.7,72.5,48.7c18.5-37.7,51.1-32.9,71.2-49.8l1.9-16.2
		c-23.4,25.3-55.3,16.7-73.1,54.6C71.9,62,40.5,71.2,17,46.2l-1-1C7.1,55.9,1.5,70.8,1.5,91.4c0,62.4,50.9,72.5,89.7,72.5
		c38.8,0,89.7-10.1,89.7-72.5C181,70.8,175.5,55.9,166.6,45.2z M116.7,73.1l2.2-1.2l2.4-1.2l4.8-2.2c4.1-1.8,8.3-3.5,12.4-5.2l5-2.3
		l2.5-1.2l2.5-1.3L151,57l2.5-1.5l2.4-1.7l2.4-1.8l2.4-2l1.7-1.6L161,60l-1.4,1.1l-1.9,1.4l-2,1.3l-2.1,1.2l-2.1,1.1l-2.2,1l-2.2,1
		l-2.3,0.9c-4.7,1.9-9.5,3.6-14.3,5.5l-4.9,2l-2.5,1.1l-2.5,1.2l-2.4,1.3l-2.4,1.4l-2.4,1.5l-2.4,1.6l-2.4,1.7l-1.5,1.3
		C108.2,82.6,111.1,77.9,116.7,73.1z M102.9,83.9l0.6-0.6l2.1-2l2.1-1.9l2.2-1.7l0.3-0.2c-2.8,4.1-4.5,8-5.1,11.9l-1,0.9l-2.2,2.2
		l-1.7,1.9C100,91,100.9,87.6,102.9,83.9z M18.3,49.5l2.3,2.1l2.4,1.9l2.4,1.8l2.4,1.6l2.4,1.5l2.5,1.4l2.5,1.3l2.5,1.2l5,2.2
		c4.1,1.7,8.3,3.3,12.4,5l4.9,2.1l0,0c3.8,4.7,7.5,9.3,10.5,14.2l-1.3-0.8l-2.5-1.4l-2.5-1.3l-2.5-1.3l-2.5-1.2L54,77.5
		c-5-2-10-3.9-15-5.9l-4.8-2l-2.3-1.1l-2.2-1.1l-2.2-1.2L25.4,65l-2-1.3l-2-1.4l-1.8-1.4l-0.4-0.5l-0.4-1l-0.4-1.5L17.9,56l-0.4-2.1
		c-0.3-2-0.6-4-0.9-6L18.3,49.5z"/>
</g>
</svg>
