<?xml version="1.0" encoding="utf-8"?>
<!-- Generator: Adobe Illustrator 21.0.0, SVG Export Plug-In . SVG Version: 6.00 Build 0)  -->
<svg version="1.1" id="Layer_1" xmlns="http://www.w3.org/2000/svg" xmlns:xlink="http://www.w3.org/1999/xlink" x="0px" y="0px"
	 viewBox="0 0 1413 1413" style="enable-background:new 0 0 1413 1413;" xml:space="preserve" width="20px" height="20px">
<g id="_x23_ee2629ff">
	<path d="M976.4,340.1c61.9-10.9,124.8-12.5,187.3-13.5c62.4-0.5,127.4,6.2,183.1,36.9c51,20.8,79.1,83.2,60.3,135.8
		c-24.4,80.6-82.2,145.1-141,202.9c-148.8,153.5-333.4,263.7-510.8,380.3c29.7-43.2,54.1-90.5,72.3-139.4
		c14-38.5,27.6-78.5,29.1-120.2c2.1-42.7-6.8-88.4-34.3-122.2c-27.6-31.2-67.1-49.9-106.6-60.9C658.6,623.6,598.2,622,538.9,622
		c-134.7,1-268.4,22.9-400,49.9C92.6,680.3,47.3,694.3,0,696.4c40.1-13,75.4-36.4,113.4-55.1c177.4-90,361-168,550.9-227.3
		C766.2,381.7,870.8,358.3,976.4,340.1z"/>
</g>
</svg>
