<?xml version="1.0" encoding="utf-8"?>
<!-- Generator: Adobe Illustrator 21.0.0, SVG Export Plug-In . SVG Version: 6.00 Build 0)  -->
<svg version="1.1" id="Layer_1" xmlns="http://www.w3.org/2000/svg" xmlns:xlink="http://www.w3.org/1999/xlink" x="0px" y="0px"
	 viewBox="0 0 202 202" style="enable-background:new 0 0 202 202;" xml:space="preserve" width="20px" height="20px">
<g>
	<path d="M3.7,128.2l44.4-69.3c2.3-3.6,4.7-6.5,8.5-9c3.7-2.5,9.3-4.1,11.7-4.1l117.4,0.1C167.6,18.3,136.5,0,101,0
		C45.2,0,0,45.2,0,101C0,110.4,1.3,119.6,3.7,128.2L3.7,128.2z"/>
	<path d="M26.8,169.5l58.4-92.4c4.4-6.3,8.6-12.4,19.3-12.4l90.8,0c-1.7-4.3-3.6-8.5-5.9-12.6L86,52.2c-7.3,0-12,5.4-15.6,12
		L15,153.9C18.4,159.5,22.4,164.7,26.8,169.5L26.8,169.5z"/>
	<path d="M61,193.8L123,94c3.1-5.1,9.2-10.3,15.5-10.3l62,0c-0.7-4.2-1.7-8.4-3-12.4l-71-0.1c-8.2,0-12.5,0.3-19.7,12.2L44.9,185
		C50,188.4,55.4,191.3,61,193.8L61,193.8z"/>
	<path d="M201.4,90L160,90c-7.5-0.1-11.5,4.2-14.2,8.7L83.2,200.4c5.8,1,11.7,1.6,17.8,1.6c55.8,0,101-45.2,101-101
		C202,97.3,201.8,93.6,201.4,90L201.4,90z"/>
</g>
</svg>
