<?xml version="1.0" encoding="utf-8"?>
<!-- Generator: Adobe Illustrator 21.0.0, SVG Export Plug-In . SVG Version: 6.00 Build 0)  -->
<svg version="1.1" id="Layer_1" xmlns="http://www.w3.org/2000/svg" xmlns:xlink="http://www.w3.org/1999/xlink" x="0px" y="0px"
	 viewBox="0 0 312 312" style="enable-background:new 0 0 312 312;" xml:space="preserve" width="20px" height="20px">
<path d="M302.2,128.7l9.8-9.9h-98.1l0,0c-12.2-19.4-33.5-32.3-57.8-32.3s-45.6,12.9-57.8,32.3l0,0H0l9.8,9.9h83.3
	c-1.6,3.7-2.8,7.6-3.7,11.6l0,0H21.2l9.8,9.9h56.9c-0.2,1.9-0.3,3.8-0.3,5.8s0.1,3.9,0.3,5.8H42.4l9.8,9.9h37.2
	c0.9,4.1,2.2,8.1,3.9,11.9c0-0.1-0.1-0.2-0.1-0.3H63.6l9.8,9.9h24.9l0,0c12.2,19.4,33.5,32.3,57.8,32.3s45.6-12.9,57.8-32.3l0,0
	h24.7l9.8-9.9h-29.3c0,0.1-0.1,0.2-0.1,0.3c1.6-3.8,2.9-7.8,3.9-11.9h37l9.8-9.9h-45.2c0.2-1.9,0.3-3.8,0.3-5.8s-0.1-3.9-0.3-5.8
	H281l9.8-9.9h-68l0,0c-0.9-4-2.2-7.9-3.7-11.6C219.1,128.7,302.2,128.7,302.2,128.7z M215.4,121.3c0-0.1-0.1-0.1-0.1-0.2
	C215.3,121.2,215.4,121.2,215.4,121.3z M216.8,123.9c0-0.1-0.1-0.2-0.1-0.3C216.7,123.7,216.8,123.8,216.8,123.9z M95.6,123.6
	c-0.1,0.1-0.1,0.2-0.1,0.3C95.5,123.8,95.5,123.7,95.6,123.6z M96.9,121.1c0,0.1-0.1,0.1-0.1,0.2C96.8,121.2,96.9,121.2,96.9,121.1z
	 M96.8,190.7c0,0.1,0.1,0.1,0.1,0.2C96.9,190.9,96.8,190.8,96.8,190.7z M95.4,188.1c0.1,0.1,0.1,0.2,0.2,0.3
	C95.5,188.3,95.4,188.2,95.4,188.1z M156.1,215.6c-32.4,0-58.7-26.7-58.7-59.6s26.3-59.6,58.7-59.6s58.7,26.7,58.7,59.6
	S188.5,215.6,156.1,215.6z M216.7,188.5c0.1-0.1,0.1-0.2,0.2-0.3C216.8,188.2,216.7,188.3,216.7,188.5z M215.3,190.9
	c0-0.1,0.1-0.1,0.1-0.2C215.4,190.8,215.3,190.9,215.3,190.9z"/>
<path d="M114.9,171.7h-6.1V140h9.1l7.9,25.3l7.9-25.3h9.1v31.6h-6.3v-23.4l-7.3,23.4h-6.8l-7.5-23.6
	C114.9,148,114.9,171.7,114.9,171.7z"/>
<path d="M156.3,171.7h-6.5V140h6.5V171.7z"/>
<path d="M169.6,171.7h-6.2V140h7.6l12.4,22.9V140h6.2v31.6H182l-12.4-22.8V171.7z"/>
<path d="M203.1,171.7h-6.5V140h6.5V171.7z"/>
</svg>
