<?xml version="1.0" encoding="utf-8"?>
<!-- Generator: Adobe Illustrator 21.0.0, SVG Export Plug-In . SVG Version: 6.00 Build 0)  -->
<svg version="1.1" id="Ebene_1" xmlns="http://www.w3.org/2000/svg" xmlns:xlink="http://www.w3.org/1999/xlink" x="0px" y="0px"
	 viewBox="0 0 1305.5 1305.5" style="enable-background:new 0 0 1305.5 1305.5;" xml:space="preserve" width="20px" height="20px">
<style type="text/css">
	.st0{fill:#1B171B;}
</style>
<g>
	<path class="st0" d="M890.6,512.6l-1.9-3.2l-4.8-7.6l-5-7.4l-5.3-7.2l-5.5-7.1l-5.7-6.9l-5.9-6.7l-6.1-6.5l-6.4-6.3l-6.6-6.1
		l-6.7-5.9l-6.9-5.6l-7.1-5.4l-7.3-5.2l-7.5-5l-7.6-4.7l-7.8-4.5l-8-4.2l-8.1-4l-8.3-3.7l-8.4-3.5l-8.5-3.2l-8.7-2.9l-8.8-2.6
		l-8.9-2.3l-9-2l-9.1-1.7l-9.2-1.4l-9.3-1.1l-9.4-0.8l-9.5-0.5l-9.6-0.2l-9.6,0.2l-9.5,0.5l-9.4,0.8l-9.3,1.1l-9.2,1.4l-9.1,1.7
		l-9,2l-8.9,2.3l-8.8,2.6l-8.7,2.9l-8.5,3.2l-8.4,3.5l-8.2,3.7l-8.1,4l-8,4.2l-7.8,4.5l-7.6,4.7l-7.5,5l-7.3,5.2l-7.1,5.4l-6.9,5.6
		l-6.7,5.9l-6.6,6.1l-6.3,6.3l-6.2,6.5l-5.9,6.7l-5.7,6.9l-5.5,7.1l-5.3,7.2l-5,7.4l-4.8,7.6l-1.9,3.2H0.2l44.9,63.5l20.5,24.4
		l55.8,63.5l25,24.4l71.3,63.5l31.2,24.6l85,63.3h117.9l2.1,2.2l4.9,5.1l5,4.9l5.2,4.8l5.3,4.7l5.4,4.5l5.5,4.4l5.6,4.3l5.8,4.1
		l5.9,4l6,3.8l6.1,3.7l6.2,3.5l6.3,3.4l6.4,3.2l6.5,3.1l6.6,2.9l6.6,2.7l6.7,2.5l6.8,2.4l6.9,2.2l7,2l7,1.8l7.1,1.7l7.2,1.5l7.2,1.3
		l7.3,1.1l7.4,0.9l7.4,0.7l7.5,0.5l7.5,0.3l7.6,0.1l7.6-0.1l7.5-0.3l7.5-0.5l7.4-0.7l7.4-0.9l7.3-1.1l7.2-1.3l7.2-1.5l7.1-1.7l7-1.8
		l7-2l6.9-2.2l6.8-2.4l6.7-2.5l6.6-2.7l6.6-2.9l6.5-3.1l6.4-3.2l6.3-3.4l6.2-3.5l6.1-3.7l6-3.8l5.9-4l5.8-4.1l5.6-4.3l5.5-4.4
		l5.4-4.5l5.3-4.7l5.2-4.8l5.1-4.9l4.9-5.1l2.1-2.2h116.1l85-63.3l31.2-24.6l71.3-63.5l25-24.4l55.8-63.5l20.5-24.4l44.9-63.5H890.6
		z M1255.7,567.1H906c4.7,13.6,8.2,27.8,10.6,42.3h303.5l-40.1,45.6H920.2c-0.1,14.4-1.4,28.5-3.7,42.3h219.1l-51.2,45.6h-180
		c-5.2,14.4-11.6,28.3-19.1,41.4l144.6,0.9l-61.2,45.6h-117c-48.8,54.2-119.5,88.4-197.9,88.4c-78.4,0-149.1-34.2-197.9-88.4H336.9
		l-61.2-45.6l146.4-0.9c-7.5-13.1-13.9-27-19.1-41.4H221.1L170,697.4h221c-2.3-13.8-3.6-27.9-3.7-42.3H125.4l-40.1-45.6h305.4
		c2.4-14.5,6-28.7,10.6-42.3H49.8l-32.3-45.6h404.4c45.9-80.7,132.7-135.3,231.8-135.3c99.1,0,185.9,54.6,231.8,135.3H1288
		L1255.7,567.1z"/>
	<path class="st0" d="M653.7,451.9c-110.6,0-200.9,90.2-200.9,200.9c0,110.6,90.2,200.9,200.9,200.9s200.9-90.2,200.9-200.9
		C854.6,542.1,764.3,451.9,653.7,451.9z M603.1,715.8h-29.2v-88.4l-22.7,88.4h-26.4l-22.6-88.4v88.4h-29.3v-116h47l18.2,70.6
		l18.1-70.6h46.9V715.8z M654.7,715.8h-31.8v-116h31.8V715.8z M783.8,715.8H751l-42.2-63.7v63.7h-32.7v-116h32.5L751,664v-64.2h32.8
		V715.8z M803.9,715.8v-116h31.8v116H803.9z"/>
</g>
</svg>
