<?xml version="1.0" encoding="utf-8"?>
<!-- Generator: Adobe Illustrator 21.0.0, SVG Export Plug-In . SVG Version: 6.00 Build 0)  -->
<svg version="1.1" id="Layer_1" xmlns="http://www.w3.org/2000/svg" xmlns:xlink="http://www.w3.org/1999/xlink" x="0px" y="0px"
	 viewBox="0 0 612 612" style="enable-background:new 0 0 612 612;" xml:space="preserve" width="20px" height="20px">
<g>
	<path d="M492.3,207.7C457.1,140.3,386.5,94.2,305.1,94.2s-152,46.1-187.2,113.5H492.3L492.3,207.7z"/>
	<path d="M117.7,402.6c35.2,67.6,105.9,113.8,187.4,113.8c81.5,0,152.2-46.2,187.4-113.8L117.7,402.6L117.7,402.6z"/>
	<g>
		<path d="M429.3,282.2c-0.6-1.6-1.1-2.8-1.2-2.8s-0.6,1.3-1.2,2.8l-9.8,26.2c-0.6,1.6,0.3,2.8,2,2.8h18c1.7,0,2.6-1.3,2-2.8
			L429.3,282.2z"/>
		<path d="M592,225.9l-570.8,0c-10,0-18.2,8.2-18.2,18.2v34.3v55.8v34.3c0,10,8.2,18.2,18.2,18.2l570.8,0c10,0,18.2-8.2,18.2-18.2
			V333v-53.5v-35.4C610.2,234.1,602,225.9,592,225.9z M135.1,348.1c0,1.7-1.4,3-3,3H98.5c-1.7,0-3.6-1.2-4.3-2.8l-29.3-63.1
			c-0.7-1.5-1.3-2.7-1.3-2.6c0,0.1-0.1,1.5-0.1,3.2l-0.4,62.3c0,1.7-1.4,3-3.1,3H43.9c-1.7,0-3-1.4-3-3v-85.3c0-1.7,1.4-3,3-3h36v0
			c1.7,0,3.6,1.3,4.2,2.8l26.3,62.9c0.6,1.5,1.2,1.4,1.2-0.2v-62.4c0-1.7,1.4-3,3-3H132c1.7,0,3,1.4,3,3V348.1z M179,348.1
			c0,1.7-1.4,3-3,3h-17.4c-1.7,0-3-1.4-3-3v-85.3c0-1.7,1.4-3,3-3h17.4c1.7,0,3,1.4,3,3V348.1z M281.5,321.6c0,12.2-9,26-20.6,28.3
			l-30,0h-31.5v-20.1l49.7-0.7c6.2-0.1,6.6-3.7,6.5-6.2c0,0,1.2-7.9-7.3-7.9h-27.6c-16.6,0-25.5-10.4-25.5-28.2
			c0-25,14.3-27.9,37.3-27.9c23,0,40.5-0.3,40.5-0.3l-0.3,20.7c-16.6,0-31,0.1-40.2,0.1c-12.7,0-12.6,0.4-12.6,7.9
			c0,6.7,1,6.7,11.4,6.7l29.7,0.3C282.2,294.4,281.5,321.6,281.5,321.6z M376,321.6c0,12.2-9,26-20.6,28.3l-30,0H294v-20.1l49.7-0.7
			c6.2-0.1,6.6-3.7,6.5-6.2c0,0,1.2-7.9-7.3-7.9h-27.6c-16.6,0-25.5-10.4-25.5-28.2c0-25,14.3-27.9,37.3-27.9
			c23,0,40.5-0.3,40.5-0.3l-0.3,20.7c-16.6,0-31,0.1-40.2,0.1c-12.7,0-12.6,0.4-12.6,7.9c0,6.7,1,6.7,11.4,6.7l29.7,0.3
			C376.7,294.4,376,321.6,376,321.6z M476.3,349h-17.8c-1.7,0-3.6-1.2-4.4-2.7l-5-10.3c-0.7-1.5-2.7-2.7-4.4-2.7h-33v0
			c-1.7,0-3.7,1.2-4.4,2.7l-5.3,10.3c-0.8,1.5-2.7,2.7-4.4,2.7h-18.3c-1.7,0-2.6-1.3-2-2.8l31.6-85.7c0.6-1.6,2.4-2.8,4.1-2.8h29.6
			c1.7,0,3.5,1.3,4.1,2.8l31.7,85.7C478.9,347.7,478,349,476.3,349z M582.7,348.1c0,1.7-1.4,3-3,3h-33.6c-1.7,0-3.6-1.2-4.3-2.8
			l-29.3-63.1c-0.7-1.5-1.3-2.7-1.3-2.6c0,0.1-0.1,1.5-0.1,3.2l-0.4,62.3c0,1.7-1.4,3-3.1,3h-16.2c-1.7,0-3-1.4-3-3v-85.3
			c0-1.7,1.4-3,3-3h36v0c1.7,0,3.6,1.3,4.2,2.8l26.3,62.9c0.6,1.5,1.2,1.4,1.2-0.2v-62.4c0-1.7,1.4-3,3-3h17.5c1.7,0,3,1.4,3,3
			V348.1z"/>
	</g>
</g>
</svg>
