<?xml version="1.0" encoding="UTF-8"?>
<svg  width="20px" height="20px" viewBox="0 0 100 100" version="1.1" xmlns="http://www.w3.org/2000/svg" xmlns:xlink="http://www.w3.org/1999/xlink">
    <!-- Generator: Sketch 54.1 (76490) - https://sketchapp.com -->
    <title>opel</title>
    <desc>Created with Sketch.</desc>
    <g id="opel" stroke="none" stroke-width="1" fill="none" fill-rule="evenodd">
        <path d="M49.9407668,84.246087 C31.1929712,84.246087 15.6433546,68.7026721 15.6433546,49.9622889 C15.6433546,48.9878036 15.688115,48.0222259 15.770639,47.0668248 L44.4682109,48.8567665 L32.0558786,57.4286719 C31.8878275,57.5469793 31.7770607,57.7416232 31.7770607,57.9617126 C31.7770607,58.3204656 32.0685942,58.6117884 32.427492,58.6117884 L83.106869,58.6117884 C79.2099042,73.253231 65.7067572,84.246087 49.9407668,84.246087 M49.9407668,15.6772152 C68.6886901,15.6772152 84.2383227,31.2219018 84.2383227,49.9622889 C84.2383227,50.9291395 84.195655,51.8883569 84.1136262,52.837403 L55.4438658,51.0156471 L67.884393,42.4946299 C68.0535783,42.3763162 68.1630032,42.1816782 68.1630032,41.9615904 C68.1630032,41.6028359 67.8728594,41.3115066 67.5152875,41.3115066 L16.7747284,41.3115066 C20.6730032,26.6700711 34.1747764,15.6772152 49.9407668,15.6772152 M99.1299361,53.7915285 L89.7465176,53.194884 C89.8319808,52.1288027 89.877492,51.0499986 89.877492,49.9622889 C89.877492,27.9142499 71.9976518,10.0414914 49.9407668,10.0414914 C30.8569489,10.0414914 14.9013099,23.423481 10.9483866,41.3115066 L3.57955272,41.3115066 C3.09722045,41.3115066 2.66573482,41.540503 2.39215655,41.8967106 L0.199265176,44.9232128 C0.100527157,45.0504255 0.0415015974,45.2094531 0.0415015974,45.3824671 C0.0415015974,45.7971944 0.376277955,46.1317733 0.791182109,46.1317733 L10.1377316,46.7144335 C10.0511502,47.7856032 10.0053514,48.8682172 10.0053514,49.9622889 C10.0053514,72.0090453 27.8852077,89.8818108 49.9407668,89.8818108 C69.0246645,89.8818108 84.9802396,76.4998212 88.9345208,58.6117884 L96.3402396,58.6117884 C96.8238179,58.6117884 97.2539776,58.3828002 97.5276997,58.0265915 L99.7217732,55.0000905 C99.8205112,54.8728771 99.8796006,54.7138501 99.8796006,54.5408348 C99.8796006,54.1261084 99.5435783,53.7915285 99.1299361,53.7915285" id="path6381" fill="#1A171B" fill-rule="nonzero"></path>
    </g>
</svg>