<?xml version="1.0" encoding="utf-8"?>
<!-- Generator: Adobe Illustrator 21.0.0, SVG Export Plug-In . SVG Version: 6.00 Build 0)  -->
<svg version="1.1" id="Layer_1" xmlns="http://www.w3.org/2000/svg" xmlns:xlink="http://www.w3.org/1999/xlink" x="0px" y="0px"
	 viewBox="0 0 2500 2500" style="enable-background:new 0 0 2500 2500;" xml:space="preserve" width="20px" height="20px">
<path d="M1930,314.1C1761.2,116.6,1527.3,1.7,1253.7,1.7S746.1,116.6,577.4,314.1c-153,179.1-247.6,435-247.6,690.7
	c0,307.7,56.1,572,182.4,802.3c149.4,273,400.6,492.8,741.4,691c340.8-198.5,580.1-427.4,729.4-699.7
	c126.3-229.6,187.4-491.5,187.4-800.3C2170.5,742.4,2083,493.2,1930,314.1z M472.1,1237.6c-22.4-116.9-72.2-513.2,181.8-829.3
	C908.2,91.9,1249.3,122,1249.3,122c294-15,687.3,219.2,685,625.2c-3,500.5-306.4,722.1-306.4,722.1c37.4-104.6,97.2-817-530.6-859.4
	C510.6,570.4,472.1,1237.6,472.1,1237.6z M766.2,736.8c380.2-253.3,792.2,74.8,842,431h0c-448.4-420.7-944.3,47.4-966.7,555.7
	C552,1668.7,400,981,766.2,736.8z M1445.1,1515.6c-18.4,31.7-59.1,42.4-90.9,24.1c-26.1-15-30.7-47.1-30.7-78.2
	c-0.7-17.7-12-85.9-73.5-85.9c-58.1,0-72.8,68.5-72.8,85.9c0,31.1-4.7,63.2-30.7,78.2c-31.7,18.4-72.5,7.7-90.9-24.1
	c-18.4-31.7,7.7-57.8,5.3-81.2c-2.3-21.4-45.8-23.7-45.8-65.2c0-37.8,30.4-68.2,68.2-68.2s48.4,27.1,71.8,40.4
	c20.7,12,50.5,22.4,62.8-9c12.4-32.4-21.4-64.2-32.4-69.8c-31.4-16.7-88.5-42.1-88.5-79.9s30.4-68.2,68.2-68.2
	c30.7,0,45.8,17.4,57.1,34.8c11.4,17,19.7,18.4,28.1,18.4c8.4,0,16.7-1.3,28.1-18.4c11.7-17.4,26.4-34.8,57.1-34.8
	c37.8,0,68.2,30.4,68.2,68.2s-56.8,63.2-88.5,79.9c-11,5.7-44.8,37.4-32.4,69.8c12,31.7,41.8,21.1,62.8,9
	c23.4-13.4,34.1-40.4,71.8-40.4c37.8,0,68.2,30.4,68.2,68.2c0,41.1-43.4,43.8-45.8,65.2C1437.1,1457.8,1463.2,1483.9,1445.1,1515.6z
	 M1286.1,1545.4c0,34.4-16,62.1-36.1,62.1s-36.1-27.7-36.1-62.1s16-62.1,36.1-62.1S1286.1,1511,1286.1,1545.4z M1909.2,1691.1
	c-44.8,144.3-368.6,585.4-659.9,712.4c-54.5-39.4-336.8-189.1-475.8-438.4h0c-115.3-207.2-92.2-565.4,152-739.8
	c-15,72.2-181.8,702.4,363.5,837c334.5,82.5,574-364.9,584.1-392.3C1883.2,1642.6,1925.6,1638.6,1909.2,1691.1z M1394,1987.4
	c-167.7,37.8-373.6-67.2-460.8-443.4c64.5,104.6,824.3,515.6,1058.5-727.4C2021.5,943.6,2001.8,1850.4,1394,1987.4z"/>
<g>
	<path d="M908.8,419.3c-1.3,0-1.7,0-3-0.3c0,0,0-0.3-0.3-0.3c-0.3,0-0.7,0.3-1,0.3c-0.3-0.3-0.7-0.3-1-0.7c-1.7,0-3,0.3-4.7,0.3
		c0,0,0-0.3-0.3-0.3c-5,0.3-9,7.4-10.4,9.7l-1,3c-0.3,0-0.7,0.3-1,0.3c-0.3,0.7-0.3,1.7-0.7,2.3c-0.3,0-0.7,0.3-1,0.3
		c0,0.7-0.3,1-0.3,1.7c-0.3,0-0.7,0.3-1,0.3l-1,3c-0.3,0-0.7,0.3-1,0.3c-0.3,1.3-1,3-1.3,4.3c-0.3,0-0.7,0.3-1,0.3
		c-0.3,1-0.7,2-0.7,3c-0.3,0-0.7,0.3-1,0.3c-0.3,0.7-0.3,1.7-0.7,2.3c-0.3,0-0.7,0.3-1,0.3c-0.3,0.7-0.3,1.7-0.7,2.3
		c-0.3,0-0.7,0.3-1,0.3c-0.3,0.7-0.3,1.7-0.7,2.3c-0.3,0-0.7,0.3-1,0.3c-0.3,0.7-0.3,1.7-0.7,2.3c-0.3,0-0.7,0.3-1,0.3
		c-0.3,0.7-0.3,1.7-0.7,2.3c-0.3,0-0.7,0.3-1,0.3v1c0,0-0.3,0-0.3,0.3v1c-0.3,0-0.7,0.3-1,0.3c0,0.7-0.3,1-0.3,1.7
		c-0.3,0-0.7,0.3-1,0.3c0,0.7-0.3,1-0.3,1.7c-0.3,0-0.7,0.3-1,0.3c0,0.7-0.3,1.3-0.3,1.7c-0.3,0-0.7,0.3-1,0.3v1
		c-0.3,0-0.7,0.3-1,0.3v1l-1,1c0,0.7-0.3,1-0.3,1.7c-0.3,0-0.7,0.3-1,0.3v1c-0.3,0-0.7,0.3-1,0.3c0,0.7-0.3,1-0.3,1.7
		c-0.3,0-0.7,0.3-1,0.3c0,0.7-0.3,1.3-0.3,1.7c-0.3,0-0.7,0.3-1,0.3c-0.3,0.7-0.3,1.7-0.7,2.3c-0.3,0-0.7,0.3-1,0.3v1
		c-0.3,0-0.7,0.3-1,0.3c0,0.7-0.3,1-0.3,1.7c-0.3,0-0.7,0.3-1,0.3c-0.3,0.7-0.3,1.7-0.7,2.3c-0.3,0-0.7,0.3-1,0.3
		c-0.3,0.7-0.3,1.7-0.7,2.3c-0.3,0-0.7,0.3-1,0.3c-0.3,0.7-0.3,1.7-0.7,2.3c-0.3,0-0.7,0.3-1,0.3c-0.3,0.7-0.3,1.7-0.7,2.3
		c-0.3,0-0.7,0.3-1,0.3c-0.3,1.3-0.7,2.3-1,3.7c-0.3,0-0.7,0.3-1,0.3c-0.7,1.7-1,3.3-1.7,5c-0.3,0-0.7,0.3-1,0.3c0,0,0,0.3,0.3,0.3
		c-0.3,0.7-0.7,1.3-1.3,2c0,0.7-0.3,1-0.3,1.7c-0.3,0-0.7,0.3-1,0.3c0,0.7-0.3,1-0.3,1.7c-0.3,0.3-0.7,1-1,1.3c0,0,0,0.3,0.3,0.3
		c-0.3,0-0.7,0.3-1,0.3c-0.3,1.3-1,3-1.3,4.3c-0.3,0-0.7,0.3-1,0.3c-0.7,2.3-1.7,4.7-2.3,7c-0.3,0-0.7,0.3-1,0.3
		c-0.3,1.3-1,3-1.3,4.3c-0.3,0-0.7,0.3-1,0.3c-0.3,1-0.7,2-0.7,3c-0.3,0-0.7,0.3-1,0.3c-0.7,1.7-1,3.3-1.7,5c-0.3,0-0.7,0.3-1,0.3
		c-2,5-3.7,10.4-5.7,15.4l-1,1l-3,9c-0.3,0.7-0.7,1.3-1.3,2v1c-0.3,0-0.7,0.3-1,0.3c-0.7,2-1.3,3.7-2,5.7c-0.3,0.7-0.7,1.3-1.3,2v1
		c-0.3,0-0.7,0.3-1,0.3c-0.7,1.7-1,3.3-1.7,5c-0.3,0-0.7,0.3-1,0.3c-0.7,2-1.3,3.7-2,5.7c-0.3,0-0.7,0.3-1,0.3
		c-0.3,0.7-0.3,1.7-0.7,2.3c-0.3,0-0.7,0.3-1,0.3v1c-0.3,0-0.7,0.3-1,0.3v1l-1,1c0,0,0,0.3,0.3,0.3c-0.7,0.7-1.7,1.3-2.3,2
		c0,0,0,0.3,0.3,0.3c-0.7,0.3-1,0.7-1.7,1.3c0,0,0,0.3,0.3,0.3c-0.7,0.3-1.3,1-2,1.3c0,0,0,0.3,0.3,0.3c-1,0.7-1.7,1-2.7,1.7
		c0,0,0,0.3,0.3,0.3c-0.7,0.3-1.3,0.7-1.7,0.7c-5.3,4.7-15,7.4-21.4,8c-2,0.7-3.7,1.3-5.7,2c0,0,0-0.3-0.3-0.3
		c-1.3,0.3-2.7,0.7-3.7,1c0,0,0-0.3-0.3-0.3c-0.7,0.3-1.3,0.7-1.7,0.7c0,0,0-0.3-0.3-0.3c-1,0.3-2.3,0.7-3.3,1c0,0,0-0.3-0.3-0.3
		c-0.3,0.3-1,0.3-1.3,0.7c0,0,0-0.3-0.3-0.3c-0.3,0.3-1,0.3-1.3,0.7c0,0,0-0.3-0.3-0.3c-1,0.3-2,0.3-3,0.7c0,0,0-0.3-0.3-0.3
		c-0.3,0-0.7,0.3-1,0.3c0,0,0-0.3-0.3-0.3c-1,0.3-2,0.3-3,0.7c0,0,0-0.3-0.3-0.3c-1,0-2,0.3-3,0.3c0,0,0-0.3-0.3-0.3
		c-0.3,0-0.7,0.3-1,0.3c0,0,0-0.3-0.3-0.3c-0.3,0-0.7,0.3-1,0.3c0,0,0-0.3-0.3-0.3c-0.3,0-0.7,0.3-1,0.3c0,0,0-0.3-0.3-0.3
		c-0.3,0-0.7,0.3-1,0.3c-0.3-0.3-1-0.7-1.3-1c-0.3,0-0.7,0.3-1,0.3c-0.3-0.3-1-0.7-1.3-1c-2-0.7-4.7-1.3-6.3-2.7
		c-0.3-0.7-0.7-1-1.3-1.7c0,0-0.3,0-0.3,0.3c-2.3-2-4-6.3-4-9.4c0,0,0.3,0,0.3-0.3s-0.3-0.7-0.3-1c0,0,0.3,0,0.3-0.3
		c0-0.3-0.3-0.7-0.3-1c0.3-0.3,0.3-0.7,0.7-1c0-0.7-0.3-1.3-0.3-2c0.3-0.3,0.3-0.7,0.7-1v-1.7c0.3-0.7,0.7-1.3,1.3-2
		c0-0.3-0.3-0.7-0.3-1c0.3-0.7,0.7-1.3,1.3-2c0-0.3-0.3-0.7-0.3-1c0.3-1,1-2,1.3-2.7c0-0.7,0.3-1,0.3-1.7c0,0,0.3,0,0.3-0.3
		c0-0.3-0.3-0.7-0.3-1c0.7-1,1-2.3,1.7-3.3c2.7-6.7,4.7-13.4,8.4-19.7c1-2.7,2-5.3,3-8.4c0.3,0,0.7-0.3,1-0.3l1-3
		c0.3,0,0.7-0.3,1-0.3c0-0.7,0.3-1,0.3-1.7c0.3,0,0.7-0.3,1-0.3c0.3-0.7,0.3-1.7,0.7-2.3c0.3,0,0.7-0.3,1-0.3c0.7-1.7,1-3.3,1.7-5
		c0.3,0,0.7-0.3,1-0.3c0.3-0.7,0.3-1.7,0.7-2.3c0.3,0,0.7-0.3,1-0.3c0.3-0.7,0.3-1.7,0.7-2.3c0.3,0,0.7-0.3,1-0.3
		c0-0.7,0.3-1,0.3-1.7c0.3,0,0.7-0.3,1-0.3c0.3-1.3,0.7-2.3,1-3.7c0.3,0,0.7-0.3,1-0.3v-1c0,0,0.3,0,0.3-0.3c0-0.7,0.3-1,0.3-1.7
		c0.3,0,0.7-0.3,1-0.3c0-0.7,0.3-1.3,0.3-1.7c0.3,0,0.7-0.3,1-0.3c0-0.7,0.3-1,0.3-1.7c0.3,0,0.7-0.3,1-0.3c0-0.7,0.3-1,0.3-1.7
		c0.3,0,0.7-0.3,1-0.3c0.3-0.7,0.3-1.7,0.7-2.3l1-1v-1c0.3,0,0.7-0.3,1-0.3c0.3-0.7,0.3-1.7,0.7-2.3c0.3,0,0.7-0.3,1-0.3
		c0.3-0.7,0.3-1.7,0.7-2.3c0.3,0,0.7-0.3,1-0.3c0.3-0.7,0.3-1.7,0.7-2.3c0.3,0,0.7-0.3,1-0.3c0-0.7,0.3-1.3,0.3-1.7
		c0.3,0,0.7-0.3,1-0.3v-1c0.3,0,0.7-0.3,1-0.3c0-0.7,0.3-1,0.3-1.7c0.3,0,0.7-0.3,1-0.3c0-0.7,0.3-1,0.3-1.7c0.3,0,0.7-0.3,1-0.3
		c0-0.7,0.3-1,0.3-1.7c0.3,0,0.7-0.3,1-0.3v-1c0.3,0,0.7-0.3,1-0.3c0.3-0.7,0.3-1.7,0.7-2.3c0.3,0,0.7-0.3,1-0.3
		c0-0.7,0.3-1,0.3-1.7c0.3,0,0.7-0.3,1-0.3v-1c0.3,0,0.7-0.3,1-0.3c0-0.7,0.3-1,0.3-1.7c0.3,0,0.7-0.3,1-0.3v-1l1-1
		c0,0,0-0.3-0.3-0.3c0.3,0,0.7-0.3,1-0.3v-1c0.3,0,0.7-0.3,1-0.3v-1c0.3,0,0.7-0.3,1-0.3v-1c0.3,0,0.7-0.3,1-0.3
		c0-0.7,0.3-1.3,0.3-1.7c0.3,0,0.7-0.3,1-0.3c0-0.7,0.3-1,0.3-1.7c0.3,0,0.7-0.3,1-0.3c0-0.7,0.3-1,0.3-1.7c0.3,0,0.7-0.3,1-0.3
		c0-0.7,0.3-1,0.3-1.7l1-1v-1c0.3,0,0.7-0.3,1-0.3c0,0,0-0.3-0.3-0.3l1-1v-1c0.3,0,0.7-0.3,1-0.3c0-0.7,0.3-1,0.3-1.7
		c0.3,0,0.7-0.3,1-0.3v-1c0.3,0,0.7-0.3,1-0.3c0-0.7,0.3-1.3,0.3-1.7c0.3,0,0.7-0.3,1-0.3v-1c0.3,0,0.7-0.3,1-0.3
		c0-0.7,0.3-1,0.3-1.7c0.3,0,0.7-0.3,1-0.3c0-0.7,0.3-1,0.3-1.7l1-1v-1c0.3,0,0.7-0.3,1-0.3v-1c0.3,0,0.7-0.3,1-0.3
		c0-0.7,0.3-1,0.3-1.7c0.3,0,0.7-0.3,1-0.3v-1l1-1c0,0,0-0.3-0.3-0.3c0.3,0,0.7-0.3,1-0.3v-1c0.3,0,0.7-0.3,1-0.3v-1
		c0.3,0,0.7-0.3,1-0.3v-1c0.3,0,0.7-0.3,1-0.3v-1c0.3,0,0.7-0.3,1-0.3v-1c0.3,0,0.7-0.3,1-0.3c0,0,0-0.3-0.3-0.3l1-1v-1
		c0.3,0,0.7-0.3,1-0.3c0-0.7,0.3-1,0.3-1.7c0.3,0,0.7-0.3,1-0.3c0,0,0-0.3-0.3-0.3l1-1v-1c0.3,0,0.7-0.3,1-0.3c0-0.7,0.3-1,0.3-1.7
		c0.3,0,0.7-0.3,1-0.3v-1l1-1c0,0,0-0.3-0.3-0.3c0.3,0,0.7-0.3,1-0.3v-1c0.3,0,0.7-0.3,1-0.3v-1c0.3,0,0.7-0.3,1-0.3v-1
		c0.3,0,0.7-0.3,1-0.3v-1c0.3,0,0.7-0.3,1-0.3v-1c0.3,0,0.7-0.3,1-0.3v-1c0.7-0.3,1-0.7,1.7-1.3v-1c0.3,0,0.7-0.3,1-0.3v-1
		c0.3,0,0.7-0.3,1-0.3v-1c0.3,0,0.7-0.3,1-0.3v-1c0.7-0.3,1-0.7,1.7-1.3v-1c0.3,0,0.7-0.3,1-0.3v-1c0.7-0.7,1.7-1.3,2.3-2
		c0,0,0-0.3-0.3-0.3l1-1v-1c0.7-0.3,1-0.7,1.7-1.3v-1c0.3,0,0.7-0.3,1-0.3v-1c0.3,0,0.7-0.3,1-0.3c0,0,0-0.3-0.3-0.3l1-1v-1
		c0.3,0,0.7-0.3,1-0.3v-1c0.3,0,0.7-0.3,1-0.3v-1l1-1c0,0,0-0.3-0.3-0.3c0.7-0.3,1-0.7,1.7-1.3v-1c0.3,0,0.7-0.3,1-0.3v-1
		c0.3,0,0.7-0.3,1-0.3v-1c0.3,0,0.7-0.3,1-0.3v-1c0.7-0.3,1-0.7,1.7-1.3v-1c0.7-0.3,1-0.7,1.7-1.3c0,0,0-0.3-0.3-0.3l1-1v-1
		c0.7-0.3,1-0.7,1.7-1.3v-1c0.7-0.7,1.7-1.3,2.3-2v-1c0.3,0,0.7-0.3,1-0.3c0,0,0-0.3-0.3-0.3c0.3,0,0.7-0.3,1-0.3c0,0,0-0.3-0.3-0.3
		c0.3,0,0.7-0.3,1-0.3c0,0,0-0.3-0.3-0.3c0.3,0,0.7-0.3,1-0.3c0,0,0-0.3-0.3-0.3c0.3,0,0.7-0.3,1-0.3c0,0,0-0.3-0.3-0.3
		c0.7-0.3,1-0.7,1.7-1.3v-1c0.7-0.3,1-0.7,1.7-1.3v-1c0.7-0.3,1-0.7,1.7-1.3v-1c0.7-0.3,1-0.7,1.7-1.3c0,0,0-0.3-0.3-0.3l1-1v-1
		c0.7-0.3,1-0.7,1.7-1.3v-1c0.3,0,0.7-0.3,1-0.3v-1c0.3,0,0.7-0.3,1-0.3v-1c0.7-0.3,1-0.7,1.7-1.3v-1c0.3,0,0.7-0.3,1-0.3
		c0,0,0-0.3-0.3-0.3l1-1v-1c0.3,0,0.7-0.3,1-0.3v-1l1-1c0,0,0-0.3-0.3-0.3c0.7-0.3,1-0.7,1.7-1.3c0,0,0-0.3-0.3-0.3l1-1v-1
		c0.7-0.3,1-0.7,1.7-1.3v-1c0.7-0.3,1-0.7,1.7-1.3c0,0,0-0.3-0.3-0.3c0.3,0,0.7-0.3,1-0.3c0,0,0-0.3-0.3-0.3c0.3,0,0.7-0.3,1-0.3v-1
		c0.3,0,0.7-0.3,1-0.3c0,0,0-0.3-0.3-0.3c0.3,0,0.7-0.3,1-0.3c0,0,0-0.3-0.3-0.3c0.3,0,0.7-0.3,1-0.3c0,0,0-0.3-0.3-0.3
		c0.3,0,0.7-0.3,1-0.3v-1c0.3,0,0.7-0.3,1-0.3c0,0,0-0.3-0.3-0.3c0.3,0,0.7-0.3,1-0.3c0,0,0-0.3-0.3-0.3c0.3,0,0.7-0.3,1-0.3
		c0,0,0-0.3-0.3-0.3c0.3,0,0.7-0.3,1-0.3c0,0,0-0.3-0.3-0.3c0.3,0,0.7-0.3,1-0.3v-1c0.3,0,0.7-0.3,1-0.3c0,0,0-0.3-0.3-0.3
		c0.3,0,0.7-0.3,1-0.3c0,0,0-0.3-0.3-0.3c0.3,0,0.7-0.3,1-0.3c0,0,0-0.3-0.3-0.3c0.3,0,0.7-0.3,1-0.3v-1c0.3,0,0.7-0.3,1-0.3
		c0,0,0-0.3-0.3-0.3c0.3,0,0.7-0.3,1-0.3c0,0,0-0.3-0.3-0.3c0.3,0,0.7-0.3,1-0.3c0,0,0-0.3-0.3-0.3c0.3,0,0.7-0.3,1-0.3
		c0,0,0-0.3-0.3-0.3c0.7-0.3,1-0.7,1.7-1.3v-1c0.3,0,0.7-0.3,1-0.3c0,0,0-0.3-0.3-0.3c0.3,0,0.7-0.3,1-0.3c0,0,0-0.3-0.3-0.3
		c0.3,0,0.7-0.3,1-0.3c0,0,0-0.3-0.3-0.3c0.3,0,0.7-0.3,1-0.3c0,0,0-0.3-0.3-0.3c0.3,0,0.7-0.3,1-0.3v-1c0.7-0.7,1.7-1.3,2.3-2v-1
		c0.3,0,0.7-0.3,1-0.3c0,0,0-0.3-0.3-0.3c0.3,0,0.7-0.3,1-0.3c0,0,0-0.3-0.3-0.3c0.3,0,0.7-0.3,1-0.3c0,0,0-0.3-0.3-0.3
		c0.3,0,0.7-0.3,1-0.3c0,0,0-0.3-0.3-0.3c0.3,0,0.7-0.3,1-0.3c0,0,0-0.3-0.3-0.3c0.3,0,0.7-0.3,1-0.3v-1c0.7-0.3,1-0.7,1.7-1.3
		c0,0,0-0.3-0.3-0.3c0.3,0,0.7-0.3,1-0.3c0,0,0-0.3-0.3-0.3c0.3,0,0.7-0.3,1-0.3c0,0,0-0.3-0.3-0.3c0.3,0,0.7-0.3,1-0.3
		c0,0,0-0.3-0.3-0.3c0.3,0,0.7-0.3,1-0.3c0,0,0-0.3-0.3-0.3c0.7-0.3,1-0.7,1.7-1.3c0,0,0-0.3-0.3-0.3c0.3,0,0.7-0.3,1-0.3
		c0,0,0-0.3-0.3-0.3c0.3,0,0.7-0.3,1-0.3c0,0,0-0.3-0.3-0.3c0.3,0,0.7-0.3,1-0.3c0,0,0-0.3-0.3-0.3c0.3,0,0.7-0.3,1-0.3
		c0,0,0-0.3-0.3-0.3c0.3,0,0.7-0.3,1-0.3c0,0,0-0.3-0.3-0.3c0.3,0,0.7-0.3,1-0.3v-1c0.7-0.3,1-0.7,1.7-1.3c0,0,0-0.3-0.3-0.3
		c0.7-0.7,1.7-1.3,2.3-2v-1c0.3,0,0.7-0.3,1-0.3c0,0,0-0.3-0.3-0.3c0.3,0,0.7-0.3,1-0.3c0,0,0-0.3-0.3-0.3c0.3,0,0.7-0.3,1-0.3
		c0,0,0-0.3-0.3-0.3c0.3,0,0.7-0.3,1-0.3c0,0,0-0.3-0.3-0.3c0.3,0,0.7-0.3,1-0.3c0,0,0-0.3-0.3-0.3c0.3,0,0.7-0.3,1-0.3v-1
		c0.3,0,0.7-0.3,1-0.3c0,0,0-0.3-0.3-0.3c0.3,0,0.7-0.3,1-0.3c0,0,0-0.3-0.3-0.3c0.3,0,0.7-0.3,1-0.3c0,0,0-0.3-0.3-0.3
		c0.3,0,0.7-0.3,1-0.3c0,0,0-0.3-0.3-0.3c0.3,0,0.7-0.3,1-0.3c0,0,0-0.3-0.3-0.3c0.3,0,0.7-0.3,1-0.3c0,0,0-0.3-0.3-0.3
		c0.3,0,0.7-0.3,1-0.3c0,0,0-0.3-0.3-0.3c0.3,0,0.7-0.3,1-0.3c0,0,0-0.3-0.3-0.3c0.3,0,0.7-0.3,1-0.3c0,0,0-0.3-0.3-0.3
		c0.7-0.7,1.7-1.3,2.3-2c0,0,0-0.3-0.3-0.3c0.3-0.3,1-0.3,1.3-0.7c0,0,0-0.3-0.3-0.3c0.7-0.3,1-0.7,1.7-1.3c0,0,0-0.3-0.3-0.3
		c0.7-0.3,1.3-1,2-1.3c0,0,0-0.3-0.3-0.3c0.3-0.3,1-0.3,1.3-0.7c0,0,0-0.3-0.3-0.3c0.3,0,0.7-0.3,1-0.3c0,0,0-0.3-0.3-0.3
		c0.3-0.3,1-0.3,1.3-0.7c0,0,0-0.3-0.3-0.3c0.7-0.3,1-0.7,1.7-1.3c0,0,0-0.3-0.3-0.3c0.3-0.3,1-0.3,1.3-0.7c0,0,0-0.3-0.3-0.3
		c0.7-0.3,1-0.7,1.7-1.3c0,0,0-0.3-0.3-0.3c0.7-0.3,1.3-1,2-1.3c0,0,0-0.3-0.3-0.3c0.3-0.3,1-0.3,1.3-0.7c0,0,0-0.3-0.3-0.3
		c0.3,0,0.7-0.3,1-0.3c0,0,0-0.3-0.3-0.3c0.3-0.3,1-0.3,1.3-0.7c0,0,0-0.3-0.3-0.3c0.3,0,0.7-0.3,1-0.3c0,0,0-0.3-0.3-0.3
		c0.3-0.3,1-0.3,1.3-0.7c0,0,0-0.3-0.3-0.3c0.7-0.3,1-0.7,1.7-1.3c0,0,0-0.3-0.3-0.3c0.3-0.3,1-0.3,1.3-0.7c0,0,0-0.3-0.3-0.3
		c0.7-0.3,1-0.7,1.7-1.3c0,0,0-0.3-0.3-0.3c0.3-0.3,1-0.3,1.3-0.7c0,0,0-0.3-0.3-0.3c0.3,0,0.7-0.3,1-0.3c0,0,0-0.3-0.3-0.3
		c0.7-0.3,1.3-1,2-1.3c0,0,0-0.3-0.3-0.3c0.3-0.3,1-0.3,1.3-0.7c0,0,0-0.3-0.3-0.3c0.3,0,0.7-0.3,1-0.3c0,0,0-0.3-0.3-0.3
		c1.3-1,2.3-1.7,3.7-2.7c0,0,0-0.3-0.3-0.3c0.3,0,0.7-0.3,1-0.3c0,0,0-0.3-0.3-0.3c1-0.7,1.7-1,2.7-1.7c0,0,0-0.3-0.3-0.3
		c0.3-0.3,1-0.3,1.3-0.7c0,0,0-0.3-0.3-0.3c0.3-0.3,1-0.3,1.3-0.7c0,0,0-0.3-0.3-0.3c0.3-0.3,1-0.3,1.3-0.7c0,0,0-0.3-0.3-0.3
		c0.3-0.3,1-0.3,1.3-0.7c0,0,0-0.3-0.3-0.3c0.3-0.3,1-0.3,1.3-0.7c0,0,0-0.3-0.3-0.3c1-0.7,1.7-1,2.7-1.7c0,0,0-0.3-0.3-0.3
		c5.3-4.3,10.7-8.4,16-12.7l7-4c2.7-2.3,6.3-4.3,9-6.7c1.3-0.7,2.7-1.3,4-1.7c9-7.4,31.4-18,43.4-19c1-0.3,1.7-0.7,2.7-1
		c0,0,0,0.3,0.3,0.3c1-0.3,1.7-0.7,2.7-1.3c0,0,0,0.3,0.3,0.3c0.7-0.3,1.7-0.7,2.3-1c0,0,0,0.3,0.3,0.3c0.7-0.3,1.3-0.7,1.7-0.7
		c0,0,0,0.3,0.3,0.3c0.7-0.3,1.3-0.7,1.7-0.7c0,0,0,0.3,0.3,0.3c1.3-0.3,3-0.7,4.3-1c0,0,0,0.3,0.3,0.3c0.3,0,0.7-0.3,1-0.3
		c0,0,0,0.3,0.3,0.3c0.3-0.3,1-0.3,1.3-0.7c0,0,0,0.3,0.3,0.3c1,0,2-0.3,3-0.3c0,0,0,0.3,0.3,0.3s0.7-0.3,1-0.3c0,0,0,0.3,0.3,0.3
		c0.3,0,0.7-0.3,1-0.3c0,0,0,0.3,0.3,0.3c0.3,0,0.7-0.3,1-0.3c0,0,0,0.3,0.3,0.3c0.3,0,0.7-0.3,1-0.3c0,0,0,0.3,0.3,0.3
		c0.3,0,0.7-0.3,1-0.3c0,0,0,0.3,0.3,0.3s0.7-0.3,1-0.3c0,0,0,0.3,0.3,0.3c0.3,0,0.7-0.3,1-0.3c0.3,0.3,0.7,0.3,0.7,0.7
		c0.7,0,1.3-0.3,2-0.3c0.3,0.3,0.7,0.3,1,0.7c0.3,0,0.7-0.3,1-0.3c0.3,0.3,1,0.7,1.3,1c0.3,0,0.7-0.3,1-0.3c1.7,0.7,3,1.7,4.7,2.3
		c0.3,0,0.7-0.3,1-0.3c0.3,0.3,0.7,0.3,1,0.7c0.7,0.3,1.7,0.3,2.3,0.7c0,0.3,0.3,0.7,0.3,1c1.7,0.7,3.3,1,5,1.7c0,0.3,0.3,0.7,0.3,1
		c0.7,0,1.3,0.3,1.7,0.3c0,0.3,0.3,0.7,0.3,1h1c0,0.3,0.3,0.7,0.3,1h1c0,0.3,0.3,0.7,0.3,1h1c0,0.3,0.3,0.7,0.3,1h1
		c0.3,0.7,0.7,1,1.3,1.7c0,0,0.3,0,0.3-0.3c0.3,0.7,0.7,1,1.3,1.7c0,0,0.3,0,0.3-0.3c0.3,0.3,0.3,1,0.7,1.3c0,0,0.3,0,0.3-0.3
		c0,0.3,0.3,0.7,0.3,1c0,0,0.3,0,0.3-0.3c3.3,4,6.3,8.4,9.7,12.4c1.3,1.7,4.7,10.7,4.7,12.4c0,0-0.3,0-0.3,0.3c0.3,1.7,1,3,1.3,4.7
		c0,0-0.3,0-0.3,0.3c0.7,1.7,1,3,1.7,4.7c0,0-0.3,0-0.3,0.3c0.3,0.7,0.7,1.3,0.7,1.7c0,0-0.3,0-0.3,0.3c0.3,0.3,0.3,1,0.7,1.3
		c0,0-0.3,0-0.3,0.3c0.3,0.3,0.3,1,0.7,1.3c0,0-0.3,0-0.3,0.3c0,0.3,0.3,0.7,0.3,1c0,0-0.3,0-0.3,0.3c0.3,1,0.3,2,0.7,3
		c0,0-0.3,0-0.3,0.3c0,0.7,0.3,1.3,0.3,2c0,0-0.3,0-0.3,0.3s0.3,0.7,0.3,1c0,0-0.3,0-0.3,0.3c0.3,0.3,0.3,1,0.7,1.3
		c0,0-0.3,0-0.3,0.3s0.3,0.7,0.3,1c-0.3,0.3-0.3,0.7-0.7,1c0,0.3,0.3,0.7,0.3,1c0,0-0.3,0-0.3,0.3s0.3,0.7,0.3,1c0,0-0.3,0-0.3,0.3
		s0.3,0.7,0.3,1c0,0-0.3,0-0.3,0.3s0.3,0.7,0.3,1c0,0-0.3,0-0.3,0.3v1.7c-0.3,0.3-0.3,0.7-0.7,1c0,0.7,0.3,1.3,0.3,2
		c0,0-0.3,0-0.3,0.3v1.7c-0.3,0.3-0.3,0.7-0.7,1c0,0.3,0.3,0.7,0.3,1c-0.3,0.3-0.3,0.7-0.7,1c0,0.3,0.3,0.7,0.3,1
		c-0.3,0.3-0.7,1-1,1.3c0,0.3,0.3,0.7,0.3,1c-0.3,0.3-0.7,1-1,1.3c0,0.3,0.3,0.7,0.3,1c-0.3,0.3-0.3,0.7-0.7,1c0,0,0,0.3,0.3,0.3
		c-0.3,0.3-0.3,0.7-0.7,1c0,0.3,0.3,0.7,0.3,1c-0.3,1-1,2-1.3,2.7c0,0.3,0.3,0.7,0.3,1c-0.3,0.7-0.7,1.3-1.3,2c0,0.3,0.3,0.7,0.3,1
		c-0.3,0.7-0.7,1.3-1.3,2c0,0.3,0.3,0.7,0.3,1c-1,2-2,4-2.7,6c-1.3,3.3-2.3,6.7-3.7,10c-0.3,0-0.7,0.3-1,0.3l-1,3
		c-0.3,0-0.7,0.3-1,0.3c-0.3,0.7-0.3,1.7-0.7,2.3c-0.3,0-0.7,0.3-1,0.3v1c0,0-0.3,0-0.3,0.3v1c-0.3,0-0.7,0.3-1,0.3
		c0,0.7-0.3,1-0.3,1.7c-0.3,0-0.7,0.3-1,0.3c0,0.7-0.3,1-0.3,1.7c-0.3,0-0.7,0.3-1,0.3c0,0.7-0.3,1-0.3,1.7c-0.3,0-0.7,0.3-1,0.3
		c0,0.7-0.3,1-0.3,1.7c-0.3,0-0.7,0.3-1,0.3c0,0.7-0.3,1-0.3,1.7c-0.3,0-0.7,0.3-1,0.3c0,0.7-0.3,1-0.3,1.7c-0.3,0-0.7,0.3-1,0.3
		c0,0.7-0.3,1-0.3,1.7c-0.3,0-0.7,0.3-1,0.3c0,0,0,0.3,0.3,0.3l-1,1v1c-0.3,0-0.7,0.3-1,0.3c0,0.7-0.3,1-0.3,1.7
		c-0.3,0-0.7,0.3-1,0.3v1c-0.3,0-0.7,0.3-1,0.3c0,0.7-0.3,1-0.3,1.7c-0.3,0-0.7,0.3-1,0.3c0,0.7-0.3,1-0.3,1.7c-0.3,0-0.7,0.3-1,0.3
		c-0.3,0.7-0.3,1.7-0.7,2.3c-0.3,0-0.7,0.3-1,0.3c0,0.7-0.3,1-0.3,1.7c-0.3,0-0.7,0.3-1,0.3v1l-1,1c0,0,0,0.3,0.3,0.3
		c-0.3,0-0.7,0.3-1,0.3v1c-0.3,0-0.7,0.3-1,0.3v1c-0.3,0-0.7,0.3-1,0.3v1c-0.3,0-0.7,0.3-1,0.3v1c-0.3,0-0.7,0.3-1,0.3v1
		c-0.3,0-0.7,0.3-1,0.3v1c-0.3,0-0.7,0.3-1,0.3v1c-0.7,0.3-1,0.7-1.7,1.3c0,0,0,0.3,0.3,0.3l-1,1v1c-0.7,0.3-1,0.7-1.7,1.3v1
		c-0.3,0-0.7,0.3-1,0.3c0,0,0,0.3,0.3,0.3c-0.3,0-0.7,0.3-1,0.3c0,0,0,0.3,0.3,0.3c-0.3,0-0.7,0.3-1,0.3c0,0,0,0.3,0.3,0.3
		c-0.3,0-0.7,0.3-1,0.3c0,0,0,0.3,0.3,0.3c-0.3,0-0.7,0.3-1,0.3c0,0,0,0.3,0.3,0.3c-0.3,0-0.7,0.3-1,0.3c0,0,0,0.3,0.3,0.3
		c-0.3,0-0.7,0.3-1,0.3c0,0,0,0.3,0.3,0.3c-0.7,0.3-1,0.7-1.7,1.3v1c-0.3,0-0.7,0.3-1,0.3c0,0,0,0.3,0.3,0.3c-0.3,0-0.7,0.3-1,0.3
		c0,0,0,0.3,0.3,0.3c-0.3,0-0.7,0.3-1,0.3c0,0,0,0.3,0.3,0.3c-0.3,0-0.7,0.3-1,0.3c0,0,0,0.3,0.3,0.3c-0.3,0-0.7,0.3-1,0.3
		c0,0,0,0.3,0.3,0.3c-0.3,0-0.7,0.3-1,0.3c0,0,0,0.3,0.3,0.3c-0.3,0-0.7,0.3-1,0.3c0,0,0,0.3,0.3,0.3c-0.3,0-0.7,0.3-1,0.3v1
		c-0.7,0.3-1,0.7-1.7,1.3v1c-0.3,0-0.7,0.3-1,0.3c0,0,0,0.3,0.3,0.3c-0.3,0-0.7,0.3-1,0.3c0,0,0,0.3,0.3,0.3c-0.3,0-0.7,0.3-1,0.3
		c0,0,0,0.3,0.3,0.3c-0.3,0-0.7,0.3-1,0.3v1c-0.3,0-0.7,0.3-1,0.3c0,0,0,0.3,0.3,0.3c-0.3,0-0.7,0.3-1,0.3c0,0,0,0.3,0.3,0.3
		c-0.3,0-0.7,0.3-1,0.3c0,0,0,0.3,0.3,0.3c-0.3,0-0.7,0.3-1,0.3c0,0,0,0.3,0.3,0.3c-0.3,0-0.7,0.3-1,0.3c0,0,0,0.3,0.3,0.3
		c-0.3,0-0.7,0.3-1,0.3c0,0,0,0.3,0.3,0.3c-0.3,0-0.7,0.3-1,0.3c0,0,0,0.3,0.3,0.3c-0.3,0-0.7,0.3-1,0.3c0,0,0,0.3,0.3,0.3
		c-0.3,0-0.7,0.3-1,0.3v1c-0.3,0-0.7,0.3-1,0.3c0,0,0,0.3,0.3,0.3c-0.3,0-0.7,0.3-1,0.3c0,0,0,0.3,0.3,0.3c-0.3,0-0.7,0.3-1,0.3
		c0,0,0,0.3,0.3,0.3c-0.3,0-0.7,0.3-1,0.3c0,0,0,0.3,0.3,0.3c-0.3,0-0.7,0.3-1,0.3c0,0,0,0.3,0.3,0.3c-0.7,0.3-1,0.7-1.7,1.3v1
		c-0.3,0-0.7,0.3-1,0.3c0,0,0,0.3,0.3,0.3c-0.3,0-0.7,0.3-1,0.3c0,0,0,0.3,0.3,0.3c-0.3,0-0.7,0.3-1,0.3c0,0,0,0.3,0.3,0.3
		c-0.3,0-0.7,0.3-1,0.3c0,0,0,0.3,0.3,0.3c-0.3,0-0.7,0.3-1,0.3c0,0,0,0.3,0.3,0.3c-0.3,0-0.7,0.3-1,0.3c0,0,0,0.3,0.3,0.3
		c-0.3,0-0.7,0.3-1,0.3c0,0,0,0.3,0.3,0.3c-0.7,0.7-1.7,1.3-2.3,2c0,0,0,0.3,0.3,0.3c-0.3,0.3-1,0.3-1.3,0.7c0,0,0,0.3,0.3,0.3
		c-0.7,0.3-1,0.7-1.7,1.3c0,0,0,0.3,0.3,0.3c-0.3,0.3-1,0.3-1.3,0.7c0,0,0,0.3,0.3,0.3c-0.3,0-0.7,0.3-1,0.3c0,0,0,0.3,0.3,0.3
		c-0.3,0.3-1,0.3-1.3,0.7c0,0,0,0.3,0.3,0.3c-0.3,0-0.7,0.3-1,0.3c0,0,0,0.3,0.3,0.3c-1,0.7-1.7,1-2.7,1.7c0,0,0,0.3,0.3,0.3
		c-0.3,0.3-1,0.3-1.3,0.7c0,0,0,0.3,0.3,0.3c-0.3,0.3-1,0.3-1.3,0.7c0,0,0,0.3,0.3,0.3c-0.3,0.3-1,0.3-1.3,0.7c0,0,0,0.3,0.3,0.3
		c-0.3,0.3-1,0.3-1.3,0.7c0,0,0,0.3,0.3,0.3c-1,0.7-2.3,1.3-3.3,2c0,0,0,0.3,0.3,0.3c-0.7,0.3-1.3,0.7-1.7,0.7c0,0,0,0.3,0.3,0.3
		c-0.7,0.3-1.3,0.7-1.7,0.7c0,0,0,0.3,0.3,0.3c-0.7,0.3-1.3,0.7-1.7,0.7c0,0,0,0.3,0.3,0.3c-0.7,0.3-1.3,0.7-1.7,0.7
		c0,0,0,0.3,0.3,0.3c-0.3,0.3-1,0.3-1.3,0.7c0,0,0,0.3,0.3,0.3c-1.3,0.7-2.7,1.3-4,2.3c-2.7,2-6.3,4.3-9,6.7c-0.7,0.3-1.7,0.7-2.3,1
		c0,0,0,0.3,0.3,0.3c-2.7,1.3-5.3,2.3-8,3.3c-7.7,3.3-15,7-21.4,7.7c-1.7,0.7-3.3,1-5.3,1.7c-3.7,0.3-7,1-10.7,1.3
		c0,0,0-0.3-0.3-0.3c-0.3,0-0.7,0.3-1,0.3c0,0,0-0.3-0.3-0.3c-0.3,0.3-1,0.3-1.3,0.7c0,0,0-0.3-0.3-0.3s-0.7,0.3-1,0.3
		c0,0,0-0.3-0.3-0.3c-0.3,0.3-1,0.3-1.3,0.7c0,0,0-0.3-0.3-0.3c-1,0-2,0.3-3,0.3c0,0,0-0.3-0.3-0.3c-0.3,0-0.7,0.3-1,0.3
		c0,0,0-0.3-0.3-0.3c-0.7,0-1.3,0.3-2,0.3c-0.3-0.3-0.7-0.3-1-0.7c-0.7,0-1.3,0.3-2,0.3c-0.3-0.3-0.7-0.3-1-0.7
		c-0.3,0-0.7,0.3-1,0.3c-0.3-0.3-0.7-0.3-1-0.7c-0.3,0-0.7,0.3-1,0.3c0,0,0-0.3-0.3-0.3h-1.7c-0.3-0.3-0.7-0.3-1-0.7
		c-0.3,0-0.7,0.3-1,0.3c-0.7-0.3-1-0.7-1.3-1c-0.3,0-0.7,0.3-1,0.3l-4-2c-0.3,0-0.7,0.3-1,0.3c-1-0.7-2.3-1-3.3-1.7h-1
		c0-0.3-0.3-0.7-0.3-1c-1.3-0.3-3-1-4.3-1.3c0-0.3-0.3-0.7-0.3-1c-0.7,0-1.3-0.3-1.7-0.3c0-0.3-0.3-0.7-0.3-1c-0.7,0-1-0.3-1.7-0.3
		c0-0.3-0.3-0.7-0.3-1h-1c-0.3-0.7-0.7-1-1.3-1.7h-1c-0.3-0.7-0.7-1-1.3-1.7c0,0-0.3,0-0.3,0.3c0-0.3-0.3-0.7-0.3-1
		c0,0-0.3,0-0.3,0.3c-0.7-0.7-1.3-1.7-2-2.3c0,0-0.3,0-0.3,0.3c-1-1-2-2.3-3-3.3h-1c0-0.3-0.3-0.7-0.3-1c0,0-0.3,0-0.3,0.3
		C910.2,420.3,909.8,420.3,908.8,419.3L908.8,419.3z M1032.1,239.6c-0.7,1.3-3.7,2-5,3.3c0,0,0,0.3,0.3,0.3c-1.3,0.7-2.3,1-3.7,1.7
		c0,0,0,0.3,0.3,0.3c-1,0.3-2,1-3,1.3c0,0,0,0.3,0.3,0.3c-0.7,0.3-1.7,0.7-2.3,1c0,0,0,0.3,0.3,0.3c-0.7,0.3-1.3,0.7-1.7,0.7
		c0,0,0,0.3,0.3,0.3c-0.7,0.3-1.7,0.7-2.3,1c0,0,0,0.3,0.3,0.3c-0.7,0.3-1.7,0.7-2.3,1c0,0,0,0.3,0.3,0.3c-0.7,0.3-1.3,0.7-1.7,0.7
		c0,0,0,0.3,0.3,0.3l-4,3c0,0,0,0.3,0.3,0.3c-0.3,0-0.7,0.3-1,0.3c0,0,0,0.3,0.3,0.3c-0.3,0.3-1,0.3-1.3,0.7c0,0,0,0.3,0.3,0.3
		c-0.3,0-0.7,0.3-1,0.3c0,0,0,0.3,0.3,0.3c-0.3,0.3-1,0.3-1.3,0.7c0,0,0,0.3,0.3,0.3c-0.3,0-0.7,0.3-1,0.3c0,0,0,0.3,0.3,0.3
		c-0.3,0.3-1,0.3-1.3,0.7c0,0,0,0.3,0.3,0.3c-0.7,0.3-1,0.7-1.7,1.3c0,0,0,0.3,0.3,0.3c-0.3,0.3-1,0.3-1.3,0.7c0,0,0,0.3,0.3,0.3
		c-0.7,0.3-1,0.7-1.7,1.3c0,0,0,0.3,0.3,0.3c-0.3,0.3-1,0.3-1.3,0.7c0,0,0,0.3,0.3,0.3c-0.7,0.3-1,0.7-1.7,1.3c0,0,0,0.3,0.3,0.3
		c-0.3,0.3-1,0.3-1.3,0.7c0,0,0,0.3,0.3,0.3c-0.3,0-0.7,0.3-1,0.3c0,0,0,0.3,0.3,0.3c-0.7,0.3-1.3,1-2,1.3c0,0,0,0.3,0.3,0.3
		c-0.3,0.3-1,0.3-1.3,0.7c0,0,0,0.3,0.3,0.3c-0.7,0.3-1,0.7-1.7,1.3c0,0,0,0.3,0.3,0.3c-0.3,0.3-1,0.3-1.3,0.7c0,0,0,0.3,0.3,0.3
		c-0.7,0.3-1,0.7-1.7,1.3c0,0,0,0.3,0.3,0.3c-0.3,0.3-1,0.3-1.3,0.7c0,0,0,0.3,0.3,0.3c-0.3,0-0.7,0.3-1,0.3c0,0,0,0.3,0.3,0.3
		c-0.3,0.3-1,0.3-1.3,0.7c0,0,0,0.3,0.3,0.3c-0.7,0.3-1,0.7-1.7,1.3c0,0,0,0.3,0.3,0.3c-0.3,0.3-1,0.3-1.3,0.7c0,0,0,0.3,0.3,0.3
		c-0.3,0-0.7,0.3-1,0.3c0,0,0,0.3,0.3,0.3c-0.7,0.3-1,0.7-1.7,1.3c0,0,0,0.3,0.3,0.3c-0.3,0-0.7,0.3-1,0.3c0,0,0,0.3,0.3,0.3
		c-0.3,0-0.7,0.3-1,0.3c0,0,0,0.3,0.3,0.3c-0.3,0-0.7,0.3-1,0.3c0,0,0,0.3,0.3,0.3c-0.3,0-0.7,0.3-1,0.3c0,0,0,0.3,0.3,0.3
		c-0.3,0-0.7,0.3-1,0.3c0,0,0,0.3,0.3,0.3c-0.7,0.3-1,0.7-1.7,1.3c0,0,0,0.3,0.3,0.3c-0.7,0.3-1,0.7-1.7,1.3c0,0,0,0.3,0.3,0.3
		c-0.3,0-0.7,0.3-1,0.3c0,0,0,0.3,0.3,0.3c-0.3,0-0.7,0.3-1,0.3c0,0,0,0.3,0.3,0.3c-0.3,0-0.7,0.3-1,0.3c0,0,0,0.3,0.3,0.3
		c-0.3,0-0.7,0.3-1,0.3c0,0,0,0.3,0.3,0.3c-0.7,0.3-1,0.7-1.7,1.3v1c-0.7,0.7-1.7,1.3-2.3,2v1c-0.3,0-0.7,0.3-1,0.3v1l-1,1
		c0,0,0,0.3,0.3,0.3c-0.7,0.3-1,0.7-1.7,1.3c0,0,0,0.3,0.3,0.3l-1,1v1c-0.7,0.3-1,0.7-1.7,1.3v1c-0.3,0-0.7,0.3-1,0.3
		c0,0,0,0.3,0.3,0.3l-1,1v1c-0.3,0-0.7,0.3-1,0.3c0,0.7-0.3,1-0.3,1.7c-0.3,0-0.7,0.3-1,0.3c0,0.7-0.3,1-0.3,1.7
		c-0.3,0-0.7,0.3-1,0.3c-0.3,0.7-0.3,1.7-0.7,2.3c-0.3,0-0.7,0.3-1,0.3c-0.3,1-0.7,2-0.7,3c-0.3,0-0.7,0.3-1,0.3
		c-0.3,0.7-0.3,1.7-0.7,2.3c-0.3,0-0.7,0.3-1,0.3c-0.3,0.7-0.3,1.7-0.7,2.3c-0.3,0-0.7,0.3-1,0.3c-0.7,2.3-1.7,4.7-2.3,7
		c-0.7,1-1,2.3-1.7,3.3c0,0.3,0.3,0.7,0.3,1c-0.3,0.3-0.7,1-1,1.3c0,0.3,0.3,0.7,0.3,1c-0.3,0.3-0.7,1-1,1.3v1.7
		c-0.3,0.3-0.3,0.7-0.7,1c0,0.3,0.3,0.7,0.3,1c-0.3,0.3-0.3,0.7-0.7,1c0,0.3,0.3,0.7,0.3,1c-0.3,0.3-0.3,0.7-0.7,1c0,1,0.3,2,0.3,3
		c0,0-0.3,0-0.3,0.3s0.3,0.7,0.3,1c0,0-0.3,0-0.3,0.3c0,1,0.3,2,0.3,3c0,0-0.3,0-0.3,0.3c0.3,2,1,4,1.3,5.7c0,0-0.3,0-0.3,0.3
		c0.3,0.7,0.7,1.7,1,2.3c0,0-0.3,0-0.3,0.3c0.3,2,3,7.4,4,8.4c2.3,1.7,4.3,3.3,6.7,5.3c0.7,0.3,1.7,0.3,2.3,0.7
		c1.7,0.7,3,1.7,4.7,2.3c0.3,0,0.7-0.3,1-0.3c0.3,0.3,0.7,0.3,1,0.7h1.7c0,0,0,0.3,0.3,0.3s0.7-0.3,1-0.3c0,0,0,0.3,0.3,0.3
		c0.7,0,1.3-0.3,2-0.3c0,0,0,0.3,0.3,0.3c1.3-0.3,3-0.7,4.3-1c0,0,0,0.3,0.3,0.3c0.7-0.3,1.7-0.7,2.3-1c7.4-1,19.4-7.7,24.4-12
		c0.7-0.3,1.7-0.7,2.3-1c0,0,0-0.3-0.3-0.3c0.7-0.3,1.3-0.7,1.7-0.7c0,0,0-0.3-0.3-0.3c0.7-0.3,1.3-0.7,1.7-0.7c0,0,0-0.3-0.3-0.3
		c0.7-0.3,1.3-0.7,1.7-0.7c0,0,0-0.3-0.3-0.3c0.7-0.3,1.3-0.7,1.7-0.7c4-3.3,7.7-7,11.7-10.4c0,0,0-0.3-0.3-0.3
		c0.7-0.3,1-0.7,1.7-1.3c0,0,0-0.3-0.3-0.3c0.3-0.3,1-0.3,1.3-0.7c0,0,0-0.3-0.3-0.3c0.7-0.7,1.7-1.3,2.3-2c0,0,0-0.3-0.3-0.3
		c0.3,0,0.7-0.3,1-0.3c0,0,0-0.3-0.3-0.3c0.3,0,0.7-0.3,1-0.3c0,0,0-0.3-0.3-0.3c0.3,0,0.7-0.3,1-0.3c0,0,0-0.3-0.3-0.3
		c0.3,0,0.7-0.3,1-0.3c0,0,0-0.3-0.3-0.3c0.3,0,0.7-0.3,1-0.3c0,0,0-0.3-0.3-0.3c0.3,0,0.7-0.3,1-0.3c0,0,0-0.3-0.3-0.3
		c0.3,0,0.7-0.3,1-0.3c0,0,0-0.3-0.3-0.3c0.3,0,0.7-0.3,1-0.3c0,0,0-0.3-0.3-0.3c0.3,0,0.7-0.3,1-0.3v-1c2-2,4-4.3,6-6.3
		c0,0,0-0.3-0.3-0.3c0.3,0,0.7-0.3,1-0.3c0,0,0-0.3-0.3-0.3c0.3,0,0.7-0.3,1-0.3c0,0,0-0.3-0.3-0.3c0.3,0,0.7-0.3,1-0.3
		c0,0,0-0.3-0.3-0.3c0.3,0,0.7-0.3,1-0.3v-1c0.3,0,0.7-0.3,1-0.3c0,0,0-0.3-0.3-0.3c0.3,0,0.7-0.3,1-0.3c0,0,0-0.3-0.3-0.3
		c0.3,0,0.7-0.3,1-0.3c0,0,0-0.3-0.3-0.3c0.3,0,0.7-0.3,1-0.3c0,0,0-0.3-0.3-0.3c0.3,0,0.7-0.3,1-0.3v-1c0.7-0.7,1.7-1.3,2.3-2v-1
		c0.3,0,0.7-0.3,1-0.3c0,0,0-0.3-0.3-0.3c0.3,0,0.7-0.3,1-0.3c0,0,0-0.3-0.3-0.3c0.3,0,0.7-0.3,1-0.3c0,0,0-0.3-0.3-0.3
		c0.3,0,0.7-0.3,1-0.3c0,0,0-0.3-0.3-0.3c0.7-0.3,1-0.7,1.7-1.3v-1c0.3,0,0.7-0.3,1-0.3c0,0,0-0.3-0.3-0.3c0.3,0,0.7-0.3,1-0.3
		c0,0,0-0.3-0.3-0.3c0.3,0,0.7-0.3,1-0.3c0,0,0-0.3-0.3-0.3c0.3,0,0.7-0.3,1-0.3c0,0,0-0.3-0.3-0.3c0.3,0,0.7-0.3,1-0.3
		c0,0,0-0.3-0.3-0.3c0.7-0.3,1-0.7,1.7-1.3v-1c0.7-0.7,1.7-1.3,2.3-2c0,0,0-0.3-0.3-0.3l1-1v-1c0.7-0.3,1-0.7,1.7-1.3v-1
		c0.3,0,0.7-0.3,1-0.3c0-0.7,0.3-1,0.3-1.7c0.3,0,0.7-0.3,1-0.3v-1c0.3,0,0.7-0.3,1-0.3c0-0.7,0.3-1,0.3-1.7c0.3,0,0.7-0.3,1-0.3
		c0-0.7,0.3-1,0.3-1.7c0.3,0,0.7-0.3,1-0.3l1-3c0.3,0,0.7-0.3,1-0.3c0.7-2,1.3-3.7,2-5.7c0.3,0,0.7-0.3,1-0.3l1-3
		c0.3-0.3,0.3-0.7,0.7-1c0-0.3-0.3-0.7-0.3-1c1-2,2-4,2.7-6c0-0.3-0.3-0.7-0.3-1c0.7-1,1-2.3,1.7-3.3c0-0.3-0.3-0.7-0.3-1
		c0.3-0.3,0.7-1,1-1.3c0-0.3-0.3-0.7-0.3-1c0.3-0.3,0.7-1,1-1.3c0-0.3-0.3-0.7-0.3-1c0.3-0.3,0.3-0.7,0.7-1V259
		c-0.3-3.7-4.3-11.7-6.3-13.7c0,0-0.3,0-0.3,0.3c-0.3-0.7-0.7-1-1.3-1.7c0,0-0.3,0-0.3,0.3c0-0.3-0.3-0.7-0.3-1h-1
		C1056.5,234.9,1047.2,233.2,1032.1,239.6L1032.1,239.6z M1863.8,686.3c0,0,0.3,0,0.3-0.3c-0.3-8.7-6-20.4-10.7-30.7
		c-4-9.4-8-19-13-25.4c-1-2-1.7-4-2.7-6c0,0-0.3,0-0.3,0.3c-0.3-1-1-2-1.3-3c0,0-0.3,0-0.3,0.3c-0.3-0.7-0.7-1.7-1-2.3
		c0,0-0.3,0-0.3,0.3c-0.3-0.7-0.7-1.7-1-2.3c0,0-0.3,0-0.3,0.3c-1.3-3.3-3-7-4.3-10.4c0,0-0.3,0-0.3,0.3c-0.7-1.7-1.7-3.7-2.3-5.3
		c0,0-0.3,0-0.3,0.3c-0.3-0.7-0.7-1.3-0.7-1.7c0,0-0.3,0-0.3,0.3c-0.3-0.7-0.7-1.7-1-2.3c0,0-0.3,0-0.3,0.3c-0.7-1.3-1-2.3-1.7-3.7
		c0,0-0.3,0-0.3,0.3c-1-2-1.7-4-2.7-6c0,0-0.3,0-0.3,0.3c-0.3-0.7-0.7-1.7-1-2.3c0,0-0.3,0-0.3,0.3c-0.3-0.7-0.7-1.3-0.7-1.7
		c0,0-0.3,0-0.3,0.3c-0.3-1-1-2-1.3-3.3c0,0-0.3,0-0.3,0.3c-0.7-1.7-1.7-3.7-2.3-5.3c0,0-0.3,0-0.3,0.3c-0.3-0.7-0.7-1.7-1-2.3
		c0,0-0.3,0-0.3,0.3c-0.3-0.7-0.7-1.7-1-2.3c0,0-0.3,0-0.3,0.3c-0.3-1-0.7-1.7-1.3-2.7c-1.7-2-2.7-7-4.7-9.4c0,0-0.3,0-0.3,0.3
		c-0.3-1-0.7-1.7-1-2.7c0,0-0.3,0-0.3,0.3c-0.7-1.3-1.7-3-2.3-4.3c0,0-0.3,0-0.3,0.3c-0.7-1.7-1.3-3-2-4.7c0,0-0.3,0-0.3,0.3
		c-0.3-1-0.7-1.7-1-2.7c0,0-0.3,0-0.3,0.3c-0.3-0.7-0.7-1.3-0.7-1.7c0,0-0.3,0-0.3,0.3c-0.3-0.7-0.7-1.7-1-2.3c0,0-0.3,0-0.3,0.3
		c-1-2.3-2-4.7-3-7.4c0,0-0.3,0-0.3,0.3c-0.3-1-1-2-1.3-3c0,0-0.3,0-0.3,0.3c-0.3-0.7-0.7-1.7-1-2.3c0,0-0.3,0-0.3,0.3
		c-0.3-0.7-0.7-1.3-0.7-1.7c0,0-0.3,0-0.3,0.3c-1.3-2.3-2.3-4.7-3.7-7c0,0-0.3,0-0.3,0.3c-0.3-0.7-0.7-1.3-0.7-1.7
		c0,0-0.3,0-0.3,0.3c-0.3-0.7-0.7-1.7-1-2.3c0,0-0.3,0-0.3,0.3c-0.3-1-1-2-1.3-3c0,0-0.3,0-0.3,0.3c-0.7-1.3-1-2.3-1.7-3.7
		c0,0-0.3,0-0.3,0.3c-0.3-0.7-0.7-1.3-1-2.3c0,0-0.3,0-0.3,0.3c-0.3-0.7-0.7-1.3-0.7-1.7c0,0-0.3,0-0.3,0.3c-0.3-1-0.7-1.7-1-2.7
		c0,0-0.3,0-0.3,0.3l-3-6c-2.7-3-5.3-6.7-8-10c-1-1.7-1.7-3.3-2.7-4.7c-3-3.3-6-7.7-9-11c-0.7-1-1.3-2.3-2-3.3
		c-3.7-3.7-7.4-8.4-11-12c-0.7-1-1-1.7-1.7-2.7c0,0-0.3,0-0.3,0.3c-0.7-1-1-1.7-1.7-2.7c0,0-0.3,0-0.3,0.3c0-0.3-0.3-0.7-0.3-1
		c0,0-0.3,0-0.3,0.3c-0.3-0.3-0.3-1-0.7-1.3c0,0-0.3,0-0.3,0.3c-0.3-0.3-0.3-1-0.7-1.3c0,0-0.3,0-0.3,0.3c-0.7-0.7-1.3-1.7-2-2.3
		c0,0-0.3,0-0.3,0.3c0-0.3-0.3-0.7-0.3-1c0,0-0.3,0-0.3,0.3c0-0.3-0.3-0.7-0.3-1c0,0-0.3,0-0.3,0.3c0-0.3-0.3-0.7-0.3-1
		c0,0-0.3,0-0.3,0.3c0-0.3-0.3-0.7-0.3-1c0,0-0.3,0-0.3,0.3c0-0.3-0.3-0.7-0.3-1c0,0-0.3,0-0.3,0.3c0-0.3-0.3-0.7-0.3-1
		c0,0-0.3,0-0.3,0.3c0-0.3-0.3-0.7-0.3-1c0,0-0.3,0-0.3,0.3c0-0.3-0.3-0.7-0.3-1h-1c0-0.3-0.3-0.7-0.3-1c-0.7,0-1-0.3-1.7-0.3
		c0-0.3-0.3-0.7-0.3-1c-0.7,0-1-0.3-1.7-0.3c0-0.3-0.3-0.7-0.3-1c-0.7,0-1-0.3-1.7-0.3c0-0.3-0.3-0.7-0.3-1h-1c0-0.3-0.3-0.7-0.3-1
		c-0.7-0.3-1.7-0.3-2.3-0.7c0-0.3-0.3-0.7-0.3-1c-4-1.3-8-3-12-4.3c-3.3-1.3-6.7-3-10-4.3c-0.3,0-0.7,0.3-1,0.3c-1-0.3-2-1-2.7-1.3
		c-0.3,0-0.7,0.3-1,0.3c-0.7-0.3-1.3-0.7-2-1.3c-0.3,0-0.7,0.3-1,0.3c-0.3-0.3-1-0.7-1.3-1c-0.3,0-0.7,0.3-1,0.3c-1-0.3-2-1-2.7-1.3
		c-0.3,0-0.7,0.3-1,0.3c-0.7-0.3-1.3-0.7-2-1.3c-0.3,0-0.7,0.3-1,0.3c-0.3-0.3-1-0.7-1.3-1c-0.3,0-0.7,0.3-1,0.3
		c-0.7-0.3-1-0.7-1.3-1c-0.3,0-0.7,0.3-1,0.3c-0.3-0.3-0.7-0.3-1-0.7h-1.7c0,0,0-0.3-0.3-0.3c-0.3,0-0.7,0.3-1,0.3
		c-0.3-0.3-0.7-0.3-1-0.7c-0.3,0-0.7,0.3-1,0.3c-0.3-0.3-0.7-0.3-1-0.7c-0.3,0-0.7,0.3-1,0.3c-0.3-0.3-0.7-0.3-1-0.7
		c-0.3,0-0.7,0.3-1,0.3c-0.3-0.3-0.7-0.3-1-0.7c-0.3,0-0.7,0.3-1,0.3c-0.3-0.3-0.7-0.3-1-0.7c-0.3,0-0.7,0.3-1,0.3
		c-0.3-0.3-0.7-0.3-1-0.7c-0.3,0-0.7,0.3-1,0.3c0,0,0-0.3-0.3-0.3c-0.3,0-0.7,0.3-1,0.3c-0.3-0.3-0.7-0.3-0.7-0.7c-1,0-2,0.3-3,0.3
		c-0.3-0.3-0.7-0.3-1-0.7h-8.7c-0.3-0.3-0.7-0.3-1-0.7c-8.7,0-17,0.3-25.7,0.3c-0.7,0.3-1.3,0.7-1.7,0.7c0,0,0-0.3-0.3-0.3
		c-0.3,0.3-1,0.3-1.3,0.7c0,0,0-0.3-0.3-0.3c-0.3,0.3-1,0.3-1.3,0.7c0,0,0-0.3-0.3-0.3c-0.7,0.3-1.3,0.7-1.7,0.7
		c-2.7,0.3-6,0.7-8.7,1c-2.3,0.7-4.3,1.7-6.7,2.3c0,0,0-0.3-0.3-0.3c-5.7,0.7-12,3.3-18.4,6.3c-2.3,1-4.7,2-6.7,3
		c-5.3,4.3-12.7,7.7-18,12c-1,0.3-2,1-3,1.3c-1.3,0.7-2.7,1.3-4,1.7c0,0,0-0.3-0.3-0.3c-0.3,0.3-1,0.3-1.3,0.7c0,0,0-0.3-0.3-0.3
		c-0.3,0-0.7,0.3-1,0.3c0,0,0-0.3-0.3-0.3c-0.7,0-1.3,0.3-2,0.3c-0.3-0.3-1-0.7-1.3-1c-0.3,0-0.7,0.3-1,0.3c-0.7-0.3-1.3-0.7-2-1.3
		c0,0-0.3,0-0.3,0.3c0-0.3-0.3-0.7-0.3-1h-1c0-0.3-0.3-0.7-0.3-1c0,0-0.3,0-0.3,0.3c-0.3-0.3-0.3-1-0.7-1.3c0,0-0.3,0-0.3,0.3
		c-0.7-1.7-1.3-3-2-4.7c0.7-1.3,0-1,0-2.3c0,0,0.3,0,0.3-0.3s-0.3-0.7-0.3-1c0.3-0.7,0.7-1.3,1.3-2c0.7-2,1.3-4.7,2.7-6.3
		c0.7-0.7,1.7-1.3,2.3-2c0,0,0-0.3-0.3-0.3c0.3,0,0.7-0.3,1-0.3c0,0,0-0.3-0.3-0.3c4.3-3,8.4-6,12.7-9.4c0,0,0-0.3-0.3-0.3
		c1.7-1,3.3-2,5-3.3c0,0,0-0.3-0.3-0.3c0.7-0.3,1.3-0.7,1.7-0.7c0,0,0-0.3-0.3-0.3c1-0.7,2-1.3,3-1.7c0,0,0-0.3-0.3-0.3
		c0.3-0.3,1-0.3,1.3-0.7c0,0,0-0.3-0.3-0.3c1-0.7,2-1.3,3-1.7c0,0,0-0.3-0.3-0.3c0.7-0.3,1.3-0.7,1.7-0.7c0,0,0-0.3-0.3-0.3
		c0.7-0.3,1.3-0.7,1.7-0.7c0,0,0-0.3-0.3-0.3c0.7-0.3,1.3-0.7,1.7-0.7c0,0,0-0.3-0.3-0.3c0.7-0.3,1.3-0.7,1.7-0.7c0,0,0-0.3-0.3-0.3
		c0.3-0.3,1-0.3,1.3-0.7c0,0,0-0.3-0.3-0.3c0.3-0.3,1-0.3,1.3-0.7c0,0,0-0.3-0.3-0.3c0.3-0.3,1-0.3,1.3-0.7c0,0,0-0.3-0.3-0.3
		c0.3-0.3,1-0.3,1.3-0.7c0,0,0-0.3-0.3-0.3c1-0.7,1.7-1,2.7-1.7c0,0,0-0.3-0.3-0.3c0.3,0,0.7-0.3,1-0.3c0,0,0-0.3-0.3-0.3
		c0.3-0.3,1-0.3,1.3-0.7c0,0,0-0.3-0.3-0.3c0.7-0.3,1-0.7,1.7-1.3c0,0,0-0.3-0.3-0.3c0.3-0.3,1-0.3,1.3-0.7c0,0,0-0.3-0.3-0.3
		c0.7-0.7,1.7-1.3,2.3-2c0,0,0-0.3-0.3-0.3c0.7-0.3,1-0.7,1.7-1.3v-1c0.7-0.3,1-0.7,1.7-1.3c0-0.7,0.3-1,0.3-1.7
		c0.3,0,0.7-0.3,1-0.3c1.3-3.3,2.3-6.7,3.7-10c1.3-3,3.3-6.3,4-9.7c0-0.3-0.3-0.7-0.3-1c0,0,0.3,0,0.3-0.3s-0.3-0.7-0.3-1
		c0.3-0.3,0.3-0.7,0.7-0.7c0-0.3-0.3-0.7-0.3-1c0,0,0.3,0,0.3-0.3c0-0.3-0.3-0.7-0.3-1c0,0,0.3,0,0.3-0.3c0-0.3-0.3-0.7-0.3-1
		c0,0,0.3,0,0.3-0.3c0-0.3-0.3-0.7-0.3-1c0.7-6.7,0.7-20.4-5.7-28.1c-0.3-1-0.7-1.7-1.3-2.7c0,0-0.3,0-0.3,0.3c-0.7-1-1-1.7-1.7-2.7
		c0,0-0.3,0-0.3,0.3c-0.7-0.7-1.3-1.7-2-2.3c0,0-0.3,0-0.3,0.3c0-0.3-0.3-0.7-0.3-1h-1c0-0.3-0.3-0.7-0.3-1c-0.7,0-1.3-0.3-1.7-0.3
		c0-0.3-0.3-0.7-0.3-1c-1.3-0.3-3-1-4.3-1.3c-1-0.3-2-1-2.7-1.3c-0.3,0-0.7,0.3-1,0.3c-0.7-0.3-1-0.7-1.3-1c-0.3,0-0.7,0.3-1,0.3
		c-0.3-0.3-0.7-0.3-1-0.7c-0.3,0-0.7,0.3-1,0.3c-0.3-0.3-0.7-0.3-0.7-0.7c-0.7,0-1.3,0.3-2,0.3c0,0,0-0.3-0.3-0.3c-1,0-2,0.3-3,0.3
		c0,0,0-0.3-0.3-0.3c-0.3,0.3-1,0.3-1.3,0.7c0,0,0-0.3-0.3-0.3s-0.7,0.3-1,0.3c0,0,0-0.3-0.3-0.3c-1.3,0.3-3,0.7-4.3,1
		c-5,0-10.7,0.7-15.7,1c-1.3,0.3-3,0.7-4.3,1c0,0,0-0.3-0.3-0.3c-0.7,0.3-1.3,0.7-1.7,0.7c0,0,0-0.3-0.3-0.3c-0.3,0.3-1,0.3-1.3,0.7
		c0,0,0-0.3-0.3-0.3c-0.7,0.3-1.3,0.7-1.7,0.7c-7.7,0.7-13,2-19.7-0.7c-2.3-1-9.4-5.7-10-9.7c0,0,0.3,0,0.3-0.3c-0.3-1-1-2-1.3-3
		c-0.3-2-1-7.7-3.3-10c-7.7-9-18.4-13-30.4-11.7c-3.7,0.3-8.7,4.7-10.4,6c-0.7,0.3-1.3,0.7-1.7,0.7c0,0,0,0.3,0.3,0.3
		c-1.3,1-2.3,1.7-3.7,2.7c0,0,0,0.3,0.3,0.3c-0.3,0-0.7,0.3-1,0.3c0,0,0,0.3,0.3,0.3c-0.7,0.7-1.7,1-2.7,1.7c0,0,0,0.3,0.3,0.3
		c-0.3,0-0.7,0.3-1,0.3c0,0,0,0.3,0.3,0.3c-1.3,1-2.3,1.7-3.7,2.7c-1.7,1.7-3.7,3.7-5,5.3c-0.3,0.3-1,0.3-1.3,0.7c0,0,0,0.3,0.3,0.3
		c-0.3,0-0.7,0.3-1,0.3c0,0,0,0.3,0.3,0.3c-0.3,0.3-1,0.3-1.3,0.7c0,0,0,0.3,0.3,0.3c-0.3,0-0.7,0.3-1,0.3c0,0,0,0.3,0.3,0.3
		c-0.3,0.3-1,0.3-1.3,0.7c0,0,0,0.3,0.3,0.3c-0.3,0-0.7,0.3-1,0.3c0,0,0,0.3,0.3,0.3c-1,0.7-1.7,1-2.7,1.7c0,0,0,0.3,0.3,0.3
		c-0.3,0-0.7,0.3-1,0.3c0,0,0,0.3,0.3,0.3c-0.7,0.7-1.7,1-2.7,1.7c0,0,0,0.3,0.3,0.3c-0.3,0.3-1,0.3-1.3,0.7c0,0,0,0.3,0.3,0.3
		c-0.3,0.3-1,0.3-1.3,0.7c0,0,0,0.3,0.3,0.3c-0.3,0.3-1,0.3-1.3,0.7c0,0,0,0.3,0.3,0.3c-0.3,0.3-1,0.3-1.3,0.7
		c-9.7,10-20,20-30.7,29.7c-0.7,0.3-1.3,0.7-1.7,0.7c0,0,0,0.3,0.3,0.3c-0.3,0.3-1,0.3-1.3,0.7c0,0,0,0.3,0.3,0.3
		c-0.7,0.3-1.3,0.7-1.7,0.7c0,0,0,0.3,0.3,0.3c-0.7,0.3-1.3,0.7-1.7,0.7c-4,3.7-9.7,7.7-14,11.4c-0.7,0.3-1.3,0.7-1.7,0.7
		c0,0,0,0.3,0.3,0.3c-0.7,0.3-1.3,0.7-1.7,0.7c0,0,0,0.3,0.3,0.3c-0.7,0.3-1.3,0.7-1.7,0.7c0,0,0,0.3,0.3,0.3
		c-0.7,0.3-1.3,0.7-1.7,0.7c0,0,0,0.3,0.3,0.3c-0.7,0.3-1.3,0.7-1.7,0.7c0,0,0,0.3,0.3,0.3c-0.7,0.3-1.7,0.7-2.3,1
		c0,0,0,0.3,0.3,0.3c-1,0.3-1.7,0.7-2.7,1.3c-4,3.3-12.7,9-19.4,10c-1,0.3-1.7,0.7-2.7,1.3c0,0,0-0.3-0.3-0.3c-1.7,0-3,0.3-4.7,0.3
		c-0.3-0.3-0.7-0.3-1-0.7c-0.3,0-0.7,0.3-1,0.3c-0.3-0.3-1-0.7-1.3-1c0,0-0.3,0-0.3,0.3c-2.7-1.7-6.3-6-6-10.4
		c0.3-0.3,0.3-0.7,0.7-1v-1.7c0,0,0.3,0,0.3-0.3s-0.3-0.7-0.3-1c0.3-0.3,0.3-0.7,0.7-1c0.3-1.3,0.7-2.3,1-3.7c0.3,0,0.7-0.3,1-0.3
		c0-0.7,0.3-1,0.3-1.7c0.3,0,0.7-0.3,1-0.3v-1c0.3,0,0.7-0.3,1-0.3v-1c0.3,0,0.7-0.3,1-0.3c0,0,0-0.3-0.3-0.3c0.3,0,0.7-0.3,1-0.3
		c0,0,0-0.3-0.3-0.3c0.3,0,0.7-0.3,1-0.3c0,0,0-0.3-0.3-0.3c0.3,0,0.7-0.3,1-0.3c0,0,0-0.3-0.3-0.3c0.3,0,0.7-0.3,1-0.3
		c0,0,0-0.3-0.3-0.3c0.3,0,0.7-0.3,1-0.3c0,0,0-0.3-0.3-0.3c0.3,0,0.7-0.3,1-0.3c0,0,0-0.3-0.3-0.3c0.7-0.7,1.7-1.3,2.3-2
		c0,0,0-0.3-0.3-0.3c0.3-0.3,1-0.3,1.3-0.7c0,0,0-0.3-0.3-0.3c0.3,0,0.7-0.3,1-0.3c0,0,0-0.3-0.3-0.3c0.3-0.3,1-0.3,1.3-0.7
		c0,0,0-0.3-0.3-0.3c0.3,0,0.7-0.3,1-0.3c0,0,0-0.3-0.3-0.3c1-0.7,1.7-1,2.7-1.7c0,0,0-0.3-0.3-0.3c0.3-0.3,1-0.3,1.3-0.7
		c0,0,0-0.3-0.3-0.3c0.3-0.3,1-0.3,1.3-0.7c0,0,0-0.3-0.3-0.3c0.3-0.3,1-0.3,1.3-0.7c0,0,0-0.3-0.3-0.3c0.3-0.3,1-0.3,1.3-0.7
		c0,0,0-0.3-0.3-0.3c1.3-1,2.3-1.7,3.7-2.7c0,0,0-0.3-0.3-0.3c0.3,0,0.7-0.3,1-0.3c0,0,0-0.3-0.3-0.3c0.3-0.3,1-0.3,1.3-0.7
		c0,0,0-0.3-0.3-0.3c0.3,0,0.7-0.3,1-0.3c0,0,0-0.3-0.3-0.3c0.3-0.3,1-0.3,1.3-0.7c0,0,0-0.3-0.3-0.3c0.3,0,0.7-0.3,1-0.3
		c0,0,0-0.3-0.3-0.3c0.3-0.3,1-0.3,1.3-0.7c0,0,0-0.3-0.3-0.3c0.3-0.3,1-0.3,1.3-0.7c0,0,0-0.3-0.3-0.3c0.3-0.3,1-0.3,1.3-0.7
		c0,0,0-0.3-0.3-0.3c0.3-0.3,1-0.3,1.3-0.7c0,0,0-0.3-0.3-0.3l10-7c4.7-4.3,9.7-8.4,14.4-12.7c0.7-0.3,1.3-0.7,1.7-0.7
		c0,0,0-0.3-0.3-0.3c0.7-0.3,1.3-0.7,1.7-0.7c0,0,0-0.3-0.3-0.3c1-0.7,2-1.3,3-1.7c0,0,0-0.3-0.3-0.3c0.3-0.3,1-0.3,1.3-0.7
		c0,0,0-0.3-0.3-0.3c0.7-0.3,1.3-0.7,1.7-0.7c7.7-7,14-15.7,12.7-26.4c-0.3-3-4.7-7.7-6-8.7h-1c0-0.3-0.3-0.7-0.3-1
		c-0.7-0.3-1.7-0.3-2.3-0.7c-1.7-0.7-3-1.7-4.7-2.3c-0.3,0-0.7,0.3-1,0.3c-0.3-0.3-0.7-0.3-1-0.7c-0.3,0-0.7,0.3-1,0.3
		c-0.3-0.3-0.7-0.3-1-0.7c-1,0-2,0.3-3,0.3c0,0,0-0.3-0.3-0.3s-0.7,0.3-1,0.3c0,0,0-0.3-0.3-0.3c-4.3,1-9,1.7-13.4,2.7
		c-1.7,0.7-3,1.3-4.7,2c-4.3,2-8.7,4-12.4,3.7c-3.7-0.3-6.7-2-10-3.3c-0.7-0.3-1.7-0.3-2.3-0.7c0-0.3-0.3-0.7-0.3-1
		c-0.7,0-1.3-0.3-1.7-0.3c-0.7-0.7-1.3-1.7-2-2.3c0,0-0.3,0-0.3,0.3c0-0.3-0.3-0.7-0.3-1c0,0-0.3,0-0.3,0.3c-0.3-0.3-0.3-1-0.7-1.3
		c0,0-0.3,0-0.3,0.3c-0.3-0.3-0.3-1-0.7-1.3c0,0-0.3,0-0.3,0.3c-0.3-0.3-0.3-1-0.7-1.3c0,0-0.3,0-0.3,0.3c-0.3-0.3-0.3-1-0.7-1.3
		c0,0-0.3,0-0.3,0.3c-0.3-0.3-0.3-1-0.7-1.3c0,0-0.3,0-0.3,0.3c-0.7-0.7-1.3-1.7-2-2.3c0,0-0.3,0-0.3,0.3c-0.3-0.7-0.7-1-1.3-1.7
		c-4.3-2-8.7-3.7-13-5.7c-21.4-4.7-49.8,9.4-77.5,21.7c0,0,0,0.3,0.3,0.3c-1,0.3-1.7,0.7-2.7,1c0,0,0,0.3,0.3,0.3
		c-0.7,0.3-1.7,0.7-2.3,1c0,0,0,0.3,0.3,0.3c-0.7,0.3-1.7,0.7-2.3,1c0,0,0,0.3,0.3,0.3c-2.3,1.3-4.7,2.3-7,3.7
		c-8.7,7.4-21.1,13.4-29.7,20.7c-2,1-4,2-6,3.3c0,0,0,0.3,0.3,0.3c-1,0.7-2.3,1.3-3.3,2c0,0,0,0.3,0.3,0.3c-1,0.7-2,1.3-3,1.7
		c0,0,0,0.3,0.3,0.3c-0.3,0.3-1,0.3-1.3,0.7c0,0,0,0.3,0.3,0.3c-0.3,0.3-1,0.3-1.3,0.7c0,0,0,0.3,0.3,0.3c-1.7,1-3.3,2-5,3.3
		c0,0,0,0.3,0.3,0.3c-0.7,0.3-1.3,0.7-1.7,0.7c0,0,0,0.3,0.3,0.3c-0.3,0.3-1,0.3-1.3,0.7c0,0,0,0.3,0.3,0.3c-0.3,0.3-1,0.3-1.3,0.7
		c0,0,0,0.3,0.3,0.3c-0.3,0.3-1,0.3-1.3,0.7c0,0,0,0.3,0.3,0.3c-0.3,0.3-1,0.3-1.3,0.7c0,0,0,0.3,0.3,0.3c-0.3,0.3-1,0.3-1.3,0.7
		c0,0,0,0.3,0.3,0.3c-0.3,0.3-1,0.3-1.3,0.7c0,0,0,0.3,0.3,0.3c-0.3,0.3-1,0.3-1.3,0.7c0,0,0,0.3,0.3,0.3c-0.3,0.3-1,0.3-1.3,0.7
		c0,0,0,0.3,0.3,0.3c-0.3,0-0.7,0.3-1,0.3c0,0,0,0.3,0.3,0.3c-0.3,0.3-1,0.3-1.3,0.7c0,0,0,0.3,0.3,0.3c-0.7,0.3-1.3,1-2,1.3
		c0,0,0,0.3,0.3,0.3c-0.3,0-0.7,0.3-1,0.3c0,0,0,0.3,0.3,0.3c-0.3,0.3-1,0.3-1.3,0.7c0,0,0,0.3,0.3,0.3c-0.3,0-0.7,0.3-1,0.3
		c0,0,0,0.3,0.3,0.3c-0.7,0.3-1.3,1-2,1.3c0,0,0,0.3,0.3,0.3c-0.7,0.7-1.7,1.3-2.3,2c0,0,0,0.3,0.3,0.3c-0.3,0-0.7,0.3-1,0.3
		c0,0,0,0.3,0.3,0.3c-0.3,0-0.7,0.3-1,0.3c0,0,0,0.3,0.3,0.3c-0.3,0-0.7,0.3-1,0.3c0,0,0,0.3,0.3,0.3c-0.3,0-0.7,0.3-1,0.3
		c0,0,0,0.3,0.3,0.3c-0.3,0-0.7,0.3-1,0.3c0,0,0,0.3,0.3,0.3c-0.3,0-0.7,0.3-1,0.3v1c-0.7,0.7-1.7,1.3-2.3,2v1
		c-0.7,0.3-1,0.7-1.7,1.3v1c-0.3,0-0.7,0.3-1,0.3c0,0,0,0.3,0.3,0.3c-0.3,0-0.7,0.3-1,0.3c0,0,0,0.3,0.3,0.3c-0.3,0-0.7,0.3-1,0.3
		c0,0,0,0.3,0.3,0.3c-0.3,0-0.7,0.3-1,0.3v1c-0.7,0.7-1.7,1.3-2.3,2v1c-0.7,0.3-1,0.7-1.7,1.3v1c-0.3,0-0.7,0.3-1,0.3v1
		c-0.3,0-0.7,0.3-1,0.3v1c-0.3,0-0.7,0.3-1,0.3v1c-0.3,0-0.7,0.3-1,0.3v1c-0.3,0-0.7,0.3-1,0.3c-0.3,0.7-0.3,1.7-0.7,2.3
		c-0.3,0-0.7,0.3-1,0.3c-0.3,0.7-0.3,1.7-0.7,2.3c-0.3,0-0.7,0.3-1,0.3c-0.3,0.7-0.3,1.7-0.7,2.3c-0.3,0-0.7,0.3-1,0.3
		c-0.3,1.3-0.7,2.3-1,3.7c-0.3,0.3-0.3,0.7-0.7,1c0,0.3,0.3,0.7,0.3,1c-0.3,0.7-0.7,1.3-1.3,2c0,0.3,0.3,0.7,0.3,1
		c-0.3,1-1,2-1.3,2.7c0,0.3,0.3,0.7,0.3,1c-0.3,0.3-0.7,1-1,1.3c0,0.3,0.3,0.7,0.3,1c-0.3,0.3-0.7,1-1,1.3c0,0.7,0.3,1.3,0.3,2
		c-0.3,0.3-0.3,0.7-0.7,1v1.7c0,0-0.3,0-0.3,0.3c0,0.7,0.3,1.3,0.3,2c0,0-0.3,0-0.3,0.3c0,1,0.3,2,0.3,3c0,0-0.3,0-0.3,0.3
		c0.3,0.3,0.3,1,0.7,1.3c0,0-0.3,0-0.3,0.3c0,0.3,0.3,0.7,0.3,1c0,0-0.3,0-0.3,0.3c0.3,0.3,0.3,1,0.7,1.3c0,0-0.3,0-0.3,0.3
		c0.3,0.3,0.3,1,0.7,1.3c0,0-0.3,0-0.3,0.3c0.3,0.3,0.3,1,0.7,1.3c0,0-0.3,0-0.3,0.3c0.3,0.3,0.3,1,0.7,1.3c0,0-0.3,0-0.3,0.3
		c0.3,1,0.7,2.3,1,3.3c0,0-0.3,0-0.3,0.3c0.3,0.7,0.7,1.3,0.7,1.7c0,0-0.3,0-0.3,0.3c0.3,0.7,0.7,1.7,1,2.3c0,0-0.3,0-0.3,0.3
		c0.3,3,3,5.3,4,7c0.7,1.3,1.7,3,2.3,4.3c0,0,0.3,0,0.3-0.3c0.3,0.7,0.7,1.3,0.7,1.7c0,0,0.3,0,0.3-0.3c0.3,0.3,0.3,1,0.7,1.3
		c0,0,0.3,0,0.3-0.3c0.3,0.3,0.3,1,0.7,1.3c0,0,0.3,0,0.3-0.3c0.3,0.3,0.3,1,0.7,1.3c0,0,0.3,0,0.3-0.3c0.3,0.7,0.7,1,1.3,1.7
		c0,0,0.3,0,0.3-0.3c0.3,0.7,0.7,1,1.3,1.7h1c0.3,0.7,0.7,1,1.3,1.7h1c0,0.3,0.3,0.7,0.3,1h1l1,1l3,1c0,0.3,0.3,0.7,0.3,1
		c0.7,0.3,1.7,0.3,2.3,0.7c1.7,0.7,3,1.7,4.7,2.3c0.3,0,0.7-0.3,1-0.3c0.7,0.3,1.3,0.7,2,1.3c0.3,0,0.7-0.3,1-0.3
		c0.3,0.3,1,0.7,1.3,1c0.3,0,0.7-0.3,1-0.3c0.3,0.3,0.7,0.3,1,0.7c0.3,0,0.7-0.3,1-0.3c0.3,0.3,0.7,0.3,1,0.7c0.3,0,0.7-0.3,1-0.3
		c0.3,0.3,0.7,0.3,1,0.7c0.3,0,0.7-0.3,1-0.3c0.3,0.3,0.7,0.3,1,0.7c1,0,2-0.3,3-0.3c0,0,0,0.3,0.3,0.3c0.3,0,0.7-0.3,1-0.3
		c0,0,0,0.3,0.3,0.3c1,0,2-0.3,3-0.3c0,0,0,0.3,0.3,0.3c4.7-0.3,9.4-0.7,14-1.3l6-2c5.7-0.7,11-2.7,18-5.7c4.7-2,9.7-4.3,13.4-4.7
		c0.7-0.3,1.3-0.7,1.7-0.7c0,0,0,0.3,0.3,0.3c0.3,0,0.7-0.3,1-0.3c0,0,0,0.3,0.3,0.3c0.3-0.3,1-0.3,1.3-0.7c0.3,0.3,0.7,0.3,1,0.7
		c0.3,0,0.7-0.3,1-0.3c0.3,0.3,0.7,0.3,1,0.7c0.3,0,0.7-0.3,1-0.3c1,0.7,2,1,2.7,1.3c0.3,0,0.7-0.3,1-0.3c2.3,1,4.3,2,6.7,3
		c1.3,0.3,2.3,0.7,3.7,1c0,0.3,0.3,0.7,0.3,1c1.3,0.3,2.3,0.7,3.7,1c0,0.3,0.3,0.7,0.3,1c0.7,0.3,1.7,0.3,2.3,0.7
		c1.7,1,3.7,1.7,5.3,2.7c0.3,0,0.7-0.3,1-0.3c0.7,0.3,1,0.7,1.3,1c0.3,0,0.7-0.3,1-0.3c0.3,0.3,0.7,0.3,1,0.7h1.7c0,0,0,0.3,0.3,0.3
		c0.3,0,0.7-0.3,1-0.3c0.3,0.3,0.7,0.3,1,0.7c0.7,0,1.3-0.3,2-0.3c0,0,0,0.3,0.3,0.3c1,0,2-0.3,3-0.3c0,0,0,0.3,0.3,0.3
		c0.3-0.3,1-0.3,1.3-0.7c0,0,0,0.3,0.3,0.3c0.3,0,0.7-0.3,1-0.3c0,0,0,0.3,0.3,0.3c1-0.3,2-0.3,3-0.7c0,0,0,0.3,0.3,0.3
		c0.3,0,0.7-0.3,1-0.3c0,0,0,0.3,0.3,0.3c1.3-0.3,3-0.7,4.3-1c0,0,0,0.3,0.3,0.3c0.3-0.3,1-0.3,1.3-0.7c0,0,0,0.3,0.3,0.3
		c0.3-0.3,1-0.3,1.3-0.7c0,0,0,0.3,0.3,0.3c0.3-0.3,1-0.3,1.3-0.7c0,0,0,0.3,0.3,0.3c0.3-0.3,1-0.3,1.3-0.7c0,0,0,0.3,0.3,0.3
		c0.3-0.3,1-0.3,1.3-0.7c0,0,0,0.3,0.3,0.3c0.3-0.3,1-0.3,1.3-0.7c0,0,0,0.3,0.3,0.3c0.3-0.3,1-0.3,1.3-0.7c0,0,0,0.3,0.3,0.3l5-1
		c0,0,0,0.3,0.3,0.3c0.7-0.3,1.3-0.7,1.7-0.7c2.3-0.3,5.7-1,8-1.3c0.7-0.3,1.3-0.7,1.7-0.7c0,0,0,0.3,0.3,0.3c1.7-0.7,3.3-1,5-1.7
		c0,0,0,0.3,0.3,0.3c0.7-0.3,1.3-0.7,1.7-0.7c0,0,0,0.3,0.3,0.3c0.7-0.3,1.3-0.7,1.7-0.7c0,0,0,0.3,0.3,0.3c0.7-0.3,1.7-0.7,2.3-1
		c0,0,0,0.3,0.3,0.3c1-0.3,1.7-0.7,2.7-1.3c0,0,0,0.3,0.3,0.3c1.3-0.3,2.7-0.7,3.7-1c0,0,0,0.3,0.3,0.3c1,0,2-0.3,3-0.3
		c0.3,0.3,0.7,0.3,1,0.7c0.3,0,0.7-0.3,1-0.3c1,0.7,2.3,1,3.3,1.7c0.7,0,1,0.3,1.7,0.3c0,0.3,0.3,0.7,0.3,1c0.7,0,1,0.3,1.7,0.3
		c0,0.3,0.3,0.7,0.3,1c0,0,0.3,0,0.3-0.3c0.3,0.7,0.7,1,1.3,1.7c0,0,0.3,0,0.3-0.3c0.7,1,1,1.7,1.7,2.7c0,0,0.3,0,0.3-0.3
		c0.3,0.7,0.7,1.3,0.7,1.7c0,0,0.3,0,0.3-0.3c0.7,1,1.3,2,1.7,3c0,0,0.3,0,0.3-0.3c0,0.3,0.3,0.7,0.3,1c0,0,0.3,0,0.3-0.3
		c0.3,0.3,0.3,1,0.7,1.3c0,0,0.3,0,0.3-0.3c0,0.3,0.3,0.7,0.3,1c0,0,0.3,0,0.3-0.3c0,0.3,0.3,0.7,0.3,1h1c0.3,0.7,0.7,1,1.3,1.7
		c0.7,0,1,0.3,1.7,0.3c0,0.3,0.3,0.7,0.3,1c0,0,0.3,0,0.3-0.3c0.3,0.3,0.7,0.3,0.7,0.7c0.3,0,0.7-0.3,1-0.3c0.3,0.3,1,0.7,1.3,1
		c0.3,0,0.7-0.3,1-0.3c0.3,0.3,0.7,0.3,1,0.7c1.3,0.3,2.7-0.7,4-0.7c0,0,0,0.3,0.3,0.3c1-0.3,1.7-0.7,2.7-1.3c0,0,0,0.3,0.3,0.3
		c3-0.3,7-4,8.4-5.3c0.7-0.3,1.3-0.7,1.7-0.7c0,0,0-0.3-0.3-0.3c0.3-0.3,1-0.3,1.3-0.7c0,0,0-0.3-0.3-0.3c0.3-0.3,1-0.3,1.3-0.7
		c0,0,0-0.3-0.3-0.3c0.3-0.3,1-0.3,1.3-0.7c0,0,0-0.3-0.3-0.3c1-0.7,1.7-1,2.7-1.7c0,0,0-0.3-0.3-0.3c0.7-0.3,1-0.7,1.7-1.3
		c0,0,0-0.3-0.3-0.3c0.3-0.3,1-0.3,1.3-0.7c0,0,0-0.3-0.3-0.3c0.3,0,0.7-0.3,1-0.3c0,0,0-0.3-0.3-0.3c0.3,0,0.7-0.3,1-0.3v-1
		c0.3,0,0.7-0.3,1-0.3c0,0,0-0.3-0.3-0.3c0.3,0,0.7-0.3,1-0.3c0,0,0-0.3-0.3-0.3c0.3,0,0.7-0.3,1-0.3c0,0,0-0.3-0.3-0.3
		c0.3,0,0.7-0.3,1-0.3v-1c0.7-0.3,1-0.7,1.7-1.3v-1c0.7-0.3,1-0.7,1.7-1.3v-1c0.3,0,0.7-0.3,1-0.3c0,0,0-0.3-0.3-0.3
		c0.3,0,0.7-0.3,1-0.3c0,0,0-0.3-0.3-0.3c0.3,0,0.7-0.3,1-0.3v-1c0.3,0,0.7-0.3,1-0.3c0,0,0-0.3-0.3-0.3l1-1v-1c0.3,0,0.7-0.3,1-0.3
		c0-0.7,0.3-1,0.3-1.7c0.3,0,0.7-0.3,1-0.3v-1c0.3,0,0.7-0.3,1-0.3v-1l1-1c0,0,0-0.3-0.3-0.3c0.7-0.3,1-0.7,1.7-1.3v-1
		c0.3,0,0.7-0.3,1-0.3c0,0,0-0.3-0.3-0.3c0.3,0,0.7-0.3,1-0.3c0,0,0-0.3-0.3-0.3c0.3-0.3,0.7-0.7,1.3-1v-1c0.3,0,0.7-0.3,1-0.3v-1
		c0.3-0.3,0.7-0.7,1.3-1c0,0,0-0.3-0.3-0.3c0.3,0,0.7-0.3,1-0.3v-1c0.3,0,0.7-0.3,1-0.3v-1c0.3,0,0.7-0.3,1-0.3v-1
		c0.7-0.7,1.7-1.3,2.3-2v-1c0.3,0,0.7-0.3,1-0.3c0,0,0-0.3-0.3-0.3c0.3-0.3,1-0.3,1.3-0.7c0,0,0-0.3-0.3-0.3c0.3,0,0.7-0.3,1-0.3
		c0,0,0-0.3-0.3-0.3c0.7-0.3,1-0.7,1.7-1.3c0,0,0-0.3-0.3-0.3c1-0.7,1.7-1,2.7-1.7c0,0,0-0.3-0.3-0.3c0.3,0,0.7-0.3,1-0.3
		c0,0,0-0.3-0.3-0.3c0.3-0.3,1-0.3,1.3-0.7c0,0,0-0.3-0.3-0.3c0.7-0.3,1-0.7,1.7-1.3c0,0,0-0.3-0.3-0.3c0.3-0.3,1-0.3,1.3-0.7
		c0,0,0-0.3-0.3-0.3c0.3,0,0.7-0.3,1-0.3c0,0,0-0.3-0.3-0.3c0.7-0.7,1.7-1,2.7-1.7c0,0,0-0.3-0.3-0.3c0.3-0.3,1-0.3,1.3-0.7
		c0,0,0-0.3-0.3-0.3c0.3,0,0.7-0.3,1-0.3c0,0,0-0.3-0.3-0.3c1-0.7,1.7-1,2.7-1.7c0,0,0-0.3-0.3-0.3c1-0.7,1.7-1,2.7-1.7
		c0,0,0-0.3-0.3-0.3c0.3,0,0.7-0.3,1-0.3c0,0,0-0.3-0.3-0.3c0.3-0.3,1-0.3,1.3-0.7c0,0,0-0.3-0.3-0.3c0.3,0,0.7-0.3,1-0.3
		c0,0,0-0.3-0.3-0.3c0.3-0.3,1-0.3,1.3-0.7c0,0,0-0.3-0.3-0.3c0.3,0,0.7-0.3,1-0.3c0,0,0-0.3-0.3-0.3c0.3-0.3,1-0.3,1.3-0.7
		c0,0,0-0.3-0.3-0.3c0.3-0.3,1-0.3,1.3-0.7c0,0,0-0.3-0.3-0.3c0.3-0.3,1-0.3,1.3-0.7c0,0,0-0.3-0.3-0.3c0.7-0.3,1.3-0.7,1.7-0.7
		c0,0,0-0.3-0.3-0.3c0.7-0.3,1.3-0.7,1.7-0.7c0,0,0-0.3-0.3-0.3c0.7-0.3,1.3-0.7,2.3-1c0,0,0-0.3-0.3-0.3c0.7-0.3,1.3-0.7,1.7-0.7
		c0,0,0-0.3-0.3-0.3c0.7-0.3,1.3-0.7,1.7-0.7c0,0,0-0.3-0.3-0.3c0.7-0.3,1.7-0.7,2.3-1c0,0,0-0.3-0.3-0.3c1.7-1,3.3-2,5.3-2.7
		c0,0,0-0.3-0.3-0.3c0.7-0.3,1.3-0.7,1.7-0.7c0,0,0-0.3-0.3-0.3c0.7-0.3,1.7-0.7,2.3-1c0,0,0-0.3-0.3-0.3l14-6c2.3-1,4.7-2,7.4-3
		c0,0,0,0.3,0.3,0.3c0.7-0.3,1.3-0.7,1.7-0.7c0,0,0,0.3,0.3,0.3c0.7-0.3,1.3-0.7,1.7-0.7c0,0,0,0.3,0.3,0.3c0.3-0.3,1-0.3,1.3-0.7
		c0,0,0,0.3,0.3,0.3c0.3-0.3,1-0.3,1.3-0.7c0,0,0,0.3,0.3,0.3c0.3-0.3,1-0.3,1.3-0.7c0,0,0,0.3,0.3,0.3c1,0,2-0.3,3-0.3
		c0,0,0,0.3,0.3,0.3c0.3,0,0.7-0.3,1-0.3c0,0,0,0.3,0.3,0.3c0.7,0,1.3-0.3,2-0.3c0.3,0.3,0.7,0.3,1,0.7c0.3,0,0.7-0.3,1-0.3
		c0.3,0.3,1,0.7,1.3,1c0.3,0,0.7-0.3,1-0.3c1,0.3,2,1,2.7,1.3c0.7,0.3,1.7,0.3,2.3,0.7c0,0.3,0.3,0.7,0.3,1h1c0,0.3,0.3,0.7,0.3,1h1
		c0,0.3,0.3,0.7,0.3,1c0,0,0.3,0,0.3-0.3c0.3,0.7,0.7,1,1.3,1.7c0,0,0.3,0,0.3-0.3c0.7,0.7,5.7,10.4,5.7,12c0,0-0.3,0-0.3,0.3
		c0.3,0.3,0.3,1,0.7,1.3c0,0-0.3,0-0.3,0.3c0,1,0.3,2,0.3,3c0,0-0.3,0-0.3,0.3c0,0.3,0.3,0.7,0.3,1c-0.7,1-1,2.3-1.7,3.3
		c0,0.3,0.3,0.7,0.3,1c-0.3,0.3-0.3,0.7-0.7,1c-0.3,1.3-0.7,2.3-1,3.7c-0.3,0-0.7,0.3-1,0.3c-0.3,0.7-0.3,1.7-0.7,2.3
		c-0.3,0-0.7,0.3-1,0.3v1c-0.3,0-0.7,0.3-1,0.3v1c-0.3,0-0.7,0.3-1,0.3c0,0,0,0.3,0.3,0.3c-0.3,0-0.7,0.3-1,0.3c0,0,0,0.3,0.3,0.3
		c-0.3,0.3-1,0.3-1.3,0.7c0,0,0,0.3,0.3,0.3c-0.3,0.3-1,0.3-1.3,0.7c0,0,0,0.3,0.3,0.3c-0.3,0-0.7,0.3-1,0.3c0,0,0,0.3,0.3,0.3
		c-0.7,0.3-1.3,0.7-1.7,0.7c0,0,0,0.3,0.3,0.3c-0.3,0.3-1,0.3-1.3,0.7c0,0,0,0.3,0.3,0.3c-0.3,0.3-1,0.3-1.3,0.7c0,0,0,0.3,0.3,0.3
		c-1,0.7-2.3,1.3-3.3,2c0,0,0,0.3,0.3,0.3c-1,0.7-2.3,1.3-3.3,2c0,0,0,0.3,0.3,0.3c-1,0.3-1.7,0.7-2.7,1.3c0,0,0,0.3,0.3,0.3
		c-0.7,0.3-1.3,0.7-1.7,0.7c0,0,0,0.3,0.3,0.3c-0.7,0.3-1.3,0.7-1.7,0.7c0,0,0,0.3,0.3,0.3c-0.7,0.3-1.3,0.7-1.7,0.7
		c0,0,0,0.3,0.3,0.3c-0.7,0.3-1.3,0.7-1.7,0.7c0,0,0,0.3,0.3,0.3l-4,3c0,0,0,0.3,0.3,0.3c-0.3,0.3-1,0.3-1.3,0.7c0,0,0,0.3,0.3,0.3
		l-4,3c-5.3,6-10.7,12-15.7,18v1c-0.3,0-0.7,0.3-1,0.3v1c-0.3,0-0.7,0.3-1,0.3c0,0.7-0.3,1-0.3,1.7c-0.3,0-0.7,0.3-1,0.3
		c-0.7,2-1.3,3.7-2,5.7c-1.3,2.7-2.3,5.3-3.7,8c0,0.3,0.3,0.7,0.3,1c-0.3,0.3-0.7,1-1,1.3c0,0.3,0.3,0.7,0.3,1
		c-0.3,0.3-0.3,0.7-0.7,1c0,0.3,0.3,0.7,0.3,1c0,0-0.3,0-0.3,0.3c0,1,0,2,0.3,3c0,0-0.3,0-0.3,0.3c0.3,1,0.3,2,0.7,3
		c0,0-0.3,0-0.3,0.3c0.3,0.7,0.7,1.3,0.7,1.7c0,0-0.3,0-0.3,0.3c0.3,3.7,5.3,11,7,12.7c0,0,0.3,0,0.3-0.3c0.3,0.3,0.3,1,0.7,1.3
		c0,0,0.3,0,0.3-0.3c0,0.3,0.3,0.7,0.3,1c0,0,0.3,0,0.3-0.3c0.3,0.3,0.3,1,0.7,1.3c0,0,0.3,0,0.3-0.3c0,0.3,0.3,0.7,0.3,1
		c0,0,0.3,0,0.3-0.3c0,0.3,0.3,0.7,0.3,1h1c0.3,0.7,0.7,1,1.3,1.7c0,0,0.3,0,0.3-0.3l1,1h1c0,0.3,0.3,0.7,0.3,1c0.7,0,1,0.3,1.7,0.3
		c0,0.3,0.3,0.7,0.3,1c1.3,0.3,2.3,0.7,3.7,1c0,0.3,0.3,0.7,0.3,1h1c0,0,0,0.3,0.3,0.3c0.3,0,0.7-0.3,1-0.3c1,0.7,2.3,1,3.3,1.7
		c0.3,0,0.7-0.3,1-0.3c0.3,0.3,1,0.7,1.3,1c0.3,0,0.7-0.3,1-0.3c0.3,0.3,0.7,0.3,1,0.7c0.3,0,0.7-0.3,1-0.3c0.3,0.3,1,0.7,1.3,1
		c0.3,0,0.7-0.3,1-0.3c0.3,0.3,0.7,0.3,1,0.7c0.7,0,1.3-0.3,2-0.3c0.3,0.3,0.7,0.3,1,0.7c0.7,0,1.3-0.3,2-0.3c0.3,0.3,0.7,0.3,1,0.7
		c1,0,2-0.3,3-0.3c0,0,0,0.3,0.3,0.3h1.7c0.3,0.3,0.7,0.3,1,0.7c0.7,0,1.3-0.3,2-0.3c0.3,0.3,0.7,0.3,1,0.7h1.7c1,0.7,2.3,1,3.3,1.7
		c0.3,0,0.7-0.3,1-0.3c0.3,0.3,1,0.7,1.3,1h1c0,0.3,0.3,0.7,0.3,1c1.3,0.3,2.3,0.7,3.7,1c0,0.3,0.3,0.7,0.3,1h1
		c0.3,0.7,0.7,1,1.3,1.7c0,0,0.3,0,0.3-0.3c0.3,0.7,0.7,1,1.3,1.7c0,0,0.3,0,0.3-0.3c2.3,4.3,4.3,8.4,6.7,12.7c0,0,0.3,0,0.3-0.3
		c1,1.7,2,3.3,3.3,5c0,0,0.3,0,0.3-0.3c0.7,1,1.3,2,1.7,3c0,0,0.3,0,0.3-0.3c0.7,1,1,1.7,1.7,2.7c0,0,0.3,0,0.3-0.3
		c0.3,0.7,1,1.3,1.3,2c0,0,0.3,0,0.3-0.3c0.3,0.7,0.7,1,1.3,1.7c0,0,0.3,0,0.3-0.3c0.3,0.7,0.7,1,1.3,1.7c0,0,0.3,0,0.3-0.3l1,1h1
		c0.3,0.7,0.7,1,1.3,1.7h1c0,0.3,0.3,0.7,0.3,1h1c0,0.3,0.3,0.7,0.3,1c0.7,0,1,0.3,1.7,0.3c0,0.3,0.3,0.7,0.3,1c0,0,0.3,0,0.3-0.3
		l1,1h1c0,0.3,0.3,0.7,0.3,1c0.7,0.3,1.7,0.3,2.3,0.7c0,0.3,0.3,0.7,0.3,1c0.7,0.3,1.7,0.3,2.3,0.7c1.7,0.7,3,1.3,4.7,2.3
		c0.3,0,0.7-0.3,1-0.3c0.7,0.3,1.3,0.7,2,1.3c0.3,0,0.7-0.3,1-0.3c0.7,0.3,1,0.7,1.3,1c0.3,0,0.7-0.3,1-0.3c1,0.3,2,1,2.7,1.3
		c0.3,0,0.7-0.3,1-0.3c0.7,0.3,1.3,0.7,2,1.3c0.3,0,0.7-0.3,1-0.3c0.3,0.3,1,0.7,1.3,1c0.3,0,0.7-0.3,1-0.3c0.3,0.3,0.7,0.3,1,0.7
		c0.3,0,0.7-0.3,1-0.3c0.3,0.3,0.7,0.3,1,0.7c0.3,0,0.7-0.3,1-0.3c0.3,0.3,0.7,0.3,1,0.7c0.3,0,0.7-0.3,1-0.3c0.3,0.3,0.7,0.3,1,0.7
		c0.3,0,0.7-0.3,1-0.3c0,0,0,0.3,0.3,0.3c0.3,0,0.7-0.3,1-0.3c0.3,0.3,0.7,0.3,0.7,0.7c1,0,2-0.3,3-0.3c0.3,0.3,0.7,0.3,0.7,0.7
		c0.3,0,0.7-0.3,1-0.3c0,0,0,0.3,0.3,0.3c0.3,0,0.7-0.3,1-0.3c0,0,0,0.3,0.3,0.3s0.7-0.3,1-0.3c0,0,0,0.3,0.3,0.3
		c0.3,0,0.7-0.3,1-0.3c0,0,0,0.3,0.3,0.3c0.3,0,0.7-0.3,1-0.3c0,0,0,0.3,0.3,0.3c0.3,0,0.7-0.3,1-0.3c0,0,0,0.3,0.3,0.3
		s0.7-0.3,1-0.3c0,0,0,0.3,0.3,0.3c0.3,0,0.7-0.3,1-0.3c0,0,0,0.3,0.3,0.3c0.3,0,0.7-0.3,1-0.3c0,0,0,0.3,0.3,0.3
		c0.3,0,0.7-0.3,1-0.3c0,0,0,0.3,0.3,0.3c0.7,0,1.3-0.3,2-0.3c0,0,0,0.3,0.3,0.3c0.7,0,1.3-0.3,2-0.3c0,0,0,0.3,0.3,0.3
		c0.3,0,0.7-0.3,1-0.3c0,0,0,0.3,0.3,0.3c0.3-0.3,1-0.3,1.3-0.7c0,0,0,0.3,0.3,0.3c0.7,0,1.3-0.3,2-0.3c0,0,0,0.3,0.3,0.3
		c1.3-0.3,3-0.7,4.3-1c7-0.3,15-2.3,22.4-3c2.3-0.7,4.3-1.7,6.7-2.3c0,0,0,0.3,0.3,0.3c5.3-0.7,13.4-4.7,19.4-7.4l14-6
		c0,0,0-0.3-0.3-0.3c0.7-0.3,1.7-0.7,2.3-1c0,0,0-0.3-0.3-0.3c0.7-0.3,1.7-0.7,2.3-1c0,0,0-0.3-0.3-0.3c1-0.3,2-1,3-1.3
		c0,0,0-0.3-0.3-0.3c1.7-1,3.3-2,5.3-2.7c0,0,0-0.3-0.3-0.3c0.7-0.3,1.3-0.7,1.7-0.7c0,0,0-0.3-0.3-0.3c0.3-0.3,1-0.3,1.3-0.7
		c0,0,0-0.3-0.3-0.3c0.3-0.3,1-0.3,1.3-0.7c0,0,0-0.3-0.3-0.3c0.3-0.3,1-0.3,1.3-0.7c0,0,0-0.3-0.3-0.3c0.3-0.3,1-0.3,1.3-0.7
		c0,0,0-0.3-0.3-0.3c1-0.7,1.7-1,2.7-1.7c0,0,0-0.3-0.3-0.3c0.3,0,0.7-0.3,1-0.3c0,0,0-0.3-0.3-0.3c0.3-0.3,1-0.3,1.3-0.7
		c0,0,0-0.3-0.3-0.3c1-1,2.3-2,3.3-3c0,0,0-0.3-0.3-0.3c0.7-0.3,1-0.7,1.7-1.3c0,0,0-0.3-0.3-0.3c1-1,5.3-4,7.7-4.3
		c0,0,0,0.3,0.3,0.3c0.3-0.3,1-0.3,1.3-0.7c0,0,0,0.3,0.3,0.3c0.3,0,0.7-0.3,1-0.3c0,0,0,0.3,0.3,0.3c0.3,0,0.7-0.3,1-0.3
		c0.3,0.3,0.7,0.3,0.7,0.7h1.7c2.3,1,4.3,2,6.7,3c0,0.3,0.3,0.7,0.3,1c0,0,0.3,0,0.3-0.3c0,0.3,0.3,0.7,0.3,1c0,0,0.3,0,0.3-0.3
		c0.3,0.3,0.3,1,0.7,1.3c0,0,0.3,0,0.3-0.3c0,0.3,0.3,0.7,0.3,1c0,0,0.3,0,0.3-0.3c0.7,1,1.3,2,1.7,3c0,0,0.3,0,0.3-0.3
		c0.3,0.3,0.3,1,0.7,1.3c0,0,0.3,0,0.3-0.3c0.3,0.3,0.3,1,0.7,1.3c0,0,0.3,0,0.3-0.3c0.3,0.3,0.3,1,0.7,1.3c0,0,0.3,0,0.3-0.3
		c0.3,0.7,0.7,1.3,0.7,1.7c0,0,0.3,0,0.3-0.3c0.3,0.7,0.7,1.7,1,2.3c0,0,0.3,0,0.3-0.3c0.3,0.3,0.3,1,0.7,1.3c0,0,0.3,0,0.3-0.3
		c0.3,0.7,0.7,1.3,0.7,1.7c10.4,11,18.7,25.7,28.4,37.8c1,2,2,3.7,3,5.7c0,0,0.3,0,0.3-0.3c0.3,0.7,0.7,1.7,1,2.3c0,0,0.3,0,0.3-0.3
		c0.7,1.3,1.3,2.7,2.3,4c0,0,0.3,0,0.3-0.3c0.3,0.7,0.7,1.3,0.7,1.7c0,0,0.3,0,0.3-0.3c0.3,0.7,0.7,1.3,0.7,1.7c0,0,0.3,0,0.3-0.3
		c0.3,0.7,0.7,1.7,1,2.3c0,0,0.3,0,0.3-0.3c0.3,1,0.7,1.7,1.3,2.7c0,0,0.3,0,0.3-0.3c0.3,1,0.7,1.7,1,2.7c0,0,0.3,0,0.3-0.3
		c0.3,0.7,0.7,1.3,0.7,1.7c0,0,0.3,0,0.3-0.3c0.3,0.7,0.7,1.3,0.7,1.7c0,0,0.3,0,0.3-0.3c1,1.7,2.3,3.7,3.3,5.3c0,0,0.3,0,0.3-0.3
		c0.3,0.7,0.7,1.3,0.7,1.7c0,0,0.3,0,0.3-0.3c0.3,1,1,2,1.3,3c0,0,0.3,0,0.3-0.3c0.3,1,1,2,1.3,3c3,3.7,7.7,10,7,15.4
		c-0.3,0.3-0.3,0.7-0.7,1c0,0.3,0.3,0.7,0.3,1c-0.3,0.3-0.7,1-1,1.3c0,0,0,0.3,0.3,0.3c-2,3.3-7,6-11,5.3c-3.3-1-6.3-2.3-9.7-3.3
		c0-0.3-0.3-0.7-0.3-1c-0.7,0-1.3-0.3-1.7-0.3c0-0.3-0.3-0.7-0.3-1c-0.7-0.3-1.7-0.3-2.3-0.7c0-0.3-0.3-0.7-0.3-1
		c-1-0.3-2-0.7-3-0.7c0-0.3-0.3-0.7-0.3-1c-0.7-0.3-1.7-0.3-2.3-0.7c0-0.3-0.3-0.7-0.3-1c-0.7,0-1.3-0.3-1.7-0.3
		c0-0.3-0.3-0.7-0.3-1c-0.7-0.3-1.7-0.3-2.3-0.7l-1-1c-1.3-0.3-3-1-4.3-1.3c0-0.3-0.3-0.7-0.3-1c-0.7-0.3-1.7-0.3-2.3-0.7
		c0-0.3-0.3-0.7-0.3-1c-0.7-0.3-1.7-0.3-2.3-0.7l-1-1h-1c0-0.3-0.3-0.7-0.3-1c-2-0.7-3.7-1.3-5.7-2c0-0.3-0.3-0.7-0.3-1
		c-1.3-0.3-3-1-4.3-1.3c0-0.3-0.3-0.7-0.3-1c-0.7,0-1-0.3-1.7-0.3c0-0.3-0.3-0.7-0.3-1c-0.7-0.3-1.7-0.3-2.3-0.7
		c0-0.3-0.3-0.7-0.3-1c-2-0.7-3.7-1.3-5.7-2c-0.3-0.3-0.7-0.7-1-1.3c-3.3-1.3-6.7-2.3-10-3.7c-5.7-2.3-11-4.7-17-6
		c-1-0.3-2-1-2.7-1.3c-0.3,0-0.7,0.3-1,0.3c-1-0.3-2-1-2.7-1.3c-0.3,0-0.7,0.3-1,0.3c-1-0.3-2-1-2.7-1.3c-0.3,0-0.7,0.3-1,0.3
		c-1-0.3-2-1-2.7-1.3c-0.3,0-0.7,0.3-1,0.3c-0.7-0.3-1.3-0.7-2-1.3c-0.3,0-0.7,0.3-1,0.3c-0.7-0.3-1-0.7-1.3-1c-0.3,0-0.7,0.3-1,0.3
		c-0.3-0.3-1-0.7-1.3-1c-0.3,0-0.7,0.3-1,0.3c-0.3-0.3-1-0.7-1.3-1c-0.3,0-0.7,0.3-1,0.3c-0.3-0.3-0.7-0.3-1-0.7
		c-0.3,0-0.7,0.3-1,0.3c-0.3-0.3-0.7-0.3-1-0.7h-1.7c0,0,0-0.3-0.3-0.3c-0.3,0-0.7,0.3-1,0.3c0,0,0-0.3-0.3-0.3s-0.7,0.3-1,0.3
		c0,0,0-0.3-0.3-0.3c-0.3,0-0.7,0.3-1,0.3c0,0,0-0.3-0.3-0.3c-0.3,0-0.7,0.3-1,0.3c0,0,0-0.3-0.3-0.3c-0.3,0-0.7,0.3-1,0.3
		c0,0,0-0.3-0.3-0.3c-0.3,0-0.7,0.3-1,0.3c0,0,0-0.3-0.3-0.3s-0.7,0.3-1,0.3c0,0,0-0.3-0.3-0.3c-0.3,0-0.7,0.3-1,0.3
		c0,0,0-0.3-0.3-0.3c-0.3,0-0.7,0.3-1,0.3c0,0,0-0.3-0.3-0.3c-1,0-2,0.3-3,0.3c0,0,0-0.3-0.3-0.3c-0.3,0.3-1,0.3-1.3,0.7
		c0,0,0-0.3-0.3-0.3c-0.3,0-0.7,0.3-1,0.3c0,0,0-0.3-0.3-0.3c-0.7,0.3-1.3,0.7-1.7,0.7c-5.7,0.3-13,4.3-15.7,8.4v1
		c-0.3,0-0.7,0.3-1,0.3v1c-0.3,0-0.7,0.3-1,0.3c0,0.7-0.3,1-0.3,1.7l-2,4c0,0.3,0.3,0.7,0.3,1c-0.3,0.3-0.3,0.7-0.7,1
		c0,0.7,0.3,1.3,0.3,2c-0.3,0.3-0.3,0.7-0.7,1c0,0.7,0.3,1.7,0.7,2.3c0,0-0.3,0-0.3,0.3s0.3,0.7,0.3,1c0,0-0.3,0-0.3,0.3
		c0.3,0.3,0.3,1,0.7,1.3c0,0-0.3,0-0.3,0.3c0.7,2.3,1.7,4.3,2.3,6.7c0.3,1.7,2,7.4,3.3,9.4c0,0,0.3,0,0.3-0.3c0.7,1.3,1,2.7,1.7,4
		c0,0,0.3,0,0.3-0.3c0.3,0.7,0.7,1.7,1,2.3c0,0,0.3,0,0.3-0.3c0.3,0.7,0.7,1.3,0.7,1.7c0,0,0.3,0,0.3-0.3c0.3,0.7,0.7,1.3,0.7,1.7
		c0,0,0.3,0,0.3-0.3c0.3,0.7,0.7,1.3,0.7,1.7c0,0,0.3,0,0.3-0.3c0.7,1,1.3,2,1.7,3c0,0,0.3,0,0.3-0.3c0.3,0.3,0.3,1,0.7,1.3
		c0,0,0.3,0,0.3-0.3c0.3,0.3,0.3,1,0.7,1.3c0,0,0.3,0,0.3-0.3c0.3,0.3,0.3,1,0.7,1.3c0,0,0.3,0,0.3-0.3c0.3,0.3,0.3,1,0.7,1.3
		c0,0,0.3,0,0.3-0.3c0,0.3,0.3,0.7,0.3,1c0,0,0.3,0,0.3-0.3c0.3,0.7,1,1.3,1.3,2c0,0,0.3,0,0.3-0.3c0.3,0.3,0.3,1,0.7,1.3
		c0,0,0.3,0,0.3-0.3c0.3,0.3,0.3,1,0.7,1.3c0,0,0.3,0,0.3-0.3c0.3,0.3,0.3,1,0.7,1.3c0,0,0.3,0,0.3-0.3c0.3,0.3,0.3,1,0.7,1.3
		c0,0,0.3,0,0.3-0.3c0.3,0.3,0.3,1,0.7,1.3c0,0,0.3,0,0.3-0.3c0.3,0.7,0.7,1.3,0.7,1.7c0,0,0.3,0,0.3-0.3c0.3,0.3,0.3,1,0.7,1.3
		c0,0,0.3,0,0.3-0.3c0.3,0.7,0.7,1.3,0.7,1.7c0,0,0.3,0,0.3-0.3l3,4c0,0,0.3,0,0.3-0.3c0.3,0.3,0.3,1,0.7,1.3c0,0,0.3,0,0.3-0.3
		c0.3,0.3,0.3,1,0.7,1.3c0,0,0.3,0,0.3-0.3c0.3,0.7,0.7,1.3,0.7,1.7c0,0,0.3,0,0.3-0.3c0.7,1,1,1.7,1.7,2.7c0,0,0.3,0,0.3-0.3
		c0.3,0.3,0.3,1,0.7,1.3c0,0,0.3,0,0.3-0.3c0.3,0.3,0.3,1,0.7,1.3c0,0,0.3,0,0.3-0.3c0.3,0.3,0.3,1,0.7,1.3c0,0,0.3,0,0.3-0.3l3,4
		c0,0,0.3,0,0.3-0.3c0.3,0.3,0.3,1,0.7,1.3c0,0,0.3,0,0.3-0.3c0.3,0.7,0.7,1.3,0.7,1.7c0,0,0.3,0,0.3-0.3c0.7,1,1.3,2,1.7,3
		c0,0,0.3,0,0.3-0.3c0.7,1,1.3,2,1.7,3c0,0,0.3,0,0.3-0.3c1,1.7,2,3,3,4.7c0,0,0.3,0,0.3-0.3c0.3,0.3,0.3,1,0.7,1.3
		c0,0,0.3,0,0.3-0.3c1.7,2.3,3,4.7,4.7,7c0,0,0.3,0,0.3-0.3c0.7,1.3,1.3,2.7,2.3,4c0,0,0.3,0,0.3-0.3c1,1.7,2,3,3,4.7
		c0,0,0.3,0,0.3-0.3c0.3,0.3,0.3,1,0.7,1.3c0,0,0.3,0,0.3-0.3c0.3,0.7,0.7,1.3,0.7,1.7c0,0,0.3,0,0.3-0.3c0.3,0.7,0.7,1.7,1,2.3
		c0,0,0.3,0,0.3-0.3c0.3,0.7,0.7,1.3,0.7,1.7c0,0,0.3,0,0.3-0.3c0.3,0.7,0.7,1.7,1,2.3c5.3,6,10,14.7,15.4,20.7
		c1,1.7,2.3,3.7,3.3,5.3c0,0,0.3,0,0.3-0.3c1.7,3,3.3,5.7,4.7,8.7c6.3,7.4,11.7,17.7,18.4,25.1c0.3,0.7,0.7,1.7,1,2.3
		c0,0,0.3,0,0.3-0.3c0.3,1,1,2,1.3,3c0,0,0.3,0,0.3-0.3c0.3,0.7,0.7,1.7,1,2.3c0,0,0.3,0,0.3-0.3c0.3,0.7,0.7,1.7,1,2.3
		c0,0,0.3,0,0.3-0.3c1,2,2,4,3.3,6c0,0,0.3,0,0.3-0.3c0.3,1,0.7,1.7,1,2.7c0,0,0.3,0,0.3-0.3c0.3,0.7,0.7,1.3,0.7,1.7
		c0,0,0.3,0,0.3-0.3c0.3,0.7,0.7,1.7,1,2.3c0,0,0.3,0,0.3-0.3c1.3,2.3,2.7,5,3.7,7.4c6.7,7.7,11.7,19,18,27.1c1.3,3,2.3,5.7,3.7,8.7
		c0,0,0.3,0,0.3-0.3c0.3,0.7,0.7,1.7,1,2.3c0,0,0.3,0,0.3-0.3c0.3,0.7,0.7,1.7,1,2.3c0,0,0.3,0,0.3-0.3c1.3,2.3,2.3,4.7,3.7,7
		c0,0,0.3,0,0.3-0.3c0.3,1,0.7,1.7,1.3,2.7c0,0,0.3,0,0.3-0.3c0.3,0.7,0.7,1.3,1,2.3c0,0,0.3,0,0.3-0.3c0.3,0.7,0.7,1.7,1,2.3
		c0,0,0.3,0,0.3-0.3c2.3,5.3,5,10.7,7.4,16c0,0,0.3,0,0.3-0.3c0.3,0.7,0.7,1.3,0.7,1.7c0,0,0.3,0,0.3-0.3c0.3,0.7,0.7,1.7,1,2.3
		c0,0,0.3,0,0.3-0.3c0.7,1.7,1.3,3,2,4.7c0,0,0.3,0,0.3-0.3c1,2.3,2,4.7,3,7.4c7.7,9.7,13.4,26.4,19.4,40.1c3.3,8,7,16,10.4,24.1
		c0,0,0.3,0,0.3-0.3c0.3,0.7,0.7,1.3,0.7,1.7c0,0,0.3,0,0.3-0.3c0.7,0.7,1.3,1.7,2,2.3c0,0,0.3,0,0.3-0.3c0,0.3,0.3,0.7,0.3,1h1
		c1.7,0.7,3,1.7,4.7,2.3c2.3-0.3,4-0.7,7-2c0.3-1.3,0.7-0.7,1.3-1.7c0,0,0-0.3-0.3-0.3c0.3,0,0.7-0.3,1-0.3c0-0.7,0.3-1,0.3-1.7
		c0.7-1.7,1.7-3,2.3-4.7c0-0.7-0.3-1.3-0.3-2c0.3-0.3,0.3-0.7,0.7-1c0-0.3-0.3-0.7-0.3-1c0,0,0.3,0,0.3-0.3s-0.3-0.7-0.3-1
		c0,0,0.3,0,0.3-0.3c-0.3-0.3-0.3-1-0.7-1.3c0,0,0.3,0,0.3-0.3s-0.3-0.7-0.3-1c0,0,0.3,0,0.3-0.3c-0.3-1-0.3-2-0.7-3
		c0,0,0.3,0,0.3-0.3c-0.3-0.7-0.7-1.3-0.7-1.7c0,0,0.3,0,0.3-0.3c-0.3-0.3-0.3-1-0.7-1.3c0,0,0.3,0,0.3-0.3
		c-0.3-0.7-0.7-1.3-0.7-1.7c0,0,0.3,0,0.3-0.3c-0.3-0.7-0.7-1.3-0.7-1.7c0,0,0.3,0,0.3-0.3c-0.3-0.7-0.7-1.3-0.7-1.7
		c0,0,0.3,0,0.3-0.3c-0.3-0.7-0.7-1.3-0.7-1.7c0,0,0.3,0,0.3-0.3c-0.3-0.7-0.7-1.3-0.7-1.7c0,0,0.3,0,0.3-0.3c-0.7-1.7-1-3.3-1.7-5
		c-0.3-2.3-1-5.7-1.3-8c-1.3-3.3-2.7-6.3-4-9.4c-1.3-11-10.7-32.1-17.4-40.8c-2.3-5.3-4.7-10.7-6.7-15.7c-4-5-7.7-12-11.7-17
		c-0.7-1.3-1-2.3-1.7-3.7c-1.7-2-3.7-5.3-5.3-7.4c-2-4-3.7-7.7-5.7-11.7c-4.3-5.3-8-13.4-12.4-18.7c-1-2.3-2-4.7-3-7.4
		c0,0-0.3,0-0.3,0.3c-0.3-1-0.7-1.7-1-2.7c0,0-0.3,0-0.3,0.3c-0.3-0.7-0.7-1.3-0.7-1.7c0,0-0.3,0-0.3,0.3c-0.3-1-1-2-1.3-3
		c0,0-0.3,0-0.3,0.3c-1-2-1.7-4-2.7-6c0,0-0.3,0-0.3,0.3c-0.7-1.3-1-2.3-1.7-3.7c0,0-0.3,0-0.3,0.3c-0.3-0.7-0.7-1.7-1-2.3
		c0,0-0.3,0-0.3,0.3c-0.3-1-1-2-1.3-3.3c0,0-0.3,0-0.3,0.3c-1.7-4-3.3-8-5.3-12.4c0,0-0.3,0-0.3,0.3c-0.7-1.3-1-2.3-1.7-3.7
		c0,0-0.3,0-0.3,0.3c-0.3-0.7-0.7-1.7-1-2.3c0,0-0.3,0-0.3,0.3c-0.3-1-0.7-1.7-1.3-2.7c0,0-0.3,0-0.3,0.3c-1-2.3-2-4.7-3-6.7
		c0,0-0.3,0-0.3,0.3c-1.7-4-3.3-8-5.3-12.4c0,0-0.3,0-0.3,0.3l-2-5c0,0-0.3,0-0.3,0.3c-0.7-1.3-1-2.3-1.7-3.7c0,0-0.3,0-0.3,0.3
		c-1.3-1.7-4.7-11-4.7-12.4c0,0,0.3,0,0.3-0.3c0-1-0.3-2-0.3-3c0.7-1,1-2.3,1.7-3.3v-1c0.3,0,0.7-0.3,1-0.3v-1c0.3,0,0.7-0.3,1-0.3
		c0,0,0-0.3-0.3-0.3c0.7-0.3,1.3-1,2-1.3c0,0,0-0.3-0.3-0.3c3.7-1.7,6.3-1.7,9-1.3c0.3,0.3,0.7,0.3,1,0.7c0.3,0,0.7-0.3,1-0.3
		c0.3,0.3,1,0.7,1.3,1c0.3,0,0.7-0.3,1-0.3c0.3,0.3,0.7,0.3,1,0.7c0.3,0,0.7-0.3,1-0.3c1,0.3,2,1,2.7,1.3c0.3,0,0.7-0.3,1-0.3
		c1.7,0.7,3.7,1.7,5.3,2.7c5,2,10.4,3.7,15.4,5.7c0,0.3,0.3,0.7,0.3,1c0.7,0.3,1.7,0.3,2.3,0.7c0,0.3,0.3,0.7,0.3,1
		c0.7,0,1,0.3,1.7,0.3c0,0.3,0.3,0.7,0.3,1l3,1c0,0.3,0.3,0.7,0.3,1c1,0.3,2,0.7,3,0.7c0,0.3,0.3,0.7,0.3,1c0.7,0.3,1.7,0.3,2.3,0.7
		c0,0.3,0.3,0.7,0.3,1c0.7,0,1.3,0.3,1.7,0.3c0,0.3,0.3,0.7,0.3,1c0.7,0,1,0.3,1.7,0.3c0,0.3,0.3,0.7,0.3,1c0.7,0,1.3,0.3,1.7,0.3
		c0,0.3,0.3,0.7,0.3,1c0.7,0,1,0.3,1.7,0.3c0,0.3,0.3,0.7,0.3,1h1c0,0.3,0.3,0.7,0.3,1c0.7,0,1.3,0.3,1.7,0.3c0,0.3,0.3,0.7,0.3,1
		c0.7,0,1,0.3,1.7,0.3c0,0.3,0.3,0.7,0.3,1c0.7,0,1.3,0.3,1.7,0.3c0,0.3,0.3,0.7,0.3,1c0.7,0,1,0.3,1.7,0.3c0,0.3,0.3,0.7,0.3,1h1
		l1,1c0,0,0.3,0,0.3-0.3c0,0.3,0.3,0.7,0.3,1h1c0,0.3,0.3,0.7,0.3,1c0.7,0,1,0.3,1.7,0.3c0,0.3,0.3,0.7,0.3,1h1c0,0.3,0.3,0.7,0.3,1
		c1,0.3,2,0.7,3,0.7c0,0.3,0.3,0.7,0.3,1c2,0.7,4.3,1.3,6.3,2c1,0.7,2.3,1,3.3,1.7c0.3,0,0.7-0.3,1-0.3c0.7,0.3,1.3,0.7,2,1.3
		c0.3,0,0.7-0.3,1-0.3c0.3,0.3,0.7,0.3,1,0.7c2,0.3,8,0,10.7-2.3c0,0,0-0.3-0.3-0.3c0.7-0.3,1.3-1,2-1.3v-1c0.3,0,0.7-0.3,1-0.3
		c0.3-1,0.7-2,0.7-3c0.3,0,0.7-0.3,1-0.3c0,0,0-0.3-0.3-0.3c0.3-0.7,0.7-1.3,1.3-2c0-0.3-0.3-0.7-0.3-1c0.7-1,1-2.3,1.7-3.3
		c0-0.3-0.3-0.7-0.3-1c0.3-0.3,0.3-0.7,0.7-1c0-0.3-0.3-0.7-0.3-1c0,0,0.3,0,0.3-0.3C1864.1,687.6,1863.8,687,1863.8,686.3
		L1863.8,686.3z M1282.1,314.1c0,0.7,0.3,1.3,0.3,2c-0.3,0.3-0.3,0.7-0.7,1c0,0.7,0.3,1.3,0.3,2c-0.3,0.3-0.7,1-1,1.3v1.7
		c0,0-0.3,0-0.3,0.3c0,0.3,0.3,0.7,0.3,1c-0.3,0.3-0.3,0.7-0.7,1c0,0.3,0.3,0.7,0.3,1c-0.7,1-1,2.3-1.7,3.3c0,0.3,0.3,0.7,0.3,1
		c0,0-0.3,0-0.3,0.3v1c-0.3,0-0.7,0.3-1,0.3l-1,3c-0.3,0-0.7,0.3-1,0.3c0,0.7-0.3,1-0.3,1.7c-0.3,0-0.7,0.3-1,0.3v1
		c-0.3,0-0.7,0.3-1,0.3v1c-0.3,0-0.7,0.3-1,0.3v1c-0.7,0.3-1,0.7-1.7,1.3v1c-0.7,0.3-1,0.7-1.7,1.3c0,0,0,0.3,0.3,0.3
		c-0.7,0.7-1.7,1.3-2.3,2c0,0,0,0.3,0.3,0.3c-5,4.3-10,9-15,13.4c-1.3,0.7-2.7,1.3-4,2.3c-2.3,2-5.7,4.3-8,6l-5,2c0,0,0,0.3,0.3,0.3
		c-2.3,1-4.7,2-6.7,3c0,0,0,0.3,0.3,0.3c-0.7,0.3-1.7,0.7-2.3,1c0,0,0,0.3,0.3,0.3c-0.7,0.3-1.7,0.7-2.3,1c0,0,0,0.3,0.3,0.3
		c-1.7,0.7-3,1.3-4.7,2c0,0,0,0.3,0.3,0.3c-2.3,1-4.7,2-7.4,3c0,0,0-0.3-0.3-0.3c-2.3,0.7-4.7,1.7-7,2.3c0,0,0-0.3-0.3-0.3
		c-3.7,1-7,2-10.7,3c0,0,0-0.3-0.3-0.3c-0.3,0.3-1,0.3-1.3,0.7c0,0,0-0.3-0.3-0.3s-0.7,0.3-1,0.3c0,0,0-0.3-0.3-0.3
		c-0.3,0-0.7,0.3-1,0.3c0,0,0-0.3-0.3-0.3c-0.3,0-0.7,0.3-1,0.3c0,0,0-0.3-0.3-0.3c-0.3,0-0.7,0.3-1,0.3c0,0,0-0.3-0.3-0.3
		c-0.3,0-0.7,0.3-1,0.3c-0.3-0.3-0.7-0.3-1-0.7c-0.3,0-0.7,0.3-1,0.3c-0.3-0.3-0.7-0.3-1-0.7c-0.3,0-0.7,0.3-1,0.3
		c-1-0.3-2-1-2.7-1.3c-0.7,0-1-0.3-1.7-0.3c0-0.3-0.3-0.7-0.3-1h-1c0-0.3-0.3-0.7-0.3-1h-1c0-0.3-0.3-0.7-0.3-1c0,0-0.3,0-0.3,0.3
		c-0.3-0.7-1-1.3-1.3-2c0,0-0.3,0-0.3,0.3c-0.3-0.7-0.7-1.3-0.7-1.7c0,0-0.3,0-0.3,0.3c-1-1.3-1.7-7.7-1.7-9c0,0,0.3,0,0.3-0.3
		s-0.3-0.7-0.3-1c0,0,0.3,0,0.3-0.3v-1.7c0.3-0.3,0.3-0.7,0.7-1c0-0.3-0.3-0.7-0.3-1c0.3-0.3,0.7-1,1-1.3c0-0.3-0.3-0.7-0.3-1
		c0.3-0.3,0.3-0.7,0.7-1c0.3-1.3,1-3,1.3-4.3c0.3,0,0.7-0.3,1-0.3c0.3-0.7,0.3-1.7,0.7-2.3c0.3,0,0.7-0.3,1-0.3v-1
		c0.3,0,0.7-0.3,1-0.3c10-15.4,26.1-27.4,40.4-41.1c2-1.3,4-2.3,6-3.7c0,0,0-0.3-0.3-0.3c0.7-0.3,1.3-0.7,1.7-0.7c0,0,0-0.3-0.3-0.3
		c1-0.7,2-1.3,3-1.7c0,0,0-0.3-0.3-0.3c0.3-0.3,1-0.3,1.3-0.7c0,0,0-0.3-0.3-0.3c0.3-0.3,1-0.3,1.3-0.7c0,0,0-0.3-0.3-0.3
		c0.7-0.3,1.3-0.7,1.7-0.7c0,0,0-0.3-0.3-0.3c0.7-0.3,1.7-0.7,2.3-1c0,0,0-0.3-0.3-0.3c0.7-0.3,1.7-0.7,2.3-1c0,0,0-0.3-0.3-0.3
		c0.7-0.3,1.7-0.7,2.3-1c0,0,0-0.3-0.3-0.3c0.7-0.3,1.3-0.7,1.7-0.7c0,0,0-0.3-0.3-0.3c1.3-1.3,4.3-1.7,5-3.3c8-3.3,14-5.7,20-4.3
		c1,0.3,2,1,2.7,1.3l3,1c0,0.3,0.3,0.7,0.3,1h1c0,0.3,0.3,0.7,0.3,1h1c0,0.3,0.3,0.7,0.3,1c0,0,0.3,0,0.3-0.3c1.3,1,6,5.7,6.3,8.7
		c0.3,3.7,0.3,7.7,0.7,11.4C1282.7,313.4,1282.4,313.8,1282.1,314.1L1282.1,314.1z M1662.7,463.8c0,0-0.3,0-0.3,0.3
		c0,0.7,0.3,1.3,0.3,2c-0.3,0.7-0.7,1.3-1.3,2c-1,2.3-1.3,5-3,7c-0.7,0.3-1,0.7-1.7,1.3c0,0,0,0.3,0.3,0.3c-3.7,4-12.4,7-19,9.7
		l-28.1,12c0,0,0-0.3-0.3-0.3c-1,0.3-1.7,0.7-2.7,1c0,0,0-0.3-0.3-0.3c-0.7,0.3-1.7,0.7-2.3,1c0,0,0-0.3-0.3-0.3
		c-0.7,0.3-1.3,0.7-1.7,0.7c0,0,0-0.3-0.3-0.3c-0.7,0.3-1.3,0.7-1.7,0.7c0,0,0-0.3-0.3-0.3c-0.7,0.3-1.3,0.7-1.7,0.7
		c0,0,0-0.3-0.3-0.3c-2,0.3-4.3,0.7-6.3,1.3c0,0,0-0.3-0.3-0.3s-0.7,0.3-1,0.3c0,0,0-0.3-0.3-0.3c-0.3,0.3-1,0.3-1.3,0.7
		c0,0,0-0.3-0.3-0.3c-0.7,0-1.3,0.3-2,0.3c0,0,0-0.3-0.3-0.3c-0.7,0-1.3,0.3-2,0.3c-0.3-0.3-0.7-0.3-1-0.7c-0.3,0-0.7,0.3-1,0.3
		c-0.3-0.3-0.7-0.3-1-0.7c-0.3,0-0.7,0.3-1,0.3c-0.7-0.3-1.3-0.7-2-1.3c-0.3,0-0.7,0.3-1,0.3l-1-1c-0.7-0.3-1.7-0.3-2.3-0.7
		c0-0.3-0.3-0.7-0.3-1h-1c0-0.3-0.3-0.7-0.3-1h-1c-0.3-0.7-0.7-1-1.3-1.7c0,0-0.3,0-0.3,0.3c-0.7-0.7-1.3-1.7-2-2.3
		c0,0-0.3,0-0.3,0.3c-0.3-0.7-0.7-1.3-0.7-1.7c-0.7-0.7-2.3-3-2.7-4.7c0,0,0.3,0,0.3-0.3c-0.3-0.3-0.3-1-0.7-1.3c0,0,0.3,0,0.3-0.3
		c0-1-0.3-2-0.3-3c0,0,0.3,0,0.3-0.3c0-0.3-0.3-0.7-0.3-1c0.3-0.3,0.3-0.7,0.7-1c0-0.7-0.3-1.3-0.3-2c0.3-0.3,0.7-1,1-1.3
		c0-0.3-0.3-0.7-0.3-1c0.3-0.3,0.7-1,1-1.3c0-0.3-0.3-0.7-0.3-1c0.3-0.3,0.3-0.7,0.7-1c0.3-0.7,0.3-1.7,0.7-2.3c0.3,0,0.7-0.3,1-0.3
		v-1c0.3,0,0.7-0.3,1-0.3v-1c0.7-0.3,1-0.7,1.7-1.3c0,0,0-0.3-0.3-0.3c0.3,0,0.7-0.3,1-0.3c0,0,0-0.3-0.3-0.3c0.3,0,0.7-0.3,1-0.3
		c0,0,0-0.3-0.3-0.3l10-8l19-8c0,0,0,0.3,0.3,0.3c1.7-0.3,3-1,4.7-1.3c0,0,0,0.3,0.3,0.3c0.7-0.3,1.3-0.7,1.7-0.7c0,0,0,0.3,0.3,0.3
		c0.7-0.3,1.3-0.7,1.7-0.7c0,0,0,0.3,0.3,0.3c0.7-0.3,1.3-0.7,1.7-0.7c0,0,0,0.3,0.3,0.3c0.3-0.3,1-0.3,1.3-0.7c0,0,0,0.3,0.3,0.3
		c0.7-0.3,1.3-0.7,1.7-0.7c0,0,0,0.3,0.3,0.3c1-0.3,2-0.3,3-0.7c0,0,0,0.3,0.3,0.3c0.3,0,0.7-0.3,1-0.3c0,0,0,0.3,0.3,0.3
		c1-0.3,2-0.3,3-0.7c0,0,0,0.3,0.3,0.3c0.3-0.3,1-0.3,1.3-0.7c0,0,0,0.3,0.3,0.3c0.3,0,0.7-0.3,1-0.3c0,0,0,0.3,0.3,0.3
		c0.3-0.3,1-0.3,1.3-0.7c0,0,0,0.3,0.3,0.3c1,0,2-0.3,3-0.3c0,0,0,0.3,0.3,0.3c0.7,0,1.3-0.3,2-0.3c0.3,0.3,0.7,0.3,0.7,0.7
		c0.7,0,1.3-0.3,2-0.3c0,0,0,0.3,0.3,0.3h1.7c0.3,0.3,0.7,0.3,1,0.7c0.3,0,0.7-0.3,1-0.3c0.3,0.3,0.7,0.3,1,0.7c0.3,0,0.7-0.3,1-0.3
		c0.3,0.3,1,0.7,1.3,1c0.3,0,0.7-0.3,1-0.3l4,2c2,0.7,4.3,1.3,6.3,2c0,0.3,0.3,0.7,0.3,1c0.7,0,1,0.3,1.7,0.3c0,0.3,0.3,0.7,0.3,1
		c0,0,0.3,0,0.3-0.3c1.3,1,5.7,6,6,9c0,0-0.3,0-0.3,0.3c0.3,0.3,0.3,1,0.7,1.3c0,0-0.3,0-0.3,0.3
		C1662.7,463.1,1662.7,463.4,1662.7,463.8L1662.7,463.8z"/>
</g>
</svg>
