<?xml version="1.0" encoding="UTF-8"?>
<svg  width="20px" height="20px" viewBox="0 0 100 100" version="1.1" xmlns="http://www.w3.org/2000/svg" xmlns:xlink="http://www.w3.org/1999/xlink">
    <!-- Generator: Sketch 54.1 (76490) - https://sketchapp.com -->
    <title>peugeot-alt</title>
    <desc>Created with Sketch.</desc>
    <g id="peugeot-alt" stroke="none" stroke-width="1" fill="none" fill-rule="evenodd">
        <path d="M46.6693878,0.303267974 C43.5203265,0.874509804 40.6782041,1.80849673 37.9686531,3.16405229 C36.5547755,3.87058824 36.1368163,4.2 34.8659592,5.60784314 C34.5113469,6.00065359 34.1358367,6.22679739 33.4370612,6.46732026 C27.5764898,8.48366013 26.7451429,9.15751634 27.7221224,11.1 C29.2444082,14.1254902 31.0494694,16.2385621 32.4907755,16.6843137 C33.7675102,17.079085 33.9601633,17.0575163 34.2292245,16.4941176 C34.6804898,15.5470588 36.8022857,14.6535948 38.8587755,14.5444444 L40.0577959,14.4810458 L40.6553469,15.1228758 C41.8053878,16.3588235 42.1939592,17.7163399 41.5376327,18.2019608 C40.538449,18.9405229 36.1831837,19.3124183 35.1807347,18.7444444 L34.6066939,18.4183007 L34.2311837,18.7941176 C34.0248163,19.0013072 33.6708571,19.2640523 33.444898,19.3784314 C32.2817959,19.9666667 32.2870204,20.3098039 33.4860408,22.1477124 C35.8860408,25.827451 37.2176327,26.430719 39.546449,24.8934641 C41.2248163,23.7856209 41.8093061,23.7261438 42.5361633,24.5901961 C43.1670204,25.3411765 42.8757551,26.0117647 40.784,28.6235294 C39.4269388,30.3176471 39.8579592,30.3718954 35.0181224,27.896732 C19.3080816,19.8627451 19.7273469,20.024183 14.5988571,20.0392157 C9.91053061,20.0529412 9.40506122,20.2189542 7.184,22.4764706 C4.9204898,24.7764706 4.56326531,25.8777778 5.46057143,27.7895425 C6.20702041,29.3803922 6.27885714,29.4124183 8.02710204,28.9326797 C10.5557551,28.2385621 12.123102,28.8941176 12.3706122,30.7503268 C12.4796735,31.569281 12.5508571,31.6183007 13.7825306,31.7163399 C15.0716735,31.8196078 16.4052245,32.4529412 18.3402449,33.8830065 C21.0576327,35.8915033 21.1418776,36.1699346 19.0886531,36.3614379 C16.1675102,36.6339869 10.7719184,37.7411765 8.33991837,38.5666667 C5.38808163,39.569281 4.6762449,40.120915 3.66138776,42.1947712 C1.70808163,46.1856209 1.68718367,47.5437908 3.54318367,49.8503268 C4.38171429,50.8928105 4.47706122,50.8980392 6.24881633,50.0039216 C9.37959184,48.424183 10.6550204,48.3810458 11.6875102,49.8196078 C12.0022857,50.2581699 12.2341224,50.4594771 12.3660408,50.4091503 C13.7936327,49.8607843 13.9804082,49.8503268 22.2174694,49.8535948 C34.2383673,49.8588235 35.0390204,50.0640523 39.5314286,54.2954248 L40.4502857,55.1607843 L39.5497143,56.6588235 C36.4737959,61.7751634 32.293551,69.324183 30.4257959,73.1346405 C28.6814694,76.6941176 28.5691429,77.251634 28.6873469,81.7366013 L28.7813878,85.3006536 L28.4476735,85.6346405 C28.0251429,86.0575163 26.7745306,86.354902 22.3539592,87.0843137 C14.4068571,88.3947712 14.2266122,88.5601307 13.3737143,95.3006536 C12.8329796,99.5771242 12.8715102,99.7013072 14.650449,99.4130719 C18.2853878,98.824183 27.749551,98.7921569 36.9688163,99.3379085 C39.9454694,99.5137255 41.9046531,99.5777778 41.9810612,99.5013072 C42.0574694,99.4248366 42.042449,98.1862745 41.9431837,96.3313725 C41.6120816,90.1411765 41.6453878,90.0143791 44.3614694,87.0156863 C45.3149388,85.9633987 48.0218776,82.9607843 50.3768163,80.3437908 C56.7866122,73.220915 57.317551,72.6581699 57.6284082,72.6581699 C57.7446531,72.6581699 58.1658776,72.9163399 58.565551,73.2320261 C60.538449,74.7934641 70.522449,82.0470588 71.5588571,82.672549 C72.5560816,83.2745098 73.9190204,83.6888889 75.4151837,83.8444444 C77.3515102,84.0457516 77.8622041,84.4287582 77.8635102,85.6810458 C77.8641633,86.6653595 77.6623673,86.7856209 75.1376327,87.3111111 C68.6285714,88.6647059 68.5012245,88.8300654 67.5986939,97.1235294 C67.3061224,99.8111111 67.099102,99.6405229 70.1090612,99.1856209 C72.1453061,98.8771242 82.2592653,98.9607843 87.354449,99.3281046 C89.6930612,99.4960784 91.6659592,99.5973856 91.739102,99.5522876 C91.8122449,99.5071895 92.2223673,98.9980392 92.6514286,98.420915 C93.0804898,97.8437908 94.3369796,96.4660131 95.4432653,95.3581699 C97.7420408,93.0588235 97.6884898,93.1856209 97.061551,91.4921569 C94.7235918,85.1732026 87.995102,73.0849673 82.8261224,65.9176471 C80.8597551,63.1901961 80.8682449,62.9849673 83.0337959,61.0509804 C91.5915102,53.4124183 91.8102857,51.196732 85.3456327,37.6633987 C79.940898,26.3496732 79.6679184,25.7104575 78.8914286,22.5352941 C77.7472653,17.8620915 79.3315918,13.8496732 82.3258776,13.8372549 C83.3825306,13.8333333 83.6437551,14.1418301 83.7678367,15.5431373 C84.2765714,21.2686275 88.0780408,27.024183 92.9910204,29.5058824 C94.789551,30.4150327 94.9182041,30.0222222 93.9928163,26.451634 C93.6597551,25.1666667 92.868898,22.0928105 92.2354286,19.6215686 C90.2279184,11.7862745 89.8125714,10.9522876 87.0964898,9.30849673 C82.5400816,6.55098039 77.5082449,8.03529412 74.5524898,13.0084967 C74.1933061,13.6124183 73.8693878,14.1065359 73.8321633,14.1065359 C72.5573878,14.1065359 67.7371429,8.90457516 67.2186122,6.96928105 C66.8385306,5.55294118 66.9573878,5.63594771 63.2995918,4.22941176 C54.6360816,0.898039216 49.7498776,-0.255555556 46.6693878,0.303267974 M42.8979592,5.70980392 C42.8979592,6.03856209 39.9030204,7.29869281 39.1219592,7.29869281 C38.7653878,7.29869281 38.6987755,6.83006536 38.9978776,6.42091503 C39.4497959,5.80261438 42.8979592,5.17385621 42.8979592,5.70980392 M79.812898,38.1058824 C83.8546939,45.672549 84.1498776,46.3039216 84.229551,47.5490196 C84.3764898,49.8379085 82.7588571,51.5431373 78.468898,53.6202614 C74.9593469,55.3202614 75.0899592,55.3862745 69.8589388,49.2339869 C65.1869388,43.7398693 64.9681633,43.3973856 65.3521633,42.1915033 C65.7244082,41.0235294 66.0437551,40.8457516 70.6530612,39.2411765 C75.7044898,37.4830065 75.8814694,37.3235294 76.0401633,34.3856209 C76.2047347,31.3477124 76.2021224,31.345098 79.812898,38.1058824" id="path0" fill="#000000"></path>
    </g>
</svg>