<?xml version="1.0" encoding="UTF-8"?>
<svg  width="20px" height="20px" viewBox="0 0 100 100" version="1.1" xmlns="http://www.w3.org/2000/svg" xmlns:xlink="http://www.w3.org/1999/xlink">
    <!-- Generator: Sketch 54.1 (76490) - https://sketchapp.com -->
    <title>peugeot</title>
    <desc>Created with Sketch.</desc>
    <g id="peugeot" stroke="none" stroke-width="1" fill="none" fill-rule="evenodd">
        <path d="M42.432,1.26915423 C40.4695,1.94378109 38.0695,3.13283582 37.0985,3.9119403 C36.128,4.69104478 33.6085,6.10895522 31.5,7.06268657 C27.099,9.05373134 26.8405,9.87462687 29.418,13.6721393 C32.018,17.5029851 34.0495,18.2880597 36.095,16.2522388 C37.541,14.8134328 40.8055,14.9825871 41.6425,16.5393035 C42.46,18.0587065 40.992,18.7616915 37.485,18.5313433 C33.0105,18.2373134 31.9405,19.8736318 34.3795,23.2820896 C36.4835,26.2218905 37.95,26.7651741 40.3895,25.5099502 C42.923,24.2064677 43.5205,24.658209 42.2895,26.9467662 C40.8295,29.6616915 40.384,29.5716418 30.103,24.4820896 C16.2995,17.6482587 9.3885,17.7293532 5.5535,24.7701493 C4.164,27.3208955 6.108,29.9024876 9.064,29.4318408 C11.3985,29.0606965 11.6985,29.1840796 12.302,30.7631841 C12.736,31.8995025 13.4665,32.5039801 14.405,32.5039801 C15.1955,32.5039801 16.928,33.1721393 18.2545,33.9885572 L20.6665,35.4731343 L16.3335,36.3472637 C7.682,38.0930348 5.4905,39.159204 3.8335,42.4293532 C0.8775,48.261194 2.6875,51.9084577 7.697,50.2164179 C9.793,49.5084577 10.916,49.4174129 11.514,49.9069652 C12.0385,50.3358209 16.2625,50.5492537 22.604,50.4666667 C33.466,50.3248756 35.4745,50.7278607 38.979,53.7532338 C40.622,55.1716418 40.623,55.1761194 39.3865,57.2716418 C30.914,71.6288557 29.338,75.1751244 29.096,80.4218905 C28.9655,83.2547264 28.8155,85.5726368 28.7625,85.5731343 C26.6845,85.5925373 17.04,87.818408 15.948,88.5303483 C14.4545,89.5039801 13.905,91.4751244 13.4875,97.3597015 L13.3335,99.5283582 L28.3335,99.6462687 L43.3335,99.7636816 L43.1025,95.0905473 L42.8715,90.4169154 L50.6395,81.7353234 L58.4075,73.0532338 L63.537,76.859204 C71.741,82.9457711 72.7225,83.5452736 75.3815,84.0950249 C78.4755,84.7348259 79.0835,86.041791 76.5475,86.6024876 C69.784,88.0975124 68.8085,89.1626866 68.0755,95.8542289 L67.6395,99.8343284 L80.2755,99.8079602 L92.911,99.781592 L95.9555,96.5288557 C97.63,94.739801 99,92.881592 99,92.3995025 C99,90.9094527 90.6435,75.2383085 86.7205,69.3716418 C82.2085,62.6243781 82.211,63.4164179 86.6845,59.0208955 C93.1035,52.7129353 93.019,50.8278607 85.611,35.038806 C80.114,23.3223881 79.2515,20.1835821 80.6275,16.9059701 C81.76,14.2089552 84.3335,13.5860697 84.3335,16.0094527 C84.3335,21.939801 93.8475,33.3159204 95.9615,29.9129353 C96.3595,29.2721393 93.6255,18.1228856 91.927,13.459204 C89.495,6.7800995 80.9035,5.59950249 76.0965,11.2835821 L74.2555,13.4606965 L71.5995,10.8800995 C70.139,9.46069652 68.7765,7.63631841 68.572,6.82587065 C68.2915,5.71393035 66.925,4.86268657 63.006,3.35870647 C53.443,-0.310447761 48.493,-0.813432836 42.432,1.26915423 M53.36,2.99402985 C61.4295,5.03283582 64.9825,6.66318408 65.4505,8.54179104 C65.6885,9.49900498 67.811,12.2731343 70.1665,14.7064677 C74.314,18.9915423 74.468,19.2746269 75.036,23.6616915 C76.4855,34.8502488 76.4915,34.838806 68.3335,36.8572139 C60.106,38.8930348 60.209,39.5716418 70.7505,52.7930348 C80.733,65.3139303 88.124,76.2447761 92.5665,85.0587065 L95.8,91.4736318 L93.5665,94.2079602 L91.3335,96.9427861 L86.3995,96.5641791 C83.686,96.3562189 80.0625,96.1855721 78.348,96.1855721 C75.2625,96.1855721 75.234,96.1656716 75.525,94.1920398 C75.8415,92.0472637 76.6305,91.7089552 86.6665,89.4159204 C92.154,88.1621891 92.1045,87.5069652 85.758,77.4253731 C70.6105,53.3621891 59.6995,44.0034826 28.25,28.1 C20.9845,24.4263682 18.9005,23.6666667 15.296,23.378607 C9.23,22.8940299 9.8195,21.6860697 15.9715,21.9955224 C20.7835,22.2373134 21.4185,22.4840796 35.8045,29.7079602 C54.061,38.8756219 53.4965,38.8094527 56.8225,32.1726368 C61.248,23.3402985 61.041,21.5930348 54.602,13.439801 C49.7855,7.34079602 44.31,6.70199005 33.912,11.0243781 C31.6925,11.9472637 30.3335,11.8039801 30.3335,10.6462687 C30.3335,10.3427861 31.6085,9.59104478 33.1665,8.9761194 C34.725,8.36119403 36.75,7.17363184 37.6665,6.33781095 C39.5665,4.60447761 45.0845,2.46766169 48.6935,2.06716418 C49.0745,2.02487562 51.1745,2.44179104 53.36,2.99402985 M40.568,5.30248756 C38.754,6.03084577 37.996,7.22636816 38.8255,8.05223881 C39.6945,8.91641791 45,6.78059701 45,5.56666667 C45,4.53880597 42.7975,4.40746269 40.568,5.30248756 M84.0645,45.7457711 C85.3065,48.639801 84.073,50.6547264 79.6965,52.880597 C76.1785,54.6701493 75.9495,54.5606965 70.9055,48.6810945 C65.7785,42.7039801 65.895,41.9189055 72.2115,39.9 C75.8815,38.7263682 77.2725,37.941791 77.8265,36.7323383 C78.593,35.058209 80.9235,38.4263682 84.0645,45.7457711 M31.9655,45.7333333 C33.12,47.0024876 33.005,47.0253731 24.4235,47.2258706 C14.998,47.4462687 13.0065,45.9527363 21.5175,45.0457711 C28.96,44.2532338 30.725,44.3691542 31.9655,45.7333333 M46.611,55.9303483 C47.722,56.738806 47.4285,57.3343284 42.6105,64.0562189 C34.6135,75.2129353 32.8025,79.0293532 33.3355,83.6004975 C33.8695,88.178607 33.512,88.5348259 27.321,89.5890547 C21.433,90.5915423 20.5435,91.0701493 20.001,93.5268657 C19.4855,95.8641791 17.6665,96.241791 17.6665,94.0114428 C17.6665,90.9716418 19.3395,89.7233831 24.495,88.9164179 C32.3995,87.6791045 32.3215,87.7482587 32.1485,82.1119403 C31.9865,76.8383085 35.118,69.2641791 41.62,59.2039801 C44.486,54.7696517 44.7645,54.5870647 46.611,55.9303483" id="path0" fill="#000000"></path>
    </g>
</svg>