<?xml version="1.0" encoding="utf-8"?>
<!-- Generator: Adobe Illustrator 21.0.0, SVG Export Plug-In . SVG Version: 6.00 Build 0)  -->
<svg version="1.1" id="Layer_1" xmlns="http://www.w3.org/2000/svg" xmlns:xlink="http://www.w3.org/1999/xlink" x="0px" y="0px"
	 viewBox="0 0 175.8 175.8" style="enable-background:new 0 0 175.8 175.8;" xml:space="preserve" width="20px" height="20px">
<g>
	<path d="M87.8,0C39.3,0-0.1,39.3-0.1,87.8c0,48.5,39.4,87.9,87.9,87.9c48.5,0,87.8-39.4,87.8-87.9C175.6,39.3,136.3,0,87.8,0z
		 M142.7,31.5l1.6-1.3l8.6,9.5l-1.5,1.2l-3.3-3.7l-4.5,4.2l-1.8-1.9l4.5-4.2L142.7,31.5z M121.7,19.7l2.7-4.2l2.2,1.4l-2.6,3.7
		c-0.5,0.8-0.2,1.6,0.6,2.1l5,3.5l3.3-5l2.2,1.4l-4.4,6.8l-8.6-5.8C120.5,22.5,121.1,20.4,121.7,19.7z M96.6,10.9
		c0.5-2.8,2.1-3.3,4.9-2.8l5.4,0.9c2.4,0.4,4,1.1,3.4,4.4c-0.6,3.2-2.2,4-4.5,3.6l-6.3-1.2C98,15.6,95.6,15.6,96.6,10.9z M72.6,8.8
		C73,8.7,73.5,8.7,74,9.1c0.1-0.2,0.3-0.6,0.8-0.6l4.8-0.8c1.3-0.2,2.9,0.7,3,1.7l0.9,5.5l-2.6,0.5l-0.8-4.8c-0.1-0.7-0.9-1.2-1.7-1
		l-2.9,0.5l1,5.9l-2.6,0.4l-0.8-4.8c-0.1-0.6-0.9-1.1-1.6-0.9l-3,0.5l1.1,5.8l-2.7,0.4L65.6,10L72.6,8.8z M41.9,20.8l1.2,1.7
		c0.4,0.6,1.4,0.8,2,0.3l4-2.8c0.4-0.4,0.4-1.7,0.1-2l-1.1-1.4l2.2-1.5l1.6,2.2c0.6,1.1-0.3,3-0.9,3.5l-2.2,1.4l2.2,3l-2.2,1.7
		l-2.2-3l-1.7,1.2c-1.2,0.7-2.9,0.5-3.6-0.3l-1.6-2.2L41.9,20.8z M25.1,37l4.5,4.1l6.9-7.6l1.4,1.4l-8.6,9.6l-5.9-5.4L25.1,37z
		 M14,64.7l3.9-8.7c0.4-0.9-1.2-1.6-1.5-0.8l-3.9,8.8L11,63.3l4.5-10.2c0.4-1,1.4-1.4,3.1-0.6c1.7,0.7,2,1.4,1.6,2.4l-3.5,7.9
		l2.4,0.9l-1,2.4L14,64.7z M87.8,155c-26.6,0-49.7-15.5-60.6-38c-1.4-0.4-2.1-0.1-3.7-0.3c-1.5-0.1-2.7-1.7-3.1-2.7h5.5l-1.1-2.5
		h-5.3l-0.9-2.9h5.3c-2.2-6.6-3.3-13.5-3.3-20.8c0-37.1,30.1-67.1,67.2-67.1c37.1,0,67.1,30,67.1,67.1S124.9,155,87.8,155z
		 M156.3,63.9l3.2-1.3l-2.9-7.1l-3.1,1.4l-1-2.5l7.2-2.9l0.9,2.4l-2.4,1.1l2.9,7l2.4-1l1,2.4l-7.1,3L156.3,63.9z"/>
	<path d="M99.8,14.3c-1.2-0.2-1.4-1.2-1.1-3c0.2-1.6,1.2-1.7,2.2-1.5l5.8,1.1c0.9,0.2,1.7,0.9,1.4,2.4c-0.3,1.4-1,2.4-2.5,2.1
		L99.8,14.3L99.8,14.3z"/>
	<path d="M134.8,130.8c1.2-1.4,2.2-2.4,3.3-3.9c-14-2-35.3-3.7-41,9.9c-4.9-3.6-16.9-3.9-20-1.5c-2.9-2.4-13-4-18.5,0.6
		c-4.8-4.9-13.1-14.7-27.3-18.6C36.9,128,45.5,137,56,143.1c2.5-4.5,12.7-8.6,20.6-3.1c3.5-2.3,14.3-4,22.6,3.3
		C99.5,137.6,106,125.4,134.8,130.8C134.8,130.8,106,125.4,134.8,130.8L134.8,130.8L134.8,130.8z"/>
	<path d="M76.7,142.3c9.6-4.3,18.8,0.2,23.5,4.8c0.2-1.9,1.8-18.9,32.2-14c-11.4,11.4-27.3,18.4-44.6,18.4
		c-10.7,0-20.4-2.6-29.2-7.2C60.2,141.1,70.2,137.4,76.7,142.3C76.7,142.3,70.2,137.4,76.7,142.3L76.7,142.3L76.7,142.3z"/>
	<path d="M100.6,25.5c-4.2-0.9-8.4-1.3-12.8-1.3c-35.2,0-63.7,28.5-63.7,63.6c0,5.8,0.8,11.3,2.2,16.6c2-20.5,14.2-35.7,20.6-42.8
		C54.3,53.6,77.3,34.2,100.6,25.5C100.6,25.5,77.3,34.2,100.6,25.5L100.6,25.5L100.6,25.5z"/>
	<path d="M92.5,108.6c-2.7-8.8-5.7-33.1,32.5-68.5l-25.3,68.5H92.5L92.5,108.6z"/>
	<path d="M104.3,108.6c1.2-5.6,16.4-7.4,43.9-1.4l-0.1,1.4H104.3L104.3,108.6z"/>
	<path d="M29.8,108.6c1.5-6.3,12-7.8,21.1-7.4c9.1,0.3,25.8,2.9,37.5,7.4H29.8L29.8,108.6z"/>
	<polygon points="28.5,111.5 29.3,114 145.8,114 146.8,111.5 	"/>
</g>
</svg>
