<?xml version="1.0" encoding="utf-8"?>
<!-- Generator: Adobe Illustrator 21.0.0, SVG Export Plug-In . SVG Version: 6.00 Build 0)  -->
<svg version="1.1" id="svg2985" inkscape:version="0.48.5 r10040" sodipodi:docname="Pontiac_logo.svg" xmlns:cc="http://creativecommons.org/ns#" xmlns:dc="http://purl.org/dc/elements/1.1/" xmlns:inkscape="http://www.inkscape.org/namespaces/inkscape" xmlns:rdf="http://www.w3.org/1999/02/22-rdf-syntax-ns#" xmlns:sodipodi="http://sodipodi.sourceforge.net/DTD/sodipodi-0.dtd" xmlns:svg="http://www.w3.org/2000/svg"
	 xmlns="http://www.w3.org/2000/svg" xmlns:xlink="http://www.w3.org/1999/xlink" x="0px" y="0px" viewBox="0 0 362 362"
	 style="enable-background:new 0 0 362 362;" xml:space="preserve" width="20px" height="20px">
<sodipodi:namedview  bordercolor="#666666" borderopacity="1" gridtolerance="10" guidetolerance="10" id="namedview2987" inkscape:current-layer="svg2985" inkscape:cx="169.60586" inkscape:cy="189.60948" inkscape:pageopacity="0" inkscape:pageshadow="2" inkscape:window-height="706" inkscape:window-maximized="1" inkscape:window-width="1366" inkscape:window-x="-8" inkscape:window-y="-8" inkscape:zoom="1.4864568" objecttolerance="10" pagecolor="#ffffff" showgrid="false">
	</sodipodi:namedview>
<g id="text3041" transform="scale(0.96431467,1.0370059)">
	<g id="g3062">
		<path d="M188.2,41.2L88.1,0c0,0,100.2,346.8,99.7,348.7L288.4,0.4L188.2,41.2z M100.4,12.8l88.1,35.8l88.1-35.4l-88.5,301.9
			C188.5,313.5,100.4,12.8,100.4,12.8z"/>
		<path d="M188.5,56.8l-78.7-31.6c0,0,78.7,265.6,78.3,267l79.1-266.7L188.5,56.8z M187.8,126.8l-6.7-23.8l-36.6-6.1l37.3-5.3
			l5.4-21.9l6.6,22.3l38.6,5.1l-39.3,5.4L187.8,126.8z"/>
	</g>
</g>
</svg>
