<?xml version="1.0" encoding="utf-8"?>
<!-- Generator: Adobe Illustrator 21.0.0, SVG Export Plug-In . SVG Version: 6.00 Build 0)  -->
<svg version="1.1" id="Ebene_1" xmlns="http://www.w3.org/2000/svg" xmlns:xlink="http://www.w3.org/1999/xlink" x="0px" y="0px"
	 viewBox="0 0 293.1 293.1" style="enable-background:new 0 0 293.1 293.1;" xml:space="preserve" width="20px" height="20px">
<g>
	<path d="M159.9,216.5c1.7-1.3,5.5-2.6,7.6-3.5c-0.1-3.2-1.4-6.2-0.6-8.9c1.4-4.8,4.7-6.9,7.9-7.3c0.2,0.1,0.4,0.5,0.2,0.6
		c-1.8,1.7-2.5,4.1-2.8,6.7c-0.1,1-0.3,4.1,0.6,6.3c1.9-1,6.5-2.6,8-2.9c0.2-3.2,0.7-6.3,1.6-8.6c1.8-4.5,5.8-8.1,9.8-6
		c0.2,0.1,0.4,0.5,0.2,0.6c-2.5,0.9-4.1,3.5-5.5,6.5c-0.4,0.9-1.8,5.7-0.2,6.7c0,0,0.1,0,0.1,0.1c2.9-0.6,3.4-0.3,6.5-0.6
		c0.5-3.1,1.9-5.8,3.1-7.8c1.8-3.5,6.5-6.3,10.7-3.8c0.2,0.1,0.4,0.6,0.1,0.6c-2.9,0.6-4.8,2.5-5.8,4.2c-0.5,0.8-3.2,4.5-1.8,6
		c0.1,0,0.3,0,0.5,0c2.5-0.1,4.3,0.4,6.9,0.9c0.8-1.9,1.5-2.1,2.3-3.1c2.9-3.5,7.8-4.7,9.5-1.4c0.2,0.2,0.2,0.6,0,0.6
		c-1.5,0.2-4,1-5.2,2.5c-0.3,0.3-1.1,1.2-1.9,2.9c3.4,2.6,5.3,4.7,6.2,8.2c0.2,0.6,0.5,4.2-0.7,2.4c-5.5-6.9-12.9-8.4-24-7.3
		c-11.9,1.1-17.4,2.9-29.3,9.3c6.6,5.9-3.3,11.7-4.9,3c-5.8,8.8-11.9-2.3-4.1-3.9C146.9,211.7,157.8,208.1,159.9,216.5L159.9,216.5z
		"/>
	<path d="M180.2,178.5c4.3-1.4,9-2.9,11.4-3.4c0.4-7,7-15.7,14.8-12.7c0.3,0.1,0.5,0.5,0.2,0.6c-2,0.6-8.4,6.7-6.2,10.6
		c1.6,0.1,6,0,7.3,0.1c1.7-7.7,8.4-13.1,16-9.6c0.3,0.1,0.5,0.6,0.2,0.6c-3,0.5-9.8,5.3-9,9.4c1.4,0.1,5.2,1.4,7.6,2.7
		c0.9-1.9,1.9-2.6,2.8-3.6c3.3-3.5,10.1-3.8,12.1-0.4c0.2,0.2,0.2,0.6,0,0.6c-2.9-0.1-5.5,0.3-8,2.5c-0.4,0.3-1.2,1.5-2.1,3.2
		c2.4,1.3,5.1,3.8,5.6,6.2c0.4,1.2,0.6,2.2,0.4,3.4c-0.1,0.3-0.7,0-0.9-0.2c-6.3-6.9-20.2-11.2-33.7-9.5c-9,1.1-17.8,3.6-25.1,6.8
		C176.1,183.6,178.3,181.2,180.2,178.5L180.2,178.5z M160.4,194.1c-0.6,0.6-1.2,1.1-1.7,1.7c3.2,4.4-1.9,7.9-3.4,3.5
		c-3.8,4.1-6.8-0.7-4.3-2.7C154.2,196.1,157.4,195.3,160.4,194.1L160.4,194.1z"/>
	<path d="M158.2,253.1c0.9-1,3.1-2.9,4.2-3.8c-3.4-5.3-1.5-12.1,1.8-12.6c0.2,0.1,0.3,0.4,0.2,0.6c-0.9,1.3-1.3,8.3,1.3,9.8
		c1.3-0.9,3.8-2.7,4.9-3c-1.9-6.4,1.4-15,7.8-13.6c0.2,0.1,0.3,0.5,0.2,0.6c-5.2,2.7-5.3,10.7-3.9,11.6c2.1-0.6,4.4-1.5,6.7-1.7
		c1-8.5,8.5-12.3,12.3-10.1c0.2,0.1,0.3,0.6,0.2,0.6c-2.1-1.2-10,6.9-7.4,9.3c1.8-0.1,3.9,0.7,6,1.2c0.9-4.7,7.5-8.6,10.3-5.6
		c0.2,0.2,0.2,0.6,0.1,0.6c-2.5,0.5-5.8,2.8-6.3,7.2c5.3,2.5,4.7,7.7,3.8,6.3c-5-6.6-15.6-5.5-23.7-3.8c-4.7,1-11.3,5.5-14.1,8.7
		c8.5,4,0.8,11.5-2.8,3c-5.9,10.4-11.7,0.9-4.8-1.9C146.6,250,155.3,245.6,158.2,253.1L158.2,253.1z"/>
	<path d="M72.6,245.2c-8.4-9.7-15.5-20.2-21.2-30.8h92v30.8L72.6,245.2L72.6,245.2z"/>
	<polygon points="187.7,94.7 255.3,94.7 255.3,121.2 187.7,121.2 	"/>
	<polygon points="255.3,54.5 235.3,47.4 212,42.7 185.8,37 161.5,35.1 143,35.1 143,63 255.2,63 	"/>
	<path d="M47.1,23.2c2.7-0.9,5.4-1.7,8.2-2.5c1-0.3,2-0.6,3.1-0.8c1.1-0.2,2.2-0.3,3.3,0l0.4,0.2c0.4,0.2,0.6,0.5,0.8,0.9
		c0.3,0.7,0.4,1.4,0.5,2.2c0.2,1.6,0.2,3.2,0,4.8c-0.1,1.3-0.3,2.6-0.8,3.7c-0.2,0.5-0.5,0.9-0.9,1.3c-0.3,0.3-0.6,0.6-0.9,0.8
		c-0.7,0.5-1.3,0.9-2.1,1.2c-1.8,0.8-3.6,1.4-5.5,2c-3.2,1.1-6.4,2.2-9.6,3.3l0,5.9c-1.6,0.6-3.2,1.3-4.8,1.9V25.9
		C41.6,25,44.3,24.1,47.1,23.2L47.1,23.2z M43.6,36.3c3.2-1.1,6.4-2.2,9.7-3.3c1-0.3,2-0.6,2.9-1l0.7-0.4l0.3-0.2l0.3-0.3l0.3-0.3
		l0.2-0.3l0.3-0.6c0.1-0.4,0.2-0.7,0.2-1.1c0.1-1,0.1-1.9-0.2-2.9l-0.2-0.5L57.9,25l-0.3-0.3l-0.4-0.2l-0.4-0.1l-0.4,0l-0.4,0
		c-1,0.1-1.9,0.4-2.9,0.7c-3.2,1-6.4,2.1-9.6,3.1L43.6,36.3L43.6,36.3z M84.3,13.1c2.2-0.4,4.3-0.8,6.5-1c0.7-0.1,1.4-0.1,2.1-0.1
		c0.3,0,0.7,0.1,1,0.2c0.3,0.1,0.5,0.2,0.8,0.4c0.2,0.2,0.4,0.3,0.6,0.5c0.2,0.2,0.3,0.5,0.4,0.7c0.2,0.4,0.3,0.7,0.3,1.1
		c0.2,1.3,0.3,2.7,0.4,4.1c0.1,1.6,0.1,3.1,0,4.6c0,0.6,0,1.3-0.1,1.9c-0.1,1.2-0.1,2.4-0.4,3.6c-0.1,0.3-0.2,0.6-0.3,0.8
		c-0.2,0.4-0.4,0.8-0.7,1.2L94.3,32l-0.9,0.6c-0.4,0.2-0.7,0.3-1.1,0.5c-1.6,0.5-3.2,0.8-4.8,1.2c-3.3,0.7-6.6,1.3-9.9,2
		c-1.6,0.3-3.2,0.6-4.8,0.8c-0.4,0.1-0.9,0.1-1.3,0.1l-1-0.1c-0.3-0.1-0.5-0.2-0.7-0.3l-0.5-0.4l-0.4-0.6l-0.6-3.3l0-8.9
		c0.1-1,0.2-2.1,0.4-3.1l0.3-0.9c0.2-0.5,0.4-0.9,0.7-1.3l0.7-0.8l0.6-0.5c0.6-0.4,1.3-0.8,2.1-1.1l3.6-1.1
		C79,14.1,81.6,13.6,84.3,13.1L84.3,13.1z M81.8,17.6l-5.2,1.2c-0.4,0.1-0.8,0.3-1.2,0.4L75,19.5l-0.4,0.3l-0.3,0.3L74,20.4
		l-0.3,0.3l-0.2,0.4c-0.2,0.3-0.3,0.7-0.4,1c-0.3,1.3-0.3,2.6-0.3,3.9c0,1.4,0,2.8,0.2,4.1l0.2,0.5l0.3,0.5l0.4,0.4l0.4,0.3l0.5,0.2
		l0.5,0.1l0.6,0c0.4,0,0.7,0,1-0.1c2-0.3,4-0.7,6-1.1c1.6-0.3,3.3-0.7,4.9-1.1c0.3-0.1,0.7-0.2,1-0.3l0.5-0.3l0.5-0.3l0.4-0.4
		l0.4-0.4l0.3-0.5l0.2-0.5l0.2-0.5c0.3-1.5,0.2-2.9,0.2-4.4c0-0.8,0-1.6-0.1-2.3l-0.1-0.6c-0.1-0.4-0.2-0.8-0.4-1.2l-0.2-0.4
		l-0.2-0.3l-0.3-0.3L90,17l-0.4-0.2l-0.4-0.1l-0.8-0.1c-0.9,0-1.7,0.1-2.5,0.2C84.5,17.1,83.1,17.4,81.8,17.6L81.8,17.6z M114.8,9.4
		c2.5-0.2,5-0.4,7.5-0.4c0.5,0,1.1,0,1.6,0c0.6,0,1.1,0.1,1.6,0.4c0.2,0.1,0.4,0.2,0.5,0.3c0.4,0.3,0.7,0.6,0.9,1.1
		c0.2,0.3,0.3,0.7,0.4,1c0.2,0.8,0.2,1.7,0.2,2.5c0,1.1,0,2.1-0.1,3.2c0,0.4-0.1,0.8-0.2,1.2l-0.2,0.4c-0.2,0.3-0.3,0.5-0.5,0.8
		l-0.5,0.4c-0.2,0.1-0.4,0.3-0.7,0.4c-0.3,0.1-0.7,0.2-1,0.3l-2.7,0.6l2.7,1.5c0.4,0.3,0.7,0.5,1,0.8l0.3,0.4c0.4,0.6,0.7,1.2,1,1.9
		c0.4,1.2,0.6,2.4,0.6,3.6c-1.6,0.1-3.2,0.1-4.8,0.2c-0.1-0.9-0.2-1.7-0.5-2.6l-0.4-1l-0.2-0.5l-0.3-0.4l-0.3-0.4l-0.4-0.3l-0.5-0.3
		c-0.3-0.1-0.6-0.2-0.9-0.2c-0.6-0.1-1.3,0-1.9,0c-3.1,0.2-6.1,0.5-9.2,0.8l-1.2,0.1v5.9c-1.6,0.2-3.2,0.4-4.8,0.5V10.6
		C106.2,10.1,110.5,9.7,114.8,9.4L114.8,9.4z M106.7,21.6c3.2-0.3,6.4-0.6,9.6-0.8c1.1-0.1,2.2-0.2,3.3-0.3c0.3,0,0.6-0.1,0.9-0.2
		l0.4-0.1l0.4-0.2l0.3-0.2l0.3-0.3l0.2-0.3l0.2-0.3c0.1-0.3,0.2-0.5,0.2-0.8c0.1-0.9,0.1-1.8,0.1-2.7c0-0.3-0.1-0.6-0.2-1l-0.2-0.3
		l-0.2-0.3l-0.3-0.3l-0.3-0.2l-0.3-0.2l-0.4-0.1c-0.3-0.1-0.6-0.1-0.9-0.1c-1.6,0-3.2,0.2-4.7,0.3c-2.8,0.2-5.5,0.5-8.3,0.7
		L106.7,21.6L106.7,21.6z M140.7,26.5c1.8,0,3.6,0,5.5,0c1.2,0,2.5,0,3.8-0.1c0.3,0,0.5-0.1,0.8-0.1c0.3-0.1,0.5-0.2,0.7-0.3
		l0.3-0.2l0.2-0.3l0.2-0.3l0.1-0.3l0.1-0.7l0-1l-0.2-1.1l-0.1-0.3l-0.1-0.3l-0.2-0.3l-0.3-0.2l-0.3-0.2l-0.7-0.2l-1.2-0.2l-1.5,0
		l-10.1,0c-1,0-2,0-2.9-0.2c-0.3-0.1-0.5-0.1-0.7-0.2l-0.3-0.2l-0.3-0.2l-0.2-0.2l-0.2-0.3l-0.2-0.3c-0.2-0.4-0.4-0.8-0.5-1.2
		c-0.2-1.1-0.2-2.3-0.2-3.4c0-1.4,0.1-2.8,0.7-4.1c0.1-0.2,0.3-0.4,0.4-0.6c0.7-0.6,1.6-0.9,2.5-1.1c0.9-0.2,1.9-0.2,2.8-0.2
		c2.2,0,4.4,0,6.6,0c3.6,0,7.3,0.1,10.9,0.2v3.2c-4.8-0.1-9.6-0.2-14.4-0.2c-1.1,0-2.2,0-3.3,0.1c-0.2,0-0.5,0.1-0.7,0.1l-0.4,0.2
		l-0.3,0.3l-0.2,0.4l-0.1,0.4l-0.1,0.7c0,0.6,0,1.1,0,1.7l0.1,0.4l0.1,0.4l0.3,0.4l0.5,0.3l0.5,0.1c5,0.1,10.1,0.2,15.1,0.4l0.6,0.1
		c0.8,0.2,1.6,0.5,2.2,1.1c0.3,0.3,0.5,0.6,0.6,0.9c0.5,1.1,0.6,2.4,0.6,3.6c0,1.4,0,2.8-0.4,4.1c-0.1,0.2-0.1,0.4-0.2,0.6l-0.3,0.4
		c-0.2,0.3-0.4,0.5-0.7,0.7c-0.5,0.3-1,0.6-1.5,0.7c-0.8,0.2-1.7,0.2-2.5,0.3c-2.5,0.1-4.9,0.1-7.4,0.1c-3.9,0-7.8,0.1-11.6,0.1
		c0-1.1,0-2.3,0-3.4c2.6-0.1,5.2-0.1,7.8-0.1L140.7,26.5L140.7,26.5L140.7,26.5L140.7,26.5z M173.8,30.9c-2-0.2-4.1-0.3-6.1-0.6
		c-0.9-0.1-1.8-0.3-2.6-0.6c-0.4-0.2-0.8-0.3-1.2-0.6c-0.3-0.2-0.5-0.4-0.8-0.6c-0.2-0.2-0.4-0.5-0.6-0.7c-0.2-0.3-0.3-0.6-0.4-0.9
		c-0.3-1.1-0.4-2.3-0.4-3.5c-0.1-2.9-0.1-5.7,0-8.6l0-0.7c0.1-1.3,0.2-2.6,1-3.7c0.3-0.3,0.5-0.6,0.9-0.8c1-0.5,2.2-0.7,3.3-0.8
		c1.2-0.1,2.3-0.1,3.5,0c2.3,0.1,4.7,0.2,7,0.4c3.4,0.3,6.7,0.6,10.1,1V14c-4.5-0.4-8.9-0.8-13.4-1.1c-1.4-0.1-2.9-0.2-4.4-0.1
		l-0.7,0.1l-0.5,0.1l-0.4,0.2l-0.4,0.3l-0.4,0.4l-0.3,0.4l-0.2,0.5c-0.1,0.3-0.2,0.6-0.2,0.9c-0.2,1.4-0.3,2.9-0.2,4.4
		c0,1.2,0,2.4,0.2,3.6c0.1,0.3,0.1,0.6,0.2,0.9l0.2,0.5l0.3,0.4l0.4,0.4l0.4,0.3l0.4,0.2l0.5,0.2c0.4,0.1,0.8,0.2,1.2,0.2
		c1.3,0.2,2.7,0.3,4,0.4c4.5,0.4,9.1,0.8,13.6,1.3c0,1.2,0,2.3,0,3.5v0.4c-2.8-0.3-5.7-0.6-8.5-0.8
		C177.6,31.2,175.7,31.1,173.8,30.9L173.8,30.9z M204.4,21.4c3.7,0.7,7.4,1.4,11.1,2.1V15c1.7,0.4,3.4,0.8,5.2,1.1V38
		c-1.7-0.4-3.4-0.8-5.2-1.2v-8.6c-3-0.6-5.9-1.2-8.9-1.8c-2.7-0.5-5.5-1-8.2-1.5v8.5c-1.7-0.3-3.4-0.5-5.2-0.8V11.3
		c1.7,0.2,3.5,0.4,5.2,0.7v8.4C200.4,20.7,202.4,21,204.4,21.4L204.4,21.4z M243.7,22.8c1.8,0.6,3.6,1.2,5.5,1.8v3.6
		c-5.3-1.8-10.7-3.5-16.1-5.2l-1.8-0.5V28c3.9,1.2,7.9,2.4,11.8,3.7c1.7,0.6,3.5,1.1,5.2,1.7v3.2c-5-1.7-10.1-3.3-15.2-4.8l-1.8-0.5
		v5.8c3.8,1.1,7.6,2.3,11.3,3.5c2.2,0.7,4.4,1.5,6.7,2.2v3.7c-7.2-2.4-14.5-4.6-21.9-6.7l-0.8-0.2V17.6
		C232.3,19.2,238,21,243.7,22.8L243.7,22.8z"/>
	<path d="M38.5,183.7c-3.2-10.7-4.9-20.7-5-29.3h67c0.2,11.3,4.9,21.7,12.3,29.3H38.5L38.5,183.7z"/>
	<path d="M30.5,22.2l1.3-0.5C69.2,7.9,106.5,0.7,143.9,0c37.4-0.6,74.7,5.3,112.1,17.9l1.4,0.5l0,1.4c-0.3,44.9-0.6,89.8-0.9,134.7
		c-0.1,23.2-12.3,55.8-35.3,84.3c-18.5,23-44.1,43.4-76.1,54.2l-1.1,0c-32.3-8.3-57.8-27.9-76.4-50.8c-23.8-29.5-36-64.7-36.1-88.6
		v0v0v0c-0.2-21.7-0.3-43.4-0.5-65L30.5,22.2L30.5,22.2z M74.1,244h68v-27.3H54.9c-0.3-0.5-0.6-1-0.8-1.5
		c4.7,8.4,10.2,16.7,16.5,24.6C71.8,241.2,72.9,242.6,74.1,244L74.1,244z M142.2,247.4h-65c16.8,18.4,38.5,33.7,65,41.1V247.4
		L142.2,247.4z M77,247.2c-0.2-0.2-0.4-0.4-0.5-0.6C76.6,246.8,76.8,247,77,247.2L77,247.2z M75.8,245.9c-0.1-0.1-0.1-0.1-0.1-0.2
		C75.7,245.8,75.8,245.9,75.8,245.9L75.8,245.9z M53,213.2h89.2v-16.1c0.7,0,1.4,0,2.1,0c0.5,0,0.9,0,1.4,0v91.5
		c-0.1,0-0.2,0.1-0.2,0.1c30.4-10.6,54.8-30.2,72.6-52.3c22.1-27.4,33.9-58.6,34.4-81c0,0.1,0,0.1,0,0.2h-64.3
		c0-0.7,0.1-1.4,0.1-2.1v-1.4h64.3c0.1-9.6,0.1-19.2,0.2-28.7h-64.5V120h64.5c0.1-7.8,0.1-15.5,0.2-23.2h-64.7v-3.4h-0.5v-0.1h65.2
		c0.1-9.4,0.1-18.7,0.2-28.1H144.7v28.2h-3.5V36.7c-35.6,0.6-71.3,7.7-107.1,21.6L34,54.7c36.8-14.2,73.6-21.2,110.3-21.5
		c36.4-0.3,72.7,6,108.9,18.5c0,1.2,0,2.4,0,3.6c0.1-11.4,0.2-22.8,0.2-34.1C216.9,9.1,180.4,3.4,144,4C107,4.6,70.1,11.7,33.2,25.4
		L35,88.6c0.2,21.2,0.3,42.4,0.5,63.7c0,0,0,0,0-0.1h65.1v1.4c0,0.7,0,1.4,0.1,2.1H35.4c0,0,0,0,0,0c0.2,8,1.9,17.3,4.8,27.1
		c0-0.1-0.1-0.2-0.1-0.3h71.4c0.6,0.7,1.2,1.4,1.9,2l2.2,1.5H41.2C44.1,194.8,48,204,53,213.2L53,213.2z M54,215.1
		c0,0,0-0.1-0.1-0.1C54,215,54,215.1,54,215.1L54,215.1z M53.9,214.9c-0.1-0.1-0.1-0.2-0.2-0.3C53.8,214.7,53.8,214.8,53.9,214.9
		L53.9,214.9z M53.3,213.9C53.3,213.8,53.3,213.8,53.3,213.9C53.3,213.8,53.3,213.8,53.3,213.9L53.3,213.9z M41,185.3
		c-0.1-0.2-0.1-0.4-0.2-0.5C40.9,185,41,185.1,41,185.3L41,185.3z M40.6,184c-0.1-0.2-0.1-0.4-0.2-0.6
		C40.5,183.6,40.6,183.8,40.6,184L40.6,184z M35.4,154.7C35.4,154.7,35.4,154.7,35.4,154.7C35.4,154.7,35.4,154.7,35.4,154.7
		L35.4,154.7z M35.4,152.5C35.4,152.5,35.4,152.5,35.4,152.5C35.4,152.5,35.4,152.5,35.4,152.5L35.4,152.5z M252.4,152.9
		c0,0,0,0.1,0,0.1C252.4,153,252.4,152.9,252.4,152.9L252.4,152.9z M252.4,153.4c0,0.1,0,0.1,0,0.2
		C252.4,153.5,252.4,153.5,252.4,153.4L252.4,153.4z M252.4,153.6c0,0,0,0.1,0,0.1C252.4,153.7,252.4,153.7,252.4,153.6L252.4,153.6
		z M252.4,154.2c0,0,0,0.1,0,0.1C252.4,154.3,252.4,154.3,252.4,154.2L252.4,154.2z M252.4,154.4c0,0,0,0.1,0,0.1
		C252.4,154.5,252.4,154.4,252.4,154.4L252.4,154.4z M252.4,154.5C252.4,154.5,252.4,154.6,252.4,154.5
		C252.4,154.6,252.4,154.5,252.4,154.5L252.4,154.5z M252.4,154.2C252.4,154.2,252.4,154.2,252.4,154.2
		C252.4,154.2,252.4,154.2,252.4,154.2C252.4,154.2,252.4,154.2,252.4,154.2c0-0.1,0-0.1,0-0.1c0,0,0,0,0,0c0,0,0,0,0,0s0,0,0,0
		c0,0,0,0,0,0c0,0,0,0,0,0c0,0,0,0,0,0V154.2L252.4,154.2z M252.4,153.9C252.4,153.9,252.4,153.9,252.4,153.9c0-0.1,0-0.1,0-0.1
		c0,0,0,0,0,0c0,0,0,0,0,0V153.9L252.4,153.9z M252.4,152.4C252.4,152.4,252.4,152.4,252.4,152.4
		C252.4,152.4,252.4,152.3,252.4,152.4c0-0.1,0-0.1,0-0.1s0,0,0,0c0,0,0,0,0,0V152.4L252.4,152.4z M252.9,93.8
		C252.9,93.8,252.9,93.8,252.9,93.8C252.9,93.8,252.9,93.8,252.9,93.8L252.9,93.8z M144.7,61.8h108.4c0,0.6,0,1.1,0,1.7
		c0-2.7,0-5.4,0-8.1c-36.1-12.6-72.2-18.9-108.4-18.7L144.7,61.8L144.7,61.8z M253.1,63.5c0,0.3,0,0.5,0,0.8
		C253.1,64,253.1,63.8,253.1,63.5L253.1,63.5z M253.1,64.5C253.1,64.5,253.1,64.5,253.1,64.5C253.1,64.5,253.1,64.5,253.1,64.5
		L253.1,64.5z M253.1,64.6c0,0.2,0,0.4,0,0.6C253.1,65,253.1,64.8,253.1,64.6L253.1,64.6z M145.3,288.8
		C145.3,288.8,145.3,288.8,145.3,288.8C145.3,288.8,145.3,288.8,145.3,288.8L145.3,288.8z M144.5,289C144.5,289,144.5,289,144.5,289
		C144.5,289,144.5,289,144.5,289L144.5,289z M144.5,289c-0.1,0-0.1,0-0.2,0.1C144.4,289.1,144.4,289.1,144.5,289L144.5,289z
		 M143.1,288.8c-0.3-0.1-0.5-0.1-0.8-0.2C142.6,288.6,142.9,288.7,143.1,288.8L143.1,288.8z M145.3,288.7
		C145.4,288.7,145.4,288.7,145.3,288.7C145.4,288.7,145.4,288.7,145.3,288.7L145.3,288.7L145.3,288.7z"/>
	<path d="M49.6,77.5c1.9-1.2,3.9-2.4,5.9-3.4c-0.3-3.1-0.6-7.9,0.2-10.5c1.5-4.8,5.9-8.7,11.1-7.8c0.3,0.1,0.5,0.4,0.3,0.5
		c-2.9,1.5-5.2,3.8-6.5,7c-0.4,0.9-1.8,7.3,0.3,7.8c0.2,0.1,0.4,0.1,0.7,0.1c3.8-1.6,7.7-3,11.7-4.2c0-3.1,0.1-7.4,1.2-9.7
		c2-4.5,7-7.8,12.4-6.2c0.3,0.1,0.5,0.5,0.3,0.6c-3.2,1.1-5.8,3-7.5,6c-0.5,0.9-2.6,7-0.4,7.8c0,0,0.1,0,0.1,0
		c3.7-0.8,7.5-1.5,11.6-2c0.5-3.1,1.3-7.1,2.7-9.2c3-4.4,9-7.4,14.6-5.3c0.3,0.1,0.5,0.5,0.2,0.6c-3.7,0.9-6.9,2.6-9.2,5.5
		c-0.6,0.8-3.7,6.4-1.9,7.7c0.2,0,0.4,0,0.6-0.1c3.2-0.3,6.9-0.4,10.4-0.2c0.9-1.9,1.8-3.6,2.8-4.7c3.5-3.6,11.2-4.9,13.5-1.8
		c0.2,0.2,0.3,0.6,0,0.6c-3.3,0.1-6.7,0.6-9.2,2.9c-0.4,0.4-1.8,1.8-2.6,3.4c5.3,0.9,9.8,2.7,11.2,6.1c0.5,1.1,0.8,2.1,0.6,3.3
		c0,0.3-0.7,0.1-0.9-0.2c-6.7-6.2-17.4-6.9-31.7-4.4c-14.5,2.5-26.6,6.8-39.6,13c5.2,5.9-3,10.4-5.7,4.2c-6.3,7.5-12.1-3.4-3.5-4.7
		C38.4,72.6,48.3,72.3,49.6,77.5L49.6,77.5z"/>
	<path d="M51.4,137.3c1.7-1.3,3.9-2.4,5.7-3.5c-1.8-2.9-2.9-7.1-2.2-9.8c1.2-4.8,4.2-7.1,7.9-6.9c0.3,0,0.5,0.4,0.3,0.5
		c-2.6,1.7-3,3.9-3.8,7.2c-0.4,1.8,0.6,4.8,1.9,5.9c3.3-1.8,3.2-1.5,6.7-2.8c-1-3.1-0.8-7.3,0.5-9.9c2-4.2,5.3-5.8,8.6-5.1
		c0.3,0.1,0.5,0.4,0.2,0.5c-2.6,1.1-7.9,5.3-4.4,13.2c3.2-1.1,3.4-1.3,7.5-2.2c0.3-3.1,0.4-6.8,1.6-9c2.5-4.5,8.4-6.6,11.1-5.5
		c0.3,0.1,0.5,0.5,0.2,0.6c-1.5,1-3.5,1.8-5.5,4.8c-1.1,1.6-3,5.3-2.5,7.8c2.9-0.4,6.7-0.6,10-0.5c0.7-1.9,2.1-4.2,3-5.3
		c0.6-0.7,1.4-1.3,2.2-1.6v11.2c-5.5-0.3-11.6,0.3-17.4,1.7c-13.1,3.1-16.5,5.5-28.2,11.8c7,4.4,0.2,11.1-4.1,4.5
		c-7.6,8.7-12.5-2.5-4.6-4.2C40.1,133.4,49.9,129.5,51.4,137.3L51.4,137.3z"/>
	<path d="M48,107.5c2-1.2,4.7-2.1,6.7-3.1c-0.2-3.1-0.6-5.9,0.3-8.5c1.6-4.7,4.1-7.1,8.1-6.7c0.3,0.1,0.5,0.4,0.3,0.6
		c-2.9,1.5-2.2,3.5-3.5,6.6c-0.4,0.9-1.4,4.7,0.7,5.3c0.2,0.1,0.4,0.1,0.7,0.1c3.8-1.5,2.4-1.4,6.3-2.4c0.1-3,0.3-7.1,1.3-9.3
		c2.1-4.3,6-6.4,9.6-5.5c0.3,0.1,0.9,0.8,0.6,0.9c-2.9,0.9-7.9,6.8-5.8,11.4c2.5-0.4,4.2-1.2,8.7-1.8c0.6-3.1,1.6-6.2,3.1-8.3
		c3.1-4.3,7.9-5.2,10.7-3.9c0.3,0.1,0.7,0.9,0.4,1c-3.7,0.8-3.8,0.4-6.2,3.3c-1.3,1.5-3.9,5.6-2,7.5c3.2-0.2,5.4-0.6,8.9-0.3
		c0.9-1.8,1.6-4.3,2.6-5.3c3.5-3.6,9.6-3.9,11.6-1.5c0.2,0.2,0.3,0.6,0,0.6c-3.3,0.1-4.5,1-7.1,3.3c-0.3,0.2-0.9,1-1.6,2h-1.9v6.2
		c-5.4-0.5-11.3-0.3-16.8,0.5c-14.5,2.2-19.8,5.5-31.8,11.3c5.1,6-3.2,10.2-5.7,3.9c-6.4,7.4-12.1-3.7-3.3-4.8
		C38,102.7,46.6,100.6,48,107.5L48,107.5z"/>
	<g>
		<path d="M186.1,95.5v58.1c0,22.9-18.7,41.5-41.8,41.5c-23,0-41.8-18.6-41.8-41.5V95.5H186.1 M188.1,93.4h-87.7v60.1
			c0,23.9,19.7,43.6,43.8,43.6c24.2,0,43.8-19.7,43.8-43.6L188.1,93.4L188.1,93.4z"/>
	</g>
	<path d="M142.4,136c0.4,0.4,1.3-0.1,1.6-0.5c0.7-1.1,0.6-2.5,0.7-3.9c0.1-1.5,0.1-2.8-0.4-4.2c-0.8-2.4-1.9-4.3-4.6-4.7
		c-0.3-0.1-0.9,0.5-0.7,0.7c1.8,1.9,2.5,1.8,3,4.7C142.5,130.9,142.2,135.8,142.4,136L142.4,136z M123.5,170.9
		c0.4,0.1,1.3-1.1,1.6-1.8c0.3-0.6,0.2-1.8,0.2-1.9c-0.1-0.2-1.1,0.2-1.6,0.2c-0.5,0-0.9-0.1-1.6-0.2c-0.7-0.1-0.6-1.7-0.7-2.6
		c-0.2-2.3-0.3-4.6-0.2-6.9c0-0.6,0.2-1.4,0.7-1.8c0.7-0.4,1.7-0.3,2.5-0.2c1.6,0.3,3.1,1.1,4.8,1.4c0.9,0.2,1.9,0.1,2.8-0.2
		c0.8-0.2,1.4-0.8,2.1-1.1c0.4-0.1,0.9-0.2,1.2,0c1.3,0.7,2.2,2,3.5,2.5c1.7,0.5,3.5,0.3,5.3,0.4c1.4,0,2.8-0.2,4.2,0
		c0.6,0.1,1.6,0.2,1.8,0.9c0.2,0.9-1.3,1.7-1.1,2.6c0.4,1.4,2,2.1,2.7,3.3c0.3,0.5,0.2,1.1,0,1.6c-0.2,0.4-0.9,0.5-1.2,0.9
		c-0.4,0.6-0.5,1.3-0.9,1.9c-0.4,0.6-1,1.1-1.6,1.6c-1.3,1-2.6,2-4.1,2.8c-0.5,0.3-1.4-0.3-1.6,0.2c-0.4,0.9-0.8,2-1.2,2.6
		c-0.4,0.6-0.9,0.7-1.2,1c-0.3,0.4-0.7,1.1-0.5,1.2c0.2,0.1,2.1,0.1,2.8,0c0.7-0.1,1.1-0.2,1.3-0.3c0.2-0.2-0.1-0.8-0.3-2
		c-0.1-1.2,3.2-1.7,4.8-2.6c1.7-1.1,3.4-2.3,5.1-3.3c0.7-0.4,1.7-0.5,2.3-1.1c0.3-0.3,0.2-0.8,0.2-1.2c0-1-0.2-2-0.2-3
		c0-0.5,0-1.1,0.4-1.4c0.3-0.3,0.9-0.4,1.2-0.2c0.6,0.3,0.7,1.2,1.2,1.6c0.8,0.6,1.8,0.8,2.7,1.2c0.8,0.4,2.2,0.4,2.3,1.2
		c0.2,1.5-0.8,2.9-1.4,4.2c-0.3,0.7-1,1.1-1.4,1.8c-0.2,0.4-0.2,0.9-0.5,1.2c-0.8,0.8-1.9,1.3-2.7,2.1c-0.6,0.6-1.1,1.2-1.4,1.9
		c-0.2,0.4-0.3,0.8-0.5,1.2c-0.3,0.4-0.8,0.5-1.1,1.1c-0.3,0.6-1,2.2-0.4,2.1c0.6-0.1,4.1-0.7,4.2-1.1c0.1-0.3-0.2-1.2-0.4-2.3
		c-0.2-1.1,2.3-1.9,3.5-2.6c0.7-0.4,1.7-0.2,2.3-0.7c0.4-0.3,0.2-1,0.3-1.4c0.3-0.7,0.5-1.5,1.1-2.1c0.7-0.8,1.9-1.1,2.5-1.9
		c0.6-1,1.3-2.2,1.1-3.3c-0.2-0.9-1.3-1.2-1.9-1.9c-0.5-0.5-1-1.1-1.2-1.8c-0.3-1-0.5-2-0.2-3c0.4-1.2,1.6-2,2.3-3
		c0.6-0.9,1.5-1.6,1.8-2.6c0.3-1.2-0.3-2.5-0.4-3.7c0-0.2-0.2-0.5,0-0.7c0.8-0.7,1.7-1.6,2.8-1.8c1-0.1,1.8,0.9,2.8,1.1
		c1,0.1,2.2,0.2,3.2-0.2c0.3-0.1,0.4-0.8,0.2-1.1c-0.7-0.6-2.2-0.4-2.5-1.2c-0.2-0.7,1.2-0.9,1.6-1.6c0.5-0.9,0.9-1.9,0.9-3
		c0-0.4-0.8-0.4-1.1-0.2c-0.5,0.3-0.5,1-0.9,1.4c-0.3,0.3-0.8,0.4-1.2,0.4c-0.4,0-1-0.2-1.2-0.5c-0.3-0.3-0.5-1-0.2-1.2
		c0.8-0.5,1.9-0.3,2.8-0.5c0.4-0.1,0.9-0.2,1.1-0.5c0.3-0.6,0.3-1.3,0-1.9c-0.1-0.3-0.6-0.3-0.9-0.2c-0.4,0.1-0.6,0.7-1.1,0.7
		c-0.6,0-1.2-0.3-1.6-0.7c-0.3-0.4-0.4-1-0.2-1.4c0.3-0.7,1.3-0.9,1.6-1.6c0.4-0.9,0.7-2,0.5-3c-0.1-0.4-0.9-0.6-1.2-0.3
		c-0.5,0.3-0.4,1-0.7,1.4c-0.4,0.6-0.6,1.5-1.2,1.8c-0.4,0.2-1.1-0.2-1.2-0.7c-0.2-0.8,0.3-1.6,0.5-2.3c0.3-0.8,0.7-1.6,1.2-2.3
		c0.5-0.7,1.5-1,1.9-1.8c0.3-0.6,0.6-1.4,0.2-1.9c-0.3-0.4-1-0.1-1.4,0.2c-0.3,0.2-0.2,0.9-0.5,1.1c-0.9,0.4-2,0.1-2.8,0.5
		c-0.7,0.4-1,1.1-1.4,1.8c-0.7,1.2-0.8,3.3-1.1,3.5c-0.3,0.3-1,0.2-1.2-0.2c-0.3-0.5,0.2-1.3-0.2-1.8c-0.3-0.3-1.1-0.3-1.4,0
		c-0.4,0.4-0.5,1-0.5,1.6c0,0.9,0.1,1.8,0.5,2.6c0.7,1.3,1.8,2.3,2.7,3.5c0.9,1.2,2,2.3,2.5,3.7c0.3,0.9,0.4,2,0,2.8
		c-0.3,0.8-1.1,1.6-1.9,1.6c-1.1-0.1-1.9-1.3-2.8-1.9c-0.9-0.6-1.8-1.4-2.8-1.6c-2.3-0.4-4.7,0-7.1,0c-2.1,0-4.3,0.3-6.4,0
		c-1-0.1-2.1-0.5-2.8-1.2c-0.7-0.7-1.2-1.7-1.2-2.6c-0.1-1.3,0.4-2.5,0.9-3.7c0.4-0.8,1-1.6,1.8-2.1c0.6-0.4,1.6-0.6,2.2-0.4
		c0.7,0.3,2.6,2.9,3,2.8c0.4-0.1,0.1-2.4-0.1-3.1c-0.4-1.1-1.6-1.7-1.9-2.8c-0.1-0.3,0.4-0.7,0.7-0.7c0.6,0,1.3,0.4,1.8,0.9
		c0.3,0.2,1.6,2.1,1.9,2c0.3-0.1-0.2-2.7-0.5-3.5c-0.5-1.1-2.1-1.9-2.2-2.2c-0.1-0.2,0-0.4,0.3-0.5c0.6,0,1.2,0.3,1.8,0.5
		c0.5,0.2,1.3,0.8,1.6,0.7c0.3-0.1,0-1-0.3-1.4c-1.1-1.3-2.6-2.1-3.7-3.3c-0.6-0.6-1.2-1.4-1.2-2.3c0-0.5,0.6-1,1.1-1.2
		c0.9-0.4,2.1-0.6,2.9-1.1c0.3-0.2,0.1-0.4-0.2-0.5c-1.3-0.5-2.7-0.7-4.1-0.7c-0.8,0-1.5,0.5-2.3,0.7c-0.5,0.2-1,0.5-1.6,0.5
		c-1,0-2.1,0.1-2.8-0.5c-0.4-0.4,0.1-1.2,0.4-1.8c0.3-0.5,0.8-0.8,1.2-1.2c0.3-0.3,1.2-0.6,0.9-0.7c-0.3-0.1-1.9-0.1-2.8,0.2
		c-0.8,0.2-1.5,0.5-2.1,1.1c-0.5,0.5-0.4,1.6-1.1,1.9c-1.2,0.7-1.8,0.5-3.1,1.1c-0.3,0.2-1,1-1.3,1.1c-1.6,0.2-4.8-0.6-4.9-0.3
		c-0.2,0.3,2.5,1.8,3,3.2c0.2,0.6-1.3-0.3-1.9-0.2c-1,0.1-2,0.3-2.8,0.7c-0.8,0.4-1.5,1.1-2.1,1.8c-0.6,0.6-0.9,1.4-1.6,1.9
		c-0.3,0.2-1-0.1-1.2,0.2c-0.3,0.4-0.4,1.3,0.1,1.3l2.8,0.2c0.5,0-0.5,1.1-0.2,1.6c0.2,0.3,0.9,0.2,1.2,0c0.4-0.2,0.6-0.8,1.1-1.1
		c0.5-0.3,1-0.7,1.6-0.7c0.7,0,1.6,0.3,1.9,0.9c0.3,0.6-0.4,1.3-0.5,1.9c-0.1,0.7,0.3,1.6-0.2,2.1c-1.5,1.4-2,0.2-4.2,3
		c-1.8,2.2-1,1-1.6,3.9c-0.1,0.6-0.2,1.2-0.7,1.6c-0.5,0.3-1.3,0.5-1.8,0.2c-1-0.5-1.6-1.5-2.3-2.5c-0.4-0.5-0.2-1.4-0.7-1.8
		c-0.7-0.4-1.7-0.4-2.5-0.2c-0.6,0.2-0.9,0.9-1.2,1.4c-0.8,1.1-1.4,2.4-2.1,3.5c-0.6,0.9-1.4,1.7-1.9,2.6c-0.3,0.5-0.1,1.1-0.4,1.6
		c-0.6,1.4-1.1,2.7-1.8,4c-0.3,0.5-0.9,0.8-1.1,1.4c-0.1,0.6,0.1,1.9,0.4,1.9c0.3,0,1.3-0.7,1.9-1.1c0.7-0.3,2-0.7,2.1-0.9
		c0.1-0.2-0.7-0.9-1.1-1.4c-0.7-0.9,0.8-2.2,1.4-3.2c0.2-0.4,0.7-0.5,0.9-0.9c0.4-0.8,0.5-1.8,0.9-2.6c0.5-1.1,1.1-2.2,1.9-3
		c0.4-0.4,1.1-0.7,1.6-0.3c0.8,0.5,0.9,1.6,1.4,2.5c0.4,0.6,0.9,1.2,1.1,1.9c0.2,0.6-0.4,1.4,0,1.9c0.5,0.6,1.5,0.8,2.3,0.9l1.8,0.2
		l0.2,2.5c0.1,0.9-1.9,0.2-2.8,0.4c-0.8,0.2-1.6,0.5-2.5,0.7c-0.8,0.2-2.3-0.5-2.5,0.4c-0.7,3.5,0.2,7,0.4,10.5
		c0,0.9-0.5,2.4,0.4,2.8l1.7,0.7c0.3,0.7,0.5,1.6,0.9,2.1C122.6,170.7,123.1,170.8,123.5,170.9L123.5,170.9z"/>
	<path d="M178.6,104.2c0-0.7-0.5-1-1.4-1h-3.4c-0.9,0-1.4,0.3-1.4,1s0.5,1,1.4,1h0.7v6.3c0,1.1,0.3,1.6,1,1.6c0.7,0,1-0.5,1-1.6
		v-6.3h0.7C178.2,105.2,178.6,104.9,178.6,104.2L178.6,104.2z M168.9,106.4c0,0.8-0.4,1.2-1.2,1.2h-0.9v-2.4h0.9
		C168.5,105.2,168.9,105.6,168.9,106.4L168.9,106.4z M171.1,112.1c0-0.4-0.2-0.8-0.6-1.3l-1.6-2c1.3-0.3,2.1-1.3,2.1-2.7
		c0-1.8-1.2-3.1-3.3-3.1h-1.5c-1.1,0-1.4,0.5-1.4,1.6v6.8c0,1.1,0.3,1.6,1,1.6c0.7,0,1-0.5,1-1.6v-2.4l2.3,3.3
		c0.4,0.5,0.7,0.8,1.1,0.8C170.7,113.1,171.1,112.7,171.1,112.1L171.1,112.1z M160.5,109h-2.1l1.1-3.6L160.5,109L160.5,109z
		 M163.3,112c0-0.2,0-0.4-0.1-0.7l-2.2-7c-0.3-0.8-0.8-1.3-1.5-1.3c-0.7,0-1.2,0.5-1.5,1.4l-2.3,6.9c-0.1,0.2-0.1,0.4-0.1,0.6
		c0,0.6,0.4,1.1,0.9,1.1c0.4,0,0.8-0.3,1-1l0.3-1h3.2l0.2,0.9c0.2,0.7,0.5,1.1,1,1.1C162.9,113.1,163.3,112.7,163.3,112L163.3,112z
		 M154.2,108.5c0-1.1-0.4-1.5-1.2-1.5h-1.3c-0.8,0-1.2,0.3-1.2,1c0,0.7,0.4,1,1.2,1h0.6c0,1.2-0.6,2-1.6,2c-1.1,0-1.9-1.2-1.9-3.1
		c0-1.9,0.8-3,1.9-3c1.1,0,1.6,0.9,2.1,0.9c0.4,0,0.8-0.5,0.8-1c0-1-1.1-2-2.8-2c-2.4,0-3.9,2-3.9,5.2c0,3.1,1.5,5.2,3.7,5.2
		C152.8,113.2,154.2,111.2,154.2,108.5L154.2,108.5z M146.4,104.2c0-0.7-0.5-1-1.4-1h-3.4c-0.9,0-1.4,0.3-1.4,1s0.5,1,1.4,1h0.7v6.3
		c0,1.1,0.3,1.6,1,1.6c0.7,0,1-0.5,1-1.6v-6.3h0.7C145.9,105.2,146.4,104.9,146.4,104.2L146.4,104.2z M139.8,104.2
		c0-0.7-0.5-1-1.4-1h-3.4c-0.9,0-1.4,0.3-1.4,1s0.5,1,1.4,1h0.7v6.3c0,1.1,0.3,1.6,1,1.6c0.7,0,1-0.5,1-1.6v-6.3h0.7
		C139.3,105.2,139.8,104.9,139.8,104.2L139.8,104.2z M132.4,108.7v-4.1c0-1.1-0.3-1.6-1-1.6c-0.7,0-1,0.5-1,1.6v3.9
		c0,1.7-0.6,2.6-1.7,2.6c-1.1,0-1.7-0.9-1.7-2.6v-3.9c0-1.1-0.3-1.6-1-1.6c-0.7,0-1,0.5-1,1.6v4.1c0,2.9,1.4,4.5,3.7,4.5
		C130.9,113.2,132.4,111.6,132.4,108.7L132.4,108.7z M124.2,104.2c0-0.7-0.5-1-1.4-1h-3.4c-0.9,0-1.4,0.3-1.4,1s0.5,1,1.4,1h0.7v6.3
		c0,1.1,0.3,1.6,1,1.6c0.7,0,1-0.5,1-1.6v-6.3h0.7C123.7,105.2,124.2,104.9,124.2,104.2L124.2,104.2z M117.3,109.9
		c0-1.5-0.8-2.4-2.4-3c-1-0.4-1.6-0.5-1.6-1.2c0-0.5,0.4-0.8,1-0.8c0.5,0,1.1,0.3,1.5,0.3c0.6,0,0.9-0.4,0.9-0.9
		c0-0.8-0.9-1.4-2.4-1.4c-1.9,0-3.1,1.3-3.1,3.1c0,1.5,0.8,2.2,2.4,2.8c0.9,0.3,1.5,0.6,1.5,1.4c0,0.6-0.4,1-1,1
		c-0.9,0-1.6-0.5-2.1-0.5c-0.6,0-1,0.4-1,1c0,0.8,1.2,1.6,2.8,1.6C116,113.2,117.3,111.8,117.3,109.9L117.3,109.9z"/>
</g>
</svg>
