<?xml version="1.0" encoding="utf-8"?>
<!-- Generator: Adobe Illustrator 21.0.0, SVG Export Plug-In . SVG Version: 6.00 Build 0)  -->
<svg version="1.1" id="svg2430" xmlns:svg="http://www.w3.org/2000/svg"
	 xmlns="http://www.w3.org/2000/svg" xmlns:xlink="http://www.w3.org/1999/xlink" x="0px" y="0px" viewBox="0 0 175.5 175.5"
	 style="enable-background:new 0 0 175.5 175.5;" xml:space="preserve" width="20px" height="20px">
<g id="layer1" transform="translate(-274.47006,-427.80075)">
	<g id="g8" transform="matrix(1.25,0,0,1.25,294.34556,427.80075)">
		<path id="path10" d="M105,2.6c-8.3-0.8-30.1-2-50.7-2c-20.6,0-42.4,1.2-50.7,2c-9.4,1-13.8,5.8-13.8,15.1
			c0,17.7,0.7,45.4,1.9,61.6c1.1,14.5,1.9,25.9,19.9,36.8c12.9,7.8,25.7,14.5,42.4,23.2l0.3,0.2l0.3-0.2
			c16.7-8.6,29.6-15.4,42.4-23.2c18-11,18.9-22.4,19.9-36.8c1.2-16.3,1.9-43.9,1.9-61.6C118.8,8.4,114.4,3.6,105,2.6z M111.4,78.9
			c-1,13.8-1.7,23-17.3,32.4c-12.2,7.4-23,13.1-39.2,21.5l-0.6,0.3l-0.6-0.3c-15.8-8.2-27-14.1-39.2-21.5
			C-1,101.9-1.7,92.8-2.7,78.9c-1.2-16.1-1.9-43.6-1.9-61.2c0-6.5,2.2-8.8,8.8-9.5c8.2-0.8,29.8-2,50.1-2c20.4,0,41.9,1.2,50.1,2
			c6.6,0.7,8.8,3.1,8.8,9.5C113.2,35.3,112.6,62.8,111.4,78.9z"/>
	</g>
	<g id="g12" transform="matrix(1.25,0,0,1.25,317.06281,455.86587)">
		<path id="path14" d="M35.3,19.6l-1.9,6.5C26.3,11.8,17.9,4.2,7.8,4.2c-11,0-16.3,7.3-17.9,9.7C-7.3,6.8,0.1,0.6,10,0.6
			C23.6,0.6,31.3,11.3,35.3,19.6z"/>
	</g>
	<g id="g16" transform="matrix(1.25,0,0,1.25,310.22081,498.04487)">
		<path id="path18" d="M-10.1,0.6C-10.1,24.5-3.1,36,7.3,36c4.8,0,8.3-3,8.3-8c0-4.2-1.8-7.5-2.6-8.9c0.3,1.4,0.5,2.9,0.5,4.7
			c0,4.1-2.8,5.5-5.1,5.5C1.6,29.4-5.4,15.9-7.3,0.6C-8.2,0.6-10.2,0.6-10.1,0.6z"/>
	</g>
	<g id="g20" transform="matrix(1.25,0,0,1.25,376.05456,455.86587)">
		<path id="path22" d="M15.1,0.6c9.9,0,17.3,6.2,20.2,13.3c-1.6-2.3-7-9.7-17.9-9.7C7.2,4.2-1.2,11.8-8.2,26.1l-1.9-6.5
			C-6.2,11.3,1.5,0.6,15.1,0.6z"/>
	</g>
	<g id="g24" transform="matrix(1.25,0,0,1.25,407.54369,498.04487)">
		<path id="path26" d="M12.7,0.6C10.8,15.9,3.8,29.4-3.1,29.4c-2.3,0-5-1.3-5-5.5c0-1.8,0.2-3.3,0.5-4.7c-0.7,1.3-2.6,4.7-2.6,8.9
			c0,4.9,3.4,8,8.3,8C8.5,36,15.5,24.5,15.5,0.6C15.6,0.6,13.6,0.6,12.7,0.6z"/>
	</g>
	<g id="g28" transform="matrix(1.25,0,0,1.25,312.02006,472.3185)">
		<path id="path30" d="M75,0.6c-8.9,0-17.6,7.1-22.7,23.4l3.4,2.3l-1.6,8L47.7,37l-1.1,7.9l3.1-3.8l3.3-1.4l-1,5.1l-5.7,2.3l-2,13.7
			l1.4,4.4l-5.5,2.2l-5.5-2.2l1.4-4.4l-2-13.7l-5.7-2.3l-1-5.1l3.3,1.4l3.1,3.8L32.6,37l-6.3-2.6l-1.6-8l3.4-2.3
			C22.9,7.7,14.2,0.6,5.4,0.6c-11,0-15.5,10.4-14.9,19h2.6C-4.7,31.8,1.4,42,6.1,42c1.4,0,2.2-1.1,2.2-2.9c0-4.3-2.9-8.8-2.9-16.9
			c0-3.8,1.2-6.1,4.1-6.1c1.9,0,3.5,2,4.4,4.2c-1.7,6.1-1.5,11.2,3.4,13.4c2.4,1.1,5.3,2.4,5.3,2.4s3.1,13.1,3.3,14.1
			c0.2,0.9,0.7,2,1.1,2.8c0.6,1,4.6,8,4.6,8s1.4,6.9,1.7,8.4c0.8,4,3.6,4,6.8,4c3.2,0,6,0,6.8-4c0.3-1.5,1.7-8.4,1.7-8.4
			s4.1-7,4.6-8c0.4-0.7,0.9-1.9,1.1-2.8c0.2-0.9,3.3-14.1,3.3-14.1s2.9-1.3,5.3-2.4c4.9-2.2,5.1-7.3,3.4-13.4
			c0.9-2.2,2.5-4.2,4.5-4.2c2.8,0,4.1,2.4,4.1,6.1c0,8.2-2.9,12.7-2.9,16.9c0,1.8,0.7,2.9,2.2,2.9c4.6,0,10.8-10.3,13-22.4h2.6
			C90.5,11,86,0.6,75,0.6z M19.2,31.4c-3.5-1.5-3.8-5.6-2.7-11l3.8,5.9l1.4,6.1C21.7,32.5,20.3,31.9,19.2,31.4z M61.2,31.4
			c-1.2,0.5-2.5,1.1-2.5,1.1l1.4-6.1l3.8-5.9C65,25.8,64.7,29.9,61.2,31.4z"/>
	</g>
</g>
</svg>
