<?xml version="1.0" encoding="utf-8"?>
<!-- Generator: Adobe Illustrator 21.0.0, SVG Export Plug-In . SVG Version: 6.00 Build 0)  -->
<svg version="1.1" id="Layer_1" xmlns="http://www.w3.org/2000/svg" xmlns:xlink="http://www.w3.org/1999/xlink" x="0px" y="0px"
	 viewBox="0 0 1326 1326" style="enable-background:new 0 0 1326 1326;" xml:space="preserve" width="20px" height="20px">
<path d="M925.7,510.6c47.7-83.5,60.6-181.8,143.3-231.4c55.1-33.1,132.2-27.6,165.3,33.1c5.6,16.5,16.6,27.6,16.6,38.6
	c16.5,49.6,49.5,104.7,27.6,159.8c-5.6,11-33.1,11-38.6,22c-16.5,82.7-49.6,154.3-77.1,231.4c-11,27.6-38.6,49.6-60.6,66.1
	c-16.5,11-44.1,11-38.6-11c0-44.1,0-88.2,16.5-132.2c16.5-33.1,11-71.6,0-104.7c-5.5-22-11-55.1-33.1-71.6c-5.6,0-16.5-5.5-22,5.5
	c-5.5,33.1,16.5,60.6,5.5,93.7c-16.5,38.6-60.6,44.1-82.7,77.1c-38.6,49.6-22,115.7-49.6,176.3c-22,49.6-60.6,93.7-88.2,143.3
	c-22,33.1,0,77.1-27.6,104.7c-22,27.6-55.1,49.6-88.2,33.1c-22-11-33.1-38.6-16.5-60.6c16.5-27.6,66.1-16.5,71.6-60.6
	c0-49.6-11-99.2,0-143.3c11-22,27.5-38.6,38.6-60.6c16.5-11,44.1-16.5,38.6-38.6c0-11-22,5.5-33.1,0c-5.5-5.5-5.5-11-5.5-16.5
	c27.5-49.6,115.7-77.1,77.1-143.3h-16.5c-5.5,0-5.5-5.5-5.5-11C887,593.3,903.6,549.2,925.7,510.6L925.7,510.6z M1168.1,830.2
	c41.9-83.8,71.6-170.8,104.7-259c0-5.5,27.6-22,38.6-5.5c5.5,11,5.5,16.5,11,27.6c5.5,33.1,5.5,71.6-5.6,104.7
	c-11,44.1-11,88.2-27.6,126.7c-11,16.5-22,33.1-33.1,55.1c-27.6,44.1-55.1,99.2-104.7,115.7c-27.6,11-66.1,33.1-93.7,0
	c-5.5-11-5.5-22,0-33.1C1096.4,912.9,1140.6,885.3,1168.1,830.2L1168.1,830.2z M620.7,284.7c-15.4-28.2-21.9-66.4-60.7-77.1
	c-24.7-6.9-16.5-33.1-27.5-38.6c-9.7-3.3-24-2.8-33.6-7.3c-11.1-5.2-17.5-15.3-28-20c-11.2-5.1-24.3-2.4-34.3-4.4
	c-7.9-2-13.4-11.2-21.3-13.6c-36.1-10.9-71.5-22.5-103.2-4.4c-27.6,11-60.6-5.6-99.2,16.5c-22,22-49.6,38.6-66.1,60.6
	c-11,16.5-27.6,22-22,44.1c198.4-77.1,303.1,154.3,435.2,264.5c27.6,22,66.1,11,71.7-22C642.8,417,653.8,345.3,620.7,284.7
	L620.7,284.7z M709.4,284.7c15.4-28.2,21.9-66.4,60.6-77.1c24.8-6.9,16.5-33.1,27.5-38.6c9.8-3.3,24-2.8,33.6-7.3
	c11.2-5.2,17.5-15.3,28.1-20c11.2-5.1,24.2-2.4,34.3-4.4c7.9-2,13.4-11.2,21.3-13.6c36-10.9,71.5-22.5,103.1-4.4
	c27.5,11,60.6-5.6,99.2,16.5c22,22,49.6,38.6,66.1,60.6c11,16.5,27.6,22,22,44.1C1006.9,163.5,902.2,394.9,770,505.1
	c-27.6,22-66.1,11-71.6-22C687.3,417,676.3,345.3,709.4,284.7L709.4,284.7z M400.3,510.6c-47.8-83.5-60.7-181.8-143.3-231.4
	c-55.1-33.1-132.2-27.6-165.3,33.1c-5.5,16.5-16.5,27.6-16.5,38.6c-16.5,49.6-49.6,104.7-27.6,159.8c5.5,11,33.1,11,38.6,22
	c16.5,82.7,49.6,154.3,77.1,231.4c11,27.6,38.6,49.6,60.6,66.1c16.5,11,44.1,11,38.6-11c0-44.1,0-88.2-16.5-132.2
	c-16.5-33.1-11-71.6,0-104.7c5.5-22,11-55.1,33.1-71.6c5.5,0,16.5-5.5,22,5.5c5.5,33.1-16.5,60.6-5.5,93.7
	c16.5,38.6,60.7,44.1,82.7,77.1c38.6,49.6,22,115.7,49.6,176.3c22,49.6,60.6,93.7,88.2,143.3c22,33.1,0,77.1,27.6,104.7
	c22,27.6,55.1,49.6,88.2,33.1c22-11,33.1-38.6,16.5-60.6c-16.5-27.6-66.1-16.5-71.6-60.6c0-49.6,11-99.2,0-143.3
	c-11-22-27.6-38.6-38.6-60.6c-16.5-11-44.1-16.5-38.6-38.6c0-11,22,5.5,33.1,0c5.6-5.5,5.6-11,5.6-16.5
	C510.6,714.6,422.4,687,461,620.9h16.5c5.6,0,5.6-5.5,5.6-11C439,593.3,422.4,549.2,400.3,510.6L400.3,510.6z M157.9,830.2
	c-41.9-83.8-71.6-170.8-104.7-259c0-5.5-27.6-22-38.6-5.5c-5.6,11-5.6,16.5-11,27.6c-5.5,33.1-5.5,71.6,5.5,104.7
	c11,44.1,11,88.2,27.6,126.7c11,16.5,22,33.1,33.1,55.1c27.6,44.1,55.1,99.2,104.6,115.7c27.6,11,66.1,33.1,93.7,0
	c5.5-11,5.5-22,0-33.1C229.5,912.9,185.4,885.3,157.9,830.2L157.9,830.2z M724.5,1180.8c0.5-26.2-68.2-23.4-68.2-23.4
	s-68.2-2.8-68.2,23.4s50.3,35.8,68.9,35.8C657.1,1216.6,723.8,1218,724.5,1180.8z"/>
</svg>
