<?xml version="1.0" encoding="UTF-8"?>
<svg  width="20px" height="20px" viewBox="0 0 100 100" version="1.1" xmlns="http://www.w3.org/2000/svg" xmlns:xlink="http://www.w3.org/1999/xlink">
    <!-- Generator: Sketch 54.1 (76490) - https://sketchapp.com -->
    <title>renault-alt</title>
    <desc>Created with Sketch.</desc>
    <g id="renault-alt" stroke="none" stroke-width="1" fill="none" fill-rule="evenodd">
        <path d="M63.6563103,52.9267231 C58.339828,64.3556155 43.9701597,90.8737346 40.9889415,95.9493422 C40.7979638,96.2694635 40.6420923,96.5249989 40.5241355,96.7117364 C40.0817974,97.38708 39.699842,97.7788074 39.376865,97.763363 C39.376865,97.763363 44.6891346,88.0389762 48.8400913,77.6322255 C44.1723714,69.0282633 40.1576268,61.0673518 36.3029665,52.8789857 C35.6120765,51.4215913 35.2820783,50.6985103 35.286291,49.9796414 L35.286291,49.9782374 C35.286291,49.9768333 35.286291,49.9754293 35.286291,49.9754293 C35.2876953,49.2635806 35.631736,48.5447117 36.3127962,47.0788931 C41.8918729,35.0813642 55.552396,9.34950788 59.5095664,3.22367774 C59.9701597,2.510425 60.2159031,2.24365725 60.5459014,2.24365725 C60.5571353,2.24365725 60.5655608,2.24365725 60.5767948,2.24365725 C60.5767948,2.24365725 55.0609093,12.5647614 51.1248025,22.3761987 C55.7925224,30.9773528 59.8227137,38.9579209 63.6801826,47.144883 C64.362647,48.5994693 64.696858,49.2986816 64.696858,50.0105303 C64.696858,50.723783 64.3387748,51.4580964 63.6563103,52.9267231 Z M89.2978761,47.3077517 C87.8458838,44.2778316 83.32561,35.3832329 79.4948218,28.438847 C74.2429349,18.9194502 64.8653677,3.24754644 63.8009479,1.81823287 C62.7491662,0.407171841 62.1593821,0.343990003 61.1862384,0.242899064 L61.0430051,0.226050574 C59.6247148,0.0716060823 53.6159382,0 50,0 C46.9036335,0 40.3247323,0.0800303273 38.7926979,0.233070778 C37.3491311,0.376282942 36.9587502,0.818555804 36.135861,1.89405108 C35.0040372,3.36969799 25.4705986,19.4866827 20.5051782,28.438847 C16.9131122,34.9114752 11.2273126,46.1030847 10.6979112,47.3077517 C10.2218712,48.3944793 10,49.2509442 10,49.999298 C10,50.7981972 10.2218712,51.651854 10.7007197,52.6894402 C11.8929261,55.2742794 15.4878006,62.4334836 20.5051782,71.5583449 C25.7388099,81.0777417 35.1950149,96.8100192 36.1976479,98.178959 C37.257855,99.6265251 37.9501492,99.6854949 38.9078462,99.7725454 C40.362647,99.9017171 46.6410391,100 50,100 C53.6271722,100 60.1878181,99.8553838 61.0921538,99.7725454 C61.9880639,99.691111 62.7618045,99.620909 63.8009479,98.178959 C64.7544322,96.8577566 74.9253993,79.9081757 79.4948218,71.5583449 C83.8746709,63.5581203 88.7375812,53.9460568 89.2978761,52.6894402 C89.9157451,51.3106721 90,50.5819749 90,49.9978939 C90,49.5401766 89.9087239,48.5798127 89.2978761,47.3077517 L89.2978761,47.3077517 Z" id="Fill-1" fill="#010000"></path>
    </g>
</svg>