<?xml version="1.0" encoding="UTF-8"?>
<svg  width="20px" height="20px" viewBox="0 0 100 100" version="1.1" xmlns="http://www.w3.org/2000/svg" xmlns:xlink="http://www.w3.org/1999/xlink">
    <!-- Generator: Sketch 54.1 (76490) - https://sketchapp.com -->
    <title>renault</title>
    <desc>Created with Sketch.</desc>
    <g id="renault" stroke="none" stroke-width="1" fill="none" fill-rule="evenodd">
        <path d="M37.4290909,1.05590909 C37.1186364,1.61590909 35.0836364,5.27 32.9072727,9.17636364 C30.7309091,13.0822727 28.0245455,17.9404545 26.8931818,19.9718182 C25.7618182,22.0027273 23.5886364,25.9018182 22.0640909,28.6363636 C20.5395455,31.3709091 18.1527273,35.6536364 16.7595455,38.1536364 C15.3663636,40.6536364 13.3286364,44.31 12.2309091,46.2795455 L10.235,49.8604545 L11.1431818,51.4881818 C11.6427273,52.3831818 14.5327273,57.5472727 17.5654545,62.9640909 C20.5986364,68.3809091 25.2859091,76.7540909 27.9813636,81.5718182 C32.5259091,89.6931818 35.8540909,95.6381818 37.5640909,98.6886364 L38.2672727,99.9431818 L49.9336364,99.9409091 L61.6004545,99.9390909 L62.0863636,99.065 C63.005,97.4122727 68.145,88.22 79.7572727,67.4622727 C82.0736364,63.3213636 85.235,57.6672727 86.7827273,54.8972727 L89.5959091,49.8613636 L86.7340909,44.7177273 C82.7145455,37.4922727 67.5345455,10.1981818 64.4527273,4.65454545 L61.8863636,0.0377272727 L49.94,0.0377272727 L37.9940909,0.0377272727 L37.4290909,1.05590909 M64.6336364,6.59545455 C66.4459091,9.83772727 69.44,15.1963636 71.2877273,18.5036364 C73.1354545,21.8109091 75.445,25.9445455 76.4204545,27.6895455 C84.7268182,42.5481818 88.6490909,49.5827273 88.6959091,49.7045455 C88.7454545,49.8327273 87.6045455,49.8486364 78.24,49.8486364 L67.7286364,49.8486364 L67.3095455,49.1145455 C67.0795455,48.7109091 66.2709091,47.3154545 65.5131818,46.0131818 C62.8531818,41.4427273 58.0527273,33.1822727 55.3045455,28.4468182 C53.7781818,25.8168182 52.3690909,23.3936364 52.1731818,23.0618182 L51.8168182,22.4590909 L52.0968182,21.8018182 C52.2509091,21.44 53.0827273,19.5804545 53.9454545,17.6695455 C56.8718182,11.1877273 59.5645455,5.08 59.5645455,4.92409091 C59.5645455,4.89272727 59.2981818,4.86863636 58.9727273,4.87045455 L58.3809091,4.87363636 L56.5677273,8.06636364 C55.5704545,9.82272727 52.1236364,15.8831818 48.9081818,21.5340909 C42.0890909,33.5186364 41.5754545,34.4218182 36.6140909,43.1427273 C34.5490909,46.7722727 32.86,49.7659091 32.86,49.795 C32.86,49.8245455 33.8718182,49.8495455 35.1090909,49.8509091 L37.3581818,49.8531818 L38.5313636,51.9577273 C39.6240909,53.9172727 47.6640909,68.2936364 49.2681818,71.1554545 C49.6618182,71.8586364 50.015,72.4336364 50.0527273,72.4336364 C50.09,72.4336364 51.9104545,69.2377273 54.0981818,65.3313636 C56.2854545,61.425 59.125,56.3540909 60.4081818,54.0627273 L62.7409091,49.8959091 L65.2245455,49.8704545 C66.5909091,49.8568182 67.7081818,49.8681818 67.7081818,49.8963636 C67.7081818,49.9240909 64.7818182,55.0277273 61.205,61.2377273 C57.6281818,67.4477273 54.1495455,73.4872727 53.4745455,74.6590909 C52.7995455,75.8309091 50.7122727,79.4531818 48.8359091,82.7081818 C46.9595455,85.9636364 44.6259091,90.0118182 43.6504545,91.7045455 L41.8763636,94.7822727 L41.2386364,94.8104545 C40.745,94.8322727 40.6127273,94.8109091 40.6518182,94.7159091 C40.6795455,94.6481818 42.4322727,90.7036364 44.5463636,85.9504545 C46.6609091,81.1972727 48.4013636,77.2763636 48.4140909,77.2368182 C48.4318182,77.1827273 37.0568182,57.3004545 33.3136364,50.8427273 L32.7645455,49.8959091 L21.9240909,49.8486364 L11.0836364,49.8013636 L13.8336364,44.8768182 C15.3459091,42.1686364 16.8954545,39.3986364 17.2763636,38.7218182 C17.6577273,38.0445455 19.3872727,34.955 21.12,31.8559091 C26.39,22.4304545 29.9645455,16.0390909 31.5809091,13.1536364 C32.4272727,11.6431818 34.1309091,8.59590909 35.3677273,6.38272727 C36.6040909,4.16909091 37.8272727,1.985 38.0859091,1.52954545 L38.5559091,0.700909091 L49.9477273,0.700909091 L61.3390909,0.700909091 L64.6336364,6.59545455 M50.6263636,29.6086364 C50.8931818,30.0895455 53.4872727,34.7231818 56.3918182,39.9054545 C59.2963636,45.0877273 61.7368182,49.4622727 61.8154545,49.6268182 L61.9586364,49.9259091 L59.9213636,53.5568182 C58.8004545,55.5536364 56.19,60.2131818 54.12,63.9109091 C52.05,67.6090909 50.2854545,70.75 50.1990909,70.8913636 L50.0422727,71.1481818 L48.0172727,67.5295455 C42.5395455,57.7413636 40.2268182,53.6122727 39.235,51.8513636 C38.6381818,50.7913636 38.1690909,49.8745455 38.1922727,49.8136364 C38.2154545,49.7531818 40.4613636,45.7409091 43.1827273,40.8981818 C45.9040909,36.055 48.555,31.3363636 49.0736364,30.4118182 C49.5918182,29.4872727 50.0445455,28.7318182 50.0790909,28.7327273 C50.1136364,28.7336364 50.36,29.1277273 50.6263636,29.6086364" id="path0" fill="#000000"></path>
    </g>
</svg>