<?xml version="1.0" encoding="utf-8"?>
<!-- Generator: Adobe Illustrator 21.0.0, SVG Export Plug-In . SVG Version: 6.00 Build 0)  -->
<svg version="1.1" id="Layer_1" xmlns="http://www.w3.org/2000/svg" xmlns:xlink="http://www.w3.org/1999/xlink" x="0px" y="0px"
	 viewBox="0 0 281 281" style="enable-background:new 0 0 281 281;" xml:space="preserve" width="20px" height="20px">
<g>
	<path d="M58,89.7c6.9-9.2,15-10.9,21.3-11.1c10.2-0.2,16.4,7.6,16.4,7.6s3.5-10.9,6.2-14.8c1.2-1.6,2.5-2.8,4.2-3.5
		c-0.2,0-0.5,0-0.9,0.2L77,2.1c14.1-0.5,31,8.1,19.6,23.8c-0.2,0.7,0.5,0.9,0.9,0.5c2.1-2.1,4.9-3.5,8.1-3.5c6,0,10.9,4.9,10.9,10.9
		s-4.9,10.9-10.9,10.9c-0.7,0-1.4,0-2.3-0.2c0.7,4.4,26.1,14.6,36-4.9c-1.8,1.4-4.2,2.1-6.5,2.1c-6,0-10.9-4.9-10.9-10.9
		s4.9-10.9,10.9-10.9c2.1,0,4.2,0.7,5.8,1.6c-2.1-2.1-3.5-4.9-3.5-7.9c0-6,4.9-10.9,10.9-10.9c6,0,10.9,4.9,10.9,10.9
		c0,3-1.2,5.5-3,7.4c1.6-0.7,3.2-1.2,5.1-1.2c6,0,10.9,4.9,10.9,10.9S165,41.6,159,41.6c-2.8,0-5.1-0.9-7.2-2.5
		c2.1,7.4,19.6,21.5,37.2,5.3c-0.7,0.2-1.4,0.2-2.3,0.2c-6,0-10.9-4.9-10.9-10.9s4.9-10.9,10.9-10.9c3.2,0,6,1.4,8.1,3.5
		c0.5,0.5,1.2,0.2,0.9-0.5c-11.3-15.7,5.5-24.3,19.6-23.8l-28.2,66.3c-0.5,0-0.7-0.5-1.2-0.5c2.3,0.9,3.2,2.3,4.4,4.9
		c0,0,17.3-8.5,29.3-6.7c0,0-0.9,8.5-3.7,15.7c-2.8,7.2-6.2,12-6.2,12s19.9,20.6,17.3,43.9c-1.4,12.7-3.2,15.7-3.2,15.7
		c-6-7.6-14.6-9.2-14.6-9.2s15,14.8,12.2,31.7c-1.2,7.4-3.2,16.6-4.4,19.9c-1.8,5.3-2.5,18.7-2.5,18.7s-6.7-13.6-12.7-18.3
		c0,0,7.4,20.6-4.4,37.4c-5.1,7.2-15.7,18.3-15.7,18.3s-3.7-15-10.9-20.3c0,0,0.2,18.3-4.4,25.6c-9,14.8-35.6,23.8-35.6,23.8
		s-1.4-45.3-3.7-51.5c0,0-4.9,10.4-6.2,20.8c-0.9,6.7-1.2,14.8-1.2,14.8s-20.8-28.7-23.3-32.4c-8.3-12.7,6.9-32.8,6.9-32.8
		c-6.9,0.9-15.5,13.4-15.5,13.4s-0.9-17.6-0.9-25.2c0.2-8.3,8.3-17.6,8.3-17.6c-7.2,4.4-12.9,4.6-19.9-1.2c-7.4-5.8-9-24.3-9-24.3
		s12.9,7.2,22.4,3.7c9.5-3.2,21.5-15.9,21.5-15.9l-24.3-6.9c0,0-1.4-11.8-13.4-11.8c-11.3,0-22.2,10.6-22.2,10.6S49.3,101.2,58,89.7
		L58,89.7z M22,120.6c7.4,14.6,16.9,21,27.3,22.2s27.7-7.4,32.8-7.4s12.2,2.8,14.8,3.9c-5.8-10.4-14.8-11.8-21.7-12.7
		c-6.9-0.9-18.7,5.1-29.3,5.5C35.2,132.9,26.9,125.3,22,120.6L22,120.6z M114.7,107c6,0,10.9-4.9,10.9-10.9h-6
		c0,3.5-1.8,5.8-5.1,5.8c-3.2,0-4.6-2.3-4.6-5.8h-6C103.8,102.1,108.7,107,114.7,107L114.7,107z M94.8,117.9l35.1,10.6
		c0,0-23.3,25.6-36.3,28.7c-5.8,1.4-9,1.2-15-1.2c-0.2-0.2,4.6,12.2,15.9,8.5c12.2-3.9,26.1-7.4,9.2,12.2c-2.3,2.8-5.8,8.3-5.8,11.6
		c0,0.9,0,2.1,0,3.5c1.8-0.9,3.5-1.4,5.5-1.6c12.2-1.6,18.3,3.2,9,15.7c-3.9,5.1-9.7,16.6-6.7,21.5c0.9,1.2,4.4,6,8.5,12
		c2.1-7.9,5.1-13.9,5.1-14.1c9.9-20.8,13.9-9.5,18,0.5c2.1,5.1,3.2,22.6,3.9,40.4c6.9-3.7,14.6-8.5,18-14.1c1.8-3,3-13.2,3-20.6
		c-0.2-18.9,5.8-17.1,15.7-7.9c3,2.8,6,6,8.1,9.9c1.6-2.1,3.2-3.9,4.4-5.5c8.5-12.5,3.2-28.7,3.2-28.7c-11.1-30.7,8.3-16.2,15-11.1
		c0.5,0.2,0.7,0.7,1.2,0.9c0.9-3.7,2.3-9.7,3-15c1.6-9.5-7.2-19.2-9.5-23.1c-6.7-11.8-8.1-21.7,14.8-14.6
		c1.6-16.4-11.6-32.4-14.1-35.4c-7.2,8.1-15,15.7-15,15.7c1.8,2.1,3.7,26.6,0.7,36.5c-6.9,22-15.5,25.2-15.5,25.2
		s-0.9-15.5-6.9-25.6c0,0-0.9,17.1-6.5,27c-9,15.9-17.1,18.5-17.1,18.5c3.2-12,0.2-31.4,0.2-31.4c-6,14.1-18,17.8-18,17.8l-3-21
		l7.9-5.8l1.6,11.6c0,0,3-0.7,5.1-6.7c2.8-7.6,6.9-26.3,13.2-6.2c1.6,5.3,2.3,18,2.3,18s5.8-9.9,5.8-23.8c0-8.5,2.5-29.1,12.7-10.4
		c3,5.5,6.9,14.3,6.9,14.3s6.2-22.6-1.4-41.1c0,0,19.4-16.9,28.7-33.7c0,0-22.4,9.2-34,20.6l-6-9c0,0,5.8-5.5,15.5-11.6
		c0,0-1.8-3-7.6-3c0.5,0-60.5,0-60.5,0c-4.2,0.2-6,5.8-7.6,10.6h37.2v8.5h-9.5c0,10.2-8.3,18.5-18.5,18.5
		c-10.2,0-18.5-8.1-18.5-18.3c-3,0.2-6-1.2-8.1-3.7c0,0-3.7-4.2-8.5-3.9c-4.2,0.2-9,1.2-13.6,7.2c-1.8,2.5-3.2,6.7-3.9,11.1
		c3.7-1.4,7.6-2.3,11.8-2.3C84.9,104.2,91.6,111.2,94.8,117.9L94.8,117.9z M111.2,57.5l3.2,9.2h65.6l3-9.2H111.2L111.2,57.5z"/>
</g>
</svg>
