<?xml version="1.0" encoding="utf-8"?>
<!-- Generator: Adobe Illustrator 21.0.0, SVG Export Plug-In . SVG Version: 6.00 Build 0)  -->
<svg version="1.1" id="Layer_1" xmlns="http://www.w3.org/2000/svg" xmlns:xlink="http://www.w3.org/1999/xlink" x="0px" y="0px"
	 viewBox="0 0 281 281" style="enable-background:new 0 0 281 281;" xml:space="preserve" width="20px" height="20px">
<g>
	<path d="M281,141c0,77.6-62.9,140.5-140.5,140.5S0,218.6,0,141S62.9,0.5,140.5,0.5S281,63.4,281,141L281,141z M140.5,7.3
		C66.7,7.3,6.8,67.2,6.8,141c0,73.8,59.9,133.7,133.7,133.7S274.2,214.9,274.2,141S214.3,7.3,140.5,7.3L140.5,7.3z M141.2,13.1
		c-58.5,0-106,44.6-106,99.6v56.6c0,55,47.5,99.6,106,99.6s106-44.6,106-99.6v-56.6C247.2,57.7,199.8,13.1,141.2,13.1L141.2,13.1z
		 M240.1,148.7c1.6,6.7,2.4,13.6,2.4,20.7c0,52.4-45.3,94.8-101.3,94.8S40,221.7,40,169.3c0-7.1,0.8-14,2.4-20.7
		c15.4,37.2,53.8,63.6,98.9,63.6C186.3,212.3,224.7,185.9,240.1,148.7L240.1,148.7z M242.5,112.7v27.2
		c-13.4-40.6-53.7-70.1-101.3-70.1c-47.6,0-87.9,29.5-101.3,70.1v-27.2c0-52.4,45.3-94.8,101.3-94.8
		C197.2,17.8,242.5,60.3,242.5,112.7L242.5,112.7z M44.5,141c12.9-38.5,51.3-66.5,96.7-66.5s83.8,28,96.7,66.5
		c-12.9,38.5-51.3,66.5-96.7,66.5S57.4,179.6,44.5,141L44.5,141z"/>
	<path d="M176.3,216.3c1.1-0.2,7-2.4,7.9-3l-0.2,30.9c-0.9,0.6-8.5,3.3-9.4,3.3c-1.2-1.1-10.7-12.4-11.5-13.8l-0.3,17.2
		c-0.8,0.3-8.7,1.6-9.8,1.4c-0.8,0.3-7.7,0.6-9.2,0.5l-1.2-3.8c-1.2,0.2-11.5-0.6-12.7-0.9l-1.9,4c-1.5-0.2-7.9-1.1-9.2-1.6l2.2-5.3
		c-6.6,7.8-16,2.7-20.6,0.3c-4.5-2.4-9.5-8.8-10.3-15.4v1.8c-0.8,7-8.3,4.9-13.8,0.4c-8.6-6.5-11.2-13.9-11.2-20.4
		c0.8,1.1,7,6.7,8.8,8c-0.3,5.5,3.3,7.5,5.6,7.7c2.3,0.3,2.1-2.2,1.5-3.5c-0.6-1.3-6.7-7-8-8.6c-2.8-3-6.3-8.1-6.8-11
		c-1.1-5.8,0.5-8.4,2.8-8.7c2.3-0.4,6.6,1.4,12.2,6.8c9.2,8.6,9,13.2,8.4,15.9c-2.1-0.7-8-4.9-8.8-5.6c0.8-2.2-1.6-6.6-3.8-8
		c-3-1.8-3.9,0.7-3,3.2c0.7,2.1,5.6,6.9,7.4,8.4c2.3,2.2,8.2,7.7,8.8,10v-2.2c0.2-15.9,13.9-10.6,19.5-8c10.4,4.7,13,11.1,13,16
		c-0.9-0.2-8.9-1.8-10-2.3c0-2.6-3.2-8.3-8.3-8.2c-5.1,0.2-5,5.5-5,7.3s0.8,10,5.8,12c5,2,7.6-2.6,7.3-3.2l10.6,2.1l8.7-18.9
		c0.6,0.3,9.7,0.6,10.9,0.4l10.5,29.6l2.2-30.4c0.6-0.3,9.1-1.4,9.9-1.6c0.8,0.6,10.4,13.4,11,14.2L176.3,216.3L176.3,216.3z
		 M140.2,242.6l-3.6-13.4l-4.5,13C132.9,242.3,138.6,242.6,140.2,242.6L140.2,242.6z M211.9,196.7l8.6,21.1
		c-0.8,1.5-4.5,4.9-5.4,5.5l-1.5-3.7c-0.7,0.7-7.7,6.9-8.9,7.7l-1,6c-1.1,0.9-13,8.7-16.2,9.6l0.1-30.9c1.3-0.7,7.5-3.4,7.9-4
		l0.4,28.8l7-33.4C204.8,202.2,210.8,197.8,211.9,196.7L211.9,196.7z M211.6,214.9l-3.4-8.7l-2.2,13.6
		C207.1,218.9,210.8,215.7,211.6,214.9L211.6,214.9z"/>
	<path d="M202.9,59.5c1,0.2,4.1,0.9,5.2,0.2c5-3.4-1.7-10.5-4.4-12.6c-9.1-7.5-23.3-13-26.9-13.8c-0.2,2.1-2,24.8-2,26.6l-11.9-30.4
		c-2.3-0.9-12.4-2.2-14.5-2.1l-10.2,23.9l-11-23.2c-2.5,0.2-10.8,1.8-13.6,2.8l-9.2,25.8c0.7-2.3-0.6-4.3-2-5.5
		c-2.8-2.7-8.7,0-10.3,0.6c-1.6,0.6-6.1,3.1-7.9,2.1c-1.8-1-1.6-4,0.8-5.8c4.8-3.3,7.4-1.4,7.5-0.2c2.1-1.1,8.9-3.9,10.9-4.6
		c0-1.1-0.3-4.9-4.4-5.2c-5.8-0.4-10.9,2.5-18.6,7.9c-7.7,5.4-9.5,11.4-7.3,17.2c2.2,5.8,17.2-3.9,19-2.5c1.8,1.4-0.2,4.6-2.4,5.8
		s-5.7,2.3-6.1,0.8c-1.9,0.7-10.5,6-12.1,7.5c0.4,5,4.2,3.7,8.5,2.3c4.2-1.5,15.1-8.1,16.6-8.9c1.4-0.8,4.9-4,5.9-5.5l-1,3.3
		c1.8-0.7,8.6-3,10.2-3.4l2.1-5.6c1.4-0.6,12.1-2.2,14.3-2.6l2.5,4.7c1.1-0.3,6.6-0.5,7.6-0.5s5.9,0,7.9,0l1.8-4.6
		c1.6-0.2,13.5,1.6,14.9,1.8l2,5.1c19.5,3.6,32.9,13.1,35.6,14.5c1.3,0.8,4.6,2.2,6.3,2.2c2.8,0.2,4.4-2.6,4.4-6.9
		C211.4,66.8,206.3,61,202.9,59.5L202.9,59.5z M116.2,50.4l4-13.1l5,11.5C124.4,48.9,118,49.7,116.2,50.4L116.2,50.4z M150.5,48.7
		l5.2-11.8l4.8,13.3C159.5,49.9,151.3,48.8,150.5,48.7L150.5,48.7z M186.6,43.5c3.9,1.4,10.6,5.1,12.1,6.5c1,0.9,1.4,1.9,1,3.5
		c-0.4,1.6-2.5,1.1-3.7,0.3c-0.8-0.5-5.9-3.4-9.4-4.4L186.6,43.5L186.6,43.5z M200.4,66.4c-0.4,1.6-2.5,1.3-3.7,0.5
		c-0.8-0.5-7.8-4.5-10.9-5.4v-6.1c4.9,1.6,12.9,6.5,13.6,7.1C200.4,63.5,200.8,64.8,200.4,66.4L200.4,66.4z"/>
	<path d="M102.9,120.5c3-4,6.5-4.7,9.2-4.8c4.4-0.1,7.1,3.3,7.1,3.3s1.5-4.7,2.7-6.4c0.5-0.7,1.1-1.2,1.8-1.5c-0.1,0-0.2,0-0.4,0.1
		l-12.2-28.6c6.1-0.2,13.4,3.5,8.5,10.3c-0.1,0.3,0.2,0.4,0.4,0.2c0.9-0.9,2.1-1.5,3.5-1.5c2.6,0,4.7,2.1,4.7,4.7s-2.1,4.7-4.7,4.7
		c-0.3,0-0.6,0-1-0.1c0.3,1.9,11.3,6.3,15.6-2.1c-0.8,0.6-1.8,0.9-2.8,0.9c-2.6,0-4.7-2.1-4.7-4.7c0-2.6,2.1-4.7,4.7-4.7
		c0.9,0,1.8,0.3,2.5,0.7c-0.9-0.9-1.5-2.1-1.5-3.4c0-2.6,2.1-4.7,4.7-4.7c2.6,0,4.7,2.1,4.7,4.7c0,1.3-0.5,2.4-1.3,3.2
		c0.7-0.3,1.4-0.5,2.2-0.5c2.6,0,4.7,2.1,4.7,4.7c0,2.6-2.1,4.7-4.7,4.7c-1.2,0-2.2-0.4-3.1-1.1c0.9,3.2,8.5,9.3,16.1,2.3
		c-0.3,0.1-0.6,0.1-1,0.1c-2.6,0-4.7-2.1-4.7-4.7s2.1-4.7,4.7-4.7c1.4,0,2.6,0.6,3.5,1.5c0.2,0.2,0.5,0.1,0.4-0.2
		c-4.9-6.8,2.4-10.5,8.5-10.3l-12.2,28.7c-0.2,0-0.3-0.2-0.5-0.2c1,0.4,1.4,1,1.9,2.1c0,0,7.5-3.7,12.7-2.9c0,0-0.4,3.7-1.6,6.8
		c-1.2,3.1-2.7,5.2-2.7,5.2s8.6,8.9,7.5,19c-0.6,5.5-1.4,6.8-1.4,6.8c-2.6-3.3-6.3-4-6.3-4s6.5,6.4,5.3,13.7
		c-0.5,3.2-1.4,7.2-1.9,8.6c-0.8,2.3-1.1,8.1-1.1,8.1s-2.9-5.9-5.5-7.9c0,0,3.2,8.9-1.9,16.2c-2.2,3.1-6.8,7.9-6.8,7.9
		s-1.6-6.5-4.7-8.8c0,0,0.1,7.9-1.9,11.1c-3.9,6.4-15.4,10.3-15.4,10.3s-0.6-19.6-1.6-22.3c0,0-2.1,4.5-2.7,9
		c-0.4,2.9-0.5,6.4-0.5,6.4s-9-12.4-10.1-14c-3.6-5.5,3-14.2,3-14.2c-3,0.4-6.7,5.8-6.7,5.8s-0.4-7.6-0.4-10.9
		c0.1-3.6,3.6-7.6,3.6-7.6c-3.1,1.9-5.6,2-8.6-0.5c-3.2-2.5-3.9-10.5-3.9-10.5s5.6,3.1,9.7,1.6c4.1-1.4,9.3-6.9,9.3-6.9l-10.5-3
		c0,0-0.6-5.1-5.8-5.1c-4.9,0-9.6,4.6-9.6,4.6S99.1,125.5,102.9,120.5L102.9,120.5z M87.3,133.9c3.2,6.3,7.3,9.1,11.8,9.6
		c4.5,0.5,12-3.2,14.2-3.2c2.2,0,5.3,1.2,6.4,1.7c-2.5-4.5-6.4-5.1-9.4-5.5c-3-0.4-8.1,2.2-12.7,2.4C93,139.2,89.4,135.9,87.3,133.9
		L87.3,133.9z M127.4,128c2.6,0,4.7-2.1,4.7-4.7h-2.6c0,1.5-0.8,2.5-2.2,2.5c-1.4,0-2-1-2-2.5h-2.6C122.7,125.9,124.8,128,127.4,128
		L127.4,128z M118.8,132.7l15.2,4.6c0,0-10.1,11.1-15.7,12.4c-2.5,0.6-3.9,0.5-6.5-0.5c-0.1-0.1,2,5.3,6.9,3.7
		c5.3-1.7,11.3-3.2,4,5.3c-1,1.2-2.5,3.6-2.5,5c0,0.4,0,0.9,0,1.5c0.8-0.4,1.5-0.6,2.4-0.7c5.3-0.7,7.9,1.4,3.9,6.8
		c-1.7,2.2-4.2,7.2-2.9,9.3c0.4,0.5,1.9,2.6,3.7,5.2c0.9-3.4,2.2-6,2.2-6.1c4.3-9,6-4.1,7.8,0.2c0.9,2.2,1.4,9.8,1.7,17.5
		c3-1.6,6.3-3.7,7.8-6.1c0.8-1.3,1.3-5.7,1.3-8.9c-0.1-8.2,2.5-7.4,6.8-3.4c1.3,1.2,2.6,2.6,3.5,4.3c0.7-0.9,1.4-1.7,1.9-2.4
		c3.7-5.4,1.4-12.4,1.4-12.4c-4.8-13.3,3.6-7,6.5-4.8c0.2,0.1,0.3,0.3,0.5,0.4c0.4-1.6,1-4.2,1.3-6.5c0.7-4.1-3.1-8.3-4.1-10
		c-2.9-5.1-3.5-9.4,6.4-6.3c0.7-7.1-5-14-6.1-15.3c-3.1,3.5-6.5,6.8-6.5,6.8c0.8,0.9,1.6,11.5,0.3,15.8c-3,9.5-6.7,10.9-6.7,10.9
		s-0.4-6.7-3-11.1c0,0-0.4,7.4-2.8,11.7c-3.9,6.9-7.4,8-7.4,8c1.4-5.2,0.1-13.6,0.1-13.6c-2.6,6.1-7.8,7.7-7.8,7.7l-1.3-9.1l3.4-2.5
		l0.7,5c0,0,1.3-0.3,2.2-2.9c1.2-3.3,3-11.4,5.7-2.7c0.7,2.3,1,7.8,1,7.8s2.5-4.3,2.5-10.3c0-3.7,1.1-12.6,5.5-4.5
		c1.3,2.4,3,6.2,3,6.2s2.7-9.8-0.6-17.8c0,0,8.4-7.3,12.4-14.6c0,0-9.7,4-14.7,8.9l-2.6-3.9c0,0,2.5-2.4,6.7-5c0,0-0.8-1.3-3.3-1.3
		c0.2,0-26.2,0-26.2,0c-1.8,0.1-2.6,2.5-3.3,4.6h16.1v3.7h-4.1c0,4.4-3.6,8-8,8c-4.4,0-8-3.5-8-7.9c-1.3,0.1-2.6-0.5-3.5-1.6
		c0,0-1.6-1.8-3.7-1.7c-1.8,0.1-3.9,0.5-5.9,3.1c-0.8,1.1-1.4,2.9-1.7,4.8c1.6-0.6,3.3-1,5.1-1C114.5,126.8,117.4,129.8,118.8,132.7
		L118.8,132.7z M125.9,106.6l1.4,4h28.4l1.3-4L125.9,106.6L125.9,106.6z"/>
</g>
</svg>
