<?xml version="1.0" encoding="utf-8"?>
<!-- Generator: Adobe Illustrator 21.0.0, SVG Export Plug-In . SVG Version: 6.00 Build 0)  -->
<svg version="1.1" id="Layer_1" xmlns="http://www.w3.org/2000/svg" xmlns:xlink="http://www.w3.org/1999/xlink" x="0px" y="0px"
	 viewBox="0 0 1565.5 1565.5" style="enable-background:new 0 0 1565.5 1565.5;" xml:space="preserve" width="20px" height="20px">
<g>
	<path d="M594.3,547.8c7.2-189.7,70.2-373.1,181-527.3h790.2v38C1219.4,160.9,871.1,337.9,594.3,547.8z M1413.8,1545
		c-424.4-66-758-407.3-812.5-835.5c36.6-34.7,74.8-67.5,114.6-98.5c254.1-197.6,485.7-329.3,849.7-464.4V1545H1413.8z"/>
	<path d="M1145.5,1545c-313.4-137-546.6-423.3-610.1-768.8c-142.4,155.3-211.2,309.1-207.2,424.9c7.5,218.6,218.4,343.9,518.8,343.9
		L1145.5,1545L1145.5,1545z M518.2,607.7c-0.2-7.1-0.2-14.4-0.2-21.6c0-208.3,61-402.6,166-565.5H0v1354.3h37.7
		c0-34.8-0.4-63.3,7.4-106.2C88.1,1046.2,267.4,813.7,518.2,607.7z"/>
</g>
</svg>
