<?xml version="1.0" encoding="utf-8"?>
<!-- Generator: Adobe Illustrator 21.0.0, SVG Export Plug-In . SVG Version: 6.00 Build 0)  -->
<svg version="1.1" id="Layer_1" xmlns="http://www.w3.org/2000/svg" xmlns:xlink="http://www.w3.org/1999/xlink" x="0px" y="0px"
	 viewBox="0 0 2297.9 2297.9" style="enable-background:new 0 0 2297.9 2297.9;" xml:space="preserve" width="20px" height="20px">
<g>
	<path d="M1547.6,1072.3h-250.9c-9.3,0-16.6,6.9-16.6,15.1v84.9c0,8.3,7.3,15.2,16.6,15.2h250.9c9.3,0,16.6-6.9,16.5-15.1l0.1-85
		C1564.1,1079.2,1556.9,1072.3,1547.6,1072.3z"/>
	<path d="M1149,360L1149,360C519.5,360,9.3,711.1,9.3,1144.2c0,433,510.2,784,1139.8,784c629.4,0,1139.6-351,1139.6-784
		C2288.7,711.1,1778.3,360,1149,360z M1166.6,476.1L1166.6,476.1c420.2,5.8,770.8,220,867.6,507.5h-773.5
		C1116,873.2,1150.4,575.7,1166.6,476.1z M1621.2,1086.6v86.5c0,25.9-22,46.8-49.1,46.8h-299.8c-27.2,0-49.3-20.9-49.3-46.8v-86.5
		c0-25.7,22-46.8,49.3-46.8h299.8C1599.2,1039.9,1621.2,1060.9,1621.2,1086.6z M1178.5,1039.9v180.2H1121l0.1-180.2H1178.5z
		 M1138.7,476.1c-67.6,70.3-217.4,250-268.5,507.5H263.7C361,694.5,715,479.5,1138.7,476.1z M735.5,1172.4c0,8.2,7.2,15.1,16.5,15.1
		h324.7v32.4H727.5c-27.2,0-49.3-20.9-49.3-46.8v-86.5c0-25.7,22-46.8,49.3-46.8h349.1v32.4H751.9c-9.3,0-16.5,7.1-16.5,15.2
		L735.5,1172.4L735.5,1172.4z M234.5,1187.4L234.5,1187.4l325.8,0.1c9.6,0,16.3-5.8,16.2-14.1l-0.1-27H234.9v-59.8
		c0-26.2,22.2-46.8,49.3-46.8h349.4v32.4H305.9c-10.4,0-13.9,6.2-13.9,14.4l-0.4,27.4h342v59.4c0,26.4-21.8,46.5-49.1,46.5H269.3
		C250.1,1219.9,234.5,1206,234.5,1187.4z M256.1,1280.1h752c188.9,121.3,136.9,430.1,113.8,531.9
		C693.9,1802.8,340,1577.7,256.1,1280.1z M1149,1812.4L1149,1812.4c-1.9,0-3.7-0.1-5.7-0.1c72-82.2,250.7-306.2,274.5-532.1h621.5
		l2.6-0.8C1956.7,1583.6,1589.3,1812.4,1149,1812.4z M2064.6,1187.5c0,18.6-15.6,32.4-34.8,32.4h-21v-132.4
		c0-8.3-7.2-15.2-16.2-15.2H1723v147.7h-57.2v-180.1H2017c27,0,47.8,21,47.8,46.8L2064.6,1187.5z"/>
</g>
</svg>
