<?xml version="1.0" encoding="UTF-8"?>
<svg  width="20px" height="20px" viewBox="0 0 100 100" version="1.1" xmlns="http://www.w3.org/2000/svg" xmlns:xlink="http://www.w3.org/1999/xlink">
    <!-- Generator: Sketch 54.1 (76490) - https://sketchapp.com -->
    <title>seat</title>
    <desc>Created with Sketch.</desc>
    <g id="seat" stroke="none" stroke-width="1" fill="none" fill-rule="evenodd">
        <path d="M33.6147151,6.259177 C52.2643096,5.6065845 70.932549,6.25454868 89.5495149,7.44171163 C91.5095635,7.61064515 93.4952489,7.59676021 95.4249995,8.00636613 C96.4691158,8.25629518 97.5971342,8.65201616 98.2077558,9.59387838 C98.7647732,10.6190503 98.7764263,11.8154699 98.9209245,12.9447789 C99.3637417,18.4918151 99.4942562,24.0619929 99.9114366,29.6090291 C99.1050432,29.7062238 98.2986498,29.5835734 97.4922565,29.5581177 C83.1333272,28.8199013 68.7627449,28.2066495 54.3805095,28.1881363 C46.9318586,28.2089637 39.4738853,28.1372248 32.0322263,28.4959192 C30.228329,28.7597332 28.1867089,29.3591001 27.1449232,30.955869 C32.7756931,31.9486427 38.3948098,33.0200977 44.0232491,34.0313847 C62.6775048,37.4979931 81.3457443,40.8882342 100,44.3502143 C99.9836857,47.8631058 99.9906775,51.3759974 99.9976694,54.8888889 C89.5075638,53.1648413 79.0361031,51.3042585 68.5529894,49.5246711 C45.999612,45.6646559 23.4532264,41.7514151 0.892857143,37.9284264 C0.937138859,34.0290705 1.10494326,30.1320288 1.18651484,26.2303588 C1.32868246,23.1409581 1.24011903,20.0099026 1.94396526,16.9760417 C2.41708044,14.8354458 3.2933923,12.683279 4.92715458,11.1536207 C7.74720074,8.3812597 11.8257799,7.60138852 15.6223544,7.21029585 C21.6050474,6.6595263 27.6133772,6.47902199 33.6147151,6.259177 Z M0,43.3333333 C32.301035,49.2422138 64.5904208,55.2504225 96.8867962,61.1939524 C97.5927406,61.3648895 98.3476119,61.3787493 99.0255981,61.635155 L99.1071429,61.8199519 C98.9300743,67.0728034 98.8275609,72.3302748 98.6365132,77.5831263 C98.5130312,80.8240017 98.1682135,84.2150245 96.486062,87.0701364 C94.6827584,90.0222667 91.3231153,91.6554092 87.9984199,92.2721688 C83.0987462,93.1846034 78.0942292,93.2446624 73.1316495,93.5149278 C51.7785778,94.4758717 30.381239,93.9445806 9.063115,92.4893051 C7.35999493,92.3714971 5.62658682,92.3414676 3.97239359,91.8725455 C3.11500893,91.60459 2.22966608,91.1726273 1.74505736,90.3872405 C1.2255009,89.3569979 1.192883,88.1812277 1.06474127,87.0585866 C0.608090749,80.9302599 0.365786389,74.7903833 0.041937293,68.6551267 C11.0388275,69.348115 22.0543564,69.7361885 33.0722153,69.9787344 C43.7103086,70.1496715 54.3484019,70.1473616 64.9864953,70.2513098 C67.2813971,70.3460182 69.762687,69.9117455 71.5030846,68.3132525 C71.7570382,68.0245073 72.1694216,67.7565518 72.1274843,67.3245891 C67.3326538,66.6108111 62.5657815,65.7237861 57.7802704,64.9430192 C38.5263932,61.6790442 19.2631966,58.4450987 0.0116492481,55.162644 C-0.0116492481,51.2195405 0.0163089473,47.2764369 0,43.3333333 Z" id="Combined-Shape" fill="#19191B" fill-rule="nonzero"></path>
    </g>
</svg>