<?xml version="1.0" encoding="UTF-8"?>
<svg  width="20px" height="20px" viewBox="0 0 100 100" version="1.1" xmlns="http://www.w3.org/2000/svg" xmlns:xlink="http://www.w3.org/1999/xlink">
    <!-- Generator: Sketch 54.1 (76490) - https://sketchapp.com -->
    <title>skoda</title>
    <desc>Created with Sketch.</desc>
    <g id="skoda" stroke="none" stroke-width="1" fill="none" fill-rule="evenodd">
        <path d="M44.5574163,0.263636364 C34.0598086,1.61961722 24.8334928,5.69808612 17.4942584,12.2267943 C16.8770335,12.7751196 16.1794258,13.3875598 15.9440191,13.5870813 C15.708134,13.7870813 14.7574163,14.7698565 13.8311005,15.7712919 C-8.83205742,40.2808612 -1.78899522,79.4373206 27.9607656,94.3210526 C61.3990431,111.050718 100.641627,86.3186603 99.9703349,48.9382775 C99.8976077,44.9009569 99.8172249,43.9990431 99.2215311,40.5650718 C95.2210526,17.5076555 74.761244,0.370813397 50.8373206,0.0401913876 C47.4454545,-0.00669856459 46.345933,0.0325358852 44.5574163,0.263636364 M55.6263158,2.44114833 C85.6167464,6.11291866 104.577512,35.3339713 95.6712919,64.1564593 C91.1937799,78.6454545 79.1937799,90.6334928 64.5933014,95.2014354 C41.3,102.489952 16.4320574,91.1574163 6.54688995,68.7502392 C-0.00956937799,53.8880383 2.01961722,34.4057416 11.3976077,22.1741627 C11.4607656,22.091866 11.8947368,21.5200957 12.362201,20.9033493 C22.384689,7.6784689 39.3325359,0.446411483 55.6263158,2.44114833 M47.84689,4.84736842 C18.792823,6.50478469 -1.16746411,34.892823 7.18755981,62.6736842 C15.822488,91.3827751 49.5980861,103.771292 74.7607656,87.4574163 C75.9401914,86.692823 76.5626794,86.2497608 77.8971292,85.223445 C80.7349282,83.0411483 83.9220096,79.8177033 85.9803828,77.0483254 C86.34689,76.5550239 86.6875598,76.1177033 86.7373206,76.076555 C87.0440191,75.822488 89.6196172,71.6258373 90.3019139,70.2674641 C105.208612,40.5995215 84.4392344,5.71339713 51.3607656,4.85789474 C49.9626794,4.8215311 48.3813397,4.81722488 47.84689,4.84736842 M54.2014354,8.94736842 C88.5684211,12.1889952 103.685167,54.4913876 79.1784689,78.8425837 C56.7521531,101.126794 19.3545455,90.9799043 10.5698565,60.2272727 C9.28229665,55.7196172 8.87368421,47.6464115 9.71578947,43.3511962 C9.79043062,42.9703349 9.96124402,42.0866029 10.0956938,41.3875598 C13.9555024,21.2851675 33.3980861,6.98516746 54.2014354,8.94736842 M47.0995215,13.4200957 C45.5760766,13.561244 43.3038278,13.9444976 41.577512,14.3507177 C38.2440191,15.1349282 38.2239234,15.3933014 41.2822967,18.15311 C44.4196172,20.984689 47.2334928,24.1636364 49.2688995,27.1755981 C50.5708134,29.1019139 50.577512,29.1267943 49.7923445,29.1267943 C48.5133971,29.1267943 47.3746411,28.4880383 45.3478469,26.6334928 C41.5090909,23.1215311 35.1555024,18.637799 33.1669856,18.037799 C32.0516746,17.7014354 28.0598086,20.3937799 24.6866029,23.7578947 C22.1995215,26.237799 21.976555,26.7210526 23.0660287,27.2732057 C26.6583732,29.0947368 36.0349282,35.8473684 36.0349282,36.6133971 C36.0349282,37.5148325 33.8803828,37.1583732 31.0258373,35.7842105 C25.2578947,33.007177 19.7550239,31.2483254 18.6636364,31.8325359 C17.9401914,32.2196172 15.7038278,37.5808612 14.8956938,40.8641148 C13.8133971,45.262201 13.8894737,45.4650718 16.8277512,46.0363636 C28.5894737,48.3220096 35.6196172,54.3636364 37.6028708,63.8904306 C38.0440191,66.0076555 37.8899522,66.8129187 36.962201,67.2444976 C36.1947368,67.6014354 35.9650718,67.522488 31.0583732,65.215311 L28.4,63.9655502 L22.7110048,63.9655502 L17.022488,63.9655502 L16.5851675,64.4023923 C15.7507177,65.2373206 15.8330144,65.4330144 18.3411483,68.5598086 C19.3741627,69.8473684 20.9267943,71.9808612 21.7923445,73.3014354 C23.7832536,76.3406699 23.3602871,76.076555 26.237799,76.076555 C28.976555,76.076555 28.5191388,76.2210526 31.6985646,74.3492823 L33.7172249,73.1607656 L51.1435407,73.1215311 C71.423445,73.0760766 69.2287081,72.8645933 69.2287081,74.8631579 C69.2287081,76.8315789 69.7578947,76.9301435 73.6392344,75.684689 C76.7947368,74.6722488 81.4229665,71.6794258 81.7311005,70.4521531 C82.1598086,68.7454545 74.7110048,64.4492823 70.5741627,64.0172249 C69.4598086,63.9009569 69.277512,64.1157895 69.2043062,65.6339713 C69.1325359,67.1258373 68.908134,67.4043062 67.7779904,67.4043062 C67.1253589,67.4043062 66.9033493,67.3358852 66.6110048,67.0435407 C65.8875598,66.3200957 65.8909091,66.2827751 67.0416268,61.7727273 C71.3339713,44.95311 69.2650718,31.1186603 60.8555024,20.3990431 C59.5143541,18.6899522 54.8665072,14.0253589 54.1267943,13.6464115 C53.5258373,13.338756 49.4095694,13.2062201 47.0995215,13.4200957 M58.762201,54.4157895 C61.6282297,55.7406699 62.3641148,59.3138756 60.2473684,61.6296651 C57.3818182,64.7655502 52.3325359,62.8105263 52.3325359,58.5655502 C52.3325359,55.1818182 55.707177,53.0038278 58.762201,54.4157895" id="path0" fill="#000000"></path>
    </g>
</svg>