<?xml version="1.0" encoding="utf-8"?>
<!-- Generator: Adobe Illustrator 21.0.0, SVG Export Plug-In . SVG Version: 6.00 Build 0)  -->
<svg version="1.1" id="Layer_1" xmlns="http://www.w3.org/2000/svg" xmlns:xlink="http://www.w3.org/1999/xlink" x="0px" y="0px"
	 viewBox="0 0 320 320"  xml:space="preserve" width="20px" height="20px">
<g id="layer1">
	<g >
		<g id="_94089960">
			<path id="_91331920" d="M226.5,36.7c32.8,21.2,80,87.5,92.6,124c-12.7,36.7-59.9,102.7-92.6,124V36.7z"/>
			<path id="_93038808" d="M156.4,83.8c17.1,0,39,6.8,56.1,19.1V28.2c-17.1-10.6-37.9-16.9-62.2-16.9C67.7,11.3,0.9,78.2,0.9,160.7
				C0.9,243.4,67.7,310,150.3,310c24.4,0,45.2-6,62.2-16.7v-74.8c-17.1,12.3-39,19.3-56.1,19.3c-46.5,0-80.6-34-80.6-77
				C75.7,117.5,109.9,83.8,156.4,83.8z"/>
		</g>
	</g>
</g>
</svg>
