<?xml version="1.0" encoding="utf-8"?>
<!-- Generator: Adobe Illustrator 21.0.0, SVG Export Plug-In . SVG Version: 6.00 Build 0)  -->
<svg version="1.1" id="svg2" xmlns:svg="http://www.w3.org/2000/svg"
	 xmlns="http://www.w3.org/2000/svg" xmlns:xlink="http://www.w3.org/1999/xlink" x="0px" y="0px" viewBox="0 0 500 500"
	 style="enable-background:new 0 0 500 500;" xml:space="preserve" width="20px" height="20px">
<style type="text/css">
	.st0{fill:#231F20;}
</style>
<g id="g12" transform="matrix(1.25,0,0,-1.25,-280.44198,310.58746)">
	<path id="path158" class="st0" d="M424.3-18.5c-33.2,0-60.8,24.2-66.1,55.9l2,0.3c5.1-30.8,31.9-54.3,64.1-54.3
		c32.1,0,58.6,23.2,64,53.7c-1.4,0.2-1.6,0.2-3,0.4c-5.2-29.1-30.5-51.2-61-51.2c-30.7,0-56.2,22.3-61.1,51.5l2,0.3
		c1.8-10.6,6.4-20.3,13-28.2l21.5,27.4l-27.7,1l0.1,2l29.2-1.2l3.7,4.7l1.5-1.1l1.1,0.3c2-6.3,7.4-11.2,14.3-12.2
		c8.1-1.2,15.4,3.5,18.4,10.7c-5.1-1.2-9-3-9.2-3.1c-0.1-0.1-0.2-0.1-0.3-0.1c0,0-0.1,0-0.1,0c-0.1,0-0.3-0.1-0.3-0.1l-0.6,1.9
		c0,0,0.3,0.1,0.3,0.1c0,0,0.1,0.1,0.1,0.1c0.1,0.1,0.3,0.2,0.6,0.4c0.7,0.6,1.9,1.9,3.8,4.3h0.1v0.1c6.7,6.6,13.1,8.6,15.9,9
		c4.1,0.7,11.6,1.7,16.5,2.5l-19.8,0.8l-3.7-4.7l-1.2,0.9l-1.4-0.3c-1.9,6.4-7.3,11.4-14.3,12.4c-8.8,1.3-17-4.2-19.4-12.5l-1.4,0.4
		l-0.8-0.6l-3.8,4.7l-31.6-1.4l-0.1,2l30.1,1.4l-21.7,27.1c-6.7-8-11.3-17.8-13-28.6l-2,0.3c4.9,29.4,30.4,51.9,61.1,51.9
		c30.4,0,55.7-22,61-50.9c1,0.2,2,0.3,3,0.4c-5.5,30.4-32,53.5-64,53.5c-32.4,0-59.2-23.7-64.2-54.7l-1.9,0.3
		c5.1,31.9,32.7,56.3,66.1,56.3c32.9,0,60.3-23.8,65.9-55.1C541.7,68.1,605.4,77,605.4,77c1.5,0.2,5.3,0.8,9.1,0.6
		c1.9-0.1,3.9-0.4,5.5-1.2c1.7-0.8,3.1-2.1,3.8-3.9c1.1-2.7,0.3-5.6-1.4-8.6c-1.8-3-4.6-6-7.9-9c-36.7-32.6-77.1-24.9-77.1-24.9
		s-25,3.7-47.2,7C484.7,5.4,457.4-18.5,424.3-18.5L424.3-18.5z M423.1-11.5l-4.3,22.4L408.6-9.2C413.3-10.5,418.1-11.4,423.1-11.5
		L423.1-11.5z M425.6-11.5c5,0.1,9.8,1,14.4,2.3l-10.4,20.1L425.6-11.5L425.6-11.5z M406.3-8.6l2.1,22.6L392.9-2.7
		C397.1-5.2,401.6-7.1,406.3-8.6z M442.3-8.6c4.7,1.5,9.3,3.4,13.5,6L440,14L442.3-8.6L442.3-8.6z M424.3-7.2l3.8,20.9l-4,7.8
		l-3.8-7.7L424.3-7.2z M408.6-5l9.6,19l-1.6,8.5l-5.9-6.2L408.6-5z M440-5l-2.2,21.2l-6.1,6.3l-1.5-8.5L440-5L440-5z M391-1.2
		l8.4,21.1L379.9,8.3C383.2,4.7,386.9,1.5,391-1.2z M457.7-1.2c4.1,2.7,7.7,5.9,11,9.6l-19.6,11.3C449.1,19.7,457.7-1.2,457.7-1.2z
		 M394.2,1.5l14.6,15.6l0.9,8.8l-7.5-4.4L394.2,1.5L394.2,1.5z M454.4,1.5l-8.1,19.8l-7.6,4.3l0.9-8.5L454.4,1.5z M470.4,10.1
		c3.1,3.8,5.6,8,7.8,12.5l-22,5.4L470.4,10.1z M382.1,11.9l18.5,10.9l5.7,14.3l-4.2,0.2L382.1,11.9L382.1,11.9z M466.4,12
		l-13.3,16.5l-8.5,2.1l3.3-8L466.4,12L466.4,12z M428.7,16.9l1.4,7.4l-3,3.1l-1.9-3.7C425.2,23.7,428.7,16.9,428.7,16.9z M419.7,17
		l3.3,6.7l-2,3.8l-2.8-3.1L419.7,17z M437.4,19.4l-0.8,7.4l-3.8,2.1l-0.8-4L437.4,19.4L437.4,19.4z M411,19.5l5,5.5l-0.8,4.3
		l-3.6-2.1L411,19.5z M445.1,24.3l-2.9,6.9l-4.2,1l0.4-4.2L445.1,24.3L445.1,24.3z M403.3,24.5l6.5,3.8l0.6,5.9l0.7-0.1
		c-1,0.9-1.9,2-2.6,3.1L403.3,24.5L403.3,24.5z M479.3,24.7c1.8,4.2,3.2,8.6,4,13.2c-2.2,0.3-2.7,0.4-4.8,0.7l-18-0.9L479.3,24.7
		L479.3,24.7z M475.1,25.2l-17.7,12.4l-8.7-0.3l5.5-6.9C454.2,30.3,475.1,25.2,475.1,25.2z M424.1,25.8l1.8,3.5
		c-1.2-0.1-2.3-0.3-3.5-0.2L424.1,25.8L424.1,25.8z M430.5,26.7l0.7,3.8c-1.1-0.4-2.1-0.9-3.2-1.1L430.5,26.7L430.5,26.7z
		 M417.7,26.8l2.6,2.7c-1.1,0.2-2.3,0.5-3.3,0.9C417.1,30.4,417.7,26.8,417.7,26.8z M436.4,29.3L436,33c-0.9-0.7-1.9-1.3-3-1.8
		L436.4,29.3z M411.9,29.5l3.2,1.9c-1,0.5-1.9,1.1-2.8,1.8C412.3,33.2,411.9,29.5,411.9,29.5z M451.2,31l-4.9,6.1l-4.3-0.2l1.6-4
		L451.2,31z M544.5,31.2c12.8-0.6,41.7,1.1,68.7,25.1c3.3,2.9,5.9,5.9,7.5,8.6c1.6,2.7,2.1,5,1.4,6.9c-0.5,1.3-1.5,2.2-2.9,2.8
		c-1.4,0.6-3.1,0.9-4.9,1c-3.5,0.2-7.1-0.4-8.7-0.6c0,0-107.7-14.8-154.6-22.6c-2.5-0.4-8.4-2.2-14.8-8.4c-0.8-1.1-1.2-1.3-1.8-2
		c4.1,1.6,10.2,3.5,17.1,2.6c3.5-0.5,15.3-2.3,27.1-4c0,0,0,0,0.1,0c25.7-3.8,58.8-8.7,58.8-8.7h0.1
		C537.7,31.9,540.2,31.4,544.5,31.2L544.5,31.2z M441.4,33.4l-1.4,3.3c-0.7-0.9-1.7-1.6-2.6-2.4L441.4,33.4L441.4,33.4z M441,38.8
		l3.8,0.2l-2.2,2.9C442.2,40.8,441.6,39.8,441,38.8z M407.3,39c-0.5,1-1.1,1.9-1.4,3l-2.2-2.8L407.3,39L407.3,39z M447.2,39.1
		l7.6,0.3l-4.4,3.2c-2,0.2-3.9,0.2-5.9-0.1L447.2,39.1L447.2,39.1z M457.9,39.6l10.6,0.4c-5.2,0.8-11.8,1.8-14.3,2.1L457.9,39.6
		L457.9,39.6z M442.7,54.8l2.3,2.9l-3.7,0.2C441.9,56.9,442.4,55.9,442.7,54.8L442.7,54.8z M406.1,55.2c0.4,1.1,1,2.1,1.5,3.1
		l-3.8-0.2L406.1,55.2L406.1,55.2z M476.4,58.2c2.2,0.3,4.6,0.7,6.9,1c-1.9,10.4-6.4,19.8-12.9,27.6L449,59.5l27.5-1V58.2z
		 M446.6,59.6l19.9,25.3l-18.3-10.8l-5.8-14.3L446.6,59.6z M440.3,59.7l5,12.8l-6.4-3.8l-0.6-5.9l-0.8,0.1
		C438.6,61.9,439.5,60.8,440.3,59.7L440.3,59.7z M402.3,59.9l4.3,0.2l-5.8,14.2L382.1,85L402.3,59.9z M408.7,60.2
		c0.8,1.1,1.9,1.8,2.9,2.7l-0.9-0.1l-0.6,6.1l-6.6,3.8L408.7,60.2L408.7,60.2z M436.4,63.7l0.3,3.8l-3.2-1.9
		C434.6,65,435.5,64.4,436.4,63.7z M412.6,63.9c0.9,0.7,1.9,1.3,3,1.8l-3.4,2L412.6,63.9L412.6,63.9z M417.5,66.5
		c1.1,0.4,2.1,0.8,3.2,1l-2.6,2.7L417.5,66.5z M431.6,66.5l-0.7,3.7l-2.5-2.7C429.5,67.2,430.6,66.9,431.6,66.5z M422.8,67.7
		c1.2,0.1,2.3,0.3,3.5,0.2l-1.7,3.2L422.8,67.7L422.8,67.7z M433.4,67.7l3.7,2.1l0.7,7.6l-5.1-5.5L433.4,67.7z M415.7,68l0.8,4.1
		l-5.3,5.5l0.8-7.5L415.7,68L415.7,68z M427.6,69.5l2.9,3.1L429,80l-3.4-6.7L427.6,69.5z M421.5,69.6l1.9,3.8L420,80l-1.4-7.4
		L421.5,69.6L421.5,69.6z M439.1,71.1l7.4,4.3l7.9,19.8l-14.5-15.4L439.1,71.1z M409.9,71.3l-0.9,8.6l-14.8,15.5l8.2-19.8
		L409.9,71.3z M416.9,74.4l1.5,8.5l-9.8,19l2.2-21.1L416.9,74.4z M432.1,74.4l6,6.3l2,21.2l-9.6-19L432.1,74.4z M424.5,75.5l3.9,7.7
		l-4,21l-3.8-21L424.5,75.5L424.5,75.5z M449.3,77.1l19.4,11.5c-3.3,3.6-7,6.8-11,9.6L449.3,77.1z M399.5,77.3L391,98.1
		c-4.1-2.7-7.8-5.9-11.1-9.6L399.5,77.3z M440.2,83l15.6,16.5c-4.2,2.6-8.7,4.6-13.5,6.1L440.2,83L440.2,83z M408.6,83.1l-2.3,22.5
		c-4.7-1.5-9.3-3.4-13.4-6L408.6,83.1L408.6,83.1z M419,86l4.1,22.4c-5-0.1-9.8-1-14.5-2.2L419,86z M429.9,86l10.2,20.1
		c-4.6,1.3-9.5,2.2-14.5,2.3L429.9,86z"/>
	<path id="path160" class="st0" d="M362.9,84.2c-2.6-4.4-6.3-7.3-9.9-7.8l-0.6,5.4c2.8,0.8,4.9,2.7,6.4,5.2c1.8,3.1,1.9,5,0.3,5.9
		c-1.4,0.8-2.5,0.3-6.4-4.1c-3.7-4.3-7-6.9-11.3-4.4c-4,2.3-3.9,7.9-0.9,13.1c2.4,4.1,5.4,6.3,9,7.5l0.8-5.5
		c-2.4-0.8-4.3-2.2-5.7-4.6c-1.6-2.8-1.2-4.3-0.2-4.9c1.4-0.8,2.5,0.1,5.7,3.7c3.2,3.7,7.1,7.6,11.8,4.8
		C366.1,96.1,367.1,91.3,362.9,84.2"/>
	<path id="path162" class="st0" d="M371.5,123.6l-5.6-4.1l3.9-5.2l5.7,4.2c2.3,1.7,2.8,3.4,1.5,5.2
		C375.7,125.4,373.7,125.2,371.5,123.6z M378.1,114.3l-5.3-4l5.3-7.2l-4.9-3.6l-15,20.3l10.6,7.9c4.6,3.4,9.9,4.1,13.1-0.2
		C385.4,122.7,383.1,118,378.1,114.3"/>
	<path id="path164" class="st0" d="M408.7,128.5l2.3-9.7l-5.9-1.4l-2.2,9.6l-14.6,12.3l6.8,1.6l5.5-4.8c1.4-1.2,3.6-3.3,4.3-4.1
		c0.3,1,1.3,3.8,2.1,5.6l2.8,6.8l6.7,1.6L408.7,128.5"/>
	<path id="path166" class="st0" d="M446,117l-5.6,13.6l-5.7-3.7l-1.5-7.3l-5.9,1.2l5.1,24.7l5.9-1.2l-1.4-7
		c-0.2-0.9-0.7-3.1-0.9-3.9c0.5,0.5,1.9,1.4,2.8,2l10,6.7l7.2-1.5l-10.4-6.8l7.6-18.4L446,117"/>
	<path id="path168" class="st0" d="M457.4,112.6l14.6,20.5l17.1-12.2l-2.9-4l-12.2,8.7l-2.5-3.5l7.1-5l-2.8-4l-7.1,5l-3.5-5
		l12.7-9.1l-2.9-4L457.4,112.6"/>
	<path id="path170" class="st0" d="M504.2,93.6l-4.1,6.8l-5.6-3.3l4.1-6.8c1.4-2.4,3.1-3.2,5-2C505.7,89.4,505.6,91.3,504.2,93.6
		L504.2,93.6z M488.7,80l5,9.3l-3.1,5.2l-7.8-4.7l-3.1,5.2l21.6,13l7.2-12.1c2.9-4.9,3.1-10.3-1.5-13c-3.2-1.9-6.3-1.5-9.3,1.2
		l-5.4-10L488.7,80"/>
	<path id="path172" class="st0" d="M234.2,19.4c-1.9,0.1-3.9,0.4-5.5,1.2c-1.7,0.8-3.1,2.1-3.8,3.9c-1.1,2.7-0.3,5.6,1.4,8.6
		c1.8,3,4.6,6,7.9,9c36.7,32.6,77.1,24.9,77.1,24.9s75.2-11.2,86-12.7c9.4-1.3,20.6,4.1,20.6,4.1c0,0,0.2,0.1,0.2,0.1l0.1-0.2
		c1.8,1.1,3.8,2,6.1,2c2.3,0,4.4-0.8,6.2-2l0.1,0.2c0,0,11.1-5.4,20.6-4.1l0.3-2c-7.2-1-13.6,1.1-17.6,2.6c1.4-1.9,2.4-4.1,2.4-6.7
		c0-6.6-5.4-11.9-11.9-11.9c-2.4,0-4.4,0.9-6.3,2.1l-0.1-0.2c0,0-11.1,5.3-20.5,4c0,0-0.1,0-0.1,0c-47.2-7.8-154-22.4-154-22.4
		C241.8,19.9,238,19.2,234.2,19.4L234.2,19.4z M234.3,21.4c3.5-0.2,7.2,0.5,8.8,0.7c0,0,106.9,14.6,154,22.4c0.1,0,0.4,0.1,0.6,0.1
		c2.5,0.4,8.5,2.2,14.8,8.5c0.6,1,1.1,1.2,1.6,1.9c-4.1-1.6-10.2-3.5-17.1-2.6c-11,1.5-86,12.8-86,12.8s-39.5,7.5-75.5-24.5
		c-3.3-2.9-5.9-5.8-7.5-8.5c-1.6-2.7-2.1-5.1-1.4-7c0.5-1.3,1.5-2.2,2.9-2.8C230.9,21.8,232.5,21.5,234.3,21.4L234.3,21.4z
		 M424.3,38.5c5.5,0,10,4.5,10,10s-4.5,9.9-10,9.9c-5.5,0-9.9-4.4-9.9-9.9S418.8,38.5,424.3,38.5z M414.8,41.8
		c-1.4,1.9-2.4,4.2-2.4,6.7c0,0.9,0.3,1.6,0.5,2.4c-3.6-3.3-6.8-5.3-9.6-6.5C408.6,44,412,42.9,414.8,41.8L414.8,41.8z"/>
	<path id="path174" class="st0" d="M334.2,19.8l0.6-1.7l10.7,4c0,0,2.6,1,3,1.1c-0.6-0.5-3.4-3-3.4-3l-8.3-7.5l0.5-1.5l17.9,6.7
		l-0.6,1.7l-10.3-3.8c0,0-2.1-0.8-3-1.2c0.6,0.5,3.4,3,3.4,3l7.9,7.1c0,0,0,0,0,0c0,0.1-0.6,1.6-0.6,1.6l0,0.1L334.2,19.8"/>
	<path id="path176" class="st0" d="M343.7,11.1c-3.4-1.8-4.6-4.3-3.2-6.8c1.3-2.5,4.1-3,7.5-1.2l11.8,6.2l-0.9,1.7l-11.8-6.2
		c-2.4-1.3-4.1-1.2-4.9,0.4c-0.3,0.6-0.4,1.2-0.2,1.8c0.3,0.9,1.2,1.8,2.6,2.5l11.8,6.2l-0.9,1.6L343.7,11.1"/>
	<path id="path178" class="st0" d="M344.6-2.3l4.1-6l1.6,1.1c0,0-3,4.3-3.1,4.5c0.1,0.1,14.1,9.7,14.1,9.7l-1.1,1.5L344.6-2.3"/>
	<path id="path180" class="st0" d="M350.2-10.2l4.7-5.6l1.5,1.2c0,0-3.4,4-3.5,4.1C353-10.3,366,0.7,366,0.7l-1.2,1.4L350.2-10.2"/>
	<path id="path182" class="st0" d="M366.9-11.5c1.7,1.2,2.9,2.1,3.8,2.8c-0.5-0.7-2.6-4-2.6-4v0c0,0-2.4-3.9-2.5-4
		c-0.1,0.1-2.5,2.3-2.6,2.4C363.2-14.1,366.9-11.5,366.9-11.5L366.9-11.5z M356-17l1.3-1.3c0,0,4,2.8,4.1,2.9c0.1-0.1,3.1-2.9,3.1-3
		c-0.1-0.1-2.6-4.3-2.6-4.3l1.4-1.3l10.1,16.7l-1.4,1.3L356-17"/>
	<path id="path184" class="st0" d="M378.9-14.2c0,0,2.8-1.8,2.9-1.9c-0.1-0.1-9.3-14.4-9.3-14.4l1.6-1c0,0,9.2,14.3,9.3,14.5
		c0.1-0.1,2.9-1.9,2.9-1.9l1,1.6l-7.3,4.7L378.9-14.2"/>
	<path id="path186" class="st0" d="M379-34.5l6.9-3.5l0.9,1.7c0,0-5.1,2.5-5.2,2.6c0.1,0.1,3.2,6.4,3.3,6.5c0.1-0.1,3.1-1.6,3.1-1.6
		l0.9,1.7c0,0-3,1.5-3.1,1.6c0.1,0.1,2.6,5.2,2.7,5.4c0.1-0.1,5-2.5,5-2.5l0.9,1.7l-6.7,3.3L379-34.5"/>
	<path id="path188" class="st0" d="M388.2-39l1.7-0.6l3.9,10.8c0,0,0.9,2.6,1.1,3c0-0.8,0.1-4.5,0.1-4.5l0.4-11.2l1.5-0.5l6.4,18
		l-1.7,0.6l-3.7-10.3c0,0-0.7-2.1-1-3c0,0.8-0.1,4.5-0.1,4.5l-0.3,10.6c-0.1,0.1-1.6,0.6-1.6,0.6l-0.1,0L388.2-39"/>
	<path id="path190" class="st0" d="M407.3-32.8L407.3-32.8L407.3-32.8z M405.6-32.4c0.8,1.8,1.4,3.3,1.8,4.4c0-0.8-0.2-4.7-0.2-4.7
		c0,0-0.1-4.5-0.1-4.7c-0.2,0-3.3,0.7-3.5,0.8C403.8-36.6,405.6-32.4,405.6-32.4z M399.1-42.7l1.8-0.4c0,0,2,4.5,2,4.6
		c0.1,0,4.1-0.9,4.2-0.9c0-0.1-0.1-5-0.1-5l1.9-0.4l0.1,19.5l-1.9,0.4L399.1-42.7"/>
	<path id="path192" class="st0" d="M411.5-35.6c-0.6-6.3,0.7-10,3.8-10.3c2.1-0.2,3.5,0.9,4.6,3.6l0,0.1l-1.5,1l0-0.1
		c-0.9-2.1-1.7-2.8-2.9-2.7c-0.5,0-0.9,0.3-1.3,0.7c-1,1.2-1.3,3.8-0.9,7.5c0.5,5,1.8,7.8,3.7,7.6c1.2-0.1,1.7-0.9,2.2-3.2l0-0.1
		l1.8,0.7l0,0.1c-0.6,2.9-1.8,4.3-3.7,4.5C414.3-26,412.2-29.4,411.5-35.6"/>
	<path id="path194" class="st0" d="M422.2-46l1.9,0l0.3,19.1l-1.9,0L422.2-46"/>
	<path id="path196" class="st0" d="M431.8-26.6l2.1-19l1.9,0.2l-2.1,19L431.8-26.6"/>
	<path id="path198" class="st0" d="M442.3-24.8l2.2-10.7c0,0,0.5-2.4,0.7-3.1c-0.4,0.6-2.4,3.8-2.4,3.8L437-26
		c-0.1,0-1.7-0.3-1.7-0.3l-0.1,0l3.9-18.7l1.7,0.4l-2.3,11.2c0,0-0.6,2.7-0.7,3.1c0.4-0.6,2.4-3.8,2.4-3.8l6.1-9.4l1.5,0.3
		l-3.8,18.7L442.3-24.8"/>
	<path id="path200" class="st0" d="M455.7-40.6l-1.6-0.5l-9.9,16.6l1.6,0.6l5.9-10.2c0.9-1.6,1.8-3.2,2.4-4.4
		c-0.3,1.4-0.6,3.2-0.8,5l-1.6,11.6l1.6,0.6L455.7-40.6"/>
	<path id="path202" class="st0" d="M454.2-20.8l7.8-17.4l1.7,0.8L455.9-20L454.2-20.8"/>
	<path id="path204" class="st0" d="M464.1-24.5c-0.6,1.9-1.1,3.4-1.5,4.5c0.8-1,1.8-2.3,3-3.6l0,0c0,0,2.9-3.4,3.1-3.6
		c-0.2-0.1-2.9-1.6-3.1-1.7C465.4-28.7,464.1-24.5,464.1-24.5z M460.2-17.8l5.8-18.6l1.6,0.9c0,0-1.5,4.7-1.5,4.8
		c0.1,0.1,3.7,2,3.8,2.1c0.1-0.1,3.3-3.8,3.3-3.8l1.7,0.9l-12.9,14.7L460.2-17.8"/>
	<path id="path206" class="st0" d="M469.8-11.8L482-26.5l5.9,4.9l-1.2,1.5c0,0-4.4-3.6-4.5-3.7c-0.1,0.1-4.6,5.5-4.7,5.6
		c0.1,0.1,2.7,2.2,2.7,2.2l-1.2,1.5c0,0-2.6-2.1-2.7-2.2c-0.1,0.1-3.7,4.5-3.8,4.6c0.1,0.1,4.3,3.6,4.3,3.6L475.5-7L469.8-11.8"/>
	<path id="path208" class="st0" d="M478.2-3.9c-0.7-0.7-1.1-1.6-1.1-2.6c0-1.1,0.6-2.3,1.5-3.2c1.7-1.7,3.3-2.1,6.5-1.7
		c2.6,0.4,4.2-0.1,5.6-1.4c1.1-1.1,1.2-2.4,0.2-3.4c-0.8-0.8-1.9-0.8-3.8,0l-0.1,0l-0.6-1.8l0.1,0c2.4-1.2,4.3-1.1,5.7,0.4
		c1.7,1.8,1.6,4.3-0.4,6.3c-1.9,1.8-4,2.4-7.2,1.9c-2.8-0.4-3.8,0.1-4.9,1.1c-0.8,0.8-1.3,2-0.3,3c0.8,0.9,1.9,0.7,3.4,0.2l0.1,0
		l0.4,1.8l-0.1,0C481.6-2.6,479.8-2.2,478.2-3.9"/>
	<path id="path210" class="st0" d="M481-1.4l1.5-1.2c0,0,2,2.6,2.1,2.7c0.1-0.1,13.5-10.6,13.5-10.6l1.1,1.4
		c0,0-13.4,10.5-13.5,10.6c0.1,0.1,2.1,2.7,2.1,2.7l-1.5,1.2L481-1.4"/>
	<path id="path212" class="st0" d="M492.6,16.2l9.2-7.4c0,0,2.6-2,3.6-2.8c-0.8,0.2-4.3,1.4-4.3,1.4l-11.3,3.4l-0.9-1.7l18.8-5.3
		l0.8,1.6l-15,12.4L492.6,16.2"/>
	<path id="path214" class="st0" d="M493.6,18.7l17.6-7.3l0.7,1.7l-17.6,7.3L493.6,18.7"/>
	<path id="path216" class="st0" d="M503.8,24.5L503.8,24.5L503.8,24.5z M503.3,22.9c-1.8,1-3.2,1.7-4.2,2.2c0.8-0.1,4.7-0.6,4.7-0.6
		c0,0,4.5-0.5,4.7-0.5c-0.1-0.2-1-3.2-1.1-3.4C507.3,20.7,503.3,22.9,503.3,22.9z M496,25l17-9.6l0.5,1.8c0,0-4.3,2.4-4.4,2.4
		c0,0.1,1.2,4,1.3,4.1c0.1,0,5-0.5,5-0.5l0.6,1.8l-19.4,1.8L496,25"/>
	<path id="path218" class="st0" d="M424.3-56.5c-52.3,0-95.6,38.2-103.6,88.3l2,0.3C330.5-17,373-54.5,424.3-54.5
		c51.5,0,94.2,37.8,101.8,87.2l2-0.3C520.3-18,476.8-56.5,424.3-56.5z M369,22.2l-0.8,1.8L397,44.4l1.2-1.6l-24.6-17.5l38,9.6
		l0.5-1.9C412.1,33,369,22.2,369,22.2z M397.6,52.5L368.3,73l0.8,1.8l43.2-10.5l-0.4-1.9l-38.3,9.3l25.2-17.7L397.6,52.5L397.6,52.5
		z M451.9,52.7l-1.1,1.6l24.3,17.3l-37.9-9.6l-0.5,1.9l43,10.8l0.9-1.8L451.9,52.7L451.9,52.7z M322.6,64.3l-2,0.3
		c7.8,50.3,51.2,88.8,103.7,88.8c52.3,0,95.8-38.3,103.7-88.4l-2-0.3c-7.8,49.2-50.3,86.8-101.7,86.8
		C372.8,151.4,330.2,113.6,322.6,64.3z"/>
	<path id="path220" class="st0" d="M418.3,57.2l11.8-17.1l-2.2-1.2l-2.8-0.5l-2.4,0.1l-2.3,0.7l-1.6,0.9L430,57.4
		C426.8,60.1,421.4,59.7,418.3,57.2"/>
</g>
</svg>
