<?xml version="1.0" encoding="utf-8"?>
<!-- Generator: Adobe Illustrator 21.0.0, SVG Export Plug-In . SVG Version: 6.00 Build 0)  -->
<svg version="1.1" id="svg2" xmlns:svg="http://www.w3.org/2000/svg"
	 xmlns="http://www.w3.org/2000/svg" xmlns:xlink="http://www.w3.org/1999/xlink" x="0px" y="0px" viewBox="0 0 500 500"
	 style="enable-background:new 0 0 500 500;" xml:space="preserve" width="20px" height="20px">
<style type="text/css">
	.st0{fill:#231F20;}
</style>
<g>
	<path class="st0" d="M120.4,269.4c-50.3,7.2-97,13.6-97,13.6c-2,0.2-6.6,1.1-11,0.9c-2.2-0.1-4.3-0.5-6-1.2c-1.8-0.8-3-1.9-3.6-3.5
		c-0.9-2.4-0.3-5.4,1.8-8.8c2-3.4,5.2-7,9.4-10.6c45-40,94.4-30.6,94.4-30.6s4.6,0.7,12,1.8"/>
	<polygon class="st0" points="266.8,213.8 260.4,220.7 261.3,226 265.9,223.3 	"/>
	<polygon class="st0" points="269.7,183.2 257.7,207 259.7,217.6 267.2,209.7 	"/>
	<path class="st0" d="M276.2,220l-8,4.8l-0.8,7.4l-1-0.1c1.4,1.2,2.5,2.6,3.5,4L276.2,220z"/>
	<path class="st0" d="M261.4,228.6c1.4,0.8,2.5,1.5,3.6,2.4l0.4-4.8L261.4,228.6z"/>
	<polygon class="st0" points="255.8,210.6 251.6,219 254.1,223.7 257.7,219.8 	"/>
	<path class="st0" d="M255.1,226.2c1.4,0.4,2.8,0.8,4,1.2l-0.9-4.6L255.1,226.2z"/>
	<polygon class="st0" points="244.6,210.6 242.8,219.8 246.4,223.6 248.8,218.8 	"/>
	<path class="st0" d="M248.1,226c1.5-0.1,2.9-0.4,4.4-0.2l-2.1-4L248.1,226z"/>
	<path class="st0" d="M272.9,242.1l2.9-3.6l-4.6-0.2C271.9,239.5,272.6,240.7,272.9,242.1z"/>
	<polygon class="st0" points="302.7,204.5 279.8,218 272.6,235.8 277.8,236.1 	"/>
	<path class="st0" d="M173.3,328.5c0.1,0.1,3.1,2.9,3.2,3c0.1-0.1,3.1-5,3.1-5s2.6-4.1,3.2-5c-1.1,0.9-2.6,2-4.8,3.5
		C178.2,325,173.6,328.2,173.3,328.5z"/>
	<path class="st0" d="M224.1,356.3c0.2,0.1,4.1,1,4.4,1c0-0.2,0.1-5.9,0.1-5.9s0.2-4.9,0.2-5.9c-0.5,1.4-1.2,3.2-2.2,5.5
		C226.6,351.1,224.3,356.3,224.1,356.3z"/>
	<path class="st0" d="M181.7,240.1c-21.2-3.2-46.7-7-61.4-9.2l0.1,38.5c34.8-5,71.4-10.4,95.5-14.4c0.1,0,0.5-0.1,0.8-0.1
		c3.1-0.5,10.6-2.8,18.5-10.6c0.8-1.2,1.4-1.5,2-2.4c-5.1,2-12.8,4.4-21.4,3.2c-4.5-0.6-17.8-2.6-33.5-4.9l-0.7,0L181.7,240.1z"/>
	<path class="st0" d="M235.1,250c0-1.1,0.4-2,0.6-3c-4.5,4.1-8.5,6.6-12,8.1c6.6,0.5,10.9,1.9,14.4,3.2
		C236.3,256,235.1,253.1,235.1,250z"/>
	<path class="st0" d="M307.6,202.1l-26.7,34.1l34.4,1.2v0.4c2.7-0.4,5.7-0.9,8.5-1.2C321.3,223.6,315.7,211.8,307.6,202.1z"/>
	<path class="st0" d="M249.7,166.5c41.1,0,75.4,29.8,82.4,68.9c15.3-2.3,31.5-4.8,47.3-7.1c-10.3-62.1-64.4-109.4-129.4-109.4
		c-65.2,0-119.2,47.5-129.4,109.8c11.4,1.7,29.4,4.4,46.8,6.9C174.2,196.3,208.4,166.5,249.7,166.5z M346.2,175.6l9,15.1
		c3.6,6.1,3.9,12.9-1.9,16.2c-4,2.4-7.9,1.9-11.6-1.5l-6.7,12.5l-4.5-7.4l6.2-11.6l-3.9-6.5l-9.8,5.9l-3.9-6.5L346.2,175.6z
		 M309.6,144.2l21.4,15.2l-3.6,5l-15.2-10.9l-3.1,4.4l8.9,6.2l-3.5,5l-8.9-6.2l-4.4,6.2l15.9,11.4l-3.6,5l-22-15.8L309.6,144.2z
		 M260.1,128.7l7.4,1.5l-1.8,8.8c-0.2,1.1-0.9,3.9-1.1,4.9c0.6-0.6,2.4-1.8,3.5-2.5l12.5-8.4l9,1.9l-13,8.5l9.5,23l-9-2l-7-17
		l-7.1,4.6l-1.9,9.1l-7.4-1.5L260.1,128.7z M213.4,134.5l6.9,6c1.8,1.5,4.5,4.1,5.4,5.1c0.4-1.2,1.6-4.8,2.6-7l3.5-8.5l8.4-2
		l-9.7,21.9l2.9,12.1l-7.4,1.8l-2.8-12l-18.2-15.4L213.4,134.5z M180.6,151c5.8-4.2,12.4-5.1,16.4,0.2c4.4,6,1.5,11.9-4.8,16.5
		l-6.6,5l6.6,9l-6.1,4.5l-18.8-25.4L180.6,151z M168.4,194.5c-1.8-1-3.1-0.4-8,5.1c-4.6,5.4-8.8,8.6-14.1,5.5
		c-5-2.9-4.9-9.9-1.1-16.4c3-5.1,6.7-7.9,11.2-9.4l1,6.9c-3,1-5.4,2.8-7.1,5.8c-2,3.5-1.5,5.4-0.2,6.1c1.8,1,3.1-0.1,7.1-4.6
		c4-4.6,8.9-9.5,14.8-6c5.3,3,6.5,9,1.2,17.9c-3.2,5.5-7.9,9.1-12.4,9.8l-0.8-6.8c3.5-1,6.1-3.4,8-6.5
		C170.3,198,170.4,195.6,168.4,194.5z"/>
	<path class="st0" d="M349.1,200.2c2.6-1.4,2.5-3.8,0.8-6.6l-5.1-8.5l-7,4.1l5.1,8.5C344.6,200.7,346.7,201.7,349.1,200.2z"/>
	<path class="st0" d="M241.4,227.5c1.4-0.5,2.6-1,4-1.2l-3.2-3.4L241.4,227.5z"/>
	<path class="st0" d="M190.8,156c-1.6-2.1-4.1-1.9-6.9,0.1l-7,5.1l4.9,6.5l7.1-5.2C191.8,160.3,192.4,158.2,190.8,156z"/>
	<path class="st0" d="M234.1,232l-1.1,0.1l-0.8-7.6l-8.2-4.8l6.5,15.6C231.4,234,232.8,233.1,234.1,232z"/>
	<polygon class="st0" points="230.3,183.2 233.1,209.6 240.7,217.6 242.6,207 	"/>
	<path class="st0" d="M497.2,220.8c-0.6-1.6-1.9-2.8-3.6-3.5c-1.8-0.8-3.9-1.1-6.1-1.2c-4.4-0.2-8.9,0.5-10.9,0.8
		c0,0-46.7,6.4-97,13.7c-34.9,5-71.5,10.5-95.6,14.5l0,0.1c-0.5,0.1-1,0.1-1.5,0.2c-3.5,0.8-10.3,3.2-17.6,10.3
		c-0.9,1.2-1.4,1.5-2,2.2c-0.1,0.1-0.1,0.2-0.2,0.3c5.1-2,12.7-4.3,21.3-3.2c4.4,0.6,19.1,2.9,33.9,5c0,0,0,0,0.1,0
		c21.5,3.2,47.1,7,61.7,9.1c7.2,1.1,11.8,1.7,11.8,1.7h0.1c0.1,0,3.3,0.6,8.6,0.9c16,0.8,52.1-1.4,85.9-31.4
		c4.1-3.6,7.4-7.4,9.4-10.8C497.4,226.1,498.1,223.2,497.2,220.8z"/>
	<path class="st0" d="M269.7,178c-5.8-1.6-11.9-2.8-18.1-2.9l5.4,28L269.7,178z"/>
	<path class="st0" d="M272.4,178.6l-2.6,28.2l19.5-20.6C284.1,183,278.4,180.5,272.4,178.6z"/>
	<path class="st0" d="M242.9,239.8c-3.2,2.2-5.3,5.9-5.3,10.2c0,4.3,2.2,8.2,5.5,10.4l6.8-10.5L242.9,239.8z"/>
	<polygon class="st0" points="268.4,221.7 277.7,216.3 287.6,191.6 269.4,210.8 	"/>
	<path class="st0" d="M249.7,172.6c38,0,69.6,27.5,76.2,63.6c1.2-0.2,2.5-0.4,3.8-0.5c-6.9-38-40-66.9-80-66.9
		c-40,0-73.2,29-80,67.1c1.3,0.2,2.6,0.4,3.8,0.6C180,200.2,211.7,172.6,249.7,172.6z"/>
	<path class="st0" d="M303.4,239.8l-24.8-1l-3,3.8c2.6,0.3,5.3,0.3,7.8,0l0,0.2C288.8,242,297.6,240.8,303.4,239.8z"/>
	<path class="st0" d="M252.9,228.5c-10.2-1.5-19.7,4.3-23.4,13.3c7-1.6,12.4-4.2,12.4-4.2l0.3-0.1l0.1,0.2c2.2-1.4,4.8-2.5,7.6-2.5
		s5.5,1,7.8,2.5l0.1-0.2c0,0,5.3,2.6,12.1,4.2C267.1,234.8,260.8,229.6,252.9,228.5z"/>
	<path class="st0" d="M257,260.2c3.3-2.3,5.4-6,5.4-10.3c0-4.4-2.3-8.3-5.8-10.4l-6.7,10.4L257,260.2z"/>
	<path class="st0" d="M219.2,236l-27.1-33.9c-8.2,9.7-13.8,21.6-16.1,34.7c2,0.3,4,0.6,5.9,0.9L219.2,236z"/>
	<path class="st0" d="M305.4,199.8c-4.1-4.5-8.8-8.5-13.8-12l-10.5,26.4L305.4,199.8z"/>
	<polygon class="st0" points="220.6,217.7 197.2,204.3 222.4,235.7 227.8,235.5 	"/>
	<path class="st0" d="M227.2,241.6c0.5-1.4,1.2-2.6,1.9-3.9l-4.8,0.2L227.2,241.6z"/>
	<path class="st0" d="M261.9,241.8c1.8,2.4,3,5.1,3,8.4c0,0.8-0.1,1.6-0.2,2.3c3.9-3.5,7.7-5.8,10.9-7.3
		C270.1,244.7,265.3,243.1,261.9,241.8z"/>
	<path class="st0" d="M235.3,230.7c1.1-0.9,2.4-1.6,3.8-2.2l-4.2-2.5L235.3,230.7z"/>
	<polygon class="st0" points="234.6,223 239.2,225.6 240.2,220.5 233.6,213.6 	"/>
	<polygon class="st0" points="231.9,221.5 230.8,210.7 212.3,191.3 222.6,216.1 	"/>
	<path class="st0" d="M248.4,175.1c-6.2,0.1-12.2,1.2-18.1,2.8l13,25.2L248.4,175.1z"/>
	<path class="st0" d="M227.4,178.6c-5.9,1.9-11.6,4.2-16.8,7.5l19.6,20.6L227.4,178.6z"/>
	<polygon class="st0" points="250.2,216.2 255.1,206.6 250.1,180.3 245.3,206.6 	"/>
	<path class="st0" d="M208.3,188c-5.1,3.4-9.8,7.4-13.9,12l24.5,14L208.3,188z"/>
	<path class="st0" d="M295.2,263.5l23.5,16.2c2.2-5.2,4-10.8,5-16.5c-2.8-0.4-3.4-0.5-6-0.9L295.2,263.5z"/>
	<path class="st0" d="M291.3,263.6l-10.9,0.4l6.9,8.6c0,0.1,26.1,6.5,26.1,6.5L291.3,263.6z"/>
	<path class="st0" d="M272.8,258.2c-0.5,1.4-1.2,2.6-2,3.9l4.7-0.2L272.8,258.2z"/>
	<polygon class="st0" points="265.3,277.1 260.6,274.5 259.6,279.5 266.3,286.3 	"/>
	<path class="st0" d="M264.6,269.3c-1.1,0.9-2.4,1.6-3.8,2.2l4.2,2.4L264.6,269.3z"/>
	<path class="st0" d="M269.6,264.7c-0.9,1.1-2.1,2-3.3,3l5,1.1L269.6,264.7z"/>
	<path class="st0" d="M288.1,261.3l-5.5-4c-2.5-0.2-4.9-0.2-7.4,0.1l3.4,4.2L288.1,261.3z"/>
	<path class="st0" d="M249.9,333.7c-41,0-75.1-29.5-82.4-68.4c-15.1,2.3-31.2,4.6-46.9,6.9c10.5,62,64.4,109.1,129.3,109.1
		c65.2,0,119.3-47.5,129.5-109.9c-11.6-1.7-30.1-4.5-47.2-7C325.4,303.8,291.3,333.7,249.9,333.7z M140.6,294.7l10.4-9.4
		c0,0,3.5-3.1,4.2-3.8c-0.5,0.1-3.8,1.4-3.8,1.4l-13.4,5l-0.8-2.1l22.2-8.2v0.1c0,0,0.8,1.9,0.8,2l-9.9,8.9c0,0-3.5,3.1-4.2,3.8
		c1.1-0.5,3.8-1.5,3.8-1.5l12.9-4.8l0.8,2.1l-22.4,8.4L140.6,294.7z M145.2,305.2c-1.8-3.1-0.2-6.2,4-8.5l14.8-7.8l1.1,2l-14.7,7.8
		c-1.8,0.9-2.9,2-3.2,3.1c-0.2,0.8-0.1,1.5,0.2,2.2c1,2,3.1,2.1,6.1,0.5l14.7-7.8l1.1,2.1l-14.7,7.8
		C150.3,309,146.8,308.3,145.2,305.2z M150.3,313.5l19.5-13.5l1.4,1.9c0,0-17.5,12-17.6,12.1c0.1,0.2,3.9,5.6,3.9,5.6l-2,1.4
		L150.3,313.5z M157.3,323.3l18.2-15.4l1.5,1.8c0,0-16.2,13.8-16.4,14c0.1,0.1,4.4,5.1,4.4,5.1l-1.9,1.5L157.3,323.3z M171.9,339
		c0,0,3.1-5.2,3.3-5.4c0-0.1-3.8-3.6-3.9-3.8c-0.1,0.1-5.1,3.6-5.1,3.6l-1.6-1.6l20-13.8l1.7,1.6l-12.6,20.9L171.9,339z
		 M185.2,348.7c0,0,11.5-17.9,11.6-18c-0.1-0.1-3.6-2.4-3.6-2.4l1.4-2l9.1,5.9l-1.2,2c0,0-3.5-2.2-3.6-2.4
		c-0.1,0.2-11.6,18.1-11.6,18.1L185.2,348.7z M203.1,356l-1.1,2.1l-8.6-4.4l10.9-21.1l8.4,4.1l-1.1,2.1c0,0-6.1-3-6.2-3.1
		c-0.1,0.2-3.2,6.6-3.4,6.8c0.1,0.1,3.9,2,3.9,2l-1.1,2.1c0,0-3.8-1.9-3.9-2c-0.1,0.1-4,8-4.1,8.1C196.7,352.8,203.1,356,203.1,356z
		 M213.8,362.5l-0.5-14c0,0-0.1-4.6-0.1-5.6c-0.2,0.5-1.4,3.8-1.4,3.8l-4.9,13.5l-2.1-0.8l8.2-22.5h0.1c0,0,1.9,0.6,2,0.8l0.4,13.2
		c0,0,0.1,4.6,0.1,5.6c0.4-1.1,1.2-3.8,1.2-3.8l4.6-12.9l2.1,0.8l-8,22.5L213.8,362.5z M230.7,366.6l-2.4-0.5c0,0,0.1-6.1,0.1-6.2
		c-0.1,0-5.1-1.1-5.3-1.1c0,0.1-2.5,5.8-2.5,5.8l-2.2-0.5l10-22.2l2.4,0.5L230.7,366.6z M245.8,349.1l-2.2,0.9v-0.1
		c-0.6-2.9-1.2-3.9-2.8-4c-2.4-0.2-4,3.2-4.6,9.5c-0.5,4.6-0.1,7.9,1.1,9.4c0.5,0.5,1,0.9,1.6,0.9c1.5,0.1,2.5-0.8,3.6-3.4v-0.1
		l1.9,1.2v0.1c-1.4,3.4-3.1,4.8-5.8,4.5c-3.9-0.4-5.5-5-4.7-12.9c0.9-7.8,3.5-12,7.2-11.8c2.4,0.2,3.9,2,4.6,5.6V349.1z
		 M249.7,368.1h-2.4l0.4-23.9h2.4L249.7,368.1z M261.9,367.6l-2.6-23.8l2.4-0.2l2.6,23.8L261.9,367.6z M277.4,365l-7.6-11.8
		c0,0-2.5-4-3-4.8c0.1,0.5,0.9,3.9,0.9,3.9l2.9,14l-2.1,0.5l-4.9-23.4h0.1c0,0,2-0.4,2.1-0.4l7.2,11c0,0,2.5,4,3,4.8
		c-0.2-0.9-0.9-3.9-0.9-3.9l-2.8-13.4l2.1-0.4l4.7,23.4L277.4,365z M287.2,362l-12.4-20.8l2-0.8l7.4,12.8c1.1,2,2.2,4,3,5.5
		c-0.4-1.8-0.8-4-1-6.2l-2-14.5l2-0.8l3,24.1L287.2,362z M297.1,358.3l-9.8-21.8l2.1-1l9.8,21.8L297.1,358.3z M311.1,351.1
		c0,0-4-4.6-4.1-4.8c-0.1,0.1-4.6,2.5-4.7,2.6c0,0.1,1.9,6,1.9,6l-2,1.1l-7.2-23.2l2.2-1.2l16.1,18.4L311.1,351.1z M322.1,343.7
		l-15.3-18.4l7.1-6l1.6,1.9c0,0-5.2,4.4-5.4,4.5c0.1,0.1,4.6,5.6,4.8,5.8c0.1-0.1,3.4-2.8,3.4-2.8l1.5,1.9c0,0-3.2,2.6-3.4,2.8
		c0.1,0.1,5.8,6.9,5.9,7c0.1-0.1,5.6-4.6,5.6-4.6l1.5,1.9L322.1,343.7z M334.8,332.6c-1.8,1.9-4.1,2-7.1,0.5h-0.1l0.8-2.2h0.1
		c2.4,1,3.8,1,4.8,0c1.2-1.2,1.1-2.9-0.2-4.2c-1.8-1.6-3.8-2.2-7-1.8c-4,0.5-6,0-8.1-2.1c-1.1-1.1-1.9-2.6-1.9-4
		c0-1.2,0.5-2.4,1.4-3.2c2-2.1,4.2-1.6,6.2-0.8h0.1l-0.5,2.2h-0.1c-1.9-0.6-3.3-0.9-4.2,0.2c-1.2,1.2-0.6,2.8,0.4,3.8
		c1.4,1.2,2.6,1.9,6.1,1.4c4-0.6,6.6,0.1,9,2.4C336.8,327.2,336.9,330.3,334.8,332.6z M342.2,323.7c0,0-16.8-13.1-16.9-13.2
		c-0.1,0.1-2.6,3.4-2.6,3.4l-1.9-1.5l6.6-8.5l1.9,1.5c0,0-2.5,3.2-2.6,3.4c0.1,0.1,16.9,13.2,16.9,13.2L342.2,323.7z M340.3,277.1
		l24.2,2.2l-0.8,2.2c0,0-6.1-0.6-6.3-0.6c-0.1,0.1-1.6,5-1.6,5.1c0.1,0,5.5,3,5.5,3l-0.6,2.2l-21.2-12L340.3,277.1z M337.4,285.1
		l22,9.1l-0.9,2.1l-22-9.1L337.4,285.1z M336.4,288.3l18.8,15.5l-1,2l-23.5-6.6l1.1-2.1l14.1,4.2c0,0,4.4,1.5,5.4,1.8
		c-1.2-1-4.5-3.5-4.5-3.5l-11.5-9.2L336.4,288.3z"/>
	<path class="st0" d="M305.2,260.6c-6.5-1-14.8-2.2-17.9-2.6l4.6,3.1L305.2,260.6z"/>
	<polygon class="st0" points="287.6,308.7 277.4,284 267.9,278.6 269.1,289.2 	"/>
	<polygon class="st0" points="285.9,275 275.3,272.3 279.4,282.3 302.6,295.6 	"/>
	<polygon class="st0" points="283.6,271.8 277.4,264.2 272.1,264.5 274.1,269.5 	"/>
	<polygon class="st0" points="267.6,275.6 275.9,280.2 272.3,271.6 267.1,270.3 	"/>
	<polygon class="st0" points="222.3,283.7 212.3,308.7 230.6,289.2 231.7,278.2 	"/>
	<polygon class="st0" points="233.3,286.2 239.6,279.3 238.6,274 234.1,276.6 	"/>
	<path class="st0" d="M258.6,272.5c-1.4,0.5-2.6,1.1-4,1.4l3.1,3.4L258.6,272.5z"/>
	<path class="st0" d="M223.7,280l8.1-4.8l0.8-7.4l0.9,0.1c-1.2-1.1-2.4-2.5-3.2-3.9L223.7,280z"/>
	<path class="st0" d="M226.9,258.1l-2.8,3.5l4.5,0.2C228.1,260.6,227.3,259.5,226.9,258.1z"/>
	<path class="st0" d="M238.4,271.3c-1.2-0.6-2.4-1.4-3.5-2.2c0,0-0.5,4.6-0.5,4.6L238.4,271.3z"/>
	<polygon class="st0" points="255.4,289.5 257.2,280.2 253.4,276.3 251.1,281 	"/>
	<polygon class="st0" points="230.3,316.8 242.3,293.1 240.3,282.5 232.9,290.2 	"/>
	<path class="st0" d="M251.9,274c-1.5,0.1-2.9,0.4-4.4,0.2l2.1,4.1L251.9,274z"/>
	<polygon class="st0" points="244.2,289.3 248.3,281 245.8,276.2 242.3,280.1 	"/>
	<path class="st0" d="M244.9,273.7c-1.4-0.2-2.9-0.6-4.1-1.1c0.1,0,0.9,4.5,0.9,4.5L244.9,273.7z"/>
	<path class="st0" d="M194.4,300.2c4.1,4.5,8.8,8.5,13.9,11.9l10.5-26.4L194.4,300.2z"/>
	<polygon class="st0" points="249.7,283.7 244.9,293.3 249.9,319.6 254.7,293.5 	"/>
	<path class="st0" d="M227.4,321.3l2.6-28.2L210.7,314C215.9,317.1,221.6,319.5,227.4,321.3z"/>
	<path class="st0" d="M230.3,322.1c5.9,1.6,11.9,2.8,18.1,2.9l-5.4-28L230.3,322.1z"/>
	<path class="st0" d="M242.2,262.5l-0.1,0.2c0,0-5.4-2.6-12.4-4.1c2.9,7,9.3,12.4,17.2,13.5c10.1,1.5,19.2-4.4,23-13.4
		c-6.4,1.5-11.2,3.8-11.5,3.9c-0.1,0.1-0.2,0.1-0.4,0.1c-2.3,1.5-5.1,2.4-8,2.4C247.1,265.1,244.6,264,242.2,262.5z"/>
	<polygon class="st0" points="259.2,282.5 257.3,293.1 269.6,316.8 266.8,290.3 	"/>
	<path class="st0" d="M194.9,239.6c10.1,1.5,18,2.6,21.2,3.1c2.7,0.4,5.6,0.3,8.4,0l-3.4-4.2L194.9,239.6z"/>
	<path class="st0" d="M307.6,298c3.9-4.8,7-10,9.8-15.6l-27.5-6.8L307.6,298z"/>
	<path class="st0" d="M291.7,312.1c5.1-3.4,9.6-7.4,13.8-12L280.9,286L291.7,312.1z"/>
	<path class="st0" d="M216.4,257.7h-0.1c-5.7,0.9-12,2-18.9,3l23.8,1l3.2-4C221.7,257.4,219,257.4,216.4,257.7z"/>
	<path class="st0" d="M301.6,346.7c0.2-0.1,3.6-2,3.9-2.1c-0.2-0.2-3.9-4.5-3.9-4.5c-1.5-1.6-2.8-3.2-3.8-4.5
		c0.5,1.4,1.1,3.2,1.9,5.6C299.7,341.2,301.3,346.5,301.6,346.7z"/>
	<path class="st0" d="M272.4,321.3c5.9-1.9,11.6-4.2,16.9-7.5l-19.7-20.8L272.4,321.3z"/>
	<path class="st0" d="M251.6,325c6.2-0.1,12.2-1.2,18-2.9l-13-25.1L251.6,325z"/>
	<path class="st0" d="M192.3,298.2l26.9-34.2l-34.6-1.2c-2.7,0.4-5.5,0.8-8.3,1.3C178.6,276.8,184.3,288.6,192.3,298.2z"/>
	<polygon class="st0" points="227.4,264.2 222.2,264 197.2,295.7 220.3,282.1 	"/>
	<path class="st0" d="M249.9,331.3c40.1,0,73.2-29,80-67.1c-1.8-0.2-2-0.2-3.8-0.5c-6.5,36.4-38.1,64-76.2,64
		c-38,0-69.6-27.4-76.2-63.4c-1.2,0.2-2.4,0.4-3.7,0.5C177,302.7,210.2,331.3,249.9,331.3z"/>
	<path class="st0" d="M343.4,279.2c1.2,0.6,3,1.5,5.2,2.8c0,0,5,2.8,5.1,2.9c0.1-0.2,1.2-4,1.4-4.2c-0.3,0-5.9-0.6-5.9-0.6
		S344.4,279.3,343.4,279.2z"/>
</g>
</svg>
