<?xml version="1.0" encoding="utf-8"?>
<!-- Generator: Adobe Illustrator 21.0.0, SVG Export Plug-In . SVG Version: 6.00 Build 0)  -->
<svg version="1.1" id="Layer_1" xmlns="http://www.w3.org/2000/svg" xmlns:xlink="http://www.w3.org/1999/xlink" x="0px" y="0px"
	 viewBox="0 0 612 612" style="enable-background:new 0 0 612 612;" xml:space="preserve" width="20px" height="20px">
<path d="M517.3,164.1c-55.8-32.5-130.7-54.4-212-54.4S149.8,131.6,94,164.1C36.7,198,0,245.4,0,292.7c0,46.7,36,93.3,94,127.2
	c55.1,32.5,130,53.7,211.3,53.7s156.9-21.2,212-53.7c58-33.9,94.7-80.6,94.7-127.2C612,244.7,575.3,198,517.3,164.1z M453,208.6
	l12-29.7l13.4,29.7l58.7,12l-58.7,12.1l-12,32.5L453,232.7l-53.7-12.1L453,208.6z M432.5,309l-58.7,13.4l-12,31.1L348.4,321
	l-53.7-12l53.7-12l12-29.7l13.4,29.7L432.5,309z M38.9,256.7l125.8-26.9l28.2-72.1l29.7,68.6l137.8,30.4L224,284.9l-29.7,75
	l-29.6-76.4L38.9,256.7z M269.3,403l-12.1,31.8l-13.4-33.2L190.1,391l53.7-12.1l12-31.1l13.5,29.7l57.9,13.5L269.3,403z
	 M424.7,392.4l-13.4,31.8l-13.4-31.8l-52.3-12l52.3-12.1l13.4-29.6l12,28.2l60.1,13.5L424.7,392.4z M515.9,322.4l-12,31.1L490.4,321
	l-52.2-12l52.2-12l13.5-29.7l12,29.7l58.6,12L515.9,322.4z"/>
</svg>
