<?xml version="1.0" encoding="utf-8"?>
<!-- Generator: Adobe Illustrator 21.0.0, SVG Export Plug-In . SVG Version: 6.00 Build 0)  -->
<svg version="1.1" id="Layer_1" xmlns="http://www.w3.org/2000/svg" xmlns:xlink="http://www.w3.org/1999/xlink" x="0px" y="0px"
	 viewBox="0 0 612 612" style="enable-background:new 0 0 612 612;" xml:space="preserve" width="20px" height="20px">
<g>
	<path d="M305.3,118.9c-79.2,0-152.6,21.2-206.4,53C43.8,204.4,9.2,248.2,9.2,292.7c0,43.8,34.6,86.9,89,119.4
		c54.4,31.8,127.2,52.3,207.1,52.3c79.9,0,153.4-20.5,207.8-52.3c55.1-32.5,89.8-75.6,89.8-119.4c0-44.5-34.6-88.3-90.5-120.8
		C458.6,140.1,385.1,118.9,305.3,118.9L305.3,118.9z M94,164.1c55.8-32.5,130-54.4,211.3-54.4c81.3,0,156.2,21.9,212,54.4
		C575.3,198,612,244.7,612,292.7c0,46.6-36.7,93.3-94.7,127.2c-55.1,32.5-130.7,53.7-212,53.7S149.1,452.4,94,419.9
		C36,386,0,339.4,0,292.7C0,245.4,36.7,198,94,164.1L94,164.1z"/>
	<polygon points="222.6,226.3 360.4,256.7 224,284.9 194.3,359.9 164.7,283.5 38.9,256.7 164.7,229.8 192.9,157.7 	"/>
	<polygon points="373.8,297 432.5,309 373.8,322.4 361.8,353.5 348.4,321 294.7,309 348.4,297 360.4,267.3 	"/>
	<polygon points="515.9,297 574.5,309 515.9,322.4 503.9,353.5 490.4,321 438.2,309 490.4,297 503.9,267.3 	"/>
	<polygon points="478.4,208.6 537.1,220.6 478.4,232.7 466.4,265.2 453,232.7 399.3,220.6 453,208.6 465,178.9 	"/>
	<polygon points="423.3,366.9 483.4,380.4 424.7,392.4 411.3,424.2 397.9,392.4 345.6,380.4 397.9,368.3 411.3,338.7 	"/>
	<polygon points="269.3,377.5 327.2,391 269.3,403 257.2,434.8 243.8,401.6 190.1,391 243.8,378.9 255.8,347.8 	"/>
</g>
</svg>
