<?xml version="1.0" encoding="utf-8"?>
<!-- Generator: Adobe Illustrator 21.0.0, SVG Export Plug-In . SVG Version: 6.00 Build 0)  -->
<svg version="1.1"
	 id="svg2" inkscape:version="0.48.1 " sodipodi:docname="AJAX.svg" xmlns:cc="http://creativecommons.org/ns#" xmlns:dc="http://purl.org/dc/elements/1.1/" xmlns:inkscape="http://www.inkscape.org/namespaces/inkscape" xmlns:rdf="http://www.w3.org/1999/02/22-rdf-syntax-ns#" xmlns:sodipodi="http://sodipodi.sourceforge.net/DTD/sodipodi-0.dtd" xmlns:svg="http://www.w3.org/2000/svg"
	 xmlns="http://www.w3.org/2000/svg" xmlns:xlink="http://www.w3.org/1999/xlink" x="0px" y="0px" viewBox="0 0 951.1 951.1" width="20px" height="20px"
	 style="enable-background:new 0 0 951.1 951.1;" xml:space="preserve">
<defs>
	
	
		<inkscape:perspective  id="perspective3231" inkscape:persp3d-origin="372.04724 : 350.78739 : 1" inkscape:vp_x="0 : 526.18109 : 1" inkscape:vp_y="0 : 1000 : 0" inkscape:vp_z="744.09448 : 526.18109 : 1" sodipodi:type="inkscape:persp3d">
		</inkscape:perspective>
</defs>
<sodipodi:namedview  bordercolor="#666666" borderopacity="1.0" fit-margin-bottom="0" fit-margin-left="0" fit-margin-right="0" fit-margin-top="0" id="base" inkscape:current-layer="g3308" inkscape:cx="9.9885239" inkscape:cy="120.73843" inkscape:document-units="px" inkscape:pageopacity="0.0" inkscape:pageshadow="2" inkscape:window-height="794" inkscape:window-maximized="0" inkscape:window-width="1280" inkscape:window-x="0" inkscape:window-y="0" inkscape:zoom="1.4" pagecolor="#ffffff" showgrid="false">
	</sodipodi:namedview>
<g id="layer1" transform="translate(-87.778474,-79.89161)" inkscape:groupmode="layer" inkscape:label="Layer 1">
	<g id="g3308">
		<path id="path3213" inkscape:connector-curvature="0" d="M1029.1,734.5c0,0-87.2,25.3-256.3,129.2
			C621,957,561.5,1019.7,561.5,1019.7L93.7,696.4c0,0,196.8-144.7,361.3-33.9l220.6,151.3l26.9-17.7L93.7,369.8
			c0,0,87.5-25.3,256.6-129.2C502.2,147.2,561.5,84.5,561.5,84.5l468,323.3c0,0-196.8,144.8-361.3,33.9L447.6,290.3L420.7,308
			L1029.1,734.5"/>
	</g>
</g>
</svg>
