<?xml version="1.0" encoding="utf-8"?>
<!-- Generator: Adobe Illustrator 21.0.0, SVG Export Plug-In . SVG Version: 6.00 Build 0)  -->
<svg version="1.1" id="Layer_1" xmlns="http://www.w3.org/2000/svg" xmlns:xlink="http://www.w3.org/1999/xlink" x="0px" y="0px"
	 viewBox="0 0 320 320" style="enable-background:new 0 0 320 320;" xml:space="preserve" width="20px" height="20px">
<title>brand-icon-tesla-solid1</title>
<g id="tesla">
	<g id="T">
		<path d="M160,318l44.4-249.7c42.3,0,55.7,4.7,57.6,23.6c0,0,28.4-10.6,42.7-32.1c-55.9-25.9-112-27.1-112-27.1l-32.8,39.9h0.1
			l-32.8-39.9c0,0-56.1,1.2-112,27.1c14.3,21.5,42.7,32.1,42.7,32.1c2-18.9,15.3-23.6,57.3-23.6L160,318z"/>
		<path d="M160,21.2c45.2-0.4,96.8,7,149.8,30.1c7.1-12.7,8.9-18.4,8.9-18.4C268.2,12.8,214.4,2.3,160,2
			C105.6,2.3,51.8,12.8,1.3,32.9c2.6,6.3,5.5,12.4,8.9,18.4C63.1,28.2,114.8,20.9,160,21.2L160,21.2"/>
	</g>
</g>
</svg>
