<?xml version="1.0" encoding="utf-8"?>
<!-- Generator: Adobe Illustrator 21.0.0, SVG Export Plug-In . SVG Version: 6.00 Build 0)  -->
<svg version="1.1" id="Layer_1" xmlns="http://www.w3.org/2000/svg" xmlns:xlink="http://www.w3.org/1999/xlink" x="0px" y="0px"
	 viewBox="0 0 548 548" style="enable-background:new 0 0 548 548;" xml:space="preserve" width="20px" height="20px">
<g>
	<path d="M273.3,99.6C123.9,99.6,2,177.6,2,273.3s121.9,173.7,271.3,173.7c149.4,0,271.3-78,271.3-173.7S422.7,99.6,273.3,99.6
		L273.3,99.6z M348.4,131.8c24,4.6,46.5,11.4,66.7,20c17.4,9,27.6,19.6,27.6,31.1c0,23.2-41.6,43.3-101,52.1
		c-4.1-44.8-15.1-83.1-29.9-107.6C324.6,128.4,336.8,129.9,348.4,131.8L348.4,131.8z M273.3,125.9c22.5,0,41.4,47.7,46.7,111.8
		c-14.9,1.4-30.5,2.2-46.7,2.2c-16.2,0-31.9-0.8-46.7-2.2C231.9,173.5,250.9,125.9,273.3,125.9L273.3,125.9z M131.5,151.8
		c20.2-8.6,42.7-15.3,66.7-20c11.5-1.9,23.8-3.4,36.6-4.4C220,151.9,209,190.3,204.9,235c-59.4-8.9-101-28.9-101-52.1
		C103.9,171.4,114.1,160.7,131.5,151.8L131.5,151.8z M26.1,273.3c0-34.9,20.2-67,53.9-92.4c-0.1,1.2-0.2,2.4-0.2,3.6
		c0,34.1,51.4,63.4,123.6,75.1c-0.2,4.9-0.2,9.8-0.2,14.8c0,60.4,12.2,113.8,30.8,145.5C116.4,408.6,26.1,347.1,26.1,273.3
		L26.1,273.3z M279.3,421.8c-2,0-4,0-6,0c-2,0-4,0-6,0c-23.8-9.1-42.3-71.8-42.3-147.4c0-4,0.1-7.9,0.2-11.8
		c15.4,1.6,31.5,2.5,48.1,2.5c16.6,0,32.7-0.9,48.1-2.5c0.1,3.9,0.2,7.9,0.2,11.8C321.5,350,303,412.7,279.3,421.8L279.3,421.8z
		 M312.6,420c18.6-31.7,30.8-85.1,30.8-145.5c0-5-0.1-9.9-0.2-14.8c72.2-11.7,123.6-41,123.6-75.1c0-1.2-0.1-2.4-0.2-3.6
		c33.7,25.4,53.9,57.5,53.9,92.4C520.5,347.1,430.2,408.6,312.6,420L312.6,420z"/>
</g>
</svg>
