<?xml version="1.0" encoding="utf-8"?>
<!-- Generator: Adobe Illustrator 21.0.0, SVG Export Plug-In . SVG Version: 6.00 Build 0)  -->
<svg version="1.1" id="Layer_1" xmlns="http://www.w3.org/2000/svg" xmlns:xlink="http://www.w3.org/1999/xlink" x="0px" y="0px"
	 viewBox="0 0 527 527" style="enable-background:new 0 0 527 527;" xml:space="preserve" width="20px" height="20px">
<g>
	<path d="M263.3,3.7C120.2,3.7,3.5,120.4,3.5,263.5c0,143.1,116.7,259.8,259.8,259.8c143.1,0,259.8-116.7,259.8-259.8
		C523,120.4,406.3,3.7,263.3,3.7L263.3,3.7z M263.3,493.3c-126.6,0-229.8-103.2-229.8-229.8c0-126.6,103.2-229.8,229.8-229.8
		s229.8,103.2,229.8,229.8C493.1,390.1,389.8,493.3,263.3,493.3L263.3,493.3z"/>
	<path d="M188.9,439.1C120.6,410,72.6,342.2,72.6,263.5c0-20,3.1-39.3,8.9-57.5L188.9,439.1L188.9,439.1z"/>
	<path d="M316.2,446.7c-16.8,4.9-34.6,7.5-53,7.5c-18.4,0-36.1-2.6-52.9-7.5l52.9-123.5L316.2,446.7L316.2,446.7z"/>
	<path d="M445.1,206.1c5.8,18.1,8.9,37.4,8.9,57.4c0,78.7-48.1,146.5-116.3,175.5L445.1,206.1L445.1,206.1z"/>
	<path d="M359.4,98.9c23.3,13.7,43.4,32.1,59.1,54l-95,201.9l-32-77.1h-56.4l-32,77.1l-95-201.9c15.7-21.9,35.8-40.4,59.1-54
		l66.6,155.5h59L359.4,98.9L359.4,98.9z"/>
	<path d="M263.3,72.8c18.6,0,36.7,2.7,53.7,7.7l-53.7,129.3L209.6,80.5C226.6,75.5,244.6,72.8,263.3,72.8L263.3,72.8z"/>
</g>
</svg>
