<?xml version="1.0" encoding="utf-8"?>
<!-- Generator: Adobe Illustrator 21.0.0, SVG Export Plug-In . SVG Version: 6.00 Build 0)  -->
<svg version="1.1" id="Layer_1" xmlns="http://www.w3.org/2000/svg" xmlns:xlink="http://www.w3.org/1999/xlink" x="0px" y="0px"
	 viewBox="0 0 612 612" style="enable-background:new 0 0 612 612;" xml:space="preserve" width="20px" height="20px">
<g>
	<path d="M263.5,332.1V344h109.2v-35.9h-12.4c-0.6,11.3-6.8,23-22.8,24h-19.3v-54.5h18.6v-12h-73v12h18v54.5H263.5L263.5,332.1z
		 M203.1,345.7c-29.9,0-55.1-15.3-55.1-39.8c0-27.3,25.1-40.8,55.1-40.8c33.5,0,54.9,15.3,54.9,40.8
		C258,330.2,233.9,345.7,203.1,345.7L203.1,345.7z M203.1,332.4c10.4,0,18.1-12.1,18.1-26.6c0-16.1-7-28.1-18.1-28.1
		c-11.1,0-17.9,12-17.9,28.1C185.2,322.1,192,332.4,203.1,332.4L203.1,332.4z M2.4,265.7v12h18.3l36.1,66.2h43.1l36.9-66.2h18.2v-12
		H99.8v12h15.8l-26.6,48l-26.3-48h19.3v-12H2.4L2.4,265.7z M354.6,265.7h79.7v12h-19.4l26.3,48l26.8-48H452v-12h55.1v12H489
		l-37,66.2h-43.1l-36.1-66.2h-18.2V265.7L354.6,265.7z M555,345.7c30.8,0,54.9-15.5,54.9-39.8c0-25.5-21.5-40.8-54.9-40.8
		c-29.9,0-55.1,13.5-55.1,40.8C499.9,330.4,525.1,345.7,555,345.7L555,345.7z M555,332.4c-11.1,0-17.8-10.3-17.8-26.6
		c0-16.1,6.8-28.1,17.8-28.1s18.1,12,18.1,28.1C573.1,320.3,565.5,332.4,555,332.4L555,332.4z"/>
</g>
</svg>
