<?xml version="1.0" encoding="utf-8"?>
<!-- Generator: Adobe Illustrator 21.0.0, SVG Export Plug-In . SVG Version: 6.00 Build 0)  -->
<svg version="1.1" id="Layer_1" xmlns="http://www.w3.org/2000/svg" xmlns:xlink="http://www.w3.org/1999/xlink" x="0px" y="0px"
	 viewBox="0 0 100 100" style="enable-background:new 0 0 100 100;" xml:space="preserve" width="20px" height="20px">
<g id="volvo-logo-grey">
	<path d="M90.1,20l2.4-2.4c1.7,2.2,3.1,4.6,4.6,7.1h1.9V1.1H75.3V3c2.5,1.3,4.7,2.8,6.9,4.6l-2.4,2.4C71.5,3.6,61.2,0,50,0
		C22.3,0,0,22.3,0,50c0,27.7,22.3,50,50,50c27.7,0,50-22.3,50-50C100,38.7,96.2,28.3,90.1,20z M86.5,59C82.4,75.3,67.6,87.6,50,87.6
		c-17.6,0-32.5-12.1-36.5-28.6H86.5z M13.4,40.9c4.1-16.4,18.9-28.6,36.5-28.6s32.5,12.1,36.5,28.6H13.4z M76.7,49.8
		c0-1.7,0.9-3.3,2.4-3.3c1.4,0,2.2,1.6,2.2,3.5c0,1.7-0.8,3.5-2.4,3.5C77.3,53.3,76.7,51.6,76.7,49.8z M35.2,49.8
		c0-1.7,0.9-3.3,2.4-3.3c1.4,0,2.2,1.6,2.2,3.5c0,1.7-0.8,3.5-2.4,3.5C35.8,53.3,35.2,51.6,35.2,49.8z M37.6,45
		c4.4,0,6.6,2.2,6.6,4.9s-2.2,4.9-6.6,4.9S31,52.5,31,49.8S33.2,45,37.6,45z M24.1,52.4l3.1-5.8h-1.9v-1.4h6.4v1.4h-2.2l-4.2,7.9h-5
		l-4.4-7.9h-2.2v-1.4h9.4v1.4h-2.2L24.1,52.4L24.1,52.4z M79.1,45c4.4,0,6.6,2.2,6.6,4.9c0,2.7-2.2,4.9-6.6,4.9
		c-4.4,0-6.6-2.2-6.6-4.9S74.7,45,79.1,45L79.1,45z M57.5,46.7h-2.2v-1.4h9.4v1.4h-2.2l3.1,5.8l3.1-5.8H67v-1.4h6.4v1.4h-2.2
		L67,54.6h-5C61.9,54.6,57.5,46.7,57.5,46.7z M46.8,46.7h-2.2v-1.4h8.6v1.4h-2.2v6.4h2c1.9,0,3-1.3,3-2.8h1.4v4.4H44.6v-1.4h2.2
		L46.8,46.7L46.8,46.7z"/>
</g>
</svg>
